ISO-10303-21;
HEADER;
/* Generated by software containing ST-Developer
 * from STEP Tools, Inc. (www.steptools.com) 
 */

FILE_DESCRIPTION(
/* description */ (''),
/* implementation_level */ '2;1');

FILE_NAME(
/* name */ 'Enclosure_top.step',
/* time_stamp */ '2026-05-31T18:08:58+02:00',
/* author */ (''),
/* organization */ (''),
/* preprocessor_version */ 'ST-DEVELOPER v20.1',
/* originating_system */ 'Autodesk Translation Framework v15.8.0.0',
/* authorisation */ '');

FILE_SCHEMA (('AUTOMOTIVE_DESIGN { 1 0 10303 214 3 1 1 }'));
ENDSEC;

DATA;
#10=MECHANICAL_DESIGN_GEOMETRIC_PRESENTATION_REPRESENTATION('',(#13),#2039);
#11=SHAPE_REPRESENTATION_RELATIONSHIP('SRR','None',#2046,#12);
#12=ADVANCED_BREP_SHAPE_REPRESENTATION('',(#14),#2038);
#13=STYLED_ITEM('',(#2055),#14);
#14=MANIFOLD_SOLID_BREP('Body1',#1206);
#15=CYLINDRICAL_SURFACE('',#1227,2.5);
#16=CYLINDRICAL_SURFACE('',#1231,2.5);
#17=CYLINDRICAL_SURFACE('',#1240,2.5);
#18=CYLINDRICAL_SURFACE('',#1244,2.5);
#19=CYLINDRICAL_SURFACE('',#1257,2.75);
#20=CYLINDRICAL_SURFACE('',#1261,2.75);
#21=CYLINDRICAL_SURFACE('',#1265,2.75);
#22=CYLINDRICAL_SURFACE('',#1267,1.);
#23=CYLINDRICAL_SURFACE('',#1271,1.);
#24=CYLINDRICAL_SURFACE('',#1277,3.75);
#25=CYLINDRICAL_SURFACE('',#1281,3.75);
#26=CYLINDRICAL_SURFACE('',#1285,3.75);
#27=CYLINDRICAL_SURFACE('',#1289,3.75);
#28=CYLINDRICAL_SURFACE('',#1294,5.);
#29=CYLINDRICAL_SURFACE('',#1299,5.00000000000001);
#30=CYLINDRICAL_SURFACE('',#1311,5.00000000000002);
#31=CYLINDRICAL_SURFACE('',#1317,5.);
#32=CYLINDRICAL_SURFACE('',#1328,5.00000000000002);
#33=CYLINDRICAL_SURFACE('',#1329,0.999999999999961);
#34=CYLINDRICAL_SURFACE('',#1331,5.00000000000002);
#35=CYLINDRICAL_SURFACE('',#1332,1.00000000000005);
#36=CYLINDRICAL_SURFACE('',#1336,6.99999999999999);
#37=FACE_BOUND('',#159,.T.);
#38=FACE_BOUND('',#160,.T.);
#39=FACE_BOUND('',#166,.T.);
#40=FACE_BOUND('',#167,.T.);
#41=FACE_BOUND('',#173,.T.);
#42=FACE_BOUND('',#174,.T.);
#43=FACE_BOUND('',#175,.T.);
#44=FACE_BOUND('',#189,.T.);
#45=FACE_BOUND('',#192,.T.);
#46=FACE_BOUND('',#195,.T.);
#47=FACE_BOUND('',#198,.T.);
#48=FACE_BOUND('',#210,.T.);
#49=FACE_BOUND('',#211,.T.);
#50=FACE_BOUND('',#212,.T.);
#51=FACE_BOUND('',#213,.T.);
#52=PLANE('',#1223);
#53=PLANE('',#1236);
#54=PLANE('',#1249);
#55=PLANE('',#1270);
#56=PLANE('',#1274);
#57=PLANE('',#1275);
#58=PLANE('',#1276);
#59=PLANE('',#1280);
#60=PLANE('',#1284);
#61=PLANE('',#1288);
#62=PLANE('',#1292);
#63=PLANE('',#1293);
#64=PLANE('',#1296);
#65=PLANE('',#1297);
#66=PLANE('',#1298);
#67=PLANE('',#1301);
#68=PLANE('',#1302);
#69=PLANE('',#1304);
#70=PLANE('',#1305);
#71=PLANE('',#1306);
#72=PLANE('',#1307);
#73=PLANE('',#1310);
#74=PLANE('',#1312);
#75=PLANE('',#1314);
#76=PLANE('',#1315);
#77=PLANE('',#1316);
#78=PLANE('',#1318);
#79=PLANE('',#1321);
#80=PLANE('',#1322);
#81=PLANE('',#1323);
#82=PLANE('',#1324);
#83=PLANE('',#1325);
#84=PLANE('',#1326);
#85=PLANE('',#1327);
#86=PLANE('',#1330);
#87=PLANE('',#1333);
#88=PLANE('',#1335);
#89=PLANE('',#1337);
#90=FACE_OUTER_BOUND('',#157,.T.);
#91=FACE_OUTER_BOUND('',#158,.T.);
#92=FACE_OUTER_BOUND('',#161,.T.);
#93=FACE_OUTER_BOUND('',#162,.T.);
#94=FACE_OUTER_BOUND('',#163,.T.);
#95=FACE_OUTER_BOUND('',#164,.T.);
#96=FACE_OUTER_BOUND('',#165,.T.);
#97=FACE_OUTER_BOUND('',#168,.T.);
#98=FACE_OUTER_BOUND('',#169,.T.);
#99=FACE_OUTER_BOUND('',#170,.T.);
#100=FACE_OUTER_BOUND('',#171,.T.);
#101=FACE_OUTER_BOUND('',#172,.T.);
#102=FACE_OUTER_BOUND('',#176,.T.);
#103=FACE_OUTER_BOUND('',#177,.T.);
#104=FACE_OUTER_BOUND('',#178,.T.);
#105=FACE_OUTER_BOUND('',#179,.T.);
#106=FACE_OUTER_BOUND('',#180,.T.);
#107=FACE_OUTER_BOUND('',#181,.T.);
#108=FACE_OUTER_BOUND('',#182,.T.);
#109=FACE_OUTER_BOUND('',#183,.T.);
#110=FACE_OUTER_BOUND('',#184,.T.);
#111=FACE_OUTER_BOUND('',#185,.T.);
#112=FACE_OUTER_BOUND('',#186,.T.);
#113=FACE_OUTER_BOUND('',#187,.T.);
#114=FACE_OUTER_BOUND('',#188,.T.);
#115=FACE_OUTER_BOUND('',#190,.T.);
#116=FACE_OUTER_BOUND('',#191,.T.);
#117=FACE_OUTER_BOUND('',#193,.T.);
#118=FACE_OUTER_BOUND('',#194,.T.);
#119=FACE_OUTER_BOUND('',#196,.T.);
#120=FACE_OUTER_BOUND('',#197,.T.);
#121=FACE_OUTER_BOUND('',#199,.T.);
#122=FACE_OUTER_BOUND('',#200,.T.);
#123=FACE_OUTER_BOUND('',#201,.T.);
#124=FACE_OUTER_BOUND('',#202,.T.);
#125=FACE_OUTER_BOUND('',#203,.T.);
#126=FACE_OUTER_BOUND('',#204,.T.);
#127=FACE_OUTER_BOUND('',#205,.T.);
#128=FACE_OUTER_BOUND('',#206,.T.);
#129=FACE_OUTER_BOUND('',#207,.T.);
#130=FACE_OUTER_BOUND('',#208,.T.);
#131=FACE_OUTER_BOUND('',#209,.T.);
#132=FACE_OUTER_BOUND('',#214,.T.);
#133=FACE_OUTER_BOUND('',#215,.T.);
#134=FACE_OUTER_BOUND('',#216,.T.);
#135=FACE_OUTER_BOUND('',#217,.T.);
#136=FACE_OUTER_BOUND('',#218,.T.);
#137=FACE_OUTER_BOUND('',#219,.T.);
#138=FACE_OUTER_BOUND('',#220,.T.);
#139=FACE_OUTER_BOUND('',#221,.T.);
#140=FACE_OUTER_BOUND('',#222,.T.);
#141=FACE_OUTER_BOUND('',#223,.T.);
#142=FACE_OUTER_BOUND('',#224,.T.);
#143=FACE_OUTER_BOUND('',#225,.T.);
#144=FACE_OUTER_BOUND('',#226,.T.);
#145=FACE_OUTER_BOUND('',#227,.T.);
#146=FACE_OUTER_BOUND('',#228,.T.);
#147=FACE_OUTER_BOUND('',#229,.T.);
#148=FACE_OUTER_BOUND('',#230,.T.);
#149=FACE_OUTER_BOUND('',#231,.T.);
#150=FACE_OUTER_BOUND('',#232,.T.);
#151=FACE_OUTER_BOUND('',#233,.T.);
#152=FACE_OUTER_BOUND('',#234,.T.);
#153=FACE_OUTER_BOUND('',#235,.T.);
#154=FACE_OUTER_BOUND('',#236,.T.);
#155=FACE_OUTER_BOUND('',#237,.T.);
#156=FACE_OUTER_BOUND('',#238,.T.);
#157=EDGE_LOOP('',(#798,#799,#800,#801));
#158=EDGE_LOOP('',(#802,#803,#804,#805,#806,#807,#808,#809,#810,#811,#812,
#813,#814,#815));
#159=EDGE_LOOP('',(#816));
#160=EDGE_LOOP('',(#817));
#161=EDGE_LOOP('',(#818,#819,#820,#821));
#162=EDGE_LOOP('',(#822,#823,#824,#825));
#163=EDGE_LOOP('',(#826,#827,#828,#829));
#164=EDGE_LOOP('',(#830,#831,#832,#833));
#165=EDGE_LOOP('',(#834,#835,#836,#837,#838,#839,#840,#841,#842,#843,#844,
#845,#846,#847));
#166=EDGE_LOOP('',(#848));
#167=EDGE_LOOP('',(#849));
#168=EDGE_LOOP('',(#850,#851,#852,#853));
#169=EDGE_LOOP('',(#854,#855,#856,#857));
#170=EDGE_LOOP('',(#858,#859,#860,#861));
#171=EDGE_LOOP('',(#862,#863,#864,#865));
#172=EDGE_LOOP('',(#866,#867,#868,#869,#870,#871,#872,#873,#874,#875,#876,
#877,#878,#879,#880,#881,#882,#883,#884,#885));
#173=EDGE_LOOP('',(#886));
#174=EDGE_LOOP('',(#887));
#175=EDGE_LOOP('',(#888));
#176=EDGE_LOOP('',(#889,#890,#891,#892));
#177=EDGE_LOOP('',(#893,#894,#895,#896));
#178=EDGE_LOOP('',(#897,#898,#899,#900));
#179=EDGE_LOOP('',(#901,#902,#903,#904));
#180=EDGE_LOOP('',(#905,#906,#907,#908));
#181=EDGE_LOOP('',(#909,#910,#911,#912));
#182=EDGE_LOOP('',(#913,#914,#915,#916));
#183=EDGE_LOOP('',(#917,#918,#919,#920));
#184=EDGE_LOOP('',(#921,#922,#923,#924));
#185=EDGE_LOOP('',(#925,#926,#927,#928));
#186=EDGE_LOOP('',(#929,#930,#931,#932,#933,#934,#935,#936,#937,#938));
#187=EDGE_LOOP('',(#939,#940,#941,#942));
#188=EDGE_LOOP('',(#943));
#189=EDGE_LOOP('',(#944));
#190=EDGE_LOOP('',(#945,#946,#947,#948));
#191=EDGE_LOOP('',(#949));
#192=EDGE_LOOP('',(#950));
#193=EDGE_LOOP('',(#951,#952,#953,#954));
#194=EDGE_LOOP('',(#955));
#195=EDGE_LOOP('',(#956));
#196=EDGE_LOOP('',(#957,#958,#959,#960));
#197=EDGE_LOOP('',(#961));
#198=EDGE_LOOP('',(#962));
#199=EDGE_LOOP('',(#963,#964,#965,#966));
#200=EDGE_LOOP('',(#967,#968,#969,#970));
#201=EDGE_LOOP('',(#971,#972,#973,#974));
#202=EDGE_LOOP('',(#975,#976,#977,#978));
#203=EDGE_LOOP('',(#979,#980,#981,#982));
#204=EDGE_LOOP('',(#983,#984,#985,#986));
#205=EDGE_LOOP('',(#987,#988,#989,#990,#991,#992));
#206=EDGE_LOOP('',(#993,#994,#995,#996,#997));
#207=EDGE_LOOP('',(#998,#999,#1000,#1001));
#208=EDGE_LOOP('',(#1002,#1003,#1004,#1005));
#209=EDGE_LOOP('',(#1006,#1007,#1008,#1009));
#210=EDGE_LOOP('',(#1010));
#211=EDGE_LOOP('',(#1011));
#212=EDGE_LOOP('',(#1012));
#213=EDGE_LOOP('',(#1013));
#214=EDGE_LOOP('',(#1014,#1015,#1016,#1017,#1018,#1019,#1020,#1021,#1022,
#1023,#1024,#1025,#1026,#1027,#1028,#1029,#1030,#1031,#1032,#1033));
#215=EDGE_LOOP('',(#1034,#1035,#1036,#1037));
#216=EDGE_LOOP('',(#1038,#1039,#1040,#1041));
#217=EDGE_LOOP('',(#1042,#1043,#1044,#1045,#1046));
#218=EDGE_LOOP('',(#1047,#1048,#1049,#1050));
#219=EDGE_LOOP('',(#1051,#1052,#1053,#1054));
#220=EDGE_LOOP('',(#1055,#1056,#1057,#1058));
#221=EDGE_LOOP('',(#1059,#1060,#1061,#1062));
#222=EDGE_LOOP('',(#1063,#1064,#1065,#1066,#1067,#1068,#1069,#1070,#1071,
#1072,#1073,#1074));
#223=EDGE_LOOP('',(#1075,#1076,#1077,#1078));
#224=EDGE_LOOP('',(#1079));
#225=EDGE_LOOP('',(#1080));
#226=EDGE_LOOP('',(#1081));
#227=EDGE_LOOP('',(#1082,#1083,#1084,#1085,#1086,#1087));
#228=EDGE_LOOP('',(#1088,#1089,#1090,#1091));
#229=EDGE_LOOP('',(#1092,#1093,#1094,#1095));
#230=EDGE_LOOP('',(#1096,#1097,#1098,#1099));
#231=EDGE_LOOP('',(#1100,#1101,#1102,#1103));
#232=EDGE_LOOP('',(#1104,#1105,#1106,#1107));
#233=EDGE_LOOP('',(#1108,#1109,#1110,#1111));
#234=EDGE_LOOP('',(#1112,#1113,#1114,#1115));
#235=EDGE_LOOP('',(#1116,#1117,#1118,#1119));
#236=EDGE_LOOP('',(#1120,#1121,#1122,#1123));
#237=EDGE_LOOP('',(#1124,#1125,#1126,#1127));
#238=EDGE_LOOP('',(#1128,#1129,#1130,#1131));
#239=LINE('',#1697,#355);
#240=LINE('',#1702,#356);
#241=LINE('',#1704,#357);
#242=LINE('',#1706,#358);
#243=LINE('',#1708,#359);
#244=LINE('',#1710,#360);
#245=LINE('',#1712,#361);
#246=LINE('',#1714,#362);
#247=LINE('',#1718,#363);
#248=LINE('',#1720,#364);
#249=LINE('',#1722,#365);
#250=LINE('',#1726,#366);
#251=LINE('',#1727,#367);
#252=LINE('',#1732,#368);
#253=LINE('',#1736,#369);
#254=LINE('',#1740,#370);
#255=LINE('',#1746,#371);
#256=LINE('',#1751,#372);
#257=LINE('',#1753,#373);
#258=LINE('',#1755,#374);
#259=LINE('',#1759,#375);
#260=LINE('',#1761,#376);
#261=LINE('',#1763,#377);
#262=LINE('',#1767,#378);
#263=LINE('',#1769,#379);
#264=LINE('',#1771,#380);
#265=LINE('',#1773,#381);
#266=LINE('',#1775,#382);
#267=LINE('',#1776,#383);
#268=LINE('',#1781,#384);
#269=LINE('',#1785,#385);
#270=LINE('',#1789,#386);
#271=LINE('',#1795,#387);
#272=LINE('',#1799,#388);
#273=LINE('',#1801,#389);
#274=LINE('',#1805,#390);
#275=LINE('',#1807,#391);
#276=LINE('',#1809,#392);
#277=LINE('',#1813,#393);
#278=LINE('',#1815,#394);
#279=LINE('',#1817,#395);
#280=LINE('',#1821,#396);
#281=LINE('',#1822,#397);
#282=LINE('',#1824,#398);
#283=LINE('',#1828,#399);
#284=LINE('',#1831,#400);
#285=LINE('',#1838,#401);
#286=LINE('',#1842,#402);
#287=LINE('',#1846,#403);
#288=LINE('',#1850,#404);
#289=LINE('',#1854,#405);
#290=LINE('',#1861,#406);
#291=LINE('',#1864,#407);
#292=LINE('',#1867,#408);
#293=LINE('',#1869,#409);
#294=LINE('',#1870,#410);
#295=LINE('',#1875,#411);
#296=LINE('',#1878,#412);
#297=LINE('',#1879,#413);
#298=LINE('',#1881,#414);
#299=LINE('',#1882,#415);
#300=LINE('',#1885,#416);
#301=LINE('',#1887,#417);
#302=LINE('',#1888,#418);
#303=LINE('',#1893,#419);
#304=LINE('',#1900,#420);
#305=LINE('',#1907,#421);
#306=LINE('',#1914,#422);
#307=LINE('',#1919,#423);
#308=LINE('',#1920,#424);
#309=LINE('',#1923,#425);
#310=LINE('',#1927,#426);
#311=LINE('',#1928,#427);
#312=LINE('',#1931,#428);
#313=LINE('',#1932,#429);
#314=LINE('',#1935,#430);
#315=LINE('',#1936,#431);
#316=LINE('',#1939,#432);
#317=LINE('',#1943,#433);
#318=LINE('',#1944,#434);
#319=LINE('',#1945,#435);
#320=LINE('',#1948,#436);
#321=LINE('',#1950,#437);
#322=LINE('',#1953,#438);
#323=LINE('',#1956,#439);
#324=LINE('',#1957,#440);
#325=LINE('',#1960,#441);
#326=LINE('',#1962,#442);
#327=LINE('',#1963,#443);
#328=LINE('',#1966,#444);
#329=LINE('',#1968,#445);
#330=LINE('',#1969,#446);
#331=LINE('',#1971,#447);
#332=LINE('',#1975,#448);
#333=LINE('',#1977,#449);
#334=LINE('',#1979,#450);
#335=LINE('',#1982,#451);
#336=LINE('',#1984,#452);
#337=LINE('',#1985,#453);
#338=LINE('',#1987,#454);
#339=LINE('',#1990,#455);
#340=LINE('',#1994,#456);
#341=LINE('',#1995,#457);
#342=LINE('',#1997,#458);
#343=LINE('',#1999,#459);
#344=LINE('',#2001,#460);
#345=LINE('',#2002,#461);
#346=LINE('',#2006,#462);
#347=LINE('',#2014,#463);
#348=LINE('',#2016,#464);
#349=LINE('',#2018,#465);
#350=LINE('',#2022,#466);
#351=LINE('',#2027,#467);
#352=LINE('',#2030,#468);
#353=LINE('',#2032,#469);
#354=LINE('',#2034,#470);
#355=VECTOR('',#1344,3.15);
#356=VECTOR('',#1349,10.);
#357=VECTOR('',#1350,10.);
#358=VECTOR('',#1351,10.);
#359=VECTOR('',#1352,10.);
#360=VECTOR('',#1353,10.);
#361=VECTOR('',#1354,10.);
#362=VECTOR('',#1355,10.);
#363=VECTOR('',#1358,10.);
#364=VECTOR('',#1359,10.);
#365=VECTOR('',#1360,10.);
#366=VECTOR('',#1363,10.);
#367=VECTOR('',#1364,10.);
#368=VECTOR('',#1369,2.5);
#369=VECTOR('',#1374,3.15);
#370=VECTOR('',#1379,2.5);
#371=VECTOR('',#1386,3.15);
#372=VECTOR('',#1391,10.);
#373=VECTOR('',#1392,10.);
#374=VECTOR('',#1393,10.);
#375=VECTOR('',#1396,10.);
#376=VECTOR('',#1397,10.);
#377=VECTOR('',#1398,10.);
#378=VECTOR('',#1401,10.);
#379=VECTOR('',#1402,10.);
#380=VECTOR('',#1403,10.);
#381=VECTOR('',#1404,10.);
#382=VECTOR('',#1405,10.);
#383=VECTOR('',#1406,10.);
#384=VECTOR('',#1411,2.5);
#385=VECTOR('',#1416,3.15);
#386=VECTOR('',#1421,2.5);
#387=VECTOR('',#1428,3.40000000000001);
#388=VECTOR('',#1433,10.);
#389=VECTOR('',#1434,10.);
#390=VECTOR('',#1437,10.);
#391=VECTOR('',#1438,10.);
#392=VECTOR('',#1439,10.);
#393=VECTOR('',#1442,10.);
#394=VECTOR('',#1443,10.);
#395=VECTOR('',#1444,10.);
#396=VECTOR('',#1447,10.);
#397=VECTOR('',#1448,10.);
#398=VECTOR('',#1449,10.);
#399=VECTOR('',#1452,10.);
#400=VECTOR('',#1455,10.);
#401=VECTOR('',#1462,2.75);
#402=VECTOR('',#1467,3.4);
#403=VECTOR('',#1472,2.75);
#404=VECTOR('',#1477,3.40000000000001);
#405=VECTOR('',#1482,2.75);
#406=VECTOR('',#1489,10.);
#407=VECTOR('',#1492,10.);
#408=VECTOR('',#1495,10.);
#409=VECTOR('',#1496,10.);
#410=VECTOR('',#1497,10.);
#411=VECTOR('',#1502,10.);
#412=VECTOR('',#1507,10.);
#413=VECTOR('',#1508,10.);
#414=VECTOR('',#1511,10.);
#415=VECTOR('',#1512,10.);
#416=VECTOR('',#1515,10.);
#417=VECTOR('',#1516,10.);
#418=VECTOR('',#1517,10.);
#419=VECTOR('',#1522,3.75);
#420=VECTOR('',#1531,3.75);
#421=VECTOR('',#1540,3.75);
#422=VECTOR('',#1549,3.75);
#423=VECTOR('',#1556,10.);
#424=VECTOR('',#1557,10.);
#425=VECTOR('',#1560,10.);
#426=VECTOR('',#1565,10.);
#427=VECTOR('',#1566,10.);
#428=VECTOR('',#1569,10.);
#429=VECTOR('',#1570,10.);
#430=VECTOR('',#1573,10.);
#431=VECTOR('',#1574,10.);
#432=VECTOR('',#1577,10.);
#433=VECTOR('',#1582,10.);
#434=VECTOR('',#1583,10.);
#435=VECTOR('',#1584,10.);
#436=VECTOR('',#1587,10.);
#437=VECTOR('',#1588,10.);
#438=VECTOR('',#1593,10.);
#439=VECTOR('',#1596,10.);
#440=VECTOR('',#1597,10.);
#441=VECTOR('',#1600,10.);
#442=VECTOR('',#1601,10.);
#443=VECTOR('',#1602,10.);
#444=VECTOR('',#1605,10.);
#445=VECTOR('',#1606,10.);
#446=VECTOR('',#1607,10.);
#447=VECTOR('',#1608,10.);
#448=VECTOR('',#1611,10.);
#449=VECTOR('',#1612,10.);
#450=VECTOR('',#1613,10.);
#451=VECTOR('',#1616,10.);
#452=VECTOR('',#1619,10.);
#453=VECTOR('',#1620,10.);
#454=VECTOR('',#1623,10.);
#455=VECTOR('',#1626,10.);
#456=VECTOR('',#1629,10.);
#457=VECTOR('',#1630,10.);
#458=VECTOR('',#1633,10.);
#459=VECTOR('',#1636,10.);
#460=VECTOR('',#1639,10.);
#461=VECTOR('',#1640,10.);
#462=VECTOR('',#1645,10.);
#463=VECTOR('',#1660,10.);
#464=VECTOR('',#1663,10.);
#465=VECTOR('',#1666,10.);
#466=VECTOR('',#1673,10.);
#467=VECTOR('',#1680,10.);
#468=VECTOR('',#1683,10.);
#469=VECTOR('',#1686,10.);
#470=VECTOR('',#1689,10.);
#471=CIRCLE('',#1221,3.80000000000001);
#472=CIRCLE('',#1222,2.5);
#473=CIRCLE('',#1224,5.00000000000001);
#474=CIRCLE('',#1225,5.);
#475=CIRCLE('',#1226,3.80000000000001);
#476=CIRCLE('',#1228,2.5);
#477=CIRCLE('',#1230,2.5);
#478=CIRCLE('',#1232,2.5);
#479=CIRCLE('',#1234,3.80000000000001);
#480=CIRCLE('',#1235,2.5);
#481=CIRCLE('',#1237,5.);
#482=CIRCLE('',#1238,5.00000000000002);
#483=CIRCLE('',#1239,3.80000000000001);
#484=CIRCLE('',#1241,2.5);
#485=CIRCLE('',#1243,2.5);
#486=CIRCLE('',#1245,2.5);
#487=CIRCLE('',#1247,4.05000000000001);
#488=CIRCLE('',#1248,2.75);
#489=CIRCLE('',#1250,5.00000000000002);
#490=CIRCLE('',#1251,6.99999999999999);
#491=CIRCLE('',#1252,5.00000000000002);
#492=CIRCLE('',#1253,1.00000000000005);
#493=CIRCLE('',#1254,0.999999999999961);
#494=CIRCLE('',#1255,4.05);
#495=CIRCLE('',#1256,4.05000000000001);
#496=CIRCLE('',#1258,2.75);
#497=CIRCLE('',#1260,2.75);
#498=CIRCLE('',#1262,2.75);
#499=CIRCLE('',#1264,2.75);
#500=CIRCLE('',#1266,2.75);
#501=CIRCLE('',#1268,1.);
#502=CIRCLE('',#1269,1.);
#503=CIRCLE('',#1272,1.);
#504=CIRCLE('',#1273,1.);
#505=CIRCLE('',#1278,3.75);
#506=CIRCLE('',#1279,3.75);
#507=CIRCLE('',#1282,3.75);
#508=CIRCLE('',#1283,3.75);
#509=CIRCLE('',#1286,3.75);
#510=CIRCLE('',#1287,3.75);
#511=CIRCLE('',#1290,3.75);
#512=CIRCLE('',#1291,3.75);
#513=CIRCLE('',#1295,5.);
#514=CIRCLE('',#1300,5.00000000000001);
#515=CIRCLE('',#1303,5.00000000000002);
#516=CIRCLE('',#1308,5.00000000000002);
#517=CIRCLE('',#1309,5.);
#518=CIRCLE('',#1313,5.00000000000002);
#519=CIRCLE('',#1319,0.999999999999961);
#520=CIRCLE('',#1320,1.00000000000005);
#521=CIRCLE('',#1334,6.99999999999999);
#522=VERTEX_POINT('',#1694);
#523=VERTEX_POINT('',#1696);
#524=VERTEX_POINT('',#1700);
#525=VERTEX_POINT('',#1701);
#526=VERTEX_POINT('',#1703);
#527=VERTEX_POINT('',#1705);
#528=VERTEX_POINT('',#1707);
#529=VERTEX_POINT('',#1709);
#530=VERTEX_POINT('',#1711);
#531=VERTEX_POINT('',#1713);
#532=VERTEX_POINT('',#1715);
#533=VERTEX_POINT('',#1717);
#534=VERTEX_POINT('',#1719);
#535=VERTEX_POINT('',#1721);
#536=VERTEX_POINT('',#1723);
#537=VERTEX_POINT('',#1725);
#538=VERTEX_POINT('',#1728);
#539=VERTEX_POINT('',#1731);
#540=VERTEX_POINT('',#1735);
#541=VERTEX_POINT('',#1739);
#542=VERTEX_POINT('',#1743);
#543=VERTEX_POINT('',#1745);
#544=VERTEX_POINT('',#1749);
#545=VERTEX_POINT('',#1750);
#546=VERTEX_POINT('',#1752);
#547=VERTEX_POINT('',#1754);
#548=VERTEX_POINT('',#1756);
#549=VERTEX_POINT('',#1758);
#550=VERTEX_POINT('',#1760);
#551=VERTEX_POINT('',#1762);
#552=VERTEX_POINT('',#1764);
#553=VERTEX_POINT('',#1766);
#554=VERTEX_POINT('',#1768);
#555=VERTEX_POINT('',#1770);
#556=VERTEX_POINT('',#1772);
#557=VERTEX_POINT('',#1774);
#558=VERTEX_POINT('',#1777);
#559=VERTEX_POINT('',#1780);
#560=VERTEX_POINT('',#1784);
#561=VERTEX_POINT('',#1788);
#562=VERTEX_POINT('',#1792);
#563=VERTEX_POINT('',#1794);
#564=VERTEX_POINT('',#1798);
#565=VERTEX_POINT('',#1800);
#566=VERTEX_POINT('',#1802);
#567=VERTEX_POINT('',#1804);
#568=VERTEX_POINT('',#1806);
#569=VERTEX_POINT('',#1808);
#570=VERTEX_POINT('',#1810);
#571=VERTEX_POINT('',#1812);
#572=VERTEX_POINT('',#1814);
#573=VERTEX_POINT('',#1816);
#574=VERTEX_POINT('',#1818);
#575=VERTEX_POINT('',#1820);
#576=VERTEX_POINT('',#1823);
#577=VERTEX_POINT('',#1825);
#578=VERTEX_POINT('',#1827);
#579=VERTEX_POINT('',#1829);
#580=VERTEX_POINT('',#1832);
#581=VERTEX_POINT('',#1834);
#582=VERTEX_POINT('',#1837);
#583=VERTEX_POINT('',#1841);
#584=VERTEX_POINT('',#1845);
#585=VERTEX_POINT('',#1849);
#586=VERTEX_POINT('',#1853);
#587=VERTEX_POINT('',#1857);
#588=VERTEX_POINT('',#1858);
#589=VERTEX_POINT('',#1860);
#590=VERTEX_POINT('',#1862);
#591=VERTEX_POINT('',#1866);
#592=VERTEX_POINT('',#1868);
#593=VERTEX_POINT('',#1872);
#594=VERTEX_POINT('',#1874);
#595=VERTEX_POINT('',#1884);
#596=VERTEX_POINT('',#1886);
#597=VERTEX_POINT('',#1890);
#598=VERTEX_POINT('',#1892);
#599=VERTEX_POINT('',#1897);
#600=VERTEX_POINT('',#1899);
#601=VERTEX_POINT('',#1904);
#602=VERTEX_POINT('',#1906);
#603=VERTEX_POINT('',#1911);
#604=VERTEX_POINT('',#1913);
#605=VERTEX_POINT('',#1918);
#606=VERTEX_POINT('',#1922);
#607=VERTEX_POINT('',#1926);
#608=VERTEX_POINT('',#1930);
#609=VERTEX_POINT('',#1934);
#610=VERTEX_POINT('',#1938);
#611=VERTEX_POINT('',#1942);
#612=VERTEX_POINT('',#1947);
#613=VERTEX_POINT('',#1949);
#614=VERTEX_POINT('',#1955);
#615=VERTEX_POINT('',#1959);
#616=VERTEX_POINT('',#1961);
#617=VERTEX_POINT('',#1965);
#618=VERTEX_POINT('',#1967);
#619=VERTEX_POINT('',#1970);
#620=VERTEX_POINT('',#1972);
#621=VERTEX_POINT('',#1974);
#622=VERTEX_POINT('',#1976);
#623=VERTEX_POINT('',#1978);
#624=VERTEX_POINT('',#1980);
#625=VERTEX_POINT('',#1989);
#626=VERTEX_POINT('',#1991);
#627=VERTEX_POINT('',#1993);
#628=VERTEX_POINT('',#2005);
#629=VERTEX_POINT('',#2026);
#630=VERTEX_POINT('',#2028);
#631=EDGE_CURVE('',#522,#522,#471,.T.);
#632=EDGE_CURVE('',#522,#523,#239,.T.);
#633=EDGE_CURVE('',#523,#523,#472,.T.);
#634=EDGE_CURVE('',#524,#525,#240,.T.);
#635=EDGE_CURVE('',#526,#525,#241,.T.);
#636=EDGE_CURVE('',#527,#526,#242,.T.);
#637=EDGE_CURVE('',#528,#527,#243,.T.);
#638=EDGE_CURVE('',#529,#528,#244,.T.);
#639=EDGE_CURVE('',#530,#529,#245,.T.);
#640=EDGE_CURVE('',#531,#530,#246,.T.);
#641=EDGE_CURVE('',#532,#531,#473,.T.);
#642=EDGE_CURVE('',#533,#532,#247,.T.);
#643=EDGE_CURVE('',#534,#533,#248,.T.);
#644=EDGE_CURVE('',#535,#534,#249,.T.);
#645=EDGE_CURVE('',#536,#535,#474,.T.);
#646=EDGE_CURVE('',#537,#536,#250,.T.);
#647=EDGE_CURVE('',#524,#537,#251,.T.);
#648=EDGE_CURVE('',#538,#538,#475,.T.);
#649=EDGE_CURVE('',#523,#539,#252,.T.);
#650=EDGE_CURVE('',#539,#539,#476,.T.);
#651=EDGE_CURVE('',#538,#540,#253,.T.);
#652=EDGE_CURVE('',#540,#540,#477,.T.);
#653=EDGE_CURVE('',#540,#541,#254,.T.);
#654=EDGE_CURVE('',#541,#541,#478,.T.);
#655=EDGE_CURVE('',#542,#542,#479,.T.);
#656=EDGE_CURVE('',#542,#543,#255,.T.);
#657=EDGE_CURVE('',#543,#543,#480,.T.);
#658=EDGE_CURVE('',#544,#545,#256,.T.);
#659=EDGE_CURVE('',#546,#545,#257,.T.);
#660=EDGE_CURVE('',#547,#546,#258,.T.);
#661=EDGE_CURVE('',#548,#547,#481,.T.);
#662=EDGE_CURVE('',#549,#548,#259,.T.);
#663=EDGE_CURVE('',#550,#549,#260,.T.);
#664=EDGE_CURVE('',#551,#550,#261,.T.);
#665=EDGE_CURVE('',#552,#551,#482,.T.);
#666=EDGE_CURVE('',#553,#552,#262,.T.);
#667=EDGE_CURVE('',#554,#553,#263,.T.);
#668=EDGE_CURVE('',#555,#554,#264,.T.);
#669=EDGE_CURVE('',#556,#555,#265,.T.);
#670=EDGE_CURVE('',#557,#556,#266,.T.);
#671=EDGE_CURVE('',#544,#557,#267,.T.);
#672=EDGE_CURVE('',#558,#558,#483,.T.);
#673=EDGE_CURVE('',#543,#559,#268,.T.);
#674=EDGE_CURVE('',#559,#559,#484,.T.);
#675=EDGE_CURVE('',#558,#560,#269,.T.);
#676=EDGE_CURVE('',#560,#560,#485,.T.);
#677=EDGE_CURVE('',#560,#561,#270,.T.);
#678=EDGE_CURVE('',#561,#561,#486,.T.);
#679=EDGE_CURVE('',#562,#562,#487,.T.);
#680=EDGE_CURVE('',#562,#563,#271,.T.);
#681=EDGE_CURVE('',#563,#563,#488,.T.);
#682=EDGE_CURVE('',#555,#564,#272,.T.);
#683=EDGE_CURVE('',#565,#564,#273,.T.);
#684=EDGE_CURVE('',#565,#566,#489,.T.);
#685=EDGE_CURVE('',#567,#566,#274,.T.);
#686=EDGE_CURVE('',#567,#568,#275,.T.);
#687=EDGE_CURVE('',#568,#569,#276,.T.);
#688=EDGE_CURVE('',#569,#570,#490,.T.);
#689=EDGE_CURVE('',#570,#571,#277,.T.);
#690=EDGE_CURVE('',#571,#572,#278,.T.);
#691=EDGE_CURVE('',#572,#573,#279,.T.);
#692=EDGE_CURVE('',#573,#574,#491,.T.);
#693=EDGE_CURVE('',#574,#575,#280,.T.);
#694=EDGE_CURVE('',#575,#528,#281,.T.);
#695=EDGE_CURVE('',#527,#576,#282,.T.);
#696=EDGE_CURVE('',#577,#576,#492,.T.);
#697=EDGE_CURVE('',#577,#578,#283,.T.);
#698=EDGE_CURVE('',#579,#578,#493,.T.);
#699=EDGE_CURVE('',#579,#556,#284,.T.);
#700=EDGE_CURVE('',#580,#580,#494,.T.);
#701=EDGE_CURVE('',#581,#581,#495,.T.);
#702=EDGE_CURVE('',#563,#582,#285,.T.);
#703=EDGE_CURVE('',#582,#582,#496,.T.);
#704=EDGE_CURVE('',#580,#583,#286,.T.);
#705=EDGE_CURVE('',#583,#583,#497,.T.);
#706=EDGE_CURVE('',#583,#584,#287,.T.);
#707=EDGE_CURVE('',#584,#584,#498,.T.);
#708=EDGE_CURVE('',#581,#585,#288,.T.);
#709=EDGE_CURVE('',#585,#585,#499,.T.);
#710=EDGE_CURVE('',#585,#586,#289,.T.);
#711=EDGE_CURVE('',#586,#586,#500,.T.);
#712=EDGE_CURVE('',#587,#588,#501,.T.);
#713=EDGE_CURVE('',#588,#589,#290,.T.);
#714=EDGE_CURVE('',#589,#590,#502,.T.);
#715=EDGE_CURVE('',#590,#587,#291,.T.);
#716=EDGE_CURVE('',#591,#588,#292,.T.);
#717=EDGE_CURVE('',#592,#591,#293,.T.);
#718=EDGE_CURVE('',#589,#592,#294,.T.);
#719=EDGE_CURVE('',#591,#593,#503,.T.);
#720=EDGE_CURVE('',#593,#594,#295,.T.);
#721=EDGE_CURVE('',#594,#592,#504,.T.);
#722=EDGE_CURVE('',#525,#593,#296,.T.);
#723=EDGE_CURVE('',#594,#524,#297,.T.);
#724=EDGE_CURVE('',#545,#590,#298,.T.);
#725=EDGE_CURVE('',#587,#544,#299,.T.);
#726=EDGE_CURVE('',#537,#595,#300,.T.);
#727=EDGE_CURVE('',#596,#595,#301,.F.);
#728=EDGE_CURVE('',#596,#546,#302,.T.);
#729=EDGE_CURVE('',#597,#597,#505,.T.);
#730=EDGE_CURVE('',#597,#598,#303,.T.);
#731=EDGE_CURVE('',#598,#598,#506,.T.);
#732=EDGE_CURVE('',#599,#599,#507,.T.);
#733=EDGE_CURVE('',#599,#600,#304,.T.);
#734=EDGE_CURVE('',#600,#600,#508,.T.);
#735=EDGE_CURVE('',#601,#601,#509,.T.);
#736=EDGE_CURVE('',#601,#602,#305,.T.);
#737=EDGE_CURVE('',#602,#602,#510,.T.);
#738=EDGE_CURVE('',#603,#603,#511,.T.);
#739=EDGE_CURVE('',#603,#604,#306,.T.);
#740=EDGE_CURVE('',#604,#604,#512,.T.);
#741=EDGE_CURVE('',#605,#536,#307,.T.);
#742=EDGE_CURVE('',#595,#605,#308,.T.);
#743=EDGE_CURVE('',#606,#535,#309,.T.);
#744=EDGE_CURVE('',#605,#606,#513,.T.);
#745=EDGE_CURVE('',#607,#534,#310,.T.);
#746=EDGE_CURVE('',#606,#607,#311,.T.);
#747=EDGE_CURVE('',#533,#608,#312,.T.);
#748=EDGE_CURVE('',#607,#608,#313,.T.);
#749=EDGE_CURVE('',#609,#532,#314,.T.);
#750=EDGE_CURVE('',#608,#609,#315,.T.);
#751=EDGE_CURVE('',#610,#531,#316,.T.);
#752=EDGE_CURVE('',#609,#610,#514,.T.);
#753=EDGE_CURVE('',#611,#530,#317,.T.);
#754=EDGE_CURVE('',#573,#611,#318,.T.);
#755=EDGE_CURVE('',#610,#572,#319,.T.);
#756=EDGE_CURVE('',#612,#529,#320,.T.);
#757=EDGE_CURVE('',#612,#613,#321,.T.);
#758=EDGE_CURVE('',#613,#611,#515,.T.);
#759=EDGE_CURVE('',#575,#612,#322,.T.);
#760=EDGE_CURVE('',#614,#526,#323,.T.);
#761=EDGE_CURVE('',#576,#614,#324,.T.);
#762=EDGE_CURVE('',#577,#615,#325,.T.);
#763=EDGE_CURVE('',#616,#615,#326,.T.);
#764=EDGE_CURVE('',#578,#616,#327,.T.);
#765=EDGE_CURVE('',#571,#617,#328,.T.);
#766=EDGE_CURVE('',#617,#618,#329,.T.);
#767=EDGE_CURVE('',#618,#568,#330,.T.);
#768=EDGE_CURVE('',#567,#619,#331,.T.);
#769=EDGE_CURVE('',#619,#620,#516,.T.);
#770=EDGE_CURVE('',#620,#621,#332,.T.);
#771=EDGE_CURVE('',#622,#621,#333,.T.);
#772=EDGE_CURVE('',#622,#623,#334,.T.);
#773=EDGE_CURVE('',#623,#624,#517,.T.);
#774=EDGE_CURVE('',#624,#596,#335,.T.);
#775=EDGE_CURVE('',#621,#550,#336,.T.);
#776=EDGE_CURVE('',#620,#551,#337,.T.);
#777=EDGE_CURVE('',#619,#552,#338,.T.);
#778=EDGE_CURVE('',#625,#553,#339,.T.);
#779=EDGE_CURVE('',#625,#626,#518,.T.);
#780=EDGE_CURVE('',#626,#627,#340,.T.);
#781=EDGE_CURVE('',#554,#627,#341,.T.);
#782=EDGE_CURVE('',#627,#564,#342,.T.);
#783=EDGE_CURVE('',#624,#547,#343,.T.);
#784=EDGE_CURVE('',#623,#548,#344,.T.);
#785=EDGE_CURVE('',#549,#622,#345,.T.);
#786=EDGE_CURVE('',#557,#628,#346,.T.);
#787=EDGE_CURVE('',#628,#616,#519,.T.);
#788=EDGE_CURVE('',#615,#614,#520,.T.);
#789=EDGE_CURVE('',#566,#625,#347,.T.);
#790=EDGE_CURVE('',#579,#628,#348,.T.);
#791=EDGE_CURVE('',#565,#626,#349,.T.);
#792=EDGE_CURVE('',#574,#613,#350,.T.);
#793=EDGE_CURVE('',#617,#629,#351,.T.);
#794=EDGE_CURVE('',#629,#630,#521,.T.);
#795=EDGE_CURVE('',#630,#618,#352,.T.);
#796=EDGE_CURVE('',#570,#629,#353,.T.);
#797=EDGE_CURVE('',#569,#630,#354,.T.);
#798=ORIENTED_EDGE('',*,*,#631,.T.);
#799=ORIENTED_EDGE('',*,*,#632,.T.);
#800=ORIENTED_EDGE('',*,*,#633,.T.);
#801=ORIENTED_EDGE('',*,*,#632,.F.);
#802=ORIENTED_EDGE('',*,*,#634,.T.);
#803=ORIENTED_EDGE('',*,*,#635,.F.);
#804=ORIENTED_EDGE('',*,*,#636,.F.);
#805=ORIENTED_EDGE('',*,*,#637,.F.);
#806=ORIENTED_EDGE('',*,*,#638,.F.);
#807=ORIENTED_EDGE('',*,*,#639,.F.);
#808=ORIENTED_EDGE('',*,*,#640,.F.);
#809=ORIENTED_EDGE('',*,*,#641,.F.);
#810=ORIENTED_EDGE('',*,*,#642,.F.);
#811=ORIENTED_EDGE('',*,*,#643,.F.);
#812=ORIENTED_EDGE('',*,*,#644,.F.);
#813=ORIENTED_EDGE('',*,*,#645,.F.);
#814=ORIENTED_EDGE('',*,*,#646,.F.);
#815=ORIENTED_EDGE('',*,*,#647,.F.);
#816=ORIENTED_EDGE('',*,*,#648,.F.);
#817=ORIENTED_EDGE('',*,*,#631,.F.);
#818=ORIENTED_EDGE('',*,*,#633,.F.);
#819=ORIENTED_EDGE('',*,*,#649,.T.);
#820=ORIENTED_EDGE('',*,*,#650,.T.);
#821=ORIENTED_EDGE('',*,*,#649,.F.);
#822=ORIENTED_EDGE('',*,*,#648,.T.);
#823=ORIENTED_EDGE('',*,*,#651,.T.);
#824=ORIENTED_EDGE('',*,*,#652,.T.);
#825=ORIENTED_EDGE('',*,*,#651,.F.);
#826=ORIENTED_EDGE('',*,*,#652,.F.);
#827=ORIENTED_EDGE('',*,*,#653,.T.);
#828=ORIENTED_EDGE('',*,*,#654,.T.);
#829=ORIENTED_EDGE('',*,*,#653,.F.);
#830=ORIENTED_EDGE('',*,*,#655,.T.);
#831=ORIENTED_EDGE('',*,*,#656,.T.);
#832=ORIENTED_EDGE('',*,*,#657,.T.);
#833=ORIENTED_EDGE('',*,*,#656,.F.);
#834=ORIENTED_EDGE('',*,*,#658,.T.);
#835=ORIENTED_EDGE('',*,*,#659,.F.);
#836=ORIENTED_EDGE('',*,*,#660,.F.);
#837=ORIENTED_EDGE('',*,*,#661,.F.);
#838=ORIENTED_EDGE('',*,*,#662,.F.);
#839=ORIENTED_EDGE('',*,*,#663,.F.);
#840=ORIENTED_EDGE('',*,*,#664,.F.);
#841=ORIENTED_EDGE('',*,*,#665,.F.);
#842=ORIENTED_EDGE('',*,*,#666,.F.);
#843=ORIENTED_EDGE('',*,*,#667,.F.);
#844=ORIENTED_EDGE('',*,*,#668,.F.);
#845=ORIENTED_EDGE('',*,*,#669,.F.);
#846=ORIENTED_EDGE('',*,*,#670,.F.);
#847=ORIENTED_EDGE('',*,*,#671,.F.);
#848=ORIENTED_EDGE('',*,*,#672,.F.);
#849=ORIENTED_EDGE('',*,*,#655,.F.);
#850=ORIENTED_EDGE('',*,*,#657,.F.);
#851=ORIENTED_EDGE('',*,*,#673,.T.);
#852=ORIENTED_EDGE('',*,*,#674,.T.);
#853=ORIENTED_EDGE('',*,*,#673,.F.);
#854=ORIENTED_EDGE('',*,*,#672,.T.);
#855=ORIENTED_EDGE('',*,*,#675,.T.);
#856=ORIENTED_EDGE('',*,*,#676,.T.);
#857=ORIENTED_EDGE('',*,*,#675,.F.);
#858=ORIENTED_EDGE('',*,*,#676,.F.);
#859=ORIENTED_EDGE('',*,*,#677,.T.);
#860=ORIENTED_EDGE('',*,*,#678,.T.);
#861=ORIENTED_EDGE('',*,*,#677,.F.);
#862=ORIENTED_EDGE('',*,*,#679,.T.);
#863=ORIENTED_EDGE('',*,*,#680,.T.);
#864=ORIENTED_EDGE('',*,*,#681,.T.);
#865=ORIENTED_EDGE('',*,*,#680,.F.);
#866=ORIENTED_EDGE('',*,*,#669,.T.);
#867=ORIENTED_EDGE('',*,*,#682,.T.);
#868=ORIENTED_EDGE('',*,*,#683,.F.);
#869=ORIENTED_EDGE('',*,*,#684,.T.);
#870=ORIENTED_EDGE('',*,*,#685,.F.);
#871=ORIENTED_EDGE('',*,*,#686,.T.);
#872=ORIENTED_EDGE('',*,*,#687,.T.);
#873=ORIENTED_EDGE('',*,*,#688,.T.);
#874=ORIENTED_EDGE('',*,*,#689,.T.);
#875=ORIENTED_EDGE('',*,*,#690,.T.);
#876=ORIENTED_EDGE('',*,*,#691,.T.);
#877=ORIENTED_EDGE('',*,*,#692,.T.);
#878=ORIENTED_EDGE('',*,*,#693,.T.);
#879=ORIENTED_EDGE('',*,*,#694,.T.);
#880=ORIENTED_EDGE('',*,*,#637,.T.);
#881=ORIENTED_EDGE('',*,*,#695,.T.);
#882=ORIENTED_EDGE('',*,*,#696,.F.);
#883=ORIENTED_EDGE('',*,*,#697,.T.);
#884=ORIENTED_EDGE('',*,*,#698,.F.);
#885=ORIENTED_EDGE('',*,*,#699,.T.);
#886=ORIENTED_EDGE('',*,*,#700,.F.);
#887=ORIENTED_EDGE('',*,*,#701,.F.);
#888=ORIENTED_EDGE('',*,*,#679,.F.);
#889=ORIENTED_EDGE('',*,*,#681,.F.);
#890=ORIENTED_EDGE('',*,*,#702,.T.);
#891=ORIENTED_EDGE('',*,*,#703,.T.);
#892=ORIENTED_EDGE('',*,*,#702,.F.);
#893=ORIENTED_EDGE('',*,*,#700,.T.);
#894=ORIENTED_EDGE('',*,*,#704,.T.);
#895=ORIENTED_EDGE('',*,*,#705,.T.);
#896=ORIENTED_EDGE('',*,*,#704,.F.);
#897=ORIENTED_EDGE('',*,*,#705,.F.);
#898=ORIENTED_EDGE('',*,*,#706,.T.);
#899=ORIENTED_EDGE('',*,*,#707,.T.);
#900=ORIENTED_EDGE('',*,*,#706,.F.);
#901=ORIENTED_EDGE('',*,*,#701,.T.);
#902=ORIENTED_EDGE('',*,*,#708,.T.);
#903=ORIENTED_EDGE('',*,*,#709,.T.);
#904=ORIENTED_EDGE('',*,*,#708,.F.);
#905=ORIENTED_EDGE('',*,*,#709,.F.);
#906=ORIENTED_EDGE('',*,*,#710,.T.);
#907=ORIENTED_EDGE('',*,*,#711,.T.);
#908=ORIENTED_EDGE('',*,*,#710,.F.);
#909=ORIENTED_EDGE('',*,*,#712,.T.);
#910=ORIENTED_EDGE('',*,*,#713,.T.);
#911=ORIENTED_EDGE('',*,*,#714,.T.);
#912=ORIENTED_EDGE('',*,*,#715,.T.);
#913=ORIENTED_EDGE('',*,*,#713,.F.);
#914=ORIENTED_EDGE('',*,*,#716,.F.);
#915=ORIENTED_EDGE('',*,*,#717,.F.);
#916=ORIENTED_EDGE('',*,*,#718,.F.);
#917=ORIENTED_EDGE('',*,*,#719,.T.);
#918=ORIENTED_EDGE('',*,*,#720,.T.);
#919=ORIENTED_EDGE('',*,*,#721,.T.);
#920=ORIENTED_EDGE('',*,*,#717,.T.);
#921=ORIENTED_EDGE('',*,*,#720,.F.);
#922=ORIENTED_EDGE('',*,*,#722,.F.);
#923=ORIENTED_EDGE('',*,*,#634,.F.);
#924=ORIENTED_EDGE('',*,*,#723,.F.);
#925=ORIENTED_EDGE('',*,*,#715,.F.);
#926=ORIENTED_EDGE('',*,*,#724,.F.);
#927=ORIENTED_EDGE('',*,*,#658,.F.);
#928=ORIENTED_EDGE('',*,*,#725,.F.);
#929=ORIENTED_EDGE('',*,*,#724,.T.);
#930=ORIENTED_EDGE('',*,*,#714,.F.);
#931=ORIENTED_EDGE('',*,*,#718,.T.);
#932=ORIENTED_EDGE('',*,*,#721,.F.);
#933=ORIENTED_EDGE('',*,*,#723,.T.);
#934=ORIENTED_EDGE('',*,*,#647,.T.);
#935=ORIENTED_EDGE('',*,*,#726,.T.);
#936=ORIENTED_EDGE('',*,*,#727,.F.);
#937=ORIENTED_EDGE('',*,*,#728,.T.);
#938=ORIENTED_EDGE('',*,*,#659,.T.);
#939=ORIENTED_EDGE('',*,*,#729,.F.);
#940=ORIENTED_EDGE('',*,*,#730,.T.);
#941=ORIENTED_EDGE('',*,*,#731,.T.);
#942=ORIENTED_EDGE('',*,*,#730,.F.);
#943=ORIENTED_EDGE('',*,*,#731,.F.);
#944=ORIENTED_EDGE('',*,*,#654,.F.);
#945=ORIENTED_EDGE('',*,*,#732,.F.);
#946=ORIENTED_EDGE('',*,*,#733,.T.);
#947=ORIENTED_EDGE('',*,*,#734,.T.);
#948=ORIENTED_EDGE('',*,*,#733,.F.);
#949=ORIENTED_EDGE('',*,*,#734,.F.);
#950=ORIENTED_EDGE('',*,*,#650,.F.);
#951=ORIENTED_EDGE('',*,*,#735,.F.);
#952=ORIENTED_EDGE('',*,*,#736,.T.);
#953=ORIENTED_EDGE('',*,*,#737,.T.);
#954=ORIENTED_EDGE('',*,*,#736,.F.);
#955=ORIENTED_EDGE('',*,*,#737,.F.);
#956=ORIENTED_EDGE('',*,*,#674,.F.);
#957=ORIENTED_EDGE('',*,*,#738,.F.);
#958=ORIENTED_EDGE('',*,*,#739,.T.);
#959=ORIENTED_EDGE('',*,*,#740,.T.);
#960=ORIENTED_EDGE('',*,*,#739,.F.);
#961=ORIENTED_EDGE('',*,*,#740,.F.);
#962=ORIENTED_EDGE('',*,*,#678,.F.);
#963=ORIENTED_EDGE('',*,*,#646,.T.);
#964=ORIENTED_EDGE('',*,*,#741,.F.);
#965=ORIENTED_EDGE('',*,*,#742,.F.);
#966=ORIENTED_EDGE('',*,*,#726,.F.);
#967=ORIENTED_EDGE('',*,*,#645,.T.);
#968=ORIENTED_EDGE('',*,*,#743,.F.);
#969=ORIENTED_EDGE('',*,*,#744,.F.);
#970=ORIENTED_EDGE('',*,*,#741,.T.);
#971=ORIENTED_EDGE('',*,*,#644,.T.);
#972=ORIENTED_EDGE('',*,*,#745,.F.);
#973=ORIENTED_EDGE('',*,*,#746,.F.);
#974=ORIENTED_EDGE('',*,*,#743,.T.);
#975=ORIENTED_EDGE('',*,*,#643,.T.);
#976=ORIENTED_EDGE('',*,*,#747,.T.);
#977=ORIENTED_EDGE('',*,*,#748,.F.);
#978=ORIENTED_EDGE('',*,*,#745,.T.);
#979=ORIENTED_EDGE('',*,*,#642,.T.);
#980=ORIENTED_EDGE('',*,*,#749,.F.);
#981=ORIENTED_EDGE('',*,*,#750,.F.);
#982=ORIENTED_EDGE('',*,*,#747,.F.);
#983=ORIENTED_EDGE('',*,*,#641,.T.);
#984=ORIENTED_EDGE('',*,*,#751,.F.);
#985=ORIENTED_EDGE('',*,*,#752,.F.);
#986=ORIENTED_EDGE('',*,*,#749,.T.);
#987=ORIENTED_EDGE('',*,*,#640,.T.);
#988=ORIENTED_EDGE('',*,*,#753,.F.);
#989=ORIENTED_EDGE('',*,*,#754,.F.);
#990=ORIENTED_EDGE('',*,*,#691,.F.);
#991=ORIENTED_EDGE('',*,*,#755,.F.);
#992=ORIENTED_EDGE('',*,*,#751,.T.);
#993=ORIENTED_EDGE('',*,*,#639,.T.);
#994=ORIENTED_EDGE('',*,*,#756,.F.);
#995=ORIENTED_EDGE('',*,*,#757,.T.);
#996=ORIENTED_EDGE('',*,*,#758,.T.);
#997=ORIENTED_EDGE('',*,*,#753,.T.);
#998=ORIENTED_EDGE('',*,*,#638,.T.);
#999=ORIENTED_EDGE('',*,*,#694,.F.);
#1000=ORIENTED_EDGE('',*,*,#759,.T.);
#1001=ORIENTED_EDGE('',*,*,#756,.T.);
#1002=ORIENTED_EDGE('',*,*,#636,.T.);
#1003=ORIENTED_EDGE('',*,*,#760,.F.);
#1004=ORIENTED_EDGE('',*,*,#761,.F.);
#1005=ORIENTED_EDGE('',*,*,#695,.F.);
#1006=ORIENTED_EDGE('',*,*,#762,.T.);
#1007=ORIENTED_EDGE('',*,*,#763,.F.);
#1008=ORIENTED_EDGE('',*,*,#764,.F.);
#1009=ORIENTED_EDGE('',*,*,#697,.F.);
#1010=ORIENTED_EDGE('',*,*,#738,.T.);
#1011=ORIENTED_EDGE('',*,*,#735,.T.);
#1012=ORIENTED_EDGE('',*,*,#732,.T.);
#1013=ORIENTED_EDGE('',*,*,#729,.T.);
#1014=ORIENTED_EDGE('',*,*,#750,.T.);
#1015=ORIENTED_EDGE('',*,*,#752,.T.);
#1016=ORIENTED_EDGE('',*,*,#755,.T.);
#1017=ORIENTED_EDGE('',*,*,#690,.F.);
#1018=ORIENTED_EDGE('',*,*,#765,.T.);
#1019=ORIENTED_EDGE('',*,*,#766,.T.);
#1020=ORIENTED_EDGE('',*,*,#767,.T.);
#1021=ORIENTED_EDGE('',*,*,#686,.F.);
#1022=ORIENTED_EDGE('',*,*,#768,.T.);
#1023=ORIENTED_EDGE('',*,*,#769,.T.);
#1024=ORIENTED_EDGE('',*,*,#770,.T.);
#1025=ORIENTED_EDGE('',*,*,#771,.F.);
#1026=ORIENTED_EDGE('',*,*,#772,.T.);
#1027=ORIENTED_EDGE('',*,*,#773,.T.);
#1028=ORIENTED_EDGE('',*,*,#774,.T.);
#1029=ORIENTED_EDGE('',*,*,#727,.T.);
#1030=ORIENTED_EDGE('',*,*,#742,.T.);
#1031=ORIENTED_EDGE('',*,*,#744,.T.);
#1032=ORIENTED_EDGE('',*,*,#746,.T.);
#1033=ORIENTED_EDGE('',*,*,#748,.T.);
#1034=ORIENTED_EDGE('',*,*,#664,.T.);
#1035=ORIENTED_EDGE('',*,*,#775,.F.);
#1036=ORIENTED_EDGE('',*,*,#770,.F.);
#1037=ORIENTED_EDGE('',*,*,#776,.T.);
#1038=ORIENTED_EDGE('',*,*,#665,.T.);
#1039=ORIENTED_EDGE('',*,*,#776,.F.);
#1040=ORIENTED_EDGE('',*,*,#769,.F.);
#1041=ORIENTED_EDGE('',*,*,#777,.T.);
#1042=ORIENTED_EDGE('',*,*,#667,.T.);
#1043=ORIENTED_EDGE('',*,*,#778,.F.);
#1044=ORIENTED_EDGE('',*,*,#779,.T.);
#1045=ORIENTED_EDGE('',*,*,#780,.T.);
#1046=ORIENTED_EDGE('',*,*,#781,.F.);
#1047=ORIENTED_EDGE('',*,*,#668,.T.);
#1048=ORIENTED_EDGE('',*,*,#781,.T.);
#1049=ORIENTED_EDGE('',*,*,#782,.T.);
#1050=ORIENTED_EDGE('',*,*,#682,.F.);
#1051=ORIENTED_EDGE('',*,*,#660,.T.);
#1052=ORIENTED_EDGE('',*,*,#728,.F.);
#1053=ORIENTED_EDGE('',*,*,#774,.F.);
#1054=ORIENTED_EDGE('',*,*,#783,.T.);
#1055=ORIENTED_EDGE('',*,*,#662,.T.);
#1056=ORIENTED_EDGE('',*,*,#784,.F.);
#1057=ORIENTED_EDGE('',*,*,#772,.F.);
#1058=ORIENTED_EDGE('',*,*,#785,.F.);
#1059=ORIENTED_EDGE('',*,*,#661,.T.);
#1060=ORIENTED_EDGE('',*,*,#783,.F.);
#1061=ORIENTED_EDGE('',*,*,#773,.F.);
#1062=ORIENTED_EDGE('',*,*,#784,.T.);
#1063=ORIENTED_EDGE('',*,*,#725,.T.);
#1064=ORIENTED_EDGE('',*,*,#671,.T.);
#1065=ORIENTED_EDGE('',*,*,#786,.T.);
#1066=ORIENTED_EDGE('',*,*,#787,.T.);
#1067=ORIENTED_EDGE('',*,*,#763,.T.);
#1068=ORIENTED_EDGE('',*,*,#788,.T.);
#1069=ORIENTED_EDGE('',*,*,#760,.T.);
#1070=ORIENTED_EDGE('',*,*,#635,.T.);
#1071=ORIENTED_EDGE('',*,*,#722,.T.);
#1072=ORIENTED_EDGE('',*,*,#719,.F.);
#1073=ORIENTED_EDGE('',*,*,#716,.T.);
#1074=ORIENTED_EDGE('',*,*,#712,.F.);
#1075=ORIENTED_EDGE('',*,*,#663,.T.);
#1076=ORIENTED_EDGE('',*,*,#785,.T.);
#1077=ORIENTED_EDGE('',*,*,#771,.T.);
#1078=ORIENTED_EDGE('',*,*,#775,.T.);
#1079=ORIENTED_EDGE('',*,*,#711,.F.);
#1080=ORIENTED_EDGE('',*,*,#703,.F.);
#1081=ORIENTED_EDGE('',*,*,#707,.F.);
#1082=ORIENTED_EDGE('',*,*,#666,.T.);
#1083=ORIENTED_EDGE('',*,*,#777,.F.);
#1084=ORIENTED_EDGE('',*,*,#768,.F.);
#1085=ORIENTED_EDGE('',*,*,#685,.T.);
#1086=ORIENTED_EDGE('',*,*,#789,.T.);
#1087=ORIENTED_EDGE('',*,*,#778,.T.);
#1088=ORIENTED_EDGE('',*,*,#670,.T.);
#1089=ORIENTED_EDGE('',*,*,#699,.F.);
#1090=ORIENTED_EDGE('',*,*,#790,.T.);
#1091=ORIENTED_EDGE('',*,*,#786,.F.);
#1092=ORIENTED_EDGE('',*,*,#782,.F.);
#1093=ORIENTED_EDGE('',*,*,#780,.F.);
#1094=ORIENTED_EDGE('',*,*,#791,.F.);
#1095=ORIENTED_EDGE('',*,*,#683,.T.);
#1096=ORIENTED_EDGE('',*,*,#684,.F.);
#1097=ORIENTED_EDGE('',*,*,#791,.T.);
#1098=ORIENTED_EDGE('',*,*,#779,.F.);
#1099=ORIENTED_EDGE('',*,*,#789,.F.);
#1100=ORIENTED_EDGE('',*,*,#764,.T.);
#1101=ORIENTED_EDGE('',*,*,#787,.F.);
#1102=ORIENTED_EDGE('',*,*,#790,.F.);
#1103=ORIENTED_EDGE('',*,*,#698,.T.);
#1104=ORIENTED_EDGE('',*,*,#759,.F.);
#1105=ORIENTED_EDGE('',*,*,#693,.F.);
#1106=ORIENTED_EDGE('',*,*,#792,.T.);
#1107=ORIENTED_EDGE('',*,*,#757,.F.);
#1108=ORIENTED_EDGE('',*,*,#692,.F.);
#1109=ORIENTED_EDGE('',*,*,#754,.T.);
#1110=ORIENTED_EDGE('',*,*,#758,.F.);
#1111=ORIENTED_EDGE('',*,*,#792,.F.);
#1112=ORIENTED_EDGE('',*,*,#761,.T.);
#1113=ORIENTED_EDGE('',*,*,#788,.F.);
#1114=ORIENTED_EDGE('',*,*,#762,.F.);
#1115=ORIENTED_EDGE('',*,*,#696,.T.);
#1116=ORIENTED_EDGE('',*,*,#766,.F.);
#1117=ORIENTED_EDGE('',*,*,#793,.T.);
#1118=ORIENTED_EDGE('',*,*,#794,.T.);
#1119=ORIENTED_EDGE('',*,*,#795,.T.);
#1120=ORIENTED_EDGE('',*,*,#765,.F.);
#1121=ORIENTED_EDGE('',*,*,#689,.F.);
#1122=ORIENTED_EDGE('',*,*,#796,.T.);
#1123=ORIENTED_EDGE('',*,*,#793,.F.);
#1124=ORIENTED_EDGE('',*,*,#688,.F.);
#1125=ORIENTED_EDGE('',*,*,#797,.T.);
#1126=ORIENTED_EDGE('',*,*,#794,.F.);
#1127=ORIENTED_EDGE('',*,*,#796,.F.);
#1128=ORIENTED_EDGE('',*,*,#767,.F.);
#1129=ORIENTED_EDGE('',*,*,#795,.F.);
#1130=ORIENTED_EDGE('',*,*,#797,.F.);
#1131=ORIENTED_EDGE('',*,*,#687,.F.);
#1132=CONICAL_SURFACE('',#1220,3.15,0.785398163397451);
#1133=CONICAL_SURFACE('',#1229,3.15,0.785398163397451);
#1134=CONICAL_SURFACE('',#1233,3.15,0.785398163397451);
#1135=CONICAL_SURFACE('',#1242,3.15,0.785398163397451);
#1136=CONICAL_SURFACE('',#1246,3.40000000000001,0.785398163397451);
#1137=CONICAL_SURFACE('',#1259,3.4,0.785398163397448);
#1138=CONICAL_SURFACE('',#1263,3.40000000000001,0.785398163397451);
#1139=ADVANCED_FACE('',(#90),#1132,.F.);
#1140=ADVANCED_FACE('',(#91,#37,#38),#52,.F.);
#1141=ADVANCED_FACE('',(#92),#15,.F.);
#1142=ADVANCED_FACE('',(#93),#1133,.F.);
#1143=ADVANCED_FACE('',(#94),#16,.F.);
#1144=ADVANCED_FACE('',(#95),#1134,.F.);
#1145=ADVANCED_FACE('',(#96,#39,#40),#53,.F.);
#1146=ADVANCED_FACE('',(#97),#17,.F.);
#1147=ADVANCED_FACE('',(#98),#1135,.F.);
#1148=ADVANCED_FACE('',(#99),#18,.F.);
#1149=ADVANCED_FACE('',(#100),#1136,.F.);
#1150=ADVANCED_FACE('',(#101,#41,#42,#43),#54,.F.);
#1151=ADVANCED_FACE('',(#102),#19,.F.);
#1152=ADVANCED_FACE('',(#103),#1137,.F.);
#1153=ADVANCED_FACE('',(#104),#20,.F.);
#1154=ADVANCED_FACE('',(#105),#1138,.F.);
#1155=ADVANCED_FACE('',(#106),#21,.F.);
#1156=ADVANCED_FACE('',(#107),#22,.F.);
#1157=ADVANCED_FACE('',(#108),#55,.F.);
#1158=ADVANCED_FACE('',(#109),#23,.F.);
#1159=ADVANCED_FACE('',(#110),#56,.F.);
#1160=ADVANCED_FACE('',(#111),#57,.F.);
#1161=ADVANCED_FACE('',(#112),#58,.F.);
#1162=ADVANCED_FACE('',(#113),#24,.F.);
#1163=ADVANCED_FACE('',(#114,#44),#59,.T.);
#1164=ADVANCED_FACE('',(#115),#25,.F.);
#1165=ADVANCED_FACE('',(#116,#45),#60,.T.);
#1166=ADVANCED_FACE('',(#117),#26,.F.);
#1167=ADVANCED_FACE('',(#118,#46),#61,.T.);
#1168=ADVANCED_FACE('',(#119),#27,.F.);
#1169=ADVANCED_FACE('',(#120,#47),#62,.T.);
#1170=ADVANCED_FACE('',(#121),#63,.T.);
#1171=ADVANCED_FACE('',(#122),#28,.T.);
#1172=ADVANCED_FACE('',(#123),#64,.T.);
#1173=ADVANCED_FACE('',(#124),#65,.F.);
#1174=ADVANCED_FACE('',(#125),#66,.T.);
#1175=ADVANCED_FACE('',(#126),#29,.T.);
#1176=ADVANCED_FACE('',(#127),#67,.T.);
#1177=ADVANCED_FACE('',(#128),#68,.T.);
#1178=ADVANCED_FACE('',(#129),#69,.F.);
#1179=ADVANCED_FACE('',(#130),#70,.T.);
#1180=ADVANCED_FACE('',(#131,#48,#49,#50,#51),#71,.T.);
#1181=ADVANCED_FACE('',(#132),#72,.F.);
#1182=ADVANCED_FACE('',(#133),#73,.T.);
#1183=ADVANCED_FACE('',(#134),#30,.T.);
#1184=ADVANCED_FACE('',(#135),#74,.T.);
#1185=ADVANCED_FACE('',(#136),#75,.F.);
#1186=ADVANCED_FACE('',(#137),#76,.T.);
#1187=ADVANCED_FACE('',(#138),#77,.T.);
#1188=ADVANCED_FACE('',(#139),#31,.T.);
#1189=ADVANCED_FACE('',(#140),#78,.T.);
#1190=ADVANCED_FACE('',(#141),#79,.F.);
#1191=ADVANCED_FACE('',(#142),#80,.T.);
#1192=ADVANCED_FACE('',(#143),#81,.T.);
#1193=ADVANCED_FACE('',(#144),#82,.T.);
#1194=ADVANCED_FACE('',(#145),#83,.T.);
#1195=ADVANCED_FACE('',(#146),#84,.T.);
#1196=ADVANCED_FACE('',(#147),#85,.T.);
#1197=ADVANCED_FACE('',(#148),#32,.T.);
#1198=ADVANCED_FACE('',(#149),#33,.T.);
#1199=ADVANCED_FACE('',(#150),#86,.T.);
#1200=ADVANCED_FACE('',(#151),#34,.T.);
#1201=ADVANCED_FACE('',(#152),#35,.T.);
#1202=ADVANCED_FACE('',(#153),#87,.F.);
#1203=ADVANCED_FACE('',(#154),#88,.T.);
#1204=ADVANCED_FACE('',(#155),#36,.T.);
#1205=ADVANCED_FACE('',(#156),#89,.T.);
#1206=CLOSED_SHELL('',(#1139,#1140,#1141,#1142,#1143,#1144,#1145,#1146,
#1147,#1148,#1149,#1150,#1151,#1152,#1153,#1154,#1155,#1156,#1157,#1158,
#1159,#1160,#1161,#1162,#1163,#1164,#1165,#1166,#1167,#1168,#1169,#1170,
#1171,#1172,#1173,#1174,#1175,#1176,#1177,#1178,#1179,#1180,#1181,#1182,
#1183,#1184,#1185,#1186,#1187,#1188,#1189,#1190,#1191,#1192,#1193,#1194,
#1195,#1196,#1197,#1198,#1199,#1200,#1201,#1202,#1203,#1204,#1205));
#1207=DERIVED_UNIT_ELEMENT(#1209,1.);
#1208=DERIVED_UNIT_ELEMENT(#2041,-3.);
#1209=(
MASS_UNIT()
NAMED_UNIT(*)
SI_UNIT(.KILO.,.GRAM.)
);
#1210=DERIVED_UNIT((#1207,#1208));
#1211=MEASURE_REPRESENTATION_ITEM('density measure',
POSITIVE_RATIO_MEASURE(7850.),#1210);
#1212=PROPERTY_DEFINITION_REPRESENTATION(#1217,#1214);
#1213=PROPERTY_DEFINITION_REPRESENTATION(#1218,#1215);
#1214=REPRESENTATION('material name',(#1216),#2038);
#1215=REPRESENTATION('density',(#1211),#2038);
#1216=DESCRIPTIVE_REPRESENTATION_ITEM('Steel','Steel');
#1217=PROPERTY_DEFINITION('material property','material name',#2048);
#1218=PROPERTY_DEFINITION('material property','density of part',#2048);
#1219=AXIS2_PLACEMENT_3D('',#1692,#1338,#1339);
#1220=AXIS2_PLACEMENT_3D('',#1693,#1340,#1341);
#1221=AXIS2_PLACEMENT_3D('',#1695,#1342,#1343);
#1222=AXIS2_PLACEMENT_3D('',#1698,#1345,#1346);
#1223=AXIS2_PLACEMENT_3D('',#1699,#1347,#1348);
#1224=AXIS2_PLACEMENT_3D('',#1716,#1356,#1357);
#1225=AXIS2_PLACEMENT_3D('',#1724,#1361,#1362);
#1226=AXIS2_PLACEMENT_3D('',#1729,#1365,#1366);
#1227=AXIS2_PLACEMENT_3D('',#1730,#1367,#1368);
#1228=AXIS2_PLACEMENT_3D('',#1733,#1370,#1371);
#1229=AXIS2_PLACEMENT_3D('',#1734,#1372,#1373);
#1230=AXIS2_PLACEMENT_3D('',#1737,#1375,#1376);
#1231=AXIS2_PLACEMENT_3D('',#1738,#1377,#1378);
#1232=AXIS2_PLACEMENT_3D('',#1741,#1380,#1381);
#1233=AXIS2_PLACEMENT_3D('',#1742,#1382,#1383);
#1234=AXIS2_PLACEMENT_3D('',#1744,#1384,#1385);
#1235=AXIS2_PLACEMENT_3D('',#1747,#1387,#1388);
#1236=AXIS2_PLACEMENT_3D('',#1748,#1389,#1390);
#1237=AXIS2_PLACEMENT_3D('',#1757,#1394,#1395);
#1238=AXIS2_PLACEMENT_3D('',#1765,#1399,#1400);
#1239=AXIS2_PLACEMENT_3D('',#1778,#1407,#1408);
#1240=AXIS2_PLACEMENT_3D('',#1779,#1409,#1410);
#1241=AXIS2_PLACEMENT_3D('',#1782,#1412,#1413);
#1242=AXIS2_PLACEMENT_3D('',#1783,#1414,#1415);
#1243=AXIS2_PLACEMENT_3D('',#1786,#1417,#1418);
#1244=AXIS2_PLACEMENT_3D('',#1787,#1419,#1420);
#1245=AXIS2_PLACEMENT_3D('',#1790,#1422,#1423);
#1246=AXIS2_PLACEMENT_3D('',#1791,#1424,#1425);
#1247=AXIS2_PLACEMENT_3D('',#1793,#1426,#1427);
#1248=AXIS2_PLACEMENT_3D('',#1796,#1429,#1430);
#1249=AXIS2_PLACEMENT_3D('',#1797,#1431,#1432);
#1250=AXIS2_PLACEMENT_3D('',#1803,#1435,#1436);
#1251=AXIS2_PLACEMENT_3D('',#1811,#1440,#1441);
#1252=AXIS2_PLACEMENT_3D('',#1819,#1445,#1446);
#1253=AXIS2_PLACEMENT_3D('',#1826,#1450,#1451);
#1254=AXIS2_PLACEMENT_3D('',#1830,#1453,#1454);
#1255=AXIS2_PLACEMENT_3D('',#1833,#1456,#1457);
#1256=AXIS2_PLACEMENT_3D('',#1835,#1458,#1459);
#1257=AXIS2_PLACEMENT_3D('',#1836,#1460,#1461);
#1258=AXIS2_PLACEMENT_3D('',#1839,#1463,#1464);
#1259=AXIS2_PLACEMENT_3D('',#1840,#1465,#1466);
#1260=AXIS2_PLACEMENT_3D('',#1843,#1468,#1469);
#1261=AXIS2_PLACEMENT_3D('',#1844,#1470,#1471);
#1262=AXIS2_PLACEMENT_3D('',#1847,#1473,#1474);
#1263=AXIS2_PLACEMENT_3D('',#1848,#1475,#1476);
#1264=AXIS2_PLACEMENT_3D('',#1851,#1478,#1479);
#1265=AXIS2_PLACEMENT_3D('',#1852,#1480,#1481);
#1266=AXIS2_PLACEMENT_3D('',#1855,#1483,#1484);
#1267=AXIS2_PLACEMENT_3D('',#1856,#1485,#1486);
#1268=AXIS2_PLACEMENT_3D('',#1859,#1487,#1488);
#1269=AXIS2_PLACEMENT_3D('',#1863,#1490,#1491);
#1270=AXIS2_PLACEMENT_3D('',#1865,#1493,#1494);
#1271=AXIS2_PLACEMENT_3D('',#1871,#1498,#1499);
#1272=AXIS2_PLACEMENT_3D('',#1873,#1500,#1501);
#1273=AXIS2_PLACEMENT_3D('',#1876,#1503,#1504);
#1274=AXIS2_PLACEMENT_3D('',#1877,#1505,#1506);
#1275=AXIS2_PLACEMENT_3D('',#1880,#1509,#1510);
#1276=AXIS2_PLACEMENT_3D('',#1883,#1513,#1514);
#1277=AXIS2_PLACEMENT_3D('',#1889,#1518,#1519);
#1278=AXIS2_PLACEMENT_3D('',#1891,#1520,#1521);
#1279=AXIS2_PLACEMENT_3D('',#1894,#1523,#1524);
#1280=AXIS2_PLACEMENT_3D('',#1895,#1525,#1526);
#1281=AXIS2_PLACEMENT_3D('',#1896,#1527,#1528);
#1282=AXIS2_PLACEMENT_3D('',#1898,#1529,#1530);
#1283=AXIS2_PLACEMENT_3D('',#1901,#1532,#1533);
#1284=AXIS2_PLACEMENT_3D('',#1902,#1534,#1535);
#1285=AXIS2_PLACEMENT_3D('',#1903,#1536,#1537);
#1286=AXIS2_PLACEMENT_3D('',#1905,#1538,#1539);
#1287=AXIS2_PLACEMENT_3D('',#1908,#1541,#1542);
#1288=AXIS2_PLACEMENT_3D('',#1909,#1543,#1544);
#1289=AXIS2_PLACEMENT_3D('',#1910,#1545,#1546);
#1290=AXIS2_PLACEMENT_3D('',#1912,#1547,#1548);
#1291=AXIS2_PLACEMENT_3D('',#1915,#1550,#1551);
#1292=AXIS2_PLACEMENT_3D('',#1916,#1552,#1553);
#1293=AXIS2_PLACEMENT_3D('',#1917,#1554,#1555);
#1294=AXIS2_PLACEMENT_3D('',#1921,#1558,#1559);
#1295=AXIS2_PLACEMENT_3D('',#1924,#1561,#1562);
#1296=AXIS2_PLACEMENT_3D('',#1925,#1563,#1564);
#1297=AXIS2_PLACEMENT_3D('',#1929,#1567,#1568);
#1298=AXIS2_PLACEMENT_3D('',#1933,#1571,#1572);
#1299=AXIS2_PLACEMENT_3D('',#1937,#1575,#1576);
#1300=AXIS2_PLACEMENT_3D('',#1940,#1578,#1579);
#1301=AXIS2_PLACEMENT_3D('',#1941,#1580,#1581);
#1302=AXIS2_PLACEMENT_3D('',#1946,#1585,#1586);
#1303=AXIS2_PLACEMENT_3D('',#1951,#1589,#1590);
#1304=AXIS2_PLACEMENT_3D('',#1952,#1591,#1592);
#1305=AXIS2_PLACEMENT_3D('',#1954,#1594,#1595);
#1306=AXIS2_PLACEMENT_3D('',#1958,#1598,#1599);
#1307=AXIS2_PLACEMENT_3D('',#1964,#1603,#1604);
#1308=AXIS2_PLACEMENT_3D('',#1973,#1609,#1610);
#1309=AXIS2_PLACEMENT_3D('',#1981,#1614,#1615);
#1310=AXIS2_PLACEMENT_3D('',#1983,#1617,#1618);
#1311=AXIS2_PLACEMENT_3D('',#1986,#1621,#1622);
#1312=AXIS2_PLACEMENT_3D('',#1988,#1624,#1625);
#1313=AXIS2_PLACEMENT_3D('',#1992,#1627,#1628);
#1314=AXIS2_PLACEMENT_3D('',#1996,#1631,#1632);
#1315=AXIS2_PLACEMENT_3D('',#1998,#1634,#1635);
#1316=AXIS2_PLACEMENT_3D('',#2000,#1637,#1638);
#1317=AXIS2_PLACEMENT_3D('',#2003,#1641,#1642);
#1318=AXIS2_PLACEMENT_3D('',#2004,#1643,#1644);
#1319=AXIS2_PLACEMENT_3D('',#2007,#1646,#1647);
#1320=AXIS2_PLACEMENT_3D('',#2008,#1648,#1649);
#1321=AXIS2_PLACEMENT_3D('',#2009,#1650,#1651);
#1322=AXIS2_PLACEMENT_3D('',#2010,#1652,#1653);
#1323=AXIS2_PLACEMENT_3D('',#2011,#1654,#1655);
#1324=AXIS2_PLACEMENT_3D('',#2012,#1656,#1657);
#1325=AXIS2_PLACEMENT_3D('',#2013,#1658,#1659);
#1326=AXIS2_PLACEMENT_3D('',#2015,#1661,#1662);
#1327=AXIS2_PLACEMENT_3D('',#2017,#1664,#1665);
#1328=AXIS2_PLACEMENT_3D('',#2019,#1667,#1668);
#1329=AXIS2_PLACEMENT_3D('',#2020,#1669,#1670);
#1330=AXIS2_PLACEMENT_3D('',#2021,#1671,#1672);
#1331=AXIS2_PLACEMENT_3D('',#2023,#1674,#1675);
#1332=AXIS2_PLACEMENT_3D('',#2024,#1676,#1677);
#1333=AXIS2_PLACEMENT_3D('',#2025,#1678,#1679);
#1334=AXIS2_PLACEMENT_3D('',#2029,#1681,#1682);
#1335=AXIS2_PLACEMENT_3D('',#2031,#1684,#1685);
#1336=AXIS2_PLACEMENT_3D('',#2033,#1687,#1688);
#1337=AXIS2_PLACEMENT_3D('',#2035,#1690,#1691);
#1338=DIRECTION('axis',(0.,0.,1.));
#1339=DIRECTION('refdir',(1.,0.,0.));
#1340=DIRECTION('center_axis',(0.,-1.,0.));
#1341=DIRECTION('ref_axis',(1.,0.,0.));
#1342=DIRECTION('center_axis',(0.,-1.,0.));
#1343=DIRECTION('ref_axis',(1.,0.,0.));
#1344=DIRECTION('',(0.70710678118655,0.707106781186545,8.65956056235496E-17));
#1345=DIRECTION('center_axis',(0.,1.,0.));
#1346=DIRECTION('ref_axis',(1.,0.,0.));
#1347=DIRECTION('center_axis',(0.,1.,0.));
#1348=DIRECTION('ref_axis',(0.,0.,1.));
#1349=DIRECTION('',(0.,0.,-1.));
#1350=DIRECTION('',(-1.,0.,0.));
#1351=DIRECTION('',(0.,0.,-1.));
#1352=DIRECTION('',(1.,0.,0.));
#1353=DIRECTION('',(0.,0.,1.));
#1354=DIRECTION('',(1.,0.,0.));
#1355=DIRECTION('',(0.,0.,1.));
#1356=DIRECTION('center_axis',(0.,1.,0.));
#1357=DIRECTION('ref_axis',(0.,0.,-1.));
#1358=DIRECTION('',(-1.,0.,-4.03717463500058E-16));
#1359=DIRECTION('',(0.,0.,1.));
#1360=DIRECTION('',(1.,0.,8.07434927000114E-16));
#1361=DIRECTION('center_axis',(0.,1.,0.));
#1362=DIRECTION('ref_axis',(-1.,0.,0.));
#1363=DIRECTION('',(0.,0.,1.));
#1364=DIRECTION('',(1.,0.,0.));
#1365=DIRECTION('center_axis',(0.,-1.,0.));
#1366=DIRECTION('ref_axis',(1.,0.,0.));
#1367=DIRECTION('center_axis',(0.,1.,0.));
#1368=DIRECTION('ref_axis',(1.,0.,0.));
#1369=DIRECTION('',(0.,1.,0.));
#1370=DIRECTION('center_axis',(0.,1.,0.));
#1371=DIRECTION('ref_axis',(1.,0.,0.));
#1372=DIRECTION('center_axis',(0.,-1.,0.));
#1373=DIRECTION('ref_axis',(1.,0.,0.));
#1374=DIRECTION('',(0.70710678118655,0.707106781186545,8.65956056235496E-17));
#1375=DIRECTION('center_axis',(0.,1.,0.));
#1376=DIRECTION('ref_axis',(1.,0.,0.));
#1377=DIRECTION('center_axis',(0.,1.,0.));
#1378=DIRECTION('ref_axis',(1.,0.,0.));
#1379=DIRECTION('',(0.,1.,0.));
#1380=DIRECTION('center_axis',(0.,1.,0.));
#1381=DIRECTION('ref_axis',(1.,0.,0.));
#1382=DIRECTION('center_axis',(0.,-1.,0.));
#1383=DIRECTION('ref_axis',(1.,0.,0.));
#1384=DIRECTION('center_axis',(0.,-1.,0.));
#1385=DIRECTION('ref_axis',(1.,0.,0.));
#1386=DIRECTION('',(0.70710678118655,0.707106781186545,8.65956056235496E-17));
#1387=DIRECTION('center_axis',(0.,1.,0.));
#1388=DIRECTION('ref_axis',(1.,0.,0.));
#1389=DIRECTION('center_axis',(0.,1.,0.));
#1390=DIRECTION('ref_axis',(0.,0.,1.));
#1391=DIRECTION('',(0.,0.,1.));
#1392=DIRECTION('',(1.,0.,0.));
#1393=DIRECTION('',(0.,0.,-1.));
#1394=DIRECTION('center_axis',(0.,1.,0.));
#1395=DIRECTION('ref_axis',(0.,0.,1.));
#1396=DIRECTION('',(1.,0.,-8.07434927000114E-16));
#1397=DIRECTION('',(0.,0.,-1.));
#1398=DIRECTION('',(-1.,0.,4.03717463500058E-16));
#1399=DIRECTION('center_axis',(0.,1.,0.));
#1400=DIRECTION('ref_axis',(1.,0.,0.));
#1401=DIRECTION('',(0.,0.,-1.));
#1402=DIRECTION('',(1.,0.,0.));
#1403=DIRECTION('',(0.,0.,-1.));
#1404=DIRECTION('',(1.,0.,0.));
#1405=DIRECTION('',(0.,0.,1.));
#1406=DIRECTION('',(-1.,0.,0.));
#1407=DIRECTION('center_axis',(0.,-1.,0.));
#1408=DIRECTION('ref_axis',(1.,0.,0.));
#1409=DIRECTION('center_axis',(0.,1.,0.));
#1410=DIRECTION('ref_axis',(1.,0.,0.));
#1411=DIRECTION('',(0.,1.,0.));
#1412=DIRECTION('center_axis',(0.,1.,0.));
#1413=DIRECTION('ref_axis',(1.,0.,0.));
#1414=DIRECTION('center_axis',(0.,-1.,0.));
#1415=DIRECTION('ref_axis',(1.,0.,0.));
#1416=DIRECTION('',(0.70710678118655,0.707106781186545,8.65956056235496E-17));
#1417=DIRECTION('center_axis',(0.,1.,0.));
#1418=DIRECTION('ref_axis',(1.,0.,0.));
#1419=DIRECTION('center_axis',(0.,1.,0.));
#1420=DIRECTION('ref_axis',(1.,0.,0.));
#1421=DIRECTION('',(0.,1.,0.));
#1422=DIRECTION('center_axis',(0.,1.,0.));
#1423=DIRECTION('ref_axis',(1.,0.,0.));
#1424=DIRECTION('center_axis',(0.,0.,1.));
#1425=DIRECTION('ref_axis',(1.,0.,0.));
#1426=DIRECTION('center_axis',(0.,0.,1.));
#1427=DIRECTION('ref_axis',(1.,0.,0.));
#1428=DIRECTION('',(0.70710678118655,8.65956056235496E-17,-0.707106781186545));
#1429=DIRECTION('center_axis',(0.,0.,-1.));
#1430=DIRECTION('ref_axis',(1.,0.,0.));
#1431=DIRECTION('center_axis',(0.,0.,-1.));
#1432=DIRECTION('ref_axis',(-1.,0.,0.));
#1433=DIRECTION('',(-7.40148683083438E-16,1.,0.));
#1434=DIRECTION('',(-1.,2.01858731750029E-16,0.));
#1435=DIRECTION('center_axis',(0.,0.,1.));
#1436=DIRECTION('ref_axis',(0.,-1.,0.));
#1437=DIRECTION('',(0.,-1.,0.));
#1438=DIRECTION('',(1.,1.57001235805578E-16,0.));
#1439=DIRECTION('',(0.,-1.,0.));
#1440=DIRECTION('center_axis',(0.,0.,1.));
#1441=DIRECTION('ref_axis',(-1.,9.51619735392992E-16,0.));
#1442=DIRECTION('',(3.17206569010838E-16,1.,0.));
#1443=DIRECTION('',(1.,1.57001235805578E-16,0.));
#1444=DIRECTION('',(0.,-1.,0.));
#1445=DIRECTION('center_axis',(0.,0.,1.));
#1446=DIRECTION('ref_axis',(-1.,0.,0.));
#1447=DIRECTION('',(1.,6.05576195250087E-16,0.));
#1448=DIRECTION('',(0.,-1.,0.));
#1449=DIRECTION('',(0.,1.,0.));
#1450=DIRECTION('center_axis',(0.,0.,-1.));
#1451=DIRECTION('ref_axis',(1.77635683940015E-14,1.,0.));
#1452=DIRECTION('',(-1.,-1.57001235805578E-16,0.));
#1453=DIRECTION('center_axis',(0.,0.,-1.));
#1454=DIRECTION('ref_axis',(-1.,-2.2204460492504E-14,0.));
#1455=DIRECTION('',(7.40148683083438E-16,-1.,0.));
#1456=DIRECTION('center_axis',(0.,0.,1.));
#1457=DIRECTION('ref_axis',(1.,0.,0.));
#1458=DIRECTION('center_axis',(0.,0.,1.));
#1459=DIRECTION('ref_axis',(1.,0.,0.));
#1460=DIRECTION('center_axis',(0.,0.,-1.));
#1461=DIRECTION('ref_axis',(1.,0.,0.));
#1462=DIRECTION('',(0.,0.,-1.));
#1463=DIRECTION('center_axis',(0.,0.,-1.));
#1464=DIRECTION('ref_axis',(1.,0.,0.));
#1465=DIRECTION('center_axis',(0.,0.,1.));
#1466=DIRECTION('ref_axis',(1.,0.,0.));
#1467=DIRECTION('',(0.707106781186548,8.65956056235493E-17,-0.707106781186548));
#1468=DIRECTION('center_axis',(0.,0.,-1.));
#1469=DIRECTION('ref_axis',(1.,0.,0.));
#1470=DIRECTION('center_axis',(0.,0.,-1.));
#1471=DIRECTION('ref_axis',(1.,0.,0.));
#1472=DIRECTION('',(0.,0.,-1.));
#1473=DIRECTION('center_axis',(0.,0.,-1.));
#1474=DIRECTION('ref_axis',(1.,0.,0.));
#1475=DIRECTION('center_axis',(0.,0.,1.));
#1476=DIRECTION('ref_axis',(1.,0.,0.));
#1477=DIRECTION('',(0.70710678118655,8.65956056235496E-17,-0.707106781186545));
#1478=DIRECTION('center_axis',(0.,0.,-1.));
#1479=DIRECTION('ref_axis',(1.,0.,0.));
#1480=DIRECTION('center_axis',(0.,0.,-1.));
#1481=DIRECTION('ref_axis',(1.,0.,0.));
#1482=DIRECTION('',(0.,0.,-1.));
#1483=DIRECTION('center_axis',(0.,0.,-1.));
#1484=DIRECTION('ref_axis',(1.,0.,0.));
#1485=DIRECTION('center_axis',(0.,0.,1.));
#1486=DIRECTION('ref_axis',(-0.707106781186548,0.707106781186547,0.));
#1487=DIRECTION('center_axis',(0.,0.,-1.));
#1488=DIRECTION('ref_axis',(-0.707106781186548,0.707106781186547,0.));
#1489=DIRECTION('',(0.,0.,1.));
#1490=DIRECTION('center_axis',(0.,0.,1.));
#1491=DIRECTION('ref_axis',(-0.707106781186548,0.707106781186547,0.));
#1492=DIRECTION('',(0.,0.,-1.));
#1493=DIRECTION('center_axis',(0.,1.,0.));
#1494=DIRECTION('ref_axis',(-1.,0.,0.));
#1495=DIRECTION('',(-1.,0.,0.));
#1496=DIRECTION('',(0.,0.,-1.));
#1497=DIRECTION('',(1.,0.,0.));
#1498=DIRECTION('center_axis',(0.,0.,1.));
#1499=DIRECTION('ref_axis',(0.707106781186548,0.707106781186548,0.));
#1500=DIRECTION('center_axis',(0.,0.,-1.));
#1501=DIRECTION('ref_axis',(0.707106781186548,0.707106781186548,0.));
#1502=DIRECTION('',(0.,0.,1.));
#1503=DIRECTION('center_axis',(0.,0.,1.));
#1504=DIRECTION('ref_axis',(0.707106781186548,0.707106781186548,0.));
#1505=DIRECTION('center_axis',(1.,0.,0.));
#1506=DIRECTION('ref_axis',(0.,1.,0.));
#1507=DIRECTION('',(0.,1.,0.));
#1508=DIRECTION('',(0.,-1.,0.));
#1509=DIRECTION('center_axis',(-1.,0.,0.));
#1510=DIRECTION('ref_axis',(0.,-1.,0.));
#1511=DIRECTION('',(0.,1.,0.));
#1512=DIRECTION('',(0.,-1.,0.));
#1513=DIRECTION('center_axis',(0.,0.,-1.));
#1514=DIRECTION('ref_axis',(-1.,0.,0.));
#1515=DIRECTION('',(0.,1.,0.));
#1516=DIRECTION('',(-1.,-1.57001235805578E-16,0.));
#1517=DIRECTION('',(0.,-1.,0.));
#1518=DIRECTION('center_axis',(0.,-1.,0.));
#1519=DIRECTION('ref_axis',(-1.,0.,0.));
#1520=DIRECTION('center_axis',(1.57001235805578E-16,-1.,0.));
#1521=DIRECTION('ref_axis',(-1.,0.,0.));
#1522=DIRECTION('',(0.,-1.,0.));
#1523=DIRECTION('center_axis',(0.,-1.,0.));
#1524=DIRECTION('ref_axis',(-1.,0.,0.));
#1525=DIRECTION('center_axis',(0.,1.,0.));
#1526=DIRECTION('ref_axis',(-1.,0.,0.));
#1527=DIRECTION('center_axis',(0.,-1.,0.));
#1528=DIRECTION('ref_axis',(-1.,0.,0.));
#1529=DIRECTION('center_axis',(1.57001235805578E-16,-1.,0.));
#1530=DIRECTION('ref_axis',(-1.,0.,0.));
#1531=DIRECTION('',(0.,-1.,0.));
#1532=DIRECTION('center_axis',(0.,-1.,0.));
#1533=DIRECTION('ref_axis',(-1.,0.,0.));
#1534=DIRECTION('center_axis',(0.,1.,0.));
#1535=DIRECTION('ref_axis',(-1.,0.,0.));
#1536=DIRECTION('center_axis',(0.,-1.,0.));
#1537=DIRECTION('ref_axis',(-1.,0.,0.));
#1538=DIRECTION('center_axis',(1.57001235805578E-16,-1.,0.));
#1539=DIRECTION('ref_axis',(-1.,0.,0.));
#1540=DIRECTION('',(0.,-1.,0.));
#1541=DIRECTION('center_axis',(0.,-1.,0.));
#1542=DIRECTION('ref_axis',(-1.,0.,0.));
#1543=DIRECTION('center_axis',(0.,1.,0.));
#1544=DIRECTION('ref_axis',(-1.,0.,0.));
#1545=DIRECTION('center_axis',(0.,-1.,0.));
#1546=DIRECTION('ref_axis',(-1.,0.,0.));
#1547=DIRECTION('center_axis',(1.57001235805578E-16,-1.,0.));
#1548=DIRECTION('ref_axis',(-1.,0.,0.));
#1549=DIRECTION('',(0.,-1.,0.));
#1550=DIRECTION('center_axis',(0.,-1.,0.));
#1551=DIRECTION('ref_axis',(-1.,0.,0.));
#1552=DIRECTION('center_axis',(0.,1.,0.));
#1553=DIRECTION('ref_axis',(-1.,0.,0.));
#1554=DIRECTION('center_axis',(-1.,0.,0.));
#1555=DIRECTION('ref_axis',(0.,0.,-1.));
#1556=DIRECTION('',(0.,-1.,0.));
#1557=DIRECTION('',(0.,0.,1.));
#1558=DIRECTION('center_axis',(0.,-1.,0.));
#1559=DIRECTION('ref_axis',(-1.,0.,0.));
#1560=DIRECTION('',(0.,-1.,0.));
#1561=DIRECTION('center_axis',(-1.57001235805578E-16,1.,0.));
#1562=DIRECTION('ref_axis',(-1.,0.,0.));
#1563=DIRECTION('center_axis',(-8.07434927000114E-16,0.,1.));
#1564=DIRECTION('ref_axis',(-1.,0.,-8.07434927000114E-16));
#1565=DIRECTION('',(0.,-1.,0.));
#1566=DIRECTION('',(1.,1.57001235805578E-16,8.07434927000114E-16));
#1567=DIRECTION('center_axis',(1.,0.,0.));
#1568=DIRECTION('ref_axis',(0.,-1.,0.));
#1569=DIRECTION('',(0.,1.,0.));
#1570=DIRECTION('',(0.,0.,1.));
#1571=DIRECTION('center_axis',(4.03717463500058E-16,0.,-1.));
#1572=DIRECTION('ref_axis',(1.,0.,4.03717463500058E-16));
#1573=DIRECTION('',(0.,-1.,0.));
#1574=DIRECTION('',(-1.,-1.57001235805578E-16,-4.03717463500058E-16));
#1575=DIRECTION('center_axis',(0.,-1.,0.));
#1576=DIRECTION('ref_axis',(0.,0.,-1.));
#1577=DIRECTION('',(0.,-1.,0.));
#1578=DIRECTION('center_axis',(-1.57001235805578E-16,1.,0.));
#1579=DIRECTION('ref_axis',(0.,0.,-1.));
#1580=DIRECTION('center_axis',(-1.,0.,0.));
#1581=DIRECTION('ref_axis',(0.,1.,0.));
#1582=DIRECTION('',(0.,-1.,0.));
#1583=DIRECTION('',(0.,0.,-1.));
#1584=DIRECTION('',(0.,0.,1.));
#1585=DIRECTION('center_axis',(0.,0.,1.));
#1586=DIRECTION('ref_axis',(-1.,0.,0.));
#1587=DIRECTION('',(0.,-1.,0.));
#1588=DIRECTION('',(-1.,-6.05576195250087E-16,0.));
#1589=DIRECTION('center_axis',(0.,0.,-1.));
#1590=DIRECTION('ref_axis',(-1.,0.,0.));
#1591=DIRECTION('center_axis',(1.,0.,0.));
#1592=DIRECTION('ref_axis',(0.,-1.,0.));
#1593=DIRECTION('',(0.,0.,-1.));
#1594=DIRECTION('center_axis',(1.,0.,0.));
#1595=DIRECTION('ref_axis',(0.,-1.,0.));
#1596=DIRECTION('',(0.,-1.,0.));
#1597=DIRECTION('',(0.,0.,-1.));
#1598=DIRECTION('center_axis',(-1.57001235805578E-16,1.,0.));
#1599=DIRECTION('ref_axis',(1.,1.57001235805578E-16,0.));
#1600=DIRECTION('',(0.,0.,-1.));
#1601=DIRECTION('',(1.,1.57001235805578E-16,0.));
#1602=DIRECTION('',(0.,0.,-1.));
#1603=DIRECTION('center_axis',(-1.57001235805578E-16,1.,0.));
#1604=DIRECTION('ref_axis',(1.,1.57001235805578E-16,0.));
#1605=DIRECTION('',(0.,0.,-1.));
#1606=DIRECTION('',(-1.,-1.57001235805578E-16,0.));
#1607=DIRECTION('',(0.,0.,1.));
#1608=DIRECTION('',(0.,0.,-1.));
#1609=DIRECTION('center_axis',(-1.57001235805578E-16,1.,0.));
#1610=DIRECTION('ref_axis',(1.,0.,0.));
#1611=DIRECTION('',(-1.,-1.57001235805578E-16,4.03717463500058E-16));
#1612=DIRECTION('',(0.,0.,1.));
#1613=DIRECTION('',(1.,1.57001235805578E-16,-8.07434927000114E-16));
#1614=DIRECTION('center_axis',(-1.57001235805578E-16,1.,0.));
#1615=DIRECTION('ref_axis',(0.,0.,1.));
#1616=DIRECTION('',(0.,0.,-1.));
#1617=DIRECTION('center_axis',(-4.03717463500058E-16,0.,-1.));
#1618=DIRECTION('ref_axis',(1.,0.,-4.03717463500058E-16));
#1619=DIRECTION('',(7.40148683083438E-16,-1.,-2.98810948947354E-31));
#1620=DIRECTION('',(0.,-1.,0.));
#1621=DIRECTION('center_axis',(0.,-1.,0.));
#1622=DIRECTION('ref_axis',(1.,0.,0.));
#1623=DIRECTION('',(0.,-1.,0.));
#1624=DIRECTION('center_axis',(0.,0.,1.));
#1625=DIRECTION('ref_axis',(-1.,0.,0.));
#1626=DIRECTION('',(0.,-1.,0.));
#1627=DIRECTION('center_axis',(0.,0.,-1.));
#1628=DIRECTION('ref_axis',(0.,-1.,0.));
#1629=DIRECTION('',(-1.,2.01858731750029E-16,0.));
#1630=DIRECTION('',(-7.40148683083438E-16,1.,0.));
#1631=DIRECTION('center_axis',(-1.,-7.40148683083438E-16,0.));
#1632=DIRECTION('ref_axis',(-7.40148683083438E-16,1.,0.));
#1633=DIRECTION('',(0.,0.,1.));
#1634=DIRECTION('center_axis',(1.,0.,0.));
#1635=DIRECTION('ref_axis',(0.,0.,1.));
#1636=DIRECTION('',(0.,-1.,0.));
#1637=DIRECTION('center_axis',(8.07434927000114E-16,0.,1.));
#1638=DIRECTION('ref_axis',(-1.,0.,8.07434927000114E-16));
#1639=DIRECTION('',(0.,-1.,0.));
#1640=DIRECTION('',(-7.40148683083438E-16,1.,5.97621897894706E-31));
#1641=DIRECTION('center_axis',(0.,-1.,0.));
#1642=DIRECTION('ref_axis',(0.,0.,1.));
#1643=DIRECTION('center_axis',(0.,0.,-1.));
#1644=DIRECTION('ref_axis',(-1.,0.,0.));
#1645=DIRECTION('',(-7.40148683083438E-16,1.,0.));
#1646=DIRECTION('center_axis',(0.,0.,-1.));
#1647=DIRECTION('ref_axis',(-1.,-2.2204460492504E-14,0.));
#1648=DIRECTION('center_axis',(0.,0.,-1.));
#1649=DIRECTION('ref_axis',(1.77635683940015E-14,1.,0.));
#1650=DIRECTION('center_axis',(-1.,-7.40148683083438E-16,0.));
#1651=DIRECTION('ref_axis',(-7.40148683083438E-16,1.,0.));
#1652=DIRECTION('center_axis',(0.,0.,1.));
#1653=DIRECTION('ref_axis',(1.,0.,0.));
#1654=DIRECTION('center_axis',(0.,0.,1.));
#1655=DIRECTION('ref_axis',(1.,0.,0.));
#1656=DIRECTION('center_axis',(0.,0.,1.));
#1657=DIRECTION('ref_axis',(1.,0.,0.));
#1658=DIRECTION('center_axis',(1.,0.,0.));
#1659=DIRECTION('ref_axis',(0.,-1.,0.));
#1660=DIRECTION('',(0.,0.,-1.));
#1661=DIRECTION('center_axis',(-1.,-7.40148683083438E-16,0.));
#1662=DIRECTION('ref_axis',(-7.40148683083438E-16,1.,0.));
#1663=DIRECTION('',(0.,0.,-1.));
#1664=DIRECTION('center_axis',(-2.01858731750029E-16,-1.,0.));
#1665=DIRECTION('ref_axis',(-1.,2.01858731750029E-16,0.));
#1666=DIRECTION('',(0.,0.,-1.));
#1667=DIRECTION('center_axis',(0.,0.,-1.));
#1668=DIRECTION('ref_axis',(0.,-1.,0.));
#1669=DIRECTION('center_axis',(0.,0.,-1.));
#1670=DIRECTION('ref_axis',(-1.,-2.2204460492504E-14,0.));
#1671=DIRECTION('center_axis',(6.05576195250087E-16,-1.,0.));
#1672=DIRECTION('ref_axis',(-1.,-6.05576195250087E-16,0.));
#1673=DIRECTION('',(0.,0.,-1.));
#1674=DIRECTION('center_axis',(0.,0.,-1.));
#1675=DIRECTION('ref_axis',(-1.,0.,0.));
#1676=DIRECTION('center_axis',(0.,0.,-1.));
#1677=DIRECTION('ref_axis',(1.77635683940015E-14,1.,0.));
#1678=DIRECTION('center_axis',(0.,0.,1.));
#1679=DIRECTION('ref_axis',(1.,0.,0.));
#1680=DIRECTION('',(-3.17206569010838E-16,-1.,0.));
#1681=DIRECTION('center_axis',(0.,0.,-1.));
#1682=DIRECTION('ref_axis',(-1.,9.51619735392992E-16,0.));
#1683=DIRECTION('',(0.,1.,0.));
#1684=DIRECTION('center_axis',(1.,-3.17206569010838E-16,0.));
#1685=DIRECTION('ref_axis',(-3.17206569010838E-16,-1.,0.));
#1686=DIRECTION('',(0.,0.,-1.));
#1687=DIRECTION('center_axis',(0.,0.,-1.));
#1688=DIRECTION('ref_axis',(-1.,9.51619735392992E-16,0.));
#1689=DIRECTION('',(0.,0.,-1.));
#1690=DIRECTION('center_axis',(-1.,0.,0.));
#1691=DIRECTION('ref_axis',(0.,1.,0.));
#1692=CARTESIAN_POINT('',(0.,0.,0.));
#1693=CARTESIAN_POINT('Origin',(91.0000014901161,0.65,-18.0000001341104));
#1694=CARTESIAN_POINT('',(87.2000014901161,0.,-18.0000001341104));
#1695=CARTESIAN_POINT('Origin',(91.0000014901161,0.,-18.0000001341104));
#1696=CARTESIAN_POINT('',(88.5000014901161,1.3,-18.0000001341104));
#1697=CARTESIAN_POINT('',(87.8500014901161,0.65,-18.0000001341104));
#1698=CARTESIAN_POINT('Origin',(91.0000014901161,1.3,-18.0000001341104));
#1699=CARTESIAN_POINT('Origin',(4.88853402202949E-11,0.,-40.));
#1700=CARTESIAN_POINT('',(7.50000006705523,8.19563861220729E-8,-77.));
#1701=CARTESIAN_POINT('',(7.50000006705523,8.19563861220729E-8,-80.));
#1702=CARTESIAN_POINT('',(7.50000006705523,0.,-60.));
#1703=CARTESIAN_POINT('',(100.000000000049,0.,-80.));
#1704=CARTESIAN_POINT('',(4.88853402202949E-11,0.,-80.));
#1705=CARTESIAN_POINT('',(100.000000000049,0.,0.));
#1706=CARTESIAN_POINT('',(100.000000000049,0.,-20.));
#1707=CARTESIAN_POINT('',(97.0000000000489,0.,0.));
#1708=CARTESIAN_POINT('',(4.88853402202949E-11,0.,0.));
#1709=CARTESIAN_POINT('',(97.0000000000489,0.,-9.00000013411045));
#1710=CARTESIAN_POINT('',(97.0000000000489,0.,-20.));
#1711=CARTESIAN_POINT('',(84.0000014901161,0.,-9.00000013411045));
#1712=CARTESIAN_POINT('',(49.5000000000489,0.,-9.00000013411045));
#1713=CARTESIAN_POINT('',(84.0000014901161,0.,-20.0000001341104));
#1714=CARTESIAN_POINT('',(84.0000014901161,0.,-20.));
#1715=CARTESIAN_POINT('',(89.0000014901161,0.,-25.0000001341105));
#1716=CARTESIAN_POINT('Origin',(89.0000014901161,0.,-20.0000001341104));
#1717=CARTESIAN_POINT('',(97.0000000000489,0.,-25.0000001341104));
#1718=CARTESIAN_POINT('',(44.5000007450825,0.,-25.0000001341105));
#1719=CARTESIAN_POINT('',(97.0000000000489,0.,-64.0000011920929));
#1720=CARTESIAN_POINT('',(97.0000000000489,0.,-20.));
#1721=CARTESIAN_POINT('',(89.0000014901161,0.,-64.0000011920929));
#1722=CARTESIAN_POINT('',(49.5000000000489,0.,-64.000001192093));
#1723=CARTESIAN_POINT('',(84.0000014901161,0.,-69.0000011920929));
#1724=CARTESIAN_POINT('Origin',(89.0000014901161,0.,-69.0000011920929));
#1725=CARTESIAN_POINT('',(84.0000014901161,0.,-77.));
#1726=CARTESIAN_POINT('',(84.0000014901161,0.,-54.5000005960465));
#1727=CARTESIAN_POINT('',(4.88853402202949E-11,0.,-77.));
#1728=CARTESIAN_POINT('',(87.2000014901161,0.,-71.0000011920929));
#1729=CARTESIAN_POINT('Origin',(91.0000014901161,0.,-71.0000011920929));
#1730=CARTESIAN_POINT('Origin',(91.0000014901161,0.,-18.0000001341104));
#1731=CARTESIAN_POINT('',(88.5000014901161,20.9999999999878,-18.0000001341104));
#1732=CARTESIAN_POINT('',(88.5000014901161,0.,-18.0000001341104));
#1733=CARTESIAN_POINT('Origin',(91.0000014901161,20.9999999999878,-18.0000001341104));
#1734=CARTESIAN_POINT('Origin',(91.0000014901161,0.65,-71.0000011920929));
#1735=CARTESIAN_POINT('',(88.5000014901161,1.3,-71.0000011920929));
#1736=CARTESIAN_POINT('',(87.8500014901162,0.65,-71.0000011920929));
#1737=CARTESIAN_POINT('Origin',(91.0000014901161,1.3,-71.0000011920929));
#1738=CARTESIAN_POINT('Origin',(91.0000014901161,0.,-71.0000011920929));
#1739=CARTESIAN_POINT('',(88.5000014901161,20.9999999999878,-71.0000011920929));
#1740=CARTESIAN_POINT('',(88.5000014901161,0.,-71.0000011920929));
#1741=CARTESIAN_POINT('Origin',(91.0000014901161,20.9999999999878,-71.0000011920929));
#1742=CARTESIAN_POINT('Origin',(-91.0000014901161,0.65,-71.0000011920929));
#1743=CARTESIAN_POINT('',(-94.8000014901161,0.,-71.0000011920929));
#1744=CARTESIAN_POINT('Origin',(-91.0000014901161,0.,-71.0000011920929));
#1745=CARTESIAN_POINT('',(-93.5000014901161,1.3,-71.0000011920929));
#1746=CARTESIAN_POINT('',(-94.1500014901162,0.65,-71.0000011920929));
#1747=CARTESIAN_POINT('Origin',(-91.0000014901161,1.3,-71.0000011920929));
#1748=CARTESIAN_POINT('Origin',(4.88853402202949E-11,0.,-40.));
#1749=CARTESIAN_POINT('',(-7.49999993294477,8.19563861220729E-8,-80.));
#1750=CARTESIAN_POINT('',(-7.49999993294477,8.19563861220729E-8,-77.));
#1751=CARTESIAN_POINT('',(-7.49999993294477,0.,-60.));
#1752=CARTESIAN_POINT('',(-84.0000014901161,0.,-77.));
#1753=CARTESIAN_POINT('',(4.88853402202949E-11,0.,-77.));
#1754=CARTESIAN_POINT('',(-84.0000014901161,0.,-69.0000011920929));
#1755=CARTESIAN_POINT('',(-84.0000014901161,0.,-60.0000005960464));
#1756=CARTESIAN_POINT('',(-89.0000014901161,0.,-64.0000011920929));
#1757=CARTESIAN_POINT('Origin',(-89.0000014901161,0.,-69.0000011920929));
#1758=CARTESIAN_POINT('',(-96.9999999999511,0.,-64.0000011920929));
#1759=CARTESIAN_POINT('',(-44.5000007450336,0.,-64.0000011920929));
#1760=CARTESIAN_POINT('',(-96.9999999999511,0.,-25.0000001341105));
#1761=CARTESIAN_POINT('',(-96.9999999999511,0.,-20.));
#1762=CARTESIAN_POINT('',(-89.0000014901161,0.,-25.0000001341105));
#1763=CARTESIAN_POINT('',(-49.4999999999511,0.,-25.0000001341105));
#1764=CARTESIAN_POINT('',(-84.0000014901161,0.,-20.0000001341104));
#1765=CARTESIAN_POINT('Origin',(-89.0000014901161,0.,-20.0000001341104));
#1766=CARTESIAN_POINT('',(-84.0000014901161,0.,-9.00000013411045));
#1767=CARTESIAN_POINT('',(-84.0000014901161,0.,-20.));
#1768=CARTESIAN_POINT('',(-96.9999999999511,0.,-9.00000013411045));
#1769=CARTESIAN_POINT('',(-42.0000007450336,0.,-9.00000013411045));
#1770=CARTESIAN_POINT('',(-96.9999999999511,0.,0.));
#1771=CARTESIAN_POINT('',(-96.9999999999511,0.,-20.));
#1772=CARTESIAN_POINT('',(-99.9999999999511,0.,0.));
#1773=CARTESIAN_POINT('',(4.88853402202949E-11,0.,0.));
#1774=CARTESIAN_POINT('',(-99.9999999999511,0.,-80.));
#1775=CARTESIAN_POINT('',(-99.9999999999511,0.,-20.));
#1776=CARTESIAN_POINT('',(4.88853402202949E-11,0.,-80.));
#1777=CARTESIAN_POINT('',(-94.8000014901161,0.,-18.0000001341105));
#1778=CARTESIAN_POINT('Origin',(-91.0000014901161,0.,-18.0000001341105));
#1779=CARTESIAN_POINT('Origin',(-91.0000014901161,0.,-71.0000011920929));
#1780=CARTESIAN_POINT('',(-93.5000014901161,20.9999999999878,-71.0000011920929));
#1781=CARTESIAN_POINT('',(-93.5000014901161,0.,-71.0000011920929));
#1782=CARTESIAN_POINT('Origin',(-91.0000014901161,20.9999999999878,-71.0000011920929));
#1783=CARTESIAN_POINT('Origin',(-91.0000014901161,0.65,-18.0000001341105));
#1784=CARTESIAN_POINT('',(-93.5000014901161,1.3,-18.0000001341105));
#1785=CARTESIAN_POINT('',(-94.1500014901162,0.65,-18.0000001341105));
#1786=CARTESIAN_POINT('Origin',(-91.0000014901161,1.3,-18.0000001341105));
#1787=CARTESIAN_POINT('Origin',(-91.0000014901161,0.,-18.0000001341105));
#1788=CARTESIAN_POINT('',(-93.5000014901161,20.9999999999878,-18.0000001341105));
#1789=CARTESIAN_POINT('',(-93.5000014901161,0.,-18.0000001341105));
#1790=CARTESIAN_POINT('Origin',(-91.0000014901161,20.9999999999878,-18.0000001341105));
#1791=CARTESIAN_POINT('Origin',(91.0000014901161,16.000000372529,-0.65));
#1792=CARTESIAN_POINT('',(86.9500014901161,16.000000372529,0.));
#1793=CARTESIAN_POINT('Origin',(91.0000014901161,16.000000372529,0.));
#1794=CARTESIAN_POINT('',(88.2500014901161,16.000000372529,-1.3));
#1795=CARTESIAN_POINT('',(87.6000014901161,16.000000372529,-0.65));
#1796=CARTESIAN_POINT('Origin',(91.0000014901161,16.000000372529,-1.3));
#1797=CARTESIAN_POINT('Origin',(4.88853402202949E-11,-1.22302168392707E-11,
0.));
#1798=CARTESIAN_POINT('',(-96.9999999999511,8.99999999998774,0.));
#1799=CARTESIAN_POINT('',(-96.9999999999511,-12.0000000000123,0.));
#1800=CARTESIAN_POINT('',(-88.9999999999512,8.99999999998774,0.));
#1801=CARTESIAN_POINT('',(-88.9999999999512,8.99999999998774,0.));
#1802=CARTESIAN_POINT('',(-83.9999999999512,13.9999999999878,0.));
#1803=CARTESIAN_POINT('Origin',(-88.9999999999512,13.9999999999878,0.));
#1804=CARTESIAN_POINT('',(-83.9999999999512,21.9999999999878,0.));
#1805=CARTESIAN_POINT('',(-83.9999999999512,24.9999999999877,0.));
#1806=CARTESIAN_POINT('',(-7.00000010430813,21.9999999999878,0.));
#1807=CARTESIAN_POINT('',(-49.4999999999511,21.9999999999878,0.));
#1808=CARTESIAN_POINT('',(-7.00000010430813,18.0000001639128,0.));
#1809=CARTESIAN_POINT('',(-7.00000010430813,25.000000372529,0.));
#1810=CARTESIAN_POINT('',(7.00000010430813,18.0000001639128,0.));
#1811=CARTESIAN_POINT('Origin',(-1.04308133797026E-7,18.0000001639128,0.));
#1812=CARTESIAN_POINT('',(7.00000010430813,21.9999999999878,0.));
#1813=CARTESIAN_POINT('',(7.00000010430813,18.0000001639128,0.));
#1814=CARTESIAN_POINT('',(84.0000014901161,21.9999999999878,0.));
#1815=CARTESIAN_POINT('',(-49.4999999999511,21.9999999999878,0.));
#1816=CARTESIAN_POINT('',(84.0000014901161,14.000000372529,0.));
#1817=CARTESIAN_POINT('',(84.0000014901161,25.000000372529,0.));
#1818=CARTESIAN_POINT('',(89.0000014901161,9.00000037252902,0.));
#1819=CARTESIAN_POINT('Origin',(89.0000014901161,14.000000372529,0.));
#1820=CARTESIAN_POINT('',(97.0000000000489,9.00000037252903,0.));
#1821=CARTESIAN_POINT('',(89.0000014901161,9.00000037252902,0.));
#1822=CARTESIAN_POINT('',(97.0000000000489,11.9999999999878,0.));
#1823=CARTESIAN_POINT('',(100.000000000049,23.9999999999878,0.));
#1824=CARTESIAN_POINT('',(100.000000000049,-24.0000000000123,0.));
#1825=CARTESIAN_POINT('',(99.0000000000489,24.9999999999878,0.));
#1826=CARTESIAN_POINT('Origin',(99.0000000000489,23.9999999999877,0.));
#1827=CARTESIAN_POINT('',(-98.9999999999512,24.9999999999877,0.));
#1828=CARTESIAN_POINT('',(99.0000000000489,24.9999999999878,0.));
#1829=CARTESIAN_POINT('',(-99.9999999999511,23.9999999999878,0.));
#1830=CARTESIAN_POINT('Origin',(-98.9999999999512,23.9999999999878,0.));
#1831=CARTESIAN_POINT('',(-99.9999999999511,23.9999999999878,0.));
#1832=CARTESIAN_POINT('',(-4.04999992549419,18.0000002235174,0.));
#1833=CARTESIAN_POINT('Origin',(7.45058070794613E-8,18.0000002235174,0.));
#1834=CARTESIAN_POINT('',(-95.0499999999512,15.9999999999878,0.));
#1835=CARTESIAN_POINT('Origin',(-90.9999999999512,15.9999999999878,0.));
#1836=CARTESIAN_POINT('Origin',(91.0000014901161,16.000000372529,0.));
#1837=CARTESIAN_POINT('',(88.2500014901161,16.000000372529,-7.));
#1838=CARTESIAN_POINT('',(88.2500014901161,16.000000372529,0.));
#1839=CARTESIAN_POINT('Origin',(91.0000014901161,16.000000372529,-7.));
#1840=CARTESIAN_POINT('Origin',(7.45058070794613E-8,18.0000002235174,-0.65));
#1841=CARTESIAN_POINT('',(-2.74999992549419,18.0000002235174,-1.3));
#1842=CARTESIAN_POINT('',(-3.39999992549419,18.0000002235174,-0.65));
#1843=CARTESIAN_POINT('Origin',(7.45058070794613E-8,18.0000002235174,-1.3));
#1844=CARTESIAN_POINT('Origin',(7.45058070794613E-8,18.0000002235174,0.));
#1845=CARTESIAN_POINT('',(-2.74999992549419,18.0000002235174,-7.));
#1846=CARTESIAN_POINT('',(-2.74999992549419,18.0000002235174,0.));
#1847=CARTESIAN_POINT('Origin',(7.45058070794613E-8,18.0000002235174,-7.));
#1848=CARTESIAN_POINT('Origin',(-90.9999999999512,15.9999999999878,-0.65));
#1849=CARTESIAN_POINT('',(-93.7499999999512,15.9999999999878,-1.3));
#1850=CARTESIAN_POINT('',(-94.3999999999512,15.9999999999878,-0.65));
#1851=CARTESIAN_POINT('Origin',(-90.9999999999512,15.9999999999878,-1.3));
#1852=CARTESIAN_POINT('Origin',(-90.9999999999512,15.9999999999878,0.));
#1853=CARTESIAN_POINT('',(-93.7499999999512,15.9999999999878,-7.));
#1854=CARTESIAN_POINT('',(-93.7499999999512,15.9999999999878,0.));
#1855=CARTESIAN_POINT('Origin',(-90.9999999999512,15.9999999999878,-7.));
#1856=CARTESIAN_POINT('Origin',(-6.49999993294477,6.50000008195639,-80.));
#1857=CARTESIAN_POINT('',(-7.49999993294477,6.50000008195639,-80.));
#1858=CARTESIAN_POINT('',(-6.49999993294477,7.50000008195639,-80.));
#1859=CARTESIAN_POINT('Origin',(-6.49999993294477,6.50000008195639,-80.));
#1860=CARTESIAN_POINT('',(-6.49999993294477,7.50000008195639,-77.));
#1861=CARTESIAN_POINT('',(-6.49999993294477,7.50000008195639,-80.));
#1862=CARTESIAN_POINT('',(-7.49999993294477,6.50000008195639,-77.));
#1863=CARTESIAN_POINT('Origin',(-6.49999993294477,6.50000008195639,-77.));
#1864=CARTESIAN_POINT('',(-7.49999993294477,6.50000008195639,-80.));
#1865=CARTESIAN_POINT('Origin',(7.50000006705523,7.50000008195639,-80.));
#1866=CARTESIAN_POINT('',(6.50000006705523,7.50000008195639,-80.));
#1867=CARTESIAN_POINT('',(3.75000003355206,7.50000008195639,-80.));
#1868=CARTESIAN_POINT('',(6.50000006705523,7.50000008195639,-77.));
#1869=CARTESIAN_POINT('',(6.50000006705523,7.50000008195639,-80.));
#1870=CARTESIAN_POINT('',(3.75000003355206,7.50000008195639,-77.));
#1871=CARTESIAN_POINT('Origin',(6.50000006705523,6.50000008195639,-80.));
#1872=CARTESIAN_POINT('',(7.50000006705523,6.50000008195639,-80.));
#1873=CARTESIAN_POINT('Origin',(6.50000006705523,6.50000008195639,-80.));
#1874=CARTESIAN_POINT('',(7.50000006705523,6.50000008195639,-77.));
#1875=CARTESIAN_POINT('',(7.50000006705523,6.50000008195639,-80.));
#1876=CARTESIAN_POINT('Origin',(6.50000006705523,6.50000008195639,-77.));
#1877=CARTESIAN_POINT('Origin',(7.50000006705523,8.19563861220729E-8,-80.));
#1878=CARTESIAN_POINT('',(7.50000006705523,4.09720779526168E-8,-80.));
#1879=CARTESIAN_POINT('',(7.50000006705523,4.09720779526168E-8,-77.));
#1880=CARTESIAN_POINT('Origin',(-7.49999993294477,7.50000008195639,-80.));
#1881=CARTESIAN_POINT('',(-7.49999993294477,3.75000004097208,-77.));
#1882=CARTESIAN_POINT('',(-7.49999993294477,3.75000004097208,-80.));
#1883=CARTESIAN_POINT('Origin',(4.88853402202949E-11,-1.22302168392707E-11,
-77.));
#1884=CARTESIAN_POINT('',(84.0000014901161,21.9999999999878,-77.));
#1885=CARTESIAN_POINT('',(84.0000014901161,12.4999999999878,-77.));
#1886=CARTESIAN_POINT('',(-84.0000014901161,21.9999999999878,-77.));
#1887=CARTESIAN_POINT('',(-49.4999999999511,21.9999999999878,-77.));
#1888=CARTESIAN_POINT('',(-84.0000014901161,12.4999999999878,-77.));
#1889=CARTESIAN_POINT('Origin',(91.0000014901161,24.9999999999878,-71.0000011920929));
#1890=CARTESIAN_POINT('',(94.7500014901161,24.9999999999878,-71.0000011920929));
#1891=CARTESIAN_POINT('Origin',(91.0000014901161,24.9999999999878,-71.0000011920929));
#1892=CARTESIAN_POINT('',(94.7500014901161,20.9999999999878,-71.0000011920929));
#1893=CARTESIAN_POINT('',(94.7500014901161,24.9999999999878,-71.0000011920929));
#1894=CARTESIAN_POINT('Origin',(91.0000014901161,20.9999999999878,-71.0000011920929));
#1895=CARTESIAN_POINT('Origin',(91.0000014901161,20.9999999999878,-71.0000011920929));
#1896=CARTESIAN_POINT('Origin',(91.0000014901161,24.9999999999878,-18.0000001341104));
#1897=CARTESIAN_POINT('',(94.7500014901161,24.9999999999878,-18.0000001341104));
#1898=CARTESIAN_POINT('Origin',(91.0000014901161,24.9999999999878,-18.0000001341104));
#1899=CARTESIAN_POINT('',(94.7500014901161,20.9999999999878,-18.0000001341104));
#1900=CARTESIAN_POINT('',(94.7500014901161,24.9999999999878,-18.0000001341104));
#1901=CARTESIAN_POINT('Origin',(91.0000014901161,20.9999999999878,-18.0000001341104));
#1902=CARTESIAN_POINT('Origin',(91.0000014901161,20.9999999999878,-18.0000001341104));
#1903=CARTESIAN_POINT('Origin',(-91.0000014901161,24.9999999999878,-71.0000011920929));
#1904=CARTESIAN_POINT('',(-87.2500014901161,24.9999999999878,-71.0000011920929));
#1905=CARTESIAN_POINT('Origin',(-91.0000014901161,24.9999999999878,-71.0000011920929));
#1906=CARTESIAN_POINT('',(-87.2500014901161,20.9999999999878,-71.0000011920929));
#1907=CARTESIAN_POINT('',(-87.2500014901161,24.9999999999878,-71.0000011920929));
#1908=CARTESIAN_POINT('Origin',(-91.0000014901161,20.9999999999878,-71.0000011920929));
#1909=CARTESIAN_POINT('Origin',(-91.0000014901161,20.9999999999878,-71.0000011920929));
#1910=CARTESIAN_POINT('Origin',(-91.0000014901161,24.9999999999878,-18.0000001341105));
#1911=CARTESIAN_POINT('',(-87.2500014901161,24.9999999999878,-18.0000001341105));
#1912=CARTESIAN_POINT('Origin',(-91.0000014901161,24.9999999999878,-18.0000001341105));
#1913=CARTESIAN_POINT('',(-87.2500014901161,20.9999999999878,-18.0000001341105));
#1914=CARTESIAN_POINT('',(-87.2500014901161,24.9999999999878,-18.0000001341105));
#1915=CARTESIAN_POINT('Origin',(-91.0000014901161,20.9999999999878,-18.0000001341105));
#1916=CARTESIAN_POINT('Origin',(-91.0000014901161,20.9999999999878,-18.0000001341105));
#1917=CARTESIAN_POINT('Origin',(84.0000014901161,24.9999999999878,-69.0000011920929));
#1918=CARTESIAN_POINT('',(84.0000014901161,21.9999999999878,-69.0000011920929));
#1919=CARTESIAN_POINT('',(84.0000014901161,24.9999999999878,-69.0000011920929));
#1920=CARTESIAN_POINT('',(84.0000014901161,21.9999999999878,-34.5000005960465));
#1921=CARTESIAN_POINT('Origin',(89.0000014901161,24.9999999999878,-69.0000011920929));
#1922=CARTESIAN_POINT('',(89.0000014901161,21.9999999999878,-64.0000011920929));
#1923=CARTESIAN_POINT('',(89.0000014901161,24.9999999999878,-64.0000011920929));
#1924=CARTESIAN_POINT('Origin',(89.0000014901161,21.9999999999878,-69.0000011920929));
#1925=CARTESIAN_POINT('Origin',(99.0000000000489,24.9999999999878,-64.0000011920929));
#1926=CARTESIAN_POINT('',(97.0000000000489,21.9999999999878,-64.0000011920929));
#1927=CARTESIAN_POINT('',(97.0000000000489,24.4999999999878,-64.0000011920929));
#1928=CARTESIAN_POINT('',(4.89025318560969E-11,21.9999999999878,-64.000001192093));
#1929=CARTESIAN_POINT('Origin',(97.0000000000489,23.9999999999878,0.));
#1930=CARTESIAN_POINT('',(97.0000000000489,21.9999999999878,-25.0000001341104));
#1931=CARTESIAN_POINT('',(97.0000000000489,24.4999999999878,-25.0000001341104));
#1932=CARTESIAN_POINT('',(97.0000000000489,21.9999999999878,0.));
#1933=CARTESIAN_POINT('Origin',(89.0000014901161,24.9999999999878,-25.0000001341105));
#1934=CARTESIAN_POINT('',(89.0000014901161,21.9999999999878,-25.0000001341105));
#1935=CARTESIAN_POINT('',(89.0000014901161,24.9999999999878,-25.0000001341105));
#1936=CARTESIAN_POINT('',(-4.9999992549175,21.9999999999878,-25.0000001341105));
#1937=CARTESIAN_POINT('Origin',(89.0000014901161,24.9999999999878,-20.0000001341104));
#1938=CARTESIAN_POINT('',(84.0000014901161,21.9999999999878,-20.0000001341104));
#1939=CARTESIAN_POINT('',(84.0000014901161,24.9999999999878,-20.0000001341104));
#1940=CARTESIAN_POINT('Origin',(89.0000014901161,21.9999999999878,-20.0000001341104));
#1941=CARTESIAN_POINT('Origin',(84.0000014901161,14.000000372529,0.));
#1942=CARTESIAN_POINT('',(84.0000014901161,14.000000372529,-9.));
#1943=CARTESIAN_POINT('',(84.0000014901161,24.9999999999878,-9.00000013411045));
#1944=CARTESIAN_POINT('',(84.0000014901161,14.000000372529,0.));
#1945=CARTESIAN_POINT('',(84.0000014901161,21.9999999999878,0.));
#1946=CARTESIAN_POINT('Origin',(99.0000000000489,24.9999999999878,-9.00000013411045));
#1947=CARTESIAN_POINT('',(97.0000000000489,9.00000037252903,-9.));
#1948=CARTESIAN_POINT('',(97.0000000000489,24.4999999999878,-9.00000013411045));
#1949=CARTESIAN_POINT('',(89.0000014901161,9.00000037252902,-9.));
#1950=CARTESIAN_POINT('',(89.0000014901161,9.00000037252902,-9.));
#1951=CARTESIAN_POINT('Origin',(89.0000014901161,14.000000372529,-9.));
#1952=CARTESIAN_POINT('Origin',(97.0000000000489,23.9999999999878,0.));
#1953=CARTESIAN_POINT('',(97.0000000000489,9.00000037252903,0.));
#1954=CARTESIAN_POINT('Origin',(100.000000000049,23.9999999999878,0.));
#1955=CARTESIAN_POINT('',(100.000000000049,23.9999999999878,-80.));
#1956=CARTESIAN_POINT('',(100.000000000049,-24.0000000000123,-80.));
#1957=CARTESIAN_POINT('',(100.000000000049,23.9999999999878,0.));
#1958=CARTESIAN_POINT('Origin',(-98.9999999999512,24.9999999999878,0.));
#1959=CARTESIAN_POINT('',(99.0000000000489,24.9999999999878,-80.));
#1960=CARTESIAN_POINT('',(99.0000000000489,24.9999999999878,0.));
#1961=CARTESIAN_POINT('',(-98.9999999999512,24.9999999999878,-80.));
#1962=CARTESIAN_POINT('',(99.0000000000489,24.9999999999878,-80.));
#1963=CARTESIAN_POINT('',(-98.9999999999512,24.9999999999877,0.));
#1964=CARTESIAN_POINT('Origin',(-98.9999999999512,21.9999999999878,0.));
#1965=CARTESIAN_POINT('',(7.00000010430813,21.9999999999878,-9.));
#1966=CARTESIAN_POINT('',(7.00000010430813,21.9999999999878,0.));
#1967=CARTESIAN_POINT('',(-7.00000010430813,21.9999999999878,-9.));
#1968=CARTESIAN_POINT('',(-49.4999999999756,21.9999999999878,-9.));
#1969=CARTESIAN_POINT('',(-7.00000010430813,21.9999999999878,0.));
#1970=CARTESIAN_POINT('',(-84.0000014901161,21.9999999999878,-20.0000001341104));
#1971=CARTESIAN_POINT('',(-83.9999999999512,21.9999999999878,0.));
#1972=CARTESIAN_POINT('',(-89.0000014901161,21.9999999999878,-25.0000001341105));
#1973=CARTESIAN_POINT('Origin',(-89.0000014901161,21.9999999999878,-20.0000001341104));
#1974=CARTESIAN_POINT('',(-96.9999999999511,21.9999999999878,-25.0000001341105));
#1975=CARTESIAN_POINT('',(-98.9999999999512,21.9999999999878,-25.0000001341105));
#1976=CARTESIAN_POINT('',(-96.9999999999511,21.9999999999878,-64.0000011920929));
#1977=CARTESIAN_POINT('',(-96.9999999999511,21.9999999999878,0.));
#1978=CARTESIAN_POINT('',(-89.0000014901161,21.9999999999878,-64.0000011920929));
#1979=CARTESIAN_POINT('',(-94.0000007450337,21.9999999999878,-64.0000011920929));
#1980=CARTESIAN_POINT('',(-84.0000014901161,21.9999999999878,-69.0000011920929));
#1981=CARTESIAN_POINT('Origin',(-89.0000014901161,21.9999999999878,-69.0000011920929));
#1982=CARTESIAN_POINT('',(-84.0000014901161,21.9999999999878,-40.0000005960464));
#1983=CARTESIAN_POINT('Origin',(-98.9999999999512,24.9999999999878,-25.0000001341105));
#1984=CARTESIAN_POINT('',(-96.9999999999511,0.499999999987764,-25.0000001341105));
#1985=CARTESIAN_POINT('',(-89.0000014901161,24.9999999999878,-25.0000001341105));
#1986=CARTESIAN_POINT('Origin',(-89.0000014901161,24.9999999999878,-20.0000001341104));
#1987=CARTESIAN_POINT('',(-84.0000014901161,24.9999999999878,-20.0000001341104));
#1988=CARTESIAN_POINT('Origin',(-84.0000014901161,24.9999999999878,-9.00000013411045));
#1989=CARTESIAN_POINT('',(-83.9999999999512,13.9999999999878,-9.));
#1990=CARTESIAN_POINT('',(-84.0000014901161,24.9999999999878,-9.00000013411045));
#1991=CARTESIAN_POINT('',(-88.9999999999512,8.99999999998774,-9.));
#1992=CARTESIAN_POINT('Origin',(-88.9999999999512,13.9999999999878,-9.));
#1993=CARTESIAN_POINT('',(-96.9999999999511,8.99999999998774,-9.));
#1994=CARTESIAN_POINT('',(-88.9999999999512,8.99999999998774,-9.));
#1995=CARTESIAN_POINT('',(-96.9999999999511,0.499999999987759,-9.00000013411045));
#1996=CARTESIAN_POINT('Origin',(-96.9999999999511,-24.0000000000122,0.));
#1997=CARTESIAN_POINT('',(-96.9999999999511,8.99999999998775,0.));
#1998=CARTESIAN_POINT('Origin',(-84.0000014901161,24.9999999999878,-80.0000011920929));
#1999=CARTESIAN_POINT('',(-84.0000014901161,24.9999999999878,-69.0000011920929));
#2000=CARTESIAN_POINT('Origin',(-89.0000014901161,24.9999999999878,-64.0000011920929));
#2001=CARTESIAN_POINT('',(-89.0000014901161,24.9999999999878,-64.0000011920929));
#2002=CARTESIAN_POINT('',(-96.9999999999511,0.499999999987761,-64.0000011920929));
#2003=CARTESIAN_POINT('Origin',(-89.0000014901161,24.9999999999878,-69.0000011920929));
#2004=CARTESIAN_POINT('Origin',(4.88853402202949E-11,-1.22302168392707E-11,
-80.));
#2005=CARTESIAN_POINT('',(-99.9999999999511,23.9999999999878,-80.));
#2006=CARTESIAN_POINT('',(-99.9999999999511,23.9999999999878,-80.));
#2007=CARTESIAN_POINT('Origin',(-98.9999999999512,23.9999999999878,-80.));
#2008=CARTESIAN_POINT('Origin',(99.0000000000489,23.9999999999877,-80.));
#2009=CARTESIAN_POINT('Origin',(-96.9999999999511,-24.0000000000122,0.));
#2010=CARTESIAN_POINT('Origin',(-90.9999999999512,15.9999999999878,-7.));
#2011=CARTESIAN_POINT('Origin',(91.0000014901161,16.000000372529,-7.));
#2012=CARTESIAN_POINT('Origin',(7.45058070794613E-8,18.0000002235174,-7.));
#2013=CARTESIAN_POINT('Origin',(-84.0000014901161,-14.000000372529,0.));
#2014=CARTESIAN_POINT('',(-83.9999999999512,13.9999999999878,0.));
#2015=CARTESIAN_POINT('Origin',(-99.9999999999511,-24.0000000000122,0.));
#2016=CARTESIAN_POINT('',(-99.9999999999511,23.9999999999878,0.));
#2017=CARTESIAN_POINT('Origin',(-88.9999999999512,8.99999999998774,0.));
#2018=CARTESIAN_POINT('',(-88.9999999999512,8.99999999998774,0.));
#2019=CARTESIAN_POINT('Origin',(-88.9999999999512,13.9999999999878,0.));
#2020=CARTESIAN_POINT('Origin',(-98.9999999999512,23.9999999999878,0.));
#2021=CARTESIAN_POINT('Origin',(100.000001490116,9.00000037252903,0.));
#2022=CARTESIAN_POINT('',(89.0000014901161,9.00000037252902,0.));
#2023=CARTESIAN_POINT('Origin',(89.0000014901161,14.000000372529,0.));
#2024=CARTESIAN_POINT('Origin',(99.0000000000489,23.9999999999877,0.));
#2025=CARTESIAN_POINT('Origin',(0.,0.,-9.));
#2026=CARTESIAN_POINT('',(7.00000010430813,18.0000001639128,-9.));
#2027=CARTESIAN_POINT('',(7.00000010430813,18.0000001639128,-9.));
#2028=CARTESIAN_POINT('',(-7.00000010430813,18.0000001639128,-9.));
#2029=CARTESIAN_POINT('Origin',(-1.04308133797026E-7,18.0000001639128,-9.));
#2030=CARTESIAN_POINT('',(-7.00000010430813,25.000000372529,-9.));
#2031=CARTESIAN_POINT('Origin',(7.00000010430813,25.000000372529,0.));
#2032=CARTESIAN_POINT('',(7.00000010430813,18.0000001639128,0.));
#2033=CARTESIAN_POINT('Origin',(-1.04308133797026E-7,18.0000001639128,0.));
#2034=CARTESIAN_POINT('',(-7.00000010430813,18.0000001639128,0.));
#2035=CARTESIAN_POINT('Origin',(-7.00000010430813,18.0000001639128,0.));
#2036=UNCERTAINTY_MEASURE_WITH_UNIT(LENGTH_MEASURE(0.01),#2040,
'DISTANCE_ACCURACY_VALUE',
'Maximum model space distance between geometric entities at asserted c
onnectivities');
#2037=UNCERTAINTY_MEASURE_WITH_UNIT(LENGTH_MEASURE(0.01),#2040,
'DISTANCE_ACCURACY_VALUE',
'Maximum model space distance between geometric entities at asserted c
onnectivities');
#2038=(
GEOMETRIC_REPRESENTATION_CONTEXT(3)
GLOBAL_UNCERTAINTY_ASSIGNED_CONTEXT((#2036))
GLOBAL_UNIT_ASSIGNED_CONTEXT((#2040,#2042,#2043))
REPRESENTATION_CONTEXT('','3D')
);
#2039=(
GEOMETRIC_REPRESENTATION_CONTEXT(3)
GLOBAL_UNCERTAINTY_ASSIGNED_CONTEXT((#2037))
GLOBAL_UNIT_ASSIGNED_CONTEXT((#2040,#2042,#2043))
REPRESENTATION_CONTEXT('','3D')
);
#2040=(
LENGTH_UNIT()
NAMED_UNIT(*)
SI_UNIT(.MILLI.,.METRE.)
);
#2041=(
LENGTH_UNIT()
NAMED_UNIT(*)
SI_UNIT($,.METRE.)
);
#2042=(
NAMED_UNIT(*)
PLANE_ANGLE_UNIT()
SI_UNIT($,.RADIAN.)
);
#2043=(
NAMED_UNIT(*)
SI_UNIT($,.STERADIAN.)
SOLID_ANGLE_UNIT()
);
#2044=SHAPE_DEFINITION_REPRESENTATION(#2045,#2046);
#2045=PRODUCT_DEFINITION_SHAPE('',$,#2048);
#2046=SHAPE_REPRESENTATION('',(#1219),#2038);
#2047=PRODUCT_DEFINITION_CONTEXT('part definition',#2052,'design');
#2048=PRODUCT_DEFINITION('2026-05-31-18-08-58-780','Enclosure_top',#2049,
#2047);
#2049=PRODUCT_DEFINITION_FORMATION('',$,#2054);
#2050=PRODUCT_RELATED_PRODUCT_CATEGORY('Enclosure_top','Enclosure_top',
(#2054));
#2051=APPLICATION_PROTOCOL_DEFINITION('international standard',
'automotive_design',2009,#2052);
#2052=APPLICATION_CONTEXT(
'Core Data for Automotive Mechanical Design Process');
#2053=PRODUCT_CONTEXT('part definition',#2052,'mechanical');
#2054=PRODUCT('2026-05-31-18-08-58-780','Enclosure_top',$,(#2053));
#2055=PRESENTATION_STYLE_ASSIGNMENT((#2056));
#2056=SURFACE_STYLE_USAGE(.BOTH.,#2057);
#2057=SURFACE_SIDE_STYLE('',(#2058));
#2058=SURFACE_STYLE_FILL_AREA(#2059);
#2059=FILL_AREA_STYLE('Steel - Satin',(#2060));
#2060=FILL_AREA_STYLE_COLOUR('Steel - Satin',#2061);
#2061=COLOUR_RGB('Steel - Satin',0.627450980392157,0.627450980392157,0.627450980392157);
ENDSEC;
END-ISO-10303-21;
