ISO-10303-21;
HEADER;
/* Generated by software containing ST-Developer
 * from STEP Tools, Inc. (www.steptools.com) 
 */

FILE_DESCRIPTION(
/* description */ (''),
/* implementation_level */ '2;1');

FILE_NAME(
/* name */ 'Mounting_plate.step',
/* time_stamp */ '2026-05-31T19:27:31+02:00',
/* author */ (''),
/* organization */ (''),
/* preprocessor_version */ 'ST-DEVELOPER v20.1',
/* originating_system */ 'Autodesk Translation Framework v15.8.0.0',
/* authorisation */ '');

FILE_SCHEMA (('AUTOMOTIVE_DESIGN { 1 0 10303 214 3 1 1 }'));
ENDSEC;

DATA;
#10=MECHANICAL_DESIGN_GEOMETRIC_PRESENTATION_REPRESENTATION('',(#13),#2006);
#11=SHAPE_REPRESENTATION_RELATIONSHIP('SRR','None',#2013,#12);
#12=ADVANCED_BREP_SHAPE_REPRESENTATION('',(#14),#2005);
#13=STYLED_ITEM('',(#2023),#14);
#14=MANIFOLD_SOLID_BREP('Body1',#1155);
#15=CYLINDRICAL_SURFACE('',#1203,2.25);
#16=CYLINDRICAL_SURFACE('',#1207,2.25);
#17=CYLINDRICAL_SURFACE('',#1211,2.25000000000001);
#18=CYLINDRICAL_SURFACE('',#1215,2.25);
#19=CYLINDRICAL_SURFACE('',#1219,2.25);
#20=CYLINDRICAL_SURFACE('',#1223,2.25);
#21=CYLINDRICAL_SURFACE('',#1227,2.25);
#22=CYLINDRICAL_SURFACE('',#1231,2.25);
#23=CYLINDRICAL_SURFACE('',#1235,2.25000000000001);
#24=CYLINDRICAL_SURFACE('',#1237,2.2);
#25=CYLINDRICAL_SURFACE('',#1239,2.20000000000001);
#26=CYLINDRICAL_SURFACE('',#1241,2.19999999999999);
#27=CYLINDRICAL_SURFACE('',#1243,2.2);
#28=CYLINDRICAL_SURFACE('',#1245,2.20000000000001);
#29=CYLINDRICAL_SURFACE('',#1247,2.20000000000001);
#30=CYLINDRICAL_SURFACE('',#1249,4.5);
#31=CYLINDRICAL_SURFACE('',#1253,4.5);
#32=CYLINDRICAL_SURFACE('',#1257,4.5);
#33=CYLINDRICAL_SURFACE('',#1261,4.5);
#34=CYLINDRICAL_SURFACE('',#1265,4.49999999999999);
#35=CYLINDRICAL_SURFACE('',#1269,4.5);
#36=CYLINDRICAL_SURFACE('',#1273,4.50000000000001);
#37=CYLINDRICAL_SURFACE('',#1277,4.5);
#38=CYLINDRICAL_SURFACE('',#1281,4.5);
#39=CYLINDRICAL_SURFACE('',#1285,3.3);
#40=CYLINDRICAL_SURFACE('',#1287,3.3);
#41=CYLINDRICAL_SURFACE('',#1289,3.3);
#42=CYLINDRICAL_SURFACE('',#1291,3.3);
#43=CYLINDRICAL_SURFACE('',#1293,3.3);
#44=CYLINDRICAL_SURFACE('',#1295,3.3);
#45=CYLINDRICAL_SURFACE('',#1297,3.3);
#46=CYLINDRICAL_SURFACE('',#1299,3.3);
#47=CYLINDRICAL_SURFACE('',#1301,3.7);
#48=CYLINDRICAL_SURFACE('',#1303,3.7);
#49=CYLINDRICAL_SURFACE('',#1305,3.7);
#50=CYLINDRICAL_SURFACE('',#1307,3.7);
#51=CYLINDRICAL_SURFACE('',#1310,0.999999999999979);
#52=CYLINDRICAL_SURFACE('',#1313,1.00000000000003);
#53=CYLINDRICAL_SURFACE('',#1316,0.999999999999974);
#54=CYLINDRICAL_SURFACE('',#1319,0.999999999999979);
#55=FACE_BOUND('',#199,.T.);
#56=FACE_BOUND('',#200,.T.);
#57=FACE_BOUND('',#201,.T.);
#58=FACE_BOUND('',#202,.T.);
#59=FACE_BOUND('',#203,.T.);
#60=FACE_BOUND('',#204,.T.);
#61=FACE_BOUND('',#205,.T.);
#62=FACE_BOUND('',#206,.T.);
#63=FACE_BOUND('',#207,.T.);
#64=FACE_BOUND('',#208,.T.);
#65=FACE_BOUND('',#209,.T.);
#66=FACE_BOUND('',#210,.T.);
#67=FACE_BOUND('',#211,.T.);
#68=FACE_BOUND('',#212,.T.);
#69=FACE_BOUND('',#213,.T.);
#70=FACE_BOUND('',#214,.T.);
#71=FACE_BOUND('',#215,.T.);
#72=FACE_BOUND('',#216,.T.);
#73=FACE_BOUND('',#217,.T.);
#74=FACE_BOUND('',#218,.T.);
#75=FACE_BOUND('',#219,.T.);
#76=FACE_BOUND('',#220,.T.);
#77=FACE_BOUND('',#221,.T.);
#78=FACE_BOUND('',#222,.T.);
#79=FACE_BOUND('',#223,.T.);
#80=FACE_BOUND('',#224,.T.);
#81=FACE_BOUND('',#225,.T.);
#82=FACE_BOUND('',#251,.T.);
#83=FACE_BOUND('',#254,.T.);
#84=FACE_BOUND('',#257,.T.);
#85=FACE_BOUND('',#260,.T.);
#86=FACE_BOUND('',#263,.T.);
#87=FACE_BOUND('',#266,.T.);
#88=FACE_BOUND('',#269,.T.);
#89=FACE_BOUND('',#272,.T.);
#90=FACE_BOUND('',#275,.T.);
#91=FACE_BOUND('',#297,.T.);
#92=FACE_BOUND('',#298,.T.);
#93=FACE_BOUND('',#299,.T.);
#94=FACE_BOUND('',#300,.T.);
#95=FACE_BOUND('',#301,.T.);
#96=FACE_BOUND('',#302,.T.);
#97=FACE_BOUND('',#303,.T.);
#98=FACE_BOUND('',#304,.T.);
#99=FACE_BOUND('',#305,.T.);
#100=FACE_BOUND('',#306,.T.);
#101=FACE_BOUND('',#307,.T.);
#102=FACE_BOUND('',#308,.T.);
#103=FACE_BOUND('',#309,.T.);
#104=FACE_BOUND('',#310,.T.);
#105=FACE_BOUND('',#311,.T.);
#106=FACE_BOUND('',#312,.T.);
#107=FACE_BOUND('',#313,.T.);
#108=FACE_BOUND('',#314,.T.);
#109=FACE_BOUND('',#315,.T.);
#110=FACE_BOUND('',#316,.T.);
#111=FACE_BOUND('',#317,.T.);
#112=FACE_BOUND('',#318,.T.);
#113=FACE_BOUND('',#319,.T.);
#114=FACE_BOUND('',#320,.T.);
#115=FACE_BOUND('',#321,.T.);
#116=FACE_BOUND('',#322,.T.);
#117=FACE_BOUND('',#323,.T.);
#118=PLANE('',#1172);
#119=PLANE('',#1252);
#120=PLANE('',#1256);
#121=PLANE('',#1260);
#122=PLANE('',#1264);
#123=PLANE('',#1268);
#124=PLANE('',#1272);
#125=PLANE('',#1276);
#126=PLANE('',#1280);
#127=PLANE('',#1284);
#128=PLANE('',#1309);
#129=PLANE('',#1312);
#130=PLANE('',#1315);
#131=PLANE('',#1318);
#132=PLANE('',#1321);
#133=FACE_OUTER_BOUND('',#197,.T.);
#134=FACE_OUTER_BOUND('',#198,.T.);
#135=FACE_OUTER_BOUND('',#226,.T.);
#136=FACE_OUTER_BOUND('',#227,.T.);
#137=FACE_OUTER_BOUND('',#228,.T.);
#138=FACE_OUTER_BOUND('',#229,.T.);
#139=FACE_OUTER_BOUND('',#230,.T.);
#140=FACE_OUTER_BOUND('',#231,.T.);
#141=FACE_OUTER_BOUND('',#232,.T.);
#142=FACE_OUTER_BOUND('',#233,.T.);
#143=FACE_OUTER_BOUND('',#234,.T.);
#144=FACE_OUTER_BOUND('',#235,.T.);
#145=FACE_OUTER_BOUND('',#236,.T.);
#146=FACE_OUTER_BOUND('',#237,.T.);
#147=FACE_OUTER_BOUND('',#238,.T.);
#148=FACE_OUTER_BOUND('',#239,.T.);
#149=FACE_OUTER_BOUND('',#240,.T.);
#150=FACE_OUTER_BOUND('',#241,.T.);
#151=FACE_OUTER_BOUND('',#242,.T.);
#152=FACE_OUTER_BOUND('',#243,.T.);
#153=FACE_OUTER_BOUND('',#244,.T.);
#154=FACE_OUTER_BOUND('',#245,.T.);
#155=FACE_OUTER_BOUND('',#246,.T.);
#156=FACE_OUTER_BOUND('',#247,.T.);
#157=FACE_OUTER_BOUND('',#248,.T.);
#158=FACE_OUTER_BOUND('',#249,.T.);
#159=FACE_OUTER_BOUND('',#250,.T.);
#160=FACE_OUTER_BOUND('',#252,.T.);
#161=FACE_OUTER_BOUND('',#253,.T.);
#162=FACE_OUTER_BOUND('',#255,.T.);
#163=FACE_OUTER_BOUND('',#256,.T.);
#164=FACE_OUTER_BOUND('',#258,.T.);
#165=FACE_OUTER_BOUND('',#259,.T.);
#166=FACE_OUTER_BOUND('',#261,.T.);
#167=FACE_OUTER_BOUND('',#262,.T.);
#168=FACE_OUTER_BOUND('',#264,.T.);
#169=FACE_OUTER_BOUND('',#265,.T.);
#170=FACE_OUTER_BOUND('',#267,.T.);
#171=FACE_OUTER_BOUND('',#268,.T.);
#172=FACE_OUTER_BOUND('',#270,.T.);
#173=FACE_OUTER_BOUND('',#271,.T.);
#174=FACE_OUTER_BOUND('',#273,.T.);
#175=FACE_OUTER_BOUND('',#274,.T.);
#176=FACE_OUTER_BOUND('',#276,.T.);
#177=FACE_OUTER_BOUND('',#277,.T.);
#178=FACE_OUTER_BOUND('',#278,.T.);
#179=FACE_OUTER_BOUND('',#279,.T.);
#180=FACE_OUTER_BOUND('',#280,.T.);
#181=FACE_OUTER_BOUND('',#281,.T.);
#182=FACE_OUTER_BOUND('',#282,.T.);
#183=FACE_OUTER_BOUND('',#283,.T.);
#184=FACE_OUTER_BOUND('',#284,.T.);
#185=FACE_OUTER_BOUND('',#285,.T.);
#186=FACE_OUTER_BOUND('',#286,.T.);
#187=FACE_OUTER_BOUND('',#287,.T.);
#188=FACE_OUTER_BOUND('',#288,.T.);
#189=FACE_OUTER_BOUND('',#289,.T.);
#190=FACE_OUTER_BOUND('',#290,.T.);
#191=FACE_OUTER_BOUND('',#291,.T.);
#192=FACE_OUTER_BOUND('',#292,.T.);
#193=FACE_OUTER_BOUND('',#293,.T.);
#194=FACE_OUTER_BOUND('',#294,.T.);
#195=FACE_OUTER_BOUND('',#295,.T.);
#196=FACE_OUTER_BOUND('',#296,.T.);
#197=EDGE_LOOP('',(#782,#783,#784,#785));
#198=EDGE_LOOP('',(#786,#787,#788,#789,#790,#791,#792,#793));
#199=EDGE_LOOP('',(#794));
#200=EDGE_LOOP('',(#795));
#201=EDGE_LOOP('',(#796));
#202=EDGE_LOOP('',(#797));
#203=EDGE_LOOP('',(#798));
#204=EDGE_LOOP('',(#799));
#205=EDGE_LOOP('',(#800));
#206=EDGE_LOOP('',(#801));
#207=EDGE_LOOP('',(#802));
#208=EDGE_LOOP('',(#803));
#209=EDGE_LOOP('',(#804));
#210=EDGE_LOOP('',(#805));
#211=EDGE_LOOP('',(#806));
#212=EDGE_LOOP('',(#807));
#213=EDGE_LOOP('',(#808));
#214=EDGE_LOOP('',(#809));
#215=EDGE_LOOP('',(#810));
#216=EDGE_LOOP('',(#811));
#217=EDGE_LOOP('',(#812));
#218=EDGE_LOOP('',(#813));
#219=EDGE_LOOP('',(#814));
#220=EDGE_LOOP('',(#815));
#221=EDGE_LOOP('',(#816));
#222=EDGE_LOOP('',(#817));
#223=EDGE_LOOP('',(#818));
#224=EDGE_LOOP('',(#819));
#225=EDGE_LOOP('',(#820));
#226=EDGE_LOOP('',(#821,#822,#823,#824));
#227=EDGE_LOOP('',(#825,#826,#827,#828));
#228=EDGE_LOOP('',(#829,#830,#831,#832));
#229=EDGE_LOOP('',(#833,#834,#835,#836));
#230=EDGE_LOOP('',(#837,#838,#839,#840));
#231=EDGE_LOOP('',(#841,#842,#843,#844));
#232=EDGE_LOOP('',(#845,#846,#847,#848));
#233=EDGE_LOOP('',(#849,#850,#851,#852));
#234=EDGE_LOOP('',(#853,#854,#855,#856));
#235=EDGE_LOOP('',(#857,#858,#859,#860));
#236=EDGE_LOOP('',(#861,#862,#863,#864));
#237=EDGE_LOOP('',(#865,#866,#867,#868));
#238=EDGE_LOOP('',(#869,#870,#871,#872));
#239=EDGE_LOOP('',(#873,#874,#875,#876));
#240=EDGE_LOOP('',(#877,#878,#879,#880));
#241=EDGE_LOOP('',(#881,#882,#883,#884));
#242=EDGE_LOOP('',(#885,#886,#887,#888));
#243=EDGE_LOOP('',(#889,#890,#891,#892));
#244=EDGE_LOOP('',(#893,#894,#895,#896));
#245=EDGE_LOOP('',(#897,#898,#899,#900));
#246=EDGE_LOOP('',(#901,#902,#903,#904));
#247=EDGE_LOOP('',(#905,#906,#907,#908));
#248=EDGE_LOOP('',(#909,#910,#911,#912));
#249=EDGE_LOOP('',(#913,#914,#915,#916));
#250=EDGE_LOOP('',(#917));
#251=EDGE_LOOP('',(#918));
#252=EDGE_LOOP('',(#919,#920,#921,#922));
#253=EDGE_LOOP('',(#923));
#254=EDGE_LOOP('',(#924));
#255=EDGE_LOOP('',(#925,#926,#927,#928));
#256=EDGE_LOOP('',(#929));
#257=EDGE_LOOP('',(#930));
#258=EDGE_LOOP('',(#931,#932,#933,#934));
#259=EDGE_LOOP('',(#935));
#260=EDGE_LOOP('',(#936));
#261=EDGE_LOOP('',(#937,#938,#939,#940));
#262=EDGE_LOOP('',(#941));
#263=EDGE_LOOP('',(#942));
#264=EDGE_LOOP('',(#943,#944,#945,#946));
#265=EDGE_LOOP('',(#947));
#266=EDGE_LOOP('',(#948));
#267=EDGE_LOOP('',(#949,#950,#951,#952));
#268=EDGE_LOOP('',(#953));
#269=EDGE_LOOP('',(#954));
#270=EDGE_LOOP('',(#955,#956,#957,#958));
#271=EDGE_LOOP('',(#959));
#272=EDGE_LOOP('',(#960));
#273=EDGE_LOOP('',(#961,#962,#963,#964));
#274=EDGE_LOOP('',(#965));
#275=EDGE_LOOP('',(#966));
#276=EDGE_LOOP('',(#967,#968,#969,#970));
#277=EDGE_LOOP('',(#971,#972,#973,#974));
#278=EDGE_LOOP('',(#975,#976,#977,#978));
#279=EDGE_LOOP('',(#979,#980,#981,#982));
#280=EDGE_LOOP('',(#983,#984,#985,#986));
#281=EDGE_LOOP('',(#987,#988,#989,#990));
#282=EDGE_LOOP('',(#991,#992,#993,#994));
#283=EDGE_LOOP('',(#995,#996,#997,#998));
#284=EDGE_LOOP('',(#999,#1000,#1001,#1002));
#285=EDGE_LOOP('',(#1003,#1004,#1005,#1006));
#286=EDGE_LOOP('',(#1007,#1008,#1009,#1010));
#287=EDGE_LOOP('',(#1011,#1012,#1013,#1014));
#288=EDGE_LOOP('',(#1015,#1016,#1017,#1018));
#289=EDGE_LOOP('',(#1019,#1020,#1021,#1022));
#290=EDGE_LOOP('',(#1023,#1024,#1025,#1026));
#291=EDGE_LOOP('',(#1027,#1028,#1029,#1030));
#292=EDGE_LOOP('',(#1031,#1032,#1033,#1034));
#293=EDGE_LOOP('',(#1035,#1036,#1037,#1038));
#294=EDGE_LOOP('',(#1039,#1040,#1041,#1042));
#295=EDGE_LOOP('',(#1043,#1044,#1045,#1046));
#296=EDGE_LOOP('',(#1047,#1048,#1049,#1050,#1051,#1052,#1053,#1054));
#297=EDGE_LOOP('',(#1055));
#298=EDGE_LOOP('',(#1056));
#299=EDGE_LOOP('',(#1057));
#300=EDGE_LOOP('',(#1058));
#301=EDGE_LOOP('',(#1059));
#302=EDGE_LOOP('',(#1060));
#303=EDGE_LOOP('',(#1061));
#304=EDGE_LOOP('',(#1062));
#305=EDGE_LOOP('',(#1063));
#306=EDGE_LOOP('',(#1064));
#307=EDGE_LOOP('',(#1065));
#308=EDGE_LOOP('',(#1066));
#309=EDGE_LOOP('',(#1067));
#310=EDGE_LOOP('',(#1068));
#311=EDGE_LOOP('',(#1069));
#312=EDGE_LOOP('',(#1070));
#313=EDGE_LOOP('',(#1071));
#314=EDGE_LOOP('',(#1072));
#315=EDGE_LOOP('',(#1073));
#316=EDGE_LOOP('',(#1074));
#317=EDGE_LOOP('',(#1075));
#318=EDGE_LOOP('',(#1076));
#319=EDGE_LOOP('',(#1077));
#320=EDGE_LOOP('',(#1078));
#321=EDGE_LOOP('',(#1079));
#322=EDGE_LOOP('',(#1080));
#323=EDGE_LOOP('',(#1081));
#324=LINE('',#1696,#385);
#325=LINE('',#1703,#386);
#326=LINE('',#1707,#387);
#327=LINE('',#1711,#388);
#328=LINE('',#1714,#389);
#329=LINE('',#1770,#390);
#330=LINE('',#1773,#391);
#331=LINE('',#1778,#392);
#332=LINE('',#1781,#393);
#333=LINE('',#1786,#394);
#334=LINE('',#1789,#395);
#335=LINE('',#1794,#396);
#336=LINE('',#1797,#397);
#337=LINE('',#1802,#398);
#338=LINE('',#1805,#399);
#339=LINE('',#1810,#400);
#340=LINE('',#1813,#401);
#341=LINE('',#1818,#402);
#342=LINE('',#1821,#403);
#343=LINE('',#1826,#404);
#344=LINE('',#1829,#405);
#345=LINE('',#1834,#406);
#346=LINE('',#1837,#407);
#347=LINE('',#1841,#408);
#348=LINE('',#1845,#409);
#349=LINE('',#1849,#410);
#350=LINE('',#1853,#411);
#351=LINE('',#1857,#412);
#352=LINE('',#1863,#413);
#353=LINE('',#1870,#414);
#354=LINE('',#1877,#415);
#355=LINE('',#1884,#416);
#356=LINE('',#1891,#417);
#357=LINE('',#1898,#418);
#358=LINE('',#1905,#419);
#359=LINE('',#1912,#420);
#360=LINE('',#1919,#421);
#361=LINE('',#1924,#422);
#362=LINE('',#1928,#423);
#363=LINE('',#1932,#424);
#364=LINE('',#1936,#425);
#365=LINE('',#1940,#426);
#366=LINE('',#1944,#427);
#367=LINE('',#1948,#428);
#368=LINE('',#1952,#429);
#369=LINE('',#1957,#430);
#370=LINE('',#1961,#431);
#371=LINE('',#1965,#432);
#372=LINE('',#1969,#433);
#373=LINE('',#1973,#434);
#374=LINE('',#1974,#435);
#375=LINE('',#1975,#436);
#376=LINE('',#1979,#437);
#377=LINE('',#1982,#438);
#378=LINE('',#1983,#439);
#379=LINE('',#1987,#440);
#380=LINE('',#1990,#441);
#381=LINE('',#1991,#442);
#382=LINE('',#1995,#443);
#383=LINE('',#1998,#444);
#384=LINE('',#1999,#445);
#385=VECTOR('',#1328,2.9);
#386=VECTOR('',#1335,10.);
#387=VECTOR('',#1338,10.);
#388=VECTOR('',#1341,10.);
#389=VECTOR('',#1344,10.);
#390=VECTOR('',#1401,2.25);
#391=VECTOR('',#1404,2.9);
#392=VECTOR('',#1411,2.25);
#393=VECTOR('',#1414,2.9);
#394=VECTOR('',#1421,2.25000000000001);
#395=VECTOR('',#1424,2.9);
#396=VECTOR('',#1431,2.25);
#397=VECTOR('',#1434,2.9);
#398=VECTOR('',#1441,2.25);
#399=VECTOR('',#1444,2.9);
#400=VECTOR('',#1451,2.25);
#401=VECTOR('',#1454,2.9);
#402=VECTOR('',#1461,2.25);
#403=VECTOR('',#1464,2.9);
#404=VECTOR('',#1471,2.25);
#405=VECTOR('',#1474,2.90000000000002);
#406=VECTOR('',#1481,2.25000000000001);
#407=VECTOR('',#1484,2.2);
#408=VECTOR('',#1489,2.20000000000001);
#409=VECTOR('',#1494,2.19999999999999);
#410=VECTOR('',#1499,2.2);
#411=VECTOR('',#1504,2.20000000000001);
#412=VECTOR('',#1509,2.20000000000001);
#413=VECTOR('',#1516,4.5);
#414=VECTOR('',#1525,4.5);
#415=VECTOR('',#1534,4.5);
#416=VECTOR('',#1543,4.5);
#417=VECTOR('',#1552,4.49999999999999);
#418=VECTOR('',#1561,4.5);
#419=VECTOR('',#1570,4.50000000000001);
#420=VECTOR('',#1579,4.5);
#421=VECTOR('',#1588,4.5);
#422=VECTOR('',#1595,3.3);
#423=VECTOR('',#1600,3.3);
#424=VECTOR('',#1605,3.3);
#425=VECTOR('',#1610,3.3);
#426=VECTOR('',#1615,3.3);
#427=VECTOR('',#1620,3.3);
#428=VECTOR('',#1625,3.3);
#429=VECTOR('',#1630,3.3);
#430=VECTOR('',#1637,3.7);
#431=VECTOR('',#1642,3.7);
#432=VECTOR('',#1647,3.7);
#433=VECTOR('',#1652,3.7);
#434=VECTOR('',#1655,10.);
#435=VECTOR('',#1656,10.);
#436=VECTOR('',#1657,10.);
#437=VECTOR('',#1662,10.);
#438=VECTOR('',#1665,10.);
#439=VECTOR('',#1666,10.);
#440=VECTOR('',#1671,10.);
#441=VECTOR('',#1674,10.);
#442=VECTOR('',#1675,10.);
#443=VECTOR('',#1680,10.);
#444=VECTOR('',#1683,10.);
#445=VECTOR('',#1684,10.);
#446=CIRCLE('',#1170,3.55);
#447=CIRCLE('',#1171,2.25);
#448=CIRCLE('',#1173,0.999999999999979);
#449=CIRCLE('',#1174,0.999999999999974);
#450=CIRCLE('',#1175,1.00000000000003);
#451=CIRCLE('',#1176,0.999999999999979);
#452=CIRCLE('',#1177,3.55);
#453=CIRCLE('',#1178,3.55);
#454=CIRCLE('',#1179,3.55);
#455=CIRCLE('',#1180,3.55);
#456=CIRCLE('',#1181,2.2);
#457=CIRCLE('',#1182,2.20000000000001);
#458=CIRCLE('',#1183,2.19999999999999);
#459=CIRCLE('',#1184,2.2);
#460=CIRCLE('',#1185,2.20000000000001);
#461=CIRCLE('',#1186,2.20000000000001);
#462=CIRCLE('',#1187,3.3);
#463=CIRCLE('',#1188,3.3);
#464=CIRCLE('',#1189,3.3);
#465=CIRCLE('',#1190,3.3);
#466=CIRCLE('',#1191,3.3);
#467=CIRCLE('',#1192,3.3);
#468=CIRCLE('',#1193,3.3);
#469=CIRCLE('',#1194,3.3);
#470=CIRCLE('',#1195,3.7);
#471=CIRCLE('',#1196,3.7);
#472=CIRCLE('',#1197,3.7);
#473=CIRCLE('',#1198,3.7);
#474=CIRCLE('',#1199,3.55000000000002);
#475=CIRCLE('',#1200,3.55);
#476=CIRCLE('',#1201,3.55);
#477=CIRCLE('',#1202,3.55);
#478=CIRCLE('',#1204,2.25);
#479=CIRCLE('',#1206,2.25);
#480=CIRCLE('',#1208,2.25);
#481=CIRCLE('',#1210,2.25000000000001);
#482=CIRCLE('',#1212,2.25000000000001);
#483=CIRCLE('',#1214,2.25);
#484=CIRCLE('',#1216,2.25);
#485=CIRCLE('',#1218,2.25);
#486=CIRCLE('',#1220,2.25);
#487=CIRCLE('',#1222,2.25);
#488=CIRCLE('',#1224,2.25);
#489=CIRCLE('',#1226,2.25);
#490=CIRCLE('',#1228,2.25);
#491=CIRCLE('',#1230,2.25);
#492=CIRCLE('',#1232,2.25);
#493=CIRCLE('',#1234,2.25000000000001);
#494=CIRCLE('',#1236,2.25000000000001);
#495=CIRCLE('',#1238,2.2);
#496=CIRCLE('',#1240,2.20000000000001);
#497=CIRCLE('',#1242,2.19999999999999);
#498=CIRCLE('',#1244,2.2);
#499=CIRCLE('',#1246,2.20000000000001);
#500=CIRCLE('',#1248,2.20000000000001);
#501=CIRCLE('',#1250,4.5);
#502=CIRCLE('',#1251,4.5);
#503=CIRCLE('',#1254,4.5);
#504=CIRCLE('',#1255,4.5);
#505=CIRCLE('',#1258,4.5);
#506=CIRCLE('',#1259,4.5);
#507=CIRCLE('',#1262,4.5);
#508=CIRCLE('',#1263,4.5);
#509=CIRCLE('',#1266,4.49999999999999);
#510=CIRCLE('',#1267,4.49999999999999);
#511=CIRCLE('',#1270,4.5);
#512=CIRCLE('',#1271,4.5);
#513=CIRCLE('',#1274,4.50000000000001);
#514=CIRCLE('',#1275,4.50000000000001);
#515=CIRCLE('',#1278,4.5);
#516=CIRCLE('',#1279,4.5);
#517=CIRCLE('',#1282,4.5);
#518=CIRCLE('',#1283,4.5);
#519=CIRCLE('',#1286,3.3);
#520=CIRCLE('',#1288,3.3);
#521=CIRCLE('',#1290,3.3);
#522=CIRCLE('',#1292,3.3);
#523=CIRCLE('',#1294,3.3);
#524=CIRCLE('',#1296,3.3);
#525=CIRCLE('',#1298,3.3);
#526=CIRCLE('',#1300,3.3);
#527=CIRCLE('',#1302,3.7);
#528=CIRCLE('',#1304,3.7);
#529=CIRCLE('',#1306,3.7);
#530=CIRCLE('',#1308,3.7);
#531=CIRCLE('',#1311,0.999999999999979);
#532=CIRCLE('',#1314,1.00000000000003);
#533=CIRCLE('',#1317,0.999999999999974);
#534=CIRCLE('',#1320,0.999999999999979);
#535=VERTEX_POINT('',#1693);
#536=VERTEX_POINT('',#1695);
#537=VERTEX_POINT('',#1699);
#538=VERTEX_POINT('',#1700);
#539=VERTEX_POINT('',#1702);
#540=VERTEX_POINT('',#1704);
#541=VERTEX_POINT('',#1706);
#542=VERTEX_POINT('',#1708);
#543=VERTEX_POINT('',#1710);
#544=VERTEX_POINT('',#1712);
#545=VERTEX_POINT('',#1715);
#546=VERTEX_POINT('',#1717);
#547=VERTEX_POINT('',#1719);
#548=VERTEX_POINT('',#1721);
#549=VERTEX_POINT('',#1723);
#550=VERTEX_POINT('',#1725);
#551=VERTEX_POINT('',#1727);
#552=VERTEX_POINT('',#1729);
#553=VERTEX_POINT('',#1731);
#554=VERTEX_POINT('',#1733);
#555=VERTEX_POINT('',#1735);
#556=VERTEX_POINT('',#1737);
#557=VERTEX_POINT('',#1739);
#558=VERTEX_POINT('',#1741);
#559=VERTEX_POINT('',#1743);
#560=VERTEX_POINT('',#1745);
#561=VERTEX_POINT('',#1747);
#562=VERTEX_POINT('',#1749);
#563=VERTEX_POINT('',#1751);
#564=VERTEX_POINT('',#1753);
#565=VERTEX_POINT('',#1755);
#566=VERTEX_POINT('',#1757);
#567=VERTEX_POINT('',#1759);
#568=VERTEX_POINT('',#1761);
#569=VERTEX_POINT('',#1763);
#570=VERTEX_POINT('',#1765);
#571=VERTEX_POINT('',#1768);
#572=VERTEX_POINT('',#1772);
#573=VERTEX_POINT('',#1776);
#574=VERTEX_POINT('',#1780);
#575=VERTEX_POINT('',#1784);
#576=VERTEX_POINT('',#1788);
#577=VERTEX_POINT('',#1792);
#578=VERTEX_POINT('',#1796);
#579=VERTEX_POINT('',#1800);
#580=VERTEX_POINT('',#1804);
#581=VERTEX_POINT('',#1808);
#582=VERTEX_POINT('',#1812);
#583=VERTEX_POINT('',#1816);
#584=VERTEX_POINT('',#1820);
#585=VERTEX_POINT('',#1824);
#586=VERTEX_POINT('',#1828);
#587=VERTEX_POINT('',#1832);
#588=VERTEX_POINT('',#1836);
#589=VERTEX_POINT('',#1840);
#590=VERTEX_POINT('',#1844);
#591=VERTEX_POINT('',#1848);
#592=VERTEX_POINT('',#1852);
#593=VERTEX_POINT('',#1856);
#594=VERTEX_POINT('',#1860);
#595=VERTEX_POINT('',#1862);
#596=VERTEX_POINT('',#1867);
#597=VERTEX_POINT('',#1869);
#598=VERTEX_POINT('',#1874);
#599=VERTEX_POINT('',#1876);
#600=VERTEX_POINT('',#1881);
#601=VERTEX_POINT('',#1883);
#602=VERTEX_POINT('',#1888);
#603=VERTEX_POINT('',#1890);
#604=VERTEX_POINT('',#1895);
#605=VERTEX_POINT('',#1897);
#606=VERTEX_POINT('',#1902);
#607=VERTEX_POINT('',#1904);
#608=VERTEX_POINT('',#1909);
#609=VERTEX_POINT('',#1911);
#610=VERTEX_POINT('',#1916);
#611=VERTEX_POINT('',#1918);
#612=VERTEX_POINT('',#1923);
#613=VERTEX_POINT('',#1927);
#614=VERTEX_POINT('',#1931);
#615=VERTEX_POINT('',#1935);
#616=VERTEX_POINT('',#1939);
#617=VERTEX_POINT('',#1943);
#618=VERTEX_POINT('',#1947);
#619=VERTEX_POINT('',#1951);
#620=VERTEX_POINT('',#1955);
#621=VERTEX_POINT('',#1959);
#622=VERTEX_POINT('',#1963);
#623=VERTEX_POINT('',#1967);
#624=VERTEX_POINT('',#1971);
#625=VERTEX_POINT('',#1972);
#626=VERTEX_POINT('',#1977);
#627=VERTEX_POINT('',#1981);
#628=VERTEX_POINT('',#1985);
#629=VERTEX_POINT('',#1989);
#630=VERTEX_POINT('',#1993);
#631=VERTEX_POINT('',#1997);
#632=EDGE_CURVE('',#535,#535,#446,.T.);
#633=EDGE_CURVE('',#535,#536,#324,.T.);
#634=EDGE_CURVE('',#536,#536,#447,.T.);
#635=EDGE_CURVE('',#537,#538,#448,.T.);
#636=EDGE_CURVE('',#538,#539,#325,.T.);
#637=EDGE_CURVE('',#539,#540,#449,.T.);
#638=EDGE_CURVE('',#540,#541,#326,.T.);
#639=EDGE_CURVE('',#541,#542,#450,.T.);
#640=EDGE_CURVE('',#542,#543,#327,.T.);
#641=EDGE_CURVE('',#543,#544,#451,.T.);
#642=EDGE_CURVE('',#544,#537,#328,.T.);
#643=EDGE_CURVE('',#545,#545,#452,.T.);
#644=EDGE_CURVE('',#546,#546,#453,.T.);
#645=EDGE_CURVE('',#547,#547,#454,.T.);
#646=EDGE_CURVE('',#548,#548,#455,.T.);
#647=EDGE_CURVE('',#549,#549,#456,.T.);
#648=EDGE_CURVE('',#550,#550,#457,.T.);
#649=EDGE_CURVE('',#551,#551,#458,.T.);
#650=EDGE_CURVE('',#552,#552,#459,.T.);
#651=EDGE_CURVE('',#553,#553,#460,.T.);
#652=EDGE_CURVE('',#554,#554,#461,.T.);
#653=EDGE_CURVE('',#555,#555,#462,.T.);
#654=EDGE_CURVE('',#556,#556,#463,.T.);
#655=EDGE_CURVE('',#557,#557,#464,.T.);
#656=EDGE_CURVE('',#558,#558,#465,.T.);
#657=EDGE_CURVE('',#559,#559,#466,.T.);
#658=EDGE_CURVE('',#560,#560,#467,.T.);
#659=EDGE_CURVE('',#561,#561,#468,.T.);
#660=EDGE_CURVE('',#562,#562,#469,.T.);
#661=EDGE_CURVE('',#563,#563,#470,.T.);
#662=EDGE_CURVE('',#564,#564,#471,.T.);
#663=EDGE_CURVE('',#565,#565,#472,.T.);
#664=EDGE_CURVE('',#566,#566,#473,.T.);
#665=EDGE_CURVE('',#567,#567,#474,.T.);
#666=EDGE_CURVE('',#568,#568,#475,.T.);
#667=EDGE_CURVE('',#569,#569,#476,.T.);
#668=EDGE_CURVE('',#570,#570,#477,.T.);
#669=EDGE_CURVE('',#571,#571,#478,.T.);
#670=EDGE_CURVE('',#571,#536,#329,.T.);
#671=EDGE_CURVE('',#545,#572,#330,.T.);
#672=EDGE_CURVE('',#572,#572,#479,.T.);
#673=EDGE_CURVE('',#573,#573,#480,.T.);
#674=EDGE_CURVE('',#573,#572,#331,.T.);
#675=EDGE_CURVE('',#570,#574,#332,.T.);
#676=EDGE_CURVE('',#574,#574,#481,.T.);
#677=EDGE_CURVE('',#575,#575,#482,.T.);
#678=EDGE_CURVE('',#575,#574,#333,.T.);
#679=EDGE_CURVE('',#546,#576,#334,.T.);
#680=EDGE_CURVE('',#576,#576,#483,.T.);
#681=EDGE_CURVE('',#577,#577,#484,.T.);
#682=EDGE_CURVE('',#577,#576,#335,.T.);
#683=EDGE_CURVE('',#569,#578,#336,.T.);
#684=EDGE_CURVE('',#578,#578,#485,.T.);
#685=EDGE_CURVE('',#579,#579,#486,.T.);
#686=EDGE_CURVE('',#579,#578,#337,.T.);
#687=EDGE_CURVE('',#547,#580,#338,.T.);
#688=EDGE_CURVE('',#580,#580,#487,.T.);
#689=EDGE_CURVE('',#581,#581,#488,.T.);
#690=EDGE_CURVE('',#581,#580,#339,.T.);
#691=EDGE_CURVE('',#568,#582,#340,.T.);
#692=EDGE_CURVE('',#582,#582,#489,.T.);
#693=EDGE_CURVE('',#583,#583,#490,.T.);
#694=EDGE_CURVE('',#583,#582,#341,.T.);
#695=EDGE_CURVE('',#548,#584,#342,.T.);
#696=EDGE_CURVE('',#584,#584,#491,.T.);
#697=EDGE_CURVE('',#585,#585,#492,.T.);
#698=EDGE_CURVE('',#585,#584,#343,.T.);
#699=EDGE_CURVE('',#567,#586,#344,.T.);
#700=EDGE_CURVE('',#586,#586,#493,.T.);
#701=EDGE_CURVE('',#587,#587,#494,.T.);
#702=EDGE_CURVE('',#587,#586,#345,.T.);
#703=EDGE_CURVE('',#549,#588,#346,.T.);
#704=EDGE_CURVE('',#588,#588,#495,.T.);
#705=EDGE_CURVE('',#550,#589,#347,.T.);
#706=EDGE_CURVE('',#589,#589,#496,.T.);
#707=EDGE_CURVE('',#551,#590,#348,.T.);
#708=EDGE_CURVE('',#590,#590,#497,.T.);
#709=EDGE_CURVE('',#552,#591,#349,.T.);
#710=EDGE_CURVE('',#591,#591,#498,.T.);
#711=EDGE_CURVE('',#553,#592,#350,.T.);
#712=EDGE_CURVE('',#592,#592,#499,.T.);
#713=EDGE_CURVE('',#554,#593,#351,.T.);
#714=EDGE_CURVE('',#593,#593,#500,.T.);
#715=EDGE_CURVE('',#594,#594,#501,.T.);
#716=EDGE_CURVE('',#594,#595,#352,.T.);
#717=EDGE_CURVE('',#595,#595,#502,.T.);
#718=EDGE_CURVE('',#596,#596,#503,.T.);
#719=EDGE_CURVE('',#596,#597,#353,.T.);
#720=EDGE_CURVE('',#597,#597,#504,.T.);
#721=EDGE_CURVE('',#598,#598,#505,.T.);
#722=EDGE_CURVE('',#598,#599,#354,.T.);
#723=EDGE_CURVE('',#599,#599,#506,.T.);
#724=EDGE_CURVE('',#600,#600,#507,.T.);
#725=EDGE_CURVE('',#600,#601,#355,.T.);
#726=EDGE_CURVE('',#601,#601,#508,.T.);
#727=EDGE_CURVE('',#602,#602,#509,.T.);
#728=EDGE_CURVE('',#602,#603,#356,.T.);
#729=EDGE_CURVE('',#603,#603,#510,.T.);
#730=EDGE_CURVE('',#604,#604,#511,.T.);
#731=EDGE_CURVE('',#604,#605,#357,.T.);
#732=EDGE_CURVE('',#605,#605,#512,.T.);
#733=EDGE_CURVE('',#606,#606,#513,.T.);
#734=EDGE_CURVE('',#606,#607,#358,.T.);
#735=EDGE_CURVE('',#607,#607,#514,.T.);
#736=EDGE_CURVE('',#608,#608,#515,.T.);
#737=EDGE_CURVE('',#608,#609,#359,.T.);
#738=EDGE_CURVE('',#609,#609,#516,.T.);
#739=EDGE_CURVE('',#610,#610,#517,.T.);
#740=EDGE_CURVE('',#610,#611,#360,.T.);
#741=EDGE_CURVE('',#611,#611,#518,.T.);
#742=EDGE_CURVE('',#555,#612,#361,.T.);
#743=EDGE_CURVE('',#612,#612,#519,.T.);
#744=EDGE_CURVE('',#556,#613,#362,.T.);
#745=EDGE_CURVE('',#613,#613,#520,.T.);
#746=EDGE_CURVE('',#557,#614,#363,.T.);
#747=EDGE_CURVE('',#614,#614,#521,.T.);
#748=EDGE_CURVE('',#558,#615,#364,.T.);
#749=EDGE_CURVE('',#615,#615,#522,.T.);
#750=EDGE_CURVE('',#559,#616,#365,.T.);
#751=EDGE_CURVE('',#616,#616,#523,.T.);
#752=EDGE_CURVE('',#560,#617,#366,.T.);
#753=EDGE_CURVE('',#617,#617,#524,.T.);
#754=EDGE_CURVE('',#561,#618,#367,.T.);
#755=EDGE_CURVE('',#618,#618,#525,.T.);
#756=EDGE_CURVE('',#562,#619,#368,.T.);
#757=EDGE_CURVE('',#619,#619,#526,.T.);
#758=EDGE_CURVE('',#620,#620,#527,.T.);
#759=EDGE_CURVE('',#620,#563,#369,.T.);
#760=EDGE_CURVE('',#621,#621,#528,.T.);
#761=EDGE_CURVE('',#621,#566,#370,.T.);
#762=EDGE_CURVE('',#622,#622,#529,.T.);
#763=EDGE_CURVE('',#622,#565,#371,.T.);
#764=EDGE_CURVE('',#623,#623,#530,.T.);
#765=EDGE_CURVE('',#623,#564,#372,.T.);
#766=EDGE_CURVE('',#624,#625,#373,.T.);
#767=EDGE_CURVE('',#625,#537,#374,.T.);
#768=EDGE_CURVE('',#624,#544,#375,.T.);
#769=EDGE_CURVE('',#626,#624,#531,.T.);
#770=EDGE_CURVE('',#626,#543,#376,.T.);
#771=EDGE_CURVE('',#627,#626,#377,.T.);
#772=EDGE_CURVE('',#627,#542,#378,.T.);
#773=EDGE_CURVE('',#628,#627,#532,.T.);
#774=EDGE_CURVE('',#628,#541,#379,.T.);
#775=EDGE_CURVE('',#629,#628,#380,.T.);
#776=EDGE_CURVE('',#629,#540,#381,.T.);
#777=EDGE_CURVE('',#630,#629,#533,.T.);
#778=EDGE_CURVE('',#630,#539,#382,.T.);
#779=EDGE_CURVE('',#631,#630,#383,.T.);
#780=EDGE_CURVE('',#631,#538,#384,.T.);
#781=EDGE_CURVE('',#625,#631,#534,.T.);
#782=ORIENTED_EDGE('',*,*,#632,.T.);
#783=ORIENTED_EDGE('',*,*,#633,.T.);
#784=ORIENTED_EDGE('',*,*,#634,.T.);
#785=ORIENTED_EDGE('',*,*,#633,.F.);
#786=ORIENTED_EDGE('',*,*,#635,.T.);
#787=ORIENTED_EDGE('',*,*,#636,.T.);
#788=ORIENTED_EDGE('',*,*,#637,.T.);
#789=ORIENTED_EDGE('',*,*,#638,.T.);
#790=ORIENTED_EDGE('',*,*,#639,.T.);
#791=ORIENTED_EDGE('',*,*,#640,.T.);
#792=ORIENTED_EDGE('',*,*,#641,.T.);
#793=ORIENTED_EDGE('',*,*,#642,.T.);
#794=ORIENTED_EDGE('',*,*,#643,.F.);
#795=ORIENTED_EDGE('',*,*,#644,.F.);
#796=ORIENTED_EDGE('',*,*,#645,.F.);
#797=ORIENTED_EDGE('',*,*,#646,.F.);
#798=ORIENTED_EDGE('',*,*,#647,.T.);
#799=ORIENTED_EDGE('',*,*,#648,.T.);
#800=ORIENTED_EDGE('',*,*,#649,.T.);
#801=ORIENTED_EDGE('',*,*,#650,.T.);
#802=ORIENTED_EDGE('',*,*,#651,.T.);
#803=ORIENTED_EDGE('',*,*,#652,.T.);
#804=ORIENTED_EDGE('',*,*,#653,.T.);
#805=ORIENTED_EDGE('',*,*,#654,.T.);
#806=ORIENTED_EDGE('',*,*,#655,.T.);
#807=ORIENTED_EDGE('',*,*,#656,.T.);
#808=ORIENTED_EDGE('',*,*,#657,.T.);
#809=ORIENTED_EDGE('',*,*,#658,.T.);
#810=ORIENTED_EDGE('',*,*,#659,.T.);
#811=ORIENTED_EDGE('',*,*,#660,.T.);
#812=ORIENTED_EDGE('',*,*,#661,.T.);
#813=ORIENTED_EDGE('',*,*,#662,.T.);
#814=ORIENTED_EDGE('',*,*,#663,.T.);
#815=ORIENTED_EDGE('',*,*,#664,.T.);
#816=ORIENTED_EDGE('',*,*,#665,.F.);
#817=ORIENTED_EDGE('',*,*,#666,.F.);
#818=ORIENTED_EDGE('',*,*,#667,.F.);
#819=ORIENTED_EDGE('',*,*,#668,.F.);
#820=ORIENTED_EDGE('',*,*,#632,.F.);
#821=ORIENTED_EDGE('',*,*,#669,.F.);
#822=ORIENTED_EDGE('',*,*,#670,.T.);
#823=ORIENTED_EDGE('',*,*,#634,.F.);
#824=ORIENTED_EDGE('',*,*,#670,.F.);
#825=ORIENTED_EDGE('',*,*,#643,.T.);
#826=ORIENTED_EDGE('',*,*,#671,.T.);
#827=ORIENTED_EDGE('',*,*,#672,.T.);
#828=ORIENTED_EDGE('',*,*,#671,.F.);
#829=ORIENTED_EDGE('',*,*,#673,.F.);
#830=ORIENTED_EDGE('',*,*,#674,.T.);
#831=ORIENTED_EDGE('',*,*,#672,.F.);
#832=ORIENTED_EDGE('',*,*,#674,.F.);
#833=ORIENTED_EDGE('',*,*,#668,.T.);
#834=ORIENTED_EDGE('',*,*,#675,.T.);
#835=ORIENTED_EDGE('',*,*,#676,.T.);
#836=ORIENTED_EDGE('',*,*,#675,.F.);
#837=ORIENTED_EDGE('',*,*,#677,.F.);
#838=ORIENTED_EDGE('',*,*,#678,.T.);
#839=ORIENTED_EDGE('',*,*,#676,.F.);
#840=ORIENTED_EDGE('',*,*,#678,.F.);
#841=ORIENTED_EDGE('',*,*,#644,.T.);
#842=ORIENTED_EDGE('',*,*,#679,.T.);
#843=ORIENTED_EDGE('',*,*,#680,.T.);
#844=ORIENTED_EDGE('',*,*,#679,.F.);
#845=ORIENTED_EDGE('',*,*,#681,.F.);
#846=ORIENTED_EDGE('',*,*,#682,.T.);
#847=ORIENTED_EDGE('',*,*,#680,.F.);
#848=ORIENTED_EDGE('',*,*,#682,.F.);
#849=ORIENTED_EDGE('',*,*,#667,.T.);
#850=ORIENTED_EDGE('',*,*,#683,.T.);
#851=ORIENTED_EDGE('',*,*,#684,.T.);
#852=ORIENTED_EDGE('',*,*,#683,.F.);
#853=ORIENTED_EDGE('',*,*,#685,.F.);
#854=ORIENTED_EDGE('',*,*,#686,.T.);
#855=ORIENTED_EDGE('',*,*,#684,.F.);
#856=ORIENTED_EDGE('',*,*,#686,.F.);
#857=ORIENTED_EDGE('',*,*,#645,.T.);
#858=ORIENTED_EDGE('',*,*,#687,.T.);
#859=ORIENTED_EDGE('',*,*,#688,.T.);
#860=ORIENTED_EDGE('',*,*,#687,.F.);
#861=ORIENTED_EDGE('',*,*,#689,.F.);
#862=ORIENTED_EDGE('',*,*,#690,.T.);
#863=ORIENTED_EDGE('',*,*,#688,.F.);
#864=ORIENTED_EDGE('',*,*,#690,.F.);
#865=ORIENTED_EDGE('',*,*,#666,.T.);
#866=ORIENTED_EDGE('',*,*,#691,.T.);
#867=ORIENTED_EDGE('',*,*,#692,.T.);
#868=ORIENTED_EDGE('',*,*,#691,.F.);
#869=ORIENTED_EDGE('',*,*,#693,.F.);
#870=ORIENTED_EDGE('',*,*,#694,.T.);
#871=ORIENTED_EDGE('',*,*,#692,.F.);
#872=ORIENTED_EDGE('',*,*,#694,.F.);
#873=ORIENTED_EDGE('',*,*,#646,.T.);
#874=ORIENTED_EDGE('',*,*,#695,.T.);
#875=ORIENTED_EDGE('',*,*,#696,.T.);
#876=ORIENTED_EDGE('',*,*,#695,.F.);
#877=ORIENTED_EDGE('',*,*,#697,.F.);
#878=ORIENTED_EDGE('',*,*,#698,.T.);
#879=ORIENTED_EDGE('',*,*,#696,.F.);
#880=ORIENTED_EDGE('',*,*,#698,.F.);
#881=ORIENTED_EDGE('',*,*,#665,.T.);
#882=ORIENTED_EDGE('',*,*,#699,.T.);
#883=ORIENTED_EDGE('',*,*,#700,.T.);
#884=ORIENTED_EDGE('',*,*,#699,.F.);
#885=ORIENTED_EDGE('',*,*,#701,.F.);
#886=ORIENTED_EDGE('',*,*,#702,.T.);
#887=ORIENTED_EDGE('',*,*,#700,.F.);
#888=ORIENTED_EDGE('',*,*,#702,.F.);
#889=ORIENTED_EDGE('',*,*,#647,.F.);
#890=ORIENTED_EDGE('',*,*,#703,.T.);
#891=ORIENTED_EDGE('',*,*,#704,.F.);
#892=ORIENTED_EDGE('',*,*,#703,.F.);
#893=ORIENTED_EDGE('',*,*,#648,.F.);
#894=ORIENTED_EDGE('',*,*,#705,.T.);
#895=ORIENTED_EDGE('',*,*,#706,.F.);
#896=ORIENTED_EDGE('',*,*,#705,.F.);
#897=ORIENTED_EDGE('',*,*,#649,.F.);
#898=ORIENTED_EDGE('',*,*,#707,.T.);
#899=ORIENTED_EDGE('',*,*,#708,.F.);
#900=ORIENTED_EDGE('',*,*,#707,.F.);
#901=ORIENTED_EDGE('',*,*,#650,.F.);
#902=ORIENTED_EDGE('',*,*,#709,.T.);
#903=ORIENTED_EDGE('',*,*,#710,.F.);
#904=ORIENTED_EDGE('',*,*,#709,.F.);
#905=ORIENTED_EDGE('',*,*,#651,.F.);
#906=ORIENTED_EDGE('',*,*,#711,.T.);
#907=ORIENTED_EDGE('',*,*,#712,.F.);
#908=ORIENTED_EDGE('',*,*,#711,.F.);
#909=ORIENTED_EDGE('',*,*,#652,.F.);
#910=ORIENTED_EDGE('',*,*,#713,.T.);
#911=ORIENTED_EDGE('',*,*,#714,.F.);
#912=ORIENTED_EDGE('',*,*,#713,.F.);
#913=ORIENTED_EDGE('',*,*,#715,.F.);
#914=ORIENTED_EDGE('',*,*,#716,.T.);
#915=ORIENTED_EDGE('',*,*,#717,.F.);
#916=ORIENTED_EDGE('',*,*,#716,.F.);
#917=ORIENTED_EDGE('',*,*,#715,.T.);
#918=ORIENTED_EDGE('',*,*,#669,.T.);
#919=ORIENTED_EDGE('',*,*,#718,.F.);
#920=ORIENTED_EDGE('',*,*,#719,.T.);
#921=ORIENTED_EDGE('',*,*,#720,.F.);
#922=ORIENTED_EDGE('',*,*,#719,.F.);
#923=ORIENTED_EDGE('',*,*,#718,.T.);
#924=ORIENTED_EDGE('',*,*,#681,.T.);
#925=ORIENTED_EDGE('',*,*,#721,.F.);
#926=ORIENTED_EDGE('',*,*,#722,.T.);
#927=ORIENTED_EDGE('',*,*,#723,.F.);
#928=ORIENTED_EDGE('',*,*,#722,.F.);
#929=ORIENTED_EDGE('',*,*,#721,.T.);
#930=ORIENTED_EDGE('',*,*,#697,.T.);
#931=ORIENTED_EDGE('',*,*,#724,.F.);
#932=ORIENTED_EDGE('',*,*,#725,.T.);
#933=ORIENTED_EDGE('',*,*,#726,.F.);
#934=ORIENTED_EDGE('',*,*,#725,.F.);
#935=ORIENTED_EDGE('',*,*,#724,.T.);
#936=ORIENTED_EDGE('',*,*,#693,.T.);
#937=ORIENTED_EDGE('',*,*,#727,.F.);
#938=ORIENTED_EDGE('',*,*,#728,.T.);
#939=ORIENTED_EDGE('',*,*,#729,.F.);
#940=ORIENTED_EDGE('',*,*,#728,.F.);
#941=ORIENTED_EDGE('',*,*,#727,.T.);
#942=ORIENTED_EDGE('',*,*,#673,.T.);
#943=ORIENTED_EDGE('',*,*,#730,.F.);
#944=ORIENTED_EDGE('',*,*,#731,.T.);
#945=ORIENTED_EDGE('',*,*,#732,.F.);
#946=ORIENTED_EDGE('',*,*,#731,.F.);
#947=ORIENTED_EDGE('',*,*,#730,.T.);
#948=ORIENTED_EDGE('',*,*,#685,.T.);
#949=ORIENTED_EDGE('',*,*,#733,.F.);
#950=ORIENTED_EDGE('',*,*,#734,.T.);
#951=ORIENTED_EDGE('',*,*,#735,.F.);
#952=ORIENTED_EDGE('',*,*,#734,.F.);
#953=ORIENTED_EDGE('',*,*,#733,.T.);
#954=ORIENTED_EDGE('',*,*,#701,.T.);
#955=ORIENTED_EDGE('',*,*,#736,.F.);
#956=ORIENTED_EDGE('',*,*,#737,.T.);
#957=ORIENTED_EDGE('',*,*,#738,.F.);
#958=ORIENTED_EDGE('',*,*,#737,.F.);
#959=ORIENTED_EDGE('',*,*,#736,.T.);
#960=ORIENTED_EDGE('',*,*,#689,.T.);
#961=ORIENTED_EDGE('',*,*,#739,.F.);
#962=ORIENTED_EDGE('',*,*,#740,.T.);
#963=ORIENTED_EDGE('',*,*,#741,.F.);
#964=ORIENTED_EDGE('',*,*,#740,.F.);
#965=ORIENTED_EDGE('',*,*,#739,.T.);
#966=ORIENTED_EDGE('',*,*,#677,.T.);
#967=ORIENTED_EDGE('',*,*,#653,.F.);
#968=ORIENTED_EDGE('',*,*,#742,.T.);
#969=ORIENTED_EDGE('',*,*,#743,.F.);
#970=ORIENTED_EDGE('',*,*,#742,.F.);
#971=ORIENTED_EDGE('',*,*,#654,.F.);
#972=ORIENTED_EDGE('',*,*,#744,.T.);
#973=ORIENTED_EDGE('',*,*,#745,.F.);
#974=ORIENTED_EDGE('',*,*,#744,.F.);
#975=ORIENTED_EDGE('',*,*,#655,.F.);
#976=ORIENTED_EDGE('',*,*,#746,.T.);
#977=ORIENTED_EDGE('',*,*,#747,.F.);
#978=ORIENTED_EDGE('',*,*,#746,.F.);
#979=ORIENTED_EDGE('',*,*,#656,.F.);
#980=ORIENTED_EDGE('',*,*,#748,.T.);
#981=ORIENTED_EDGE('',*,*,#749,.F.);
#982=ORIENTED_EDGE('',*,*,#748,.F.);
#983=ORIENTED_EDGE('',*,*,#657,.F.);
#984=ORIENTED_EDGE('',*,*,#750,.T.);
#985=ORIENTED_EDGE('',*,*,#751,.F.);
#986=ORIENTED_EDGE('',*,*,#750,.F.);
#987=ORIENTED_EDGE('',*,*,#658,.F.);
#988=ORIENTED_EDGE('',*,*,#752,.T.);
#989=ORIENTED_EDGE('',*,*,#753,.F.);
#990=ORIENTED_EDGE('',*,*,#752,.F.);
#991=ORIENTED_EDGE('',*,*,#659,.F.);
#992=ORIENTED_EDGE('',*,*,#754,.T.);
#993=ORIENTED_EDGE('',*,*,#755,.F.);
#994=ORIENTED_EDGE('',*,*,#754,.F.);
#995=ORIENTED_EDGE('',*,*,#660,.F.);
#996=ORIENTED_EDGE('',*,*,#756,.T.);
#997=ORIENTED_EDGE('',*,*,#757,.F.);
#998=ORIENTED_EDGE('',*,*,#756,.F.);
#999=ORIENTED_EDGE('',*,*,#758,.F.);
#1000=ORIENTED_EDGE('',*,*,#759,.T.);
#1001=ORIENTED_EDGE('',*,*,#661,.F.);
#1002=ORIENTED_EDGE('',*,*,#759,.F.);
#1003=ORIENTED_EDGE('',*,*,#760,.F.);
#1004=ORIENTED_EDGE('',*,*,#761,.T.);
#1005=ORIENTED_EDGE('',*,*,#664,.F.);
#1006=ORIENTED_EDGE('',*,*,#761,.F.);
#1007=ORIENTED_EDGE('',*,*,#762,.F.);
#1008=ORIENTED_EDGE('',*,*,#763,.T.);
#1009=ORIENTED_EDGE('',*,*,#663,.F.);
#1010=ORIENTED_EDGE('',*,*,#763,.F.);
#1011=ORIENTED_EDGE('',*,*,#764,.F.);
#1012=ORIENTED_EDGE('',*,*,#765,.T.);
#1013=ORIENTED_EDGE('',*,*,#662,.F.);
#1014=ORIENTED_EDGE('',*,*,#765,.F.);
#1015=ORIENTED_EDGE('',*,*,#766,.T.);
#1016=ORIENTED_EDGE('',*,*,#767,.T.);
#1017=ORIENTED_EDGE('',*,*,#642,.F.);
#1018=ORIENTED_EDGE('',*,*,#768,.F.);
#1019=ORIENTED_EDGE('',*,*,#769,.T.);
#1020=ORIENTED_EDGE('',*,*,#768,.T.);
#1021=ORIENTED_EDGE('',*,*,#641,.F.);
#1022=ORIENTED_EDGE('',*,*,#770,.F.);
#1023=ORIENTED_EDGE('',*,*,#771,.T.);
#1024=ORIENTED_EDGE('',*,*,#770,.T.);
#1025=ORIENTED_EDGE('',*,*,#640,.F.);
#1026=ORIENTED_EDGE('',*,*,#772,.F.);
#1027=ORIENTED_EDGE('',*,*,#773,.T.);
#1028=ORIENTED_EDGE('',*,*,#772,.T.);
#1029=ORIENTED_EDGE('',*,*,#639,.F.);
#1030=ORIENTED_EDGE('',*,*,#774,.F.);
#1031=ORIENTED_EDGE('',*,*,#775,.T.);
#1032=ORIENTED_EDGE('',*,*,#774,.T.);
#1033=ORIENTED_EDGE('',*,*,#638,.F.);
#1034=ORIENTED_EDGE('',*,*,#776,.F.);
#1035=ORIENTED_EDGE('',*,*,#777,.T.);
#1036=ORIENTED_EDGE('',*,*,#776,.T.);
#1037=ORIENTED_EDGE('',*,*,#637,.F.);
#1038=ORIENTED_EDGE('',*,*,#778,.F.);
#1039=ORIENTED_EDGE('',*,*,#779,.T.);
#1040=ORIENTED_EDGE('',*,*,#778,.T.);
#1041=ORIENTED_EDGE('',*,*,#636,.F.);
#1042=ORIENTED_EDGE('',*,*,#780,.F.);
#1043=ORIENTED_EDGE('',*,*,#781,.T.);
#1044=ORIENTED_EDGE('',*,*,#780,.T.);
#1045=ORIENTED_EDGE('',*,*,#635,.F.);
#1046=ORIENTED_EDGE('',*,*,#767,.F.);
#1047=ORIENTED_EDGE('',*,*,#781,.F.);
#1048=ORIENTED_EDGE('',*,*,#766,.F.);
#1049=ORIENTED_EDGE('',*,*,#769,.F.);
#1050=ORIENTED_EDGE('',*,*,#771,.F.);
#1051=ORIENTED_EDGE('',*,*,#773,.F.);
#1052=ORIENTED_EDGE('',*,*,#775,.F.);
#1053=ORIENTED_EDGE('',*,*,#777,.F.);
#1054=ORIENTED_EDGE('',*,*,#779,.F.);
#1055=ORIENTED_EDGE('',*,*,#717,.T.);
#1056=ORIENTED_EDGE('',*,*,#723,.T.);
#1057=ORIENTED_EDGE('',*,*,#729,.T.);
#1058=ORIENTED_EDGE('',*,*,#735,.T.);
#1059=ORIENTED_EDGE('',*,*,#741,.T.);
#1060=ORIENTED_EDGE('',*,*,#760,.T.);
#1061=ORIENTED_EDGE('',*,*,#762,.T.);
#1062=ORIENTED_EDGE('',*,*,#764,.T.);
#1063=ORIENTED_EDGE('',*,*,#758,.T.);
#1064=ORIENTED_EDGE('',*,*,#757,.T.);
#1065=ORIENTED_EDGE('',*,*,#755,.T.);
#1066=ORIENTED_EDGE('',*,*,#753,.T.);
#1067=ORIENTED_EDGE('',*,*,#751,.T.);
#1068=ORIENTED_EDGE('',*,*,#749,.T.);
#1069=ORIENTED_EDGE('',*,*,#747,.T.);
#1070=ORIENTED_EDGE('',*,*,#745,.T.);
#1071=ORIENTED_EDGE('',*,*,#743,.T.);
#1072=ORIENTED_EDGE('',*,*,#738,.T.);
#1073=ORIENTED_EDGE('',*,*,#732,.T.);
#1074=ORIENTED_EDGE('',*,*,#726,.T.);
#1075=ORIENTED_EDGE('',*,*,#720,.T.);
#1076=ORIENTED_EDGE('',*,*,#714,.T.);
#1077=ORIENTED_EDGE('',*,*,#712,.T.);
#1078=ORIENTED_EDGE('',*,*,#710,.T.);
#1079=ORIENTED_EDGE('',*,*,#708,.T.);
#1080=ORIENTED_EDGE('',*,*,#706,.T.);
#1081=ORIENTED_EDGE('',*,*,#704,.T.);
#1082=CONICAL_SURFACE('',#1169,2.9,0.785398163397448);
#1083=CONICAL_SURFACE('',#1205,2.9,0.785398163397451);
#1084=CONICAL_SURFACE('',#1209,2.9,0.785398163397448);
#1085=CONICAL_SURFACE('',#1213,2.9,0.785398163397448);
#1086=CONICAL_SURFACE('',#1217,2.9,0.785398163397448);
#1087=CONICAL_SURFACE('',#1221,2.9,0.785398163397448);
#1088=CONICAL_SURFACE('',#1225,2.9,0.785398163397448);
#1089=CONICAL_SURFACE('',#1229,2.9,0.785398163397448);
#1090=CONICAL_SURFACE('',#1233,2.90000000000002,0.785398163397451);
#1091=ADVANCED_FACE('',(#133),#1082,.F.);
#1092=ADVANCED_FACE('',(#134,#55,#56,#57,#58,#59,#60,#61,#62,#63,#64,#65,
#66,#67,#68,#69,#70,#71,#72,#73,#74,#75,#76,#77,#78,#79,#80,#81),#118,.T.);
#1093=ADVANCED_FACE('',(#135),#15,.F.);
#1094=ADVANCED_FACE('',(#136),#1083,.F.);
#1095=ADVANCED_FACE('',(#137),#16,.F.);
#1096=ADVANCED_FACE('',(#138),#1084,.F.);
#1097=ADVANCED_FACE('',(#139),#17,.F.);
#1098=ADVANCED_FACE('',(#140),#1085,.F.);
#1099=ADVANCED_FACE('',(#141),#18,.F.);
#1100=ADVANCED_FACE('',(#142),#1086,.F.);
#1101=ADVANCED_FACE('',(#143),#19,.F.);
#1102=ADVANCED_FACE('',(#144),#1087,.F.);
#1103=ADVANCED_FACE('',(#145),#20,.F.);
#1104=ADVANCED_FACE('',(#146),#1088,.F.);
#1105=ADVANCED_FACE('',(#147),#21,.F.);
#1106=ADVANCED_FACE('',(#148),#1089,.F.);
#1107=ADVANCED_FACE('',(#149),#22,.F.);
#1108=ADVANCED_FACE('',(#150),#1090,.F.);
#1109=ADVANCED_FACE('',(#151),#23,.F.);
#1110=ADVANCED_FACE('',(#152),#24,.F.);
#1111=ADVANCED_FACE('',(#153),#25,.F.);
#1112=ADVANCED_FACE('',(#154),#26,.F.);
#1113=ADVANCED_FACE('',(#155),#27,.F.);
#1114=ADVANCED_FACE('',(#156),#28,.F.);
#1115=ADVANCED_FACE('',(#157),#29,.F.);
#1116=ADVANCED_FACE('',(#158),#30,.T.);
#1117=ADVANCED_FACE('',(#159,#82),#119,.F.);
#1118=ADVANCED_FACE('',(#160),#31,.T.);
#1119=ADVANCED_FACE('',(#161,#83),#120,.F.);
#1120=ADVANCED_FACE('',(#162),#32,.T.);
#1121=ADVANCED_FACE('',(#163,#84),#121,.F.);
#1122=ADVANCED_FACE('',(#164),#33,.T.);
#1123=ADVANCED_FACE('',(#165,#85),#122,.F.);
#1124=ADVANCED_FACE('',(#166),#34,.T.);
#1125=ADVANCED_FACE('',(#167,#86),#123,.F.);
#1126=ADVANCED_FACE('',(#168),#35,.T.);
#1127=ADVANCED_FACE('',(#169,#87),#124,.F.);
#1128=ADVANCED_FACE('',(#170),#36,.T.);
#1129=ADVANCED_FACE('',(#171,#88),#125,.F.);
#1130=ADVANCED_FACE('',(#172),#37,.T.);
#1131=ADVANCED_FACE('',(#173,#89),#126,.F.);
#1132=ADVANCED_FACE('',(#174),#38,.T.);
#1133=ADVANCED_FACE('',(#175,#90),#127,.F.);
#1134=ADVANCED_FACE('',(#176),#39,.F.);
#1135=ADVANCED_FACE('',(#177),#40,.F.);
#1136=ADVANCED_FACE('',(#178),#41,.F.);
#1137=ADVANCED_FACE('',(#179),#42,.F.);
#1138=ADVANCED_FACE('',(#180),#43,.F.);
#1139=ADVANCED_FACE('',(#181),#44,.F.);
#1140=ADVANCED_FACE('',(#182),#45,.F.);
#1141=ADVANCED_FACE('',(#183),#46,.F.);
#1142=ADVANCED_FACE('',(#184),#47,.F.);
#1143=ADVANCED_FACE('',(#185),#48,.F.);
#1144=ADVANCED_FACE('',(#186),#49,.F.);
#1145=ADVANCED_FACE('',(#187),#50,.F.);
#1146=ADVANCED_FACE('',(#188),#128,.T.);
#1147=ADVANCED_FACE('',(#189),#51,.T.);
#1148=ADVANCED_FACE('',(#190),#129,.T.);
#1149=ADVANCED_FACE('',(#191),#52,.T.);
#1150=ADVANCED_FACE('',(#192),#130,.T.);
#1151=ADVANCED_FACE('',(#193),#53,.T.);
#1152=ADVANCED_FACE('',(#194),#131,.T.);
#1153=ADVANCED_FACE('',(#195),#54,.T.);
#1154=ADVANCED_FACE('',(#196,#91,#92,#93,#94,#95,#96,#97,#98,#99,#100,#101,
#102,#103,#104,#105,#106,#107,#108,#109,#110,#111,#112,#113,#114,#115,#116,
#117),#132,.F.);
#1155=CLOSED_SHELL('',(#1091,#1092,#1093,#1094,#1095,#1096,#1097,#1098,
#1099,#1100,#1101,#1102,#1103,#1104,#1105,#1106,#1107,#1108,#1109,#1110,
#1111,#1112,#1113,#1114,#1115,#1116,#1117,#1118,#1119,#1120,#1121,#1122,
#1123,#1124,#1125,#1126,#1127,#1128,#1129,#1130,#1131,#1132,#1133,#1134,
#1135,#1136,#1137,#1138,#1139,#1140,#1141,#1142,#1143,#1144,#1145,#1146,
#1147,#1148,#1149,#1150,#1151,#1152,#1153,#1154));
#1156=DERIVED_UNIT_ELEMENT(#1158,1.);
#1157=DERIVED_UNIT_ELEMENT(#2008,-3.);
#1158=(
MASS_UNIT()
NAMED_UNIT(*)
SI_UNIT(.KILO.,.GRAM.)
);
#1159=DERIVED_UNIT((#1156,#1157));
#1160=MEASURE_REPRESENTATION_ITEM('density measure',
POSITIVE_RATIO_MEASURE(7850.),#1159);
#1161=PROPERTY_DEFINITION_REPRESENTATION(#1166,#1163);
#1162=PROPERTY_DEFINITION_REPRESENTATION(#1167,#1164);
#1163=REPRESENTATION('material name',(#1165),#2005);
#1164=REPRESENTATION('density',(#1160),#2005);
#1165=DESCRIPTIVE_REPRESENTATION_ITEM('Steel','Steel');
#1166=PROPERTY_DEFINITION('material property','material name',#2015);
#1167=PROPERTY_DEFINITION('material property','density of part',#2015);
#1168=AXIS2_PLACEMENT_3D('',#1691,#1322,#1323);
#1169=AXIS2_PLACEMENT_3D('',#1692,#1324,#1325);
#1170=AXIS2_PLACEMENT_3D('',#1694,#1326,#1327);
#1171=AXIS2_PLACEMENT_3D('',#1697,#1329,#1330);
#1172=AXIS2_PLACEMENT_3D('',#1698,#1331,#1332);
#1173=AXIS2_PLACEMENT_3D('',#1701,#1333,#1334);
#1174=AXIS2_PLACEMENT_3D('',#1705,#1336,#1337);
#1175=AXIS2_PLACEMENT_3D('',#1709,#1339,#1340);
#1176=AXIS2_PLACEMENT_3D('',#1713,#1342,#1343);
#1177=AXIS2_PLACEMENT_3D('',#1716,#1345,#1346);
#1178=AXIS2_PLACEMENT_3D('',#1718,#1347,#1348);
#1179=AXIS2_PLACEMENT_3D('',#1720,#1349,#1350);
#1180=AXIS2_PLACEMENT_3D('',#1722,#1351,#1352);
#1181=AXIS2_PLACEMENT_3D('',#1724,#1353,#1354);
#1182=AXIS2_PLACEMENT_3D('',#1726,#1355,#1356);
#1183=AXIS2_PLACEMENT_3D('',#1728,#1357,#1358);
#1184=AXIS2_PLACEMENT_3D('',#1730,#1359,#1360);
#1185=AXIS2_PLACEMENT_3D('',#1732,#1361,#1362);
#1186=AXIS2_PLACEMENT_3D('',#1734,#1363,#1364);
#1187=AXIS2_PLACEMENT_3D('',#1736,#1365,#1366);
#1188=AXIS2_PLACEMENT_3D('',#1738,#1367,#1368);
#1189=AXIS2_PLACEMENT_3D('',#1740,#1369,#1370);
#1190=AXIS2_PLACEMENT_3D('',#1742,#1371,#1372);
#1191=AXIS2_PLACEMENT_3D('',#1744,#1373,#1374);
#1192=AXIS2_PLACEMENT_3D('',#1746,#1375,#1376);
#1193=AXIS2_PLACEMENT_3D('',#1748,#1377,#1378);
#1194=AXIS2_PLACEMENT_3D('',#1750,#1379,#1380);
#1195=AXIS2_PLACEMENT_3D('',#1752,#1381,#1382);
#1196=AXIS2_PLACEMENT_3D('',#1754,#1383,#1384);
#1197=AXIS2_PLACEMENT_3D('',#1756,#1385,#1386);
#1198=AXIS2_PLACEMENT_3D('',#1758,#1387,#1388);
#1199=AXIS2_PLACEMENT_3D('',#1760,#1389,#1390);
#1200=AXIS2_PLACEMENT_3D('',#1762,#1391,#1392);
#1201=AXIS2_PLACEMENT_3D('',#1764,#1393,#1394);
#1202=AXIS2_PLACEMENT_3D('',#1766,#1395,#1396);
#1203=AXIS2_PLACEMENT_3D('',#1767,#1397,#1398);
#1204=AXIS2_PLACEMENT_3D('',#1769,#1399,#1400);
#1205=AXIS2_PLACEMENT_3D('',#1771,#1402,#1403);
#1206=AXIS2_PLACEMENT_3D('',#1774,#1405,#1406);
#1207=AXIS2_PLACEMENT_3D('',#1775,#1407,#1408);
#1208=AXIS2_PLACEMENT_3D('',#1777,#1409,#1410);
#1209=AXIS2_PLACEMENT_3D('',#1779,#1412,#1413);
#1210=AXIS2_PLACEMENT_3D('',#1782,#1415,#1416);
#1211=AXIS2_PLACEMENT_3D('',#1783,#1417,#1418);
#1212=AXIS2_PLACEMENT_3D('',#1785,#1419,#1420);
#1213=AXIS2_PLACEMENT_3D('',#1787,#1422,#1423);
#1214=AXIS2_PLACEMENT_3D('',#1790,#1425,#1426);
#1215=AXIS2_PLACEMENT_3D('',#1791,#1427,#1428);
#1216=AXIS2_PLACEMENT_3D('',#1793,#1429,#1430);
#1217=AXIS2_PLACEMENT_3D('',#1795,#1432,#1433);
#1218=AXIS2_PLACEMENT_3D('',#1798,#1435,#1436);
#1219=AXIS2_PLACEMENT_3D('',#1799,#1437,#1438);
#1220=AXIS2_PLACEMENT_3D('',#1801,#1439,#1440);
#1221=AXIS2_PLACEMENT_3D('',#1803,#1442,#1443);
#1222=AXIS2_PLACEMENT_3D('',#1806,#1445,#1446);
#1223=AXIS2_PLACEMENT_3D('',#1807,#1447,#1448);
#1224=AXIS2_PLACEMENT_3D('',#1809,#1449,#1450);
#1225=AXIS2_PLACEMENT_3D('',#1811,#1452,#1453);
#1226=AXIS2_PLACEMENT_3D('',#1814,#1455,#1456);
#1227=AXIS2_PLACEMENT_3D('',#1815,#1457,#1458);
#1228=AXIS2_PLACEMENT_3D('',#1817,#1459,#1460);
#1229=AXIS2_PLACEMENT_3D('',#1819,#1462,#1463);
#1230=AXIS2_PLACEMENT_3D('',#1822,#1465,#1466);
#1231=AXIS2_PLACEMENT_3D('',#1823,#1467,#1468);
#1232=AXIS2_PLACEMENT_3D('',#1825,#1469,#1470);
#1233=AXIS2_PLACEMENT_3D('',#1827,#1472,#1473);
#1234=AXIS2_PLACEMENT_3D('',#1830,#1475,#1476);
#1235=AXIS2_PLACEMENT_3D('',#1831,#1477,#1478);
#1236=AXIS2_PLACEMENT_3D('',#1833,#1479,#1480);
#1237=AXIS2_PLACEMENT_3D('',#1835,#1482,#1483);
#1238=AXIS2_PLACEMENT_3D('',#1838,#1485,#1486);
#1239=AXIS2_PLACEMENT_3D('',#1839,#1487,#1488);
#1240=AXIS2_PLACEMENT_3D('',#1842,#1490,#1491);
#1241=AXIS2_PLACEMENT_3D('',#1843,#1492,#1493);
#1242=AXIS2_PLACEMENT_3D('',#1846,#1495,#1496);
#1243=AXIS2_PLACEMENT_3D('',#1847,#1497,#1498);
#1244=AXIS2_PLACEMENT_3D('',#1850,#1500,#1501);
#1245=AXIS2_PLACEMENT_3D('',#1851,#1502,#1503);
#1246=AXIS2_PLACEMENT_3D('',#1854,#1505,#1506);
#1247=AXIS2_PLACEMENT_3D('',#1855,#1507,#1508);
#1248=AXIS2_PLACEMENT_3D('',#1858,#1510,#1511);
#1249=AXIS2_PLACEMENT_3D('',#1859,#1512,#1513);
#1250=AXIS2_PLACEMENT_3D('',#1861,#1514,#1515);
#1251=AXIS2_PLACEMENT_3D('',#1864,#1517,#1518);
#1252=AXIS2_PLACEMENT_3D('',#1865,#1519,#1520);
#1253=AXIS2_PLACEMENT_3D('',#1866,#1521,#1522);
#1254=AXIS2_PLACEMENT_3D('',#1868,#1523,#1524);
#1255=AXIS2_PLACEMENT_3D('',#1871,#1526,#1527);
#1256=AXIS2_PLACEMENT_3D('',#1872,#1528,#1529);
#1257=AXIS2_PLACEMENT_3D('',#1873,#1530,#1531);
#1258=AXIS2_PLACEMENT_3D('',#1875,#1532,#1533);
#1259=AXIS2_PLACEMENT_3D('',#1878,#1535,#1536);
#1260=AXIS2_PLACEMENT_3D('',#1879,#1537,#1538);
#1261=AXIS2_PLACEMENT_3D('',#1880,#1539,#1540);
#1262=AXIS2_PLACEMENT_3D('',#1882,#1541,#1542);
#1263=AXIS2_PLACEMENT_3D('',#1885,#1544,#1545);
#1264=AXIS2_PLACEMENT_3D('',#1886,#1546,#1547);
#1265=AXIS2_PLACEMENT_3D('',#1887,#1548,#1549);
#1266=AXIS2_PLACEMENT_3D('',#1889,#1550,#1551);
#1267=AXIS2_PLACEMENT_3D('',#1892,#1553,#1554);
#1268=AXIS2_PLACEMENT_3D('',#1893,#1555,#1556);
#1269=AXIS2_PLACEMENT_3D('',#1894,#1557,#1558);
#1270=AXIS2_PLACEMENT_3D('',#1896,#1559,#1560);
#1271=AXIS2_PLACEMENT_3D('',#1899,#1562,#1563);
#1272=AXIS2_PLACEMENT_3D('',#1900,#1564,#1565);
#1273=AXIS2_PLACEMENT_3D('',#1901,#1566,#1567);
#1274=AXIS2_PLACEMENT_3D('',#1903,#1568,#1569);
#1275=AXIS2_PLACEMENT_3D('',#1906,#1571,#1572);
#1276=AXIS2_PLACEMENT_3D('',#1907,#1573,#1574);
#1277=AXIS2_PLACEMENT_3D('',#1908,#1575,#1576);
#1278=AXIS2_PLACEMENT_3D('',#1910,#1577,#1578);
#1279=AXIS2_PLACEMENT_3D('',#1913,#1580,#1581);
#1280=AXIS2_PLACEMENT_3D('',#1914,#1582,#1583);
#1281=AXIS2_PLACEMENT_3D('',#1915,#1584,#1585);
#1282=AXIS2_PLACEMENT_3D('',#1917,#1586,#1587);
#1283=AXIS2_PLACEMENT_3D('',#1920,#1589,#1590);
#1284=AXIS2_PLACEMENT_3D('',#1921,#1591,#1592);
#1285=AXIS2_PLACEMENT_3D('',#1922,#1593,#1594);
#1286=AXIS2_PLACEMENT_3D('',#1925,#1596,#1597);
#1287=AXIS2_PLACEMENT_3D('',#1926,#1598,#1599);
#1288=AXIS2_PLACEMENT_3D('',#1929,#1601,#1602);
#1289=AXIS2_PLACEMENT_3D('',#1930,#1603,#1604);
#1290=AXIS2_PLACEMENT_3D('',#1933,#1606,#1607);
#1291=AXIS2_PLACEMENT_3D('',#1934,#1608,#1609);
#1292=AXIS2_PLACEMENT_3D('',#1937,#1611,#1612);
#1293=AXIS2_PLACEMENT_3D('',#1938,#1613,#1614);
#1294=AXIS2_PLACEMENT_3D('',#1941,#1616,#1617);
#1295=AXIS2_PLACEMENT_3D('',#1942,#1618,#1619);
#1296=AXIS2_PLACEMENT_3D('',#1945,#1621,#1622);
#1297=AXIS2_PLACEMENT_3D('',#1946,#1623,#1624);
#1298=AXIS2_PLACEMENT_3D('',#1949,#1626,#1627);
#1299=AXIS2_PLACEMENT_3D('',#1950,#1628,#1629);
#1300=AXIS2_PLACEMENT_3D('',#1953,#1631,#1632);
#1301=AXIS2_PLACEMENT_3D('',#1954,#1633,#1634);
#1302=AXIS2_PLACEMENT_3D('',#1956,#1635,#1636);
#1303=AXIS2_PLACEMENT_3D('',#1958,#1638,#1639);
#1304=AXIS2_PLACEMENT_3D('',#1960,#1640,#1641);
#1305=AXIS2_PLACEMENT_3D('',#1962,#1643,#1644);
#1306=AXIS2_PLACEMENT_3D('',#1964,#1645,#1646);
#1307=AXIS2_PLACEMENT_3D('',#1966,#1648,#1649);
#1308=AXIS2_PLACEMENT_3D('',#1968,#1650,#1651);
#1309=AXIS2_PLACEMENT_3D('',#1970,#1653,#1654);
#1310=AXIS2_PLACEMENT_3D('',#1976,#1658,#1659);
#1311=AXIS2_PLACEMENT_3D('',#1978,#1660,#1661);
#1312=AXIS2_PLACEMENT_3D('',#1980,#1663,#1664);
#1313=AXIS2_PLACEMENT_3D('',#1984,#1667,#1668);
#1314=AXIS2_PLACEMENT_3D('',#1986,#1669,#1670);
#1315=AXIS2_PLACEMENT_3D('',#1988,#1672,#1673);
#1316=AXIS2_PLACEMENT_3D('',#1992,#1676,#1677);
#1317=AXIS2_PLACEMENT_3D('',#1994,#1678,#1679);
#1318=AXIS2_PLACEMENT_3D('',#1996,#1681,#1682);
#1319=AXIS2_PLACEMENT_3D('',#2000,#1685,#1686);
#1320=AXIS2_PLACEMENT_3D('',#2001,#1687,#1688);
#1321=AXIS2_PLACEMENT_3D('',#2002,#1689,#1690);
#1322=DIRECTION('axis',(0.,0.,1.));
#1323=DIRECTION('refdir',(1.,0.,0.));
#1324=DIRECTION('center_axis',(0.,0.,1.));
#1325=DIRECTION('ref_axis',(1.,0.,0.));
#1326=DIRECTION('center_axis',(0.,0.,1.));
#1327=DIRECTION('ref_axis',(1.,0.,0.));
#1328=DIRECTION('',(0.707106781186547,8.65956056235493E-17,-0.707106781186548));
#1329=DIRECTION('center_axis',(0.,0.,-1.));
#1330=DIRECTION('ref_axis',(1.,0.,0.));
#1331=DIRECTION('center_axis',(0.,0.,1.));
#1332=DIRECTION('ref_axis',(1.,0.,0.));
#1333=DIRECTION('center_axis',(0.,0.,1.));
#1334=DIRECTION('ref_axis',(-1.,-1.63735691671722E-11,0.));
#1335=DIRECTION('',(1.,0.,0.));
#1336=DIRECTION('center_axis',(0.,0.,1.));
#1337=DIRECTION('ref_axis',(0.,-1.,0.));
#1338=DIRECTION('',(0.,1.,0.));
#1339=DIRECTION('center_axis',(0.,0.,1.));
#1340=DIRECTION('ref_axis',(1.,0.,0.));
#1341=DIRECTION('',(-1.,2.24287479722254E-17,0.));
#1342=DIRECTION('center_axis',(0.,0.,1.));
#1343=DIRECTION('ref_axis',(3.55271367880058E-14,1.,0.));
#1344=DIRECTION('',(3.70074341541719E-16,-1.,0.));
#1345=DIRECTION('center_axis',(0.,0.,1.));
#1346=DIRECTION('ref_axis',(1.,0.,0.));
#1347=DIRECTION('center_axis',(0.,0.,1.));
#1348=DIRECTION('ref_axis',(1.,0.,0.));
#1349=DIRECTION('center_axis',(0.,0.,1.));
#1350=DIRECTION('ref_axis',(1.,0.,0.));
#1351=DIRECTION('center_axis',(0.,0.,1.));
#1352=DIRECTION('ref_axis',(1.,0.,0.));
#1353=DIRECTION('center_axis',(0.,0.,-1.));
#1354=DIRECTION('ref_axis',(1.,0.,0.));
#1355=DIRECTION('center_axis',(0.,0.,-1.));
#1356=DIRECTION('ref_axis',(1.,0.,0.));
#1357=DIRECTION('center_axis',(0.,0.,-1.));
#1358=DIRECTION('ref_axis',(1.,0.,0.));
#1359=DIRECTION('center_axis',(0.,0.,-1.));
#1360=DIRECTION('ref_axis',(1.,0.,0.));
#1361=DIRECTION('center_axis',(0.,0.,-1.));
#1362=DIRECTION('ref_axis',(1.,0.,0.));
#1363=DIRECTION('center_axis',(0.,0.,-1.));
#1364=DIRECTION('ref_axis',(1.,0.,0.));
#1365=DIRECTION('center_axis',(0.,0.,-1.));
#1366=DIRECTION('ref_axis',(1.,0.,0.));
#1367=DIRECTION('center_axis',(0.,0.,-1.));
#1368=DIRECTION('ref_axis',(1.,0.,0.));
#1369=DIRECTION('center_axis',(0.,0.,-1.));
#1370=DIRECTION('ref_axis',(1.,0.,0.));
#1371=DIRECTION('center_axis',(0.,0.,-1.));
#1372=DIRECTION('ref_axis',(1.,0.,0.));
#1373=DIRECTION('center_axis',(0.,0.,-1.));
#1374=DIRECTION('ref_axis',(1.,0.,0.));
#1375=DIRECTION('center_axis',(0.,0.,-1.));
#1376=DIRECTION('ref_axis',(1.,0.,0.));
#1377=DIRECTION('center_axis',(0.,0.,-1.));
#1378=DIRECTION('ref_axis',(1.,0.,0.));
#1379=DIRECTION('center_axis',(0.,0.,-1.));
#1380=DIRECTION('ref_axis',(1.,0.,0.));
#1381=DIRECTION('center_axis',(0.,0.,-1.));
#1382=DIRECTION('ref_axis',(-1.,0.,0.));
#1383=DIRECTION('center_axis',(0.,0.,-1.));
#1384=DIRECTION('ref_axis',(-1.,0.,0.));
#1385=DIRECTION('center_axis',(0.,0.,-1.));
#1386=DIRECTION('ref_axis',(-1.,0.,0.));
#1387=DIRECTION('center_axis',(0.,0.,-1.));
#1388=DIRECTION('ref_axis',(-1.,0.,0.));
#1389=DIRECTION('center_axis',(0.,0.,1.));
#1390=DIRECTION('ref_axis',(1.,0.,0.));
#1391=DIRECTION('center_axis',(0.,0.,1.));
#1392=DIRECTION('ref_axis',(1.,0.,0.));
#1393=DIRECTION('center_axis',(0.,0.,1.));
#1394=DIRECTION('ref_axis',(1.,0.,0.));
#1395=DIRECTION('center_axis',(0.,0.,1.));
#1396=DIRECTION('ref_axis',(1.,0.,0.));
#1397=DIRECTION('center_axis',(0.,0.,-1.));
#1398=DIRECTION('ref_axis',(1.,0.,0.));
#1399=DIRECTION('center_axis',(0.,0.,1.));
#1400=DIRECTION('ref_axis',(1.,0.,0.));
#1401=DIRECTION('',(0.,0.,1.));
#1402=DIRECTION('center_axis',(0.,0.,1.));
#1403=DIRECTION('ref_axis',(1.,0.,0.));
#1404=DIRECTION('',(0.70710678118655,8.65956056235496E-17,-0.707106781186545));
#1405=DIRECTION('center_axis',(0.,0.,-1.));
#1406=DIRECTION('ref_axis',(1.,0.,0.));
#1407=DIRECTION('center_axis',(0.,0.,-1.));
#1408=DIRECTION('ref_axis',(1.,0.,0.));
#1409=DIRECTION('center_axis',(0.,0.,1.));
#1410=DIRECTION('ref_axis',(1.,0.,0.));
#1411=DIRECTION('',(0.,0.,1.));
#1412=DIRECTION('center_axis',(0.,0.,1.));
#1413=DIRECTION('ref_axis',(1.,0.,0.));
#1414=DIRECTION('',(0.707106781186547,8.65956056235493E-17,-0.707106781186548));
#1415=DIRECTION('center_axis',(0.,0.,-1.));
#1416=DIRECTION('ref_axis',(1.,0.,0.));
#1417=DIRECTION('center_axis',(0.,0.,-1.));
#1418=DIRECTION('ref_axis',(1.,0.,0.));
#1419=DIRECTION('center_axis',(0.,0.,1.));
#1420=DIRECTION('ref_axis',(1.,0.,0.));
#1421=DIRECTION('',(0.,0.,1.));
#1422=DIRECTION('center_axis',(0.,0.,1.));
#1423=DIRECTION('ref_axis',(1.,0.,0.));
#1424=DIRECTION('',(0.707106781186547,8.65956056235493E-17,-0.707106781186548));
#1425=DIRECTION('center_axis',(0.,0.,-1.));
#1426=DIRECTION('ref_axis',(1.,0.,0.));
#1427=DIRECTION('center_axis',(0.,0.,-1.));
#1428=DIRECTION('ref_axis',(1.,0.,0.));
#1429=DIRECTION('center_axis',(0.,0.,1.));
#1430=DIRECTION('ref_axis',(1.,0.,0.));
#1431=DIRECTION('',(0.,0.,1.));
#1432=DIRECTION('center_axis',(0.,0.,1.));
#1433=DIRECTION('ref_axis',(1.,0.,0.));
#1434=DIRECTION('',(0.707106781186548,8.65956056235493E-17,-0.707106781186548));
#1435=DIRECTION('center_axis',(0.,0.,-1.));
#1436=DIRECTION('ref_axis',(1.,0.,0.));
#1437=DIRECTION('center_axis',(0.,0.,-1.));
#1438=DIRECTION('ref_axis',(1.,0.,0.));
#1439=DIRECTION('center_axis',(0.,0.,1.));
#1440=DIRECTION('ref_axis',(1.,0.,0.));
#1441=DIRECTION('',(0.,0.,1.));
#1442=DIRECTION('center_axis',(0.,0.,1.));
#1443=DIRECTION('ref_axis',(1.,0.,0.));
#1444=DIRECTION('',(0.707106781186547,8.65956056235493E-17,-0.707106781186548));
#1445=DIRECTION('center_axis',(0.,0.,-1.));
#1446=DIRECTION('ref_axis',(1.,0.,0.));
#1447=DIRECTION('center_axis',(0.,0.,-1.));
#1448=DIRECTION('ref_axis',(1.,0.,0.));
#1449=DIRECTION('center_axis',(0.,0.,1.));
#1450=DIRECTION('ref_axis',(1.,0.,0.));
#1451=DIRECTION('',(0.,0.,1.));
#1452=DIRECTION('center_axis',(0.,0.,1.));
#1453=DIRECTION('ref_axis',(1.,0.,0.));
#1454=DIRECTION('',(0.707106781186547,8.65956056235493E-17,-0.707106781186548));
#1455=DIRECTION('center_axis',(0.,0.,-1.));
#1456=DIRECTION('ref_axis',(1.,0.,0.));
#1457=DIRECTION('center_axis',(0.,0.,-1.));
#1458=DIRECTION('ref_axis',(1.,0.,0.));
#1459=DIRECTION('center_axis',(0.,0.,1.));
#1460=DIRECTION('ref_axis',(1.,0.,0.));
#1461=DIRECTION('',(0.,0.,1.));
#1462=DIRECTION('center_axis',(0.,0.,1.));
#1463=DIRECTION('ref_axis',(1.,0.,0.));
#1464=DIRECTION('',(0.707106781186547,8.65956056235493E-17,-0.707106781186548));
#1465=DIRECTION('center_axis',(0.,0.,-1.));
#1466=DIRECTION('ref_axis',(1.,0.,0.));
#1467=DIRECTION('center_axis',(0.,0.,-1.));
#1468=DIRECTION('ref_axis',(1.,0.,0.));
#1469=DIRECTION('center_axis',(0.,0.,1.));
#1470=DIRECTION('ref_axis',(1.,0.,0.));
#1471=DIRECTION('',(0.,0.,1.));
#1472=DIRECTION('center_axis',(0.,0.,1.));
#1473=DIRECTION('ref_axis',(1.,0.,0.));
#1474=DIRECTION('',(0.70710678118655,8.65956056235496E-17,-0.707106781186545));
#1475=DIRECTION('center_axis',(0.,0.,-1.));
#1476=DIRECTION('ref_axis',(1.,0.,0.));
#1477=DIRECTION('center_axis',(0.,0.,-1.));
#1478=DIRECTION('ref_axis',(1.,0.,0.));
#1479=DIRECTION('center_axis',(0.,0.,1.));
#1480=DIRECTION('ref_axis',(1.,0.,0.));
#1481=DIRECTION('',(0.,0.,1.));
#1482=DIRECTION('center_axis',(0.,0.,-1.));
#1483=DIRECTION('ref_axis',(1.,0.,0.));
#1484=DIRECTION('',(0.,0.,-1.));
#1485=DIRECTION('center_axis',(0.,0.,1.));
#1486=DIRECTION('ref_axis',(1.,0.,0.));
#1487=DIRECTION('center_axis',(0.,0.,-1.));
#1488=DIRECTION('ref_axis',(1.,0.,0.));
#1489=DIRECTION('',(0.,0.,-1.));
#1490=DIRECTION('center_axis',(0.,0.,1.));
#1491=DIRECTION('ref_axis',(1.,0.,0.));
#1492=DIRECTION('center_axis',(0.,0.,-1.));
#1493=DIRECTION('ref_axis',(1.,0.,0.));
#1494=DIRECTION('',(0.,0.,-1.));
#1495=DIRECTION('center_axis',(0.,0.,1.));
#1496=DIRECTION('ref_axis',(1.,0.,0.));
#1497=DIRECTION('center_axis',(0.,0.,-1.));
#1498=DIRECTION('ref_axis',(1.,0.,0.));
#1499=DIRECTION('',(0.,0.,-1.));
#1500=DIRECTION('center_axis',(0.,0.,1.));
#1501=DIRECTION('ref_axis',(1.,0.,0.));
#1502=DIRECTION('center_axis',(0.,0.,-1.));
#1503=DIRECTION('ref_axis',(1.,0.,0.));
#1504=DIRECTION('',(0.,0.,-1.));
#1505=DIRECTION('center_axis',(0.,0.,1.));
#1506=DIRECTION('ref_axis',(1.,0.,0.));
#1507=DIRECTION('center_axis',(0.,0.,-1.));
#1508=DIRECTION('ref_axis',(1.,0.,0.));
#1509=DIRECTION('',(0.,0.,-1.));
#1510=DIRECTION('center_axis',(0.,0.,1.));
#1511=DIRECTION('ref_axis',(1.,0.,0.));
#1512=DIRECTION('center_axis',(0.,0.,-1.));
#1513=DIRECTION('ref_axis',(1.,0.,0.));
#1514=DIRECTION('center_axis',(0.,0.,-1.));
#1515=DIRECTION('ref_axis',(1.,0.,0.));
#1516=DIRECTION('',(0.,0.,1.));
#1517=DIRECTION('center_axis',(0.,0.,1.));
#1518=DIRECTION('ref_axis',(1.,0.,0.));
#1519=DIRECTION('center_axis',(0.,0.,1.));
#1520=DIRECTION('ref_axis',(1.,0.,0.));
#1521=DIRECTION('center_axis',(0.,0.,-1.));
#1522=DIRECTION('ref_axis',(1.,0.,0.));
#1523=DIRECTION('center_axis',(0.,0.,-1.));
#1524=DIRECTION('ref_axis',(1.,0.,0.));
#1525=DIRECTION('',(0.,0.,1.));
#1526=DIRECTION('center_axis',(0.,0.,1.));
#1527=DIRECTION('ref_axis',(1.,0.,0.));
#1528=DIRECTION('center_axis',(0.,0.,1.));
#1529=DIRECTION('ref_axis',(1.,0.,0.));
#1530=DIRECTION('center_axis',(0.,0.,-1.));
#1531=DIRECTION('ref_axis',(1.,0.,0.));
#1532=DIRECTION('center_axis',(0.,0.,-1.));
#1533=DIRECTION('ref_axis',(1.,0.,0.));
#1534=DIRECTION('',(0.,0.,1.));
#1535=DIRECTION('center_axis',(0.,0.,1.));
#1536=DIRECTION('ref_axis',(1.,0.,0.));
#1537=DIRECTION('center_axis',(0.,0.,1.));
#1538=DIRECTION('ref_axis',(1.,0.,0.));
#1539=DIRECTION('center_axis',(0.,0.,-1.));
#1540=DIRECTION('ref_axis',(1.,0.,0.));
#1541=DIRECTION('center_axis',(0.,0.,-1.));
#1542=DIRECTION('ref_axis',(1.,0.,0.));
#1543=DIRECTION('',(0.,0.,1.));
#1544=DIRECTION('center_axis',(0.,0.,1.));
#1545=DIRECTION('ref_axis',(1.,0.,0.));
#1546=DIRECTION('center_axis',(0.,0.,1.));
#1547=DIRECTION('ref_axis',(1.,0.,0.));
#1548=DIRECTION('center_axis',(0.,0.,-1.));
#1549=DIRECTION('ref_axis',(1.,0.,0.));
#1550=DIRECTION('center_axis',(0.,0.,-1.));
#1551=DIRECTION('ref_axis',(1.,0.,0.));
#1552=DIRECTION('',(0.,0.,1.));
#1553=DIRECTION('center_axis',(0.,0.,1.));
#1554=DIRECTION('ref_axis',(1.,0.,0.));
#1555=DIRECTION('center_axis',(0.,0.,1.));
#1556=DIRECTION('ref_axis',(1.,0.,0.));
#1557=DIRECTION('center_axis',(0.,0.,-1.));
#1558=DIRECTION('ref_axis',(1.,0.,0.));
#1559=DIRECTION('center_axis',(0.,0.,-1.));
#1560=DIRECTION('ref_axis',(1.,0.,0.));
#1561=DIRECTION('',(0.,0.,1.));
#1562=DIRECTION('center_axis',(0.,0.,1.));
#1563=DIRECTION('ref_axis',(1.,0.,0.));
#1564=DIRECTION('center_axis',(0.,0.,1.));
#1565=DIRECTION('ref_axis',(1.,0.,0.));
#1566=DIRECTION('center_axis',(0.,0.,-1.));
#1567=DIRECTION('ref_axis',(1.,0.,0.));
#1568=DIRECTION('center_axis',(0.,0.,-1.));
#1569=DIRECTION('ref_axis',(1.,0.,0.));
#1570=DIRECTION('',(0.,0.,1.));
#1571=DIRECTION('center_axis',(0.,0.,1.));
#1572=DIRECTION('ref_axis',(1.,0.,0.));
#1573=DIRECTION('center_axis',(0.,0.,1.));
#1574=DIRECTION('ref_axis',(1.,0.,0.));
#1575=DIRECTION('center_axis',(0.,0.,-1.));
#1576=DIRECTION('ref_axis',(1.,0.,0.));
#1577=DIRECTION('center_axis',(0.,0.,-1.));
#1578=DIRECTION('ref_axis',(1.,0.,0.));
#1579=DIRECTION('',(0.,0.,1.));
#1580=DIRECTION('center_axis',(0.,0.,1.));
#1581=DIRECTION('ref_axis',(1.,0.,0.));
#1582=DIRECTION('center_axis',(0.,0.,1.));
#1583=DIRECTION('ref_axis',(1.,0.,0.));
#1584=DIRECTION('center_axis',(0.,0.,-1.));
#1585=DIRECTION('ref_axis',(1.,0.,0.));
#1586=DIRECTION('center_axis',(0.,0.,-1.));
#1587=DIRECTION('ref_axis',(1.,0.,0.));
#1588=DIRECTION('',(0.,0.,1.));
#1589=DIRECTION('center_axis',(0.,0.,1.));
#1590=DIRECTION('ref_axis',(1.,0.,0.));
#1591=DIRECTION('center_axis',(0.,0.,1.));
#1592=DIRECTION('ref_axis',(1.,0.,0.));
#1593=DIRECTION('center_axis',(0.,0.,-1.));
#1594=DIRECTION('ref_axis',(1.,0.,0.));
#1595=DIRECTION('',(0.,0.,-1.));
#1596=DIRECTION('center_axis',(0.,0.,1.));
#1597=DIRECTION('ref_axis',(1.,0.,0.));
#1598=DIRECTION('center_axis',(0.,0.,-1.));
#1599=DIRECTION('ref_axis',(1.,0.,0.));
#1600=DIRECTION('',(0.,0.,-1.));
#1601=DIRECTION('center_axis',(0.,0.,1.));
#1602=DIRECTION('ref_axis',(1.,0.,0.));
#1603=DIRECTION('center_axis',(0.,0.,-1.));
#1604=DIRECTION('ref_axis',(1.,0.,0.));
#1605=DIRECTION('',(0.,0.,-1.));
#1606=DIRECTION('center_axis',(0.,0.,1.));
#1607=DIRECTION('ref_axis',(1.,0.,0.));
#1608=DIRECTION('center_axis',(0.,0.,-1.));
#1609=DIRECTION('ref_axis',(1.,0.,0.));
#1610=DIRECTION('',(0.,0.,-1.));
#1611=DIRECTION('center_axis',(0.,0.,1.));
#1612=DIRECTION('ref_axis',(1.,0.,0.));
#1613=DIRECTION('center_axis',(0.,0.,-1.));
#1614=DIRECTION('ref_axis',(1.,0.,0.));
#1615=DIRECTION('',(0.,0.,-1.));
#1616=DIRECTION('center_axis',(0.,0.,1.));
#1617=DIRECTION('ref_axis',(1.,0.,0.));
#1618=DIRECTION('center_axis',(0.,0.,-1.));
#1619=DIRECTION('ref_axis',(1.,0.,0.));
#1620=DIRECTION('',(0.,0.,-1.));
#1621=DIRECTION('center_axis',(0.,0.,1.));
#1622=DIRECTION('ref_axis',(1.,0.,0.));
#1623=DIRECTION('center_axis',(0.,0.,-1.));
#1624=DIRECTION('ref_axis',(1.,0.,0.));
#1625=DIRECTION('',(0.,0.,-1.));
#1626=DIRECTION('center_axis',(0.,0.,1.));
#1627=DIRECTION('ref_axis',(1.,0.,0.));
#1628=DIRECTION('center_axis',(0.,0.,-1.));
#1629=DIRECTION('ref_axis',(1.,0.,0.));
#1630=DIRECTION('',(0.,0.,-1.));
#1631=DIRECTION('center_axis',(0.,0.,1.));
#1632=DIRECTION('ref_axis',(1.,0.,0.));
#1633=DIRECTION('center_axis',(0.,0.,1.));
#1634=DIRECTION('ref_axis',(-1.,0.,0.));
#1635=DIRECTION('center_axis',(0.,0.,1.));
#1636=DIRECTION('ref_axis',(-1.,0.,0.));
#1637=DIRECTION('',(0.,0.,1.));
#1638=DIRECTION('center_axis',(0.,0.,1.));
#1639=DIRECTION('ref_axis',(-1.,0.,0.));
#1640=DIRECTION('center_axis',(0.,0.,1.));
#1641=DIRECTION('ref_axis',(-1.,0.,0.));
#1642=DIRECTION('',(0.,0.,1.));
#1643=DIRECTION('center_axis',(0.,0.,1.));
#1644=DIRECTION('ref_axis',(-1.,0.,0.));
#1645=DIRECTION('center_axis',(0.,0.,1.));
#1646=DIRECTION('ref_axis',(-1.,0.,0.));
#1647=DIRECTION('',(0.,0.,1.));
#1648=DIRECTION('center_axis',(0.,0.,1.));
#1649=DIRECTION('ref_axis',(-1.,0.,0.));
#1650=DIRECTION('center_axis',(0.,0.,1.));
#1651=DIRECTION('ref_axis',(-1.,0.,0.));
#1652=DIRECTION('',(0.,0.,1.));
#1653=DIRECTION('center_axis',(-1.,-3.70074341541719E-16,0.));
#1654=DIRECTION('ref_axis',(3.70074341541719E-16,-1.,0.));
#1655=DIRECTION('',(3.70074341541719E-16,-1.,0.));
#1656=DIRECTION('',(0.,0.,1.));
#1657=DIRECTION('',(0.,0.,1.));
#1658=DIRECTION('center_axis',(0.,0.,1.));
#1659=DIRECTION('ref_axis',(3.55271367880058E-14,1.,0.));
#1660=DIRECTION('center_axis',(0.,0.,1.));
#1661=DIRECTION('ref_axis',(3.55271367880058E-14,1.,0.));
#1662=DIRECTION('',(0.,0.,1.));
#1663=DIRECTION('center_axis',(2.24287479722254E-17,1.,0.));
#1664=DIRECTION('ref_axis',(-1.,2.24287479722254E-17,0.));
#1665=DIRECTION('',(-1.,2.24287479722254E-17,0.));
#1666=DIRECTION('',(0.,0.,1.));
#1667=DIRECTION('center_axis',(0.,0.,1.));
#1668=DIRECTION('ref_axis',(1.,0.,0.));
#1669=DIRECTION('center_axis',(0.,0.,1.));
#1670=DIRECTION('ref_axis',(1.,0.,0.));
#1671=DIRECTION('',(0.,0.,1.));
#1672=DIRECTION('center_axis',(1.,0.,0.));
#1673=DIRECTION('ref_axis',(0.,1.,0.));
#1674=DIRECTION('',(0.,1.,0.));
#1675=DIRECTION('',(0.,0.,1.));
#1676=DIRECTION('center_axis',(0.,0.,1.));
#1677=DIRECTION('ref_axis',(0.,-1.,0.));
#1678=DIRECTION('center_axis',(0.,0.,1.));
#1679=DIRECTION('ref_axis',(0.,-1.,0.));
#1680=DIRECTION('',(0.,0.,1.));
#1681=DIRECTION('center_axis',(0.,-1.,0.));
#1682=DIRECTION('ref_axis',(1.,0.,0.));
#1683=DIRECTION('',(1.,0.,0.));
#1684=DIRECTION('',(0.,0.,1.));
#1685=DIRECTION('center_axis',(0.,0.,1.));
#1686=DIRECTION('ref_axis',(-1.,-1.63735691671722E-11,0.));
#1687=DIRECTION('center_axis',(0.,0.,1.));
#1688=DIRECTION('ref_axis',(-1.,-1.63735691671722E-11,0.));
#1689=DIRECTION('center_axis',(0.,0.,1.));
#1690=DIRECTION('ref_axis',(1.,0.,0.));
#1691=CARTESIAN_POINT('',(0.,0.,0.));
#1692=CARTESIAN_POINT('Origin',(57.2000000000489,-12.4999997663544,2.35));
#1693=CARTESIAN_POINT('',(53.6500000000489,-12.4999997663544,3.));
#1694=CARTESIAN_POINT('Origin',(57.2000000000489,-12.4999997663544,3.));
#1695=CARTESIAN_POINT('',(54.9500000000489,-12.4999997663544,1.7));
#1696=CARTESIAN_POINT('',(54.3000000000489,-12.4999997663544,2.35));
#1697=CARTESIAN_POINT('Origin',(57.2000000000489,-12.4999997663544,1.7));
#1698=CARTESIAN_POINT('Origin',(4.88853402202949E-11,-1.22257759471722E-11,
3.));
#1699=CARTESIAN_POINT('',(-99.9999999999511,-24.0000000000122,3.));
#1700=CARTESIAN_POINT('',(-98.9999999999511,-24.9999999999959,3.));
#1701=CARTESIAN_POINT('Origin',(-98.9999999999511,-23.9999999999959,3.));
#1702=CARTESIAN_POINT('',(99.0000000000489,-25.0000000000122,3.));
#1703=CARTESIAN_POINT('',(-98.9999999999511,-25.0000000000122,3.));
#1704=CARTESIAN_POINT('',(100.000000000049,-24.0000000000123,3.));
#1705=CARTESIAN_POINT('Origin',(99.0000000000489,-24.0000000000123,3.));
#1706=CARTESIAN_POINT('',(100.000000000049,23.9999999999878,3.));
#1707=CARTESIAN_POINT('',(100.000000000049,-24.0000000000123,3.));
#1708=CARTESIAN_POINT('',(99.0000000000489,24.9999999999878,3.));
#1709=CARTESIAN_POINT('Origin',(99.0000000000489,23.9999999999878,3.));
#1710=CARTESIAN_POINT('',(-98.9999999999511,24.9999999999878,3.));
#1711=CARTESIAN_POINT('',(99.0000000000489,24.9999999999878,3.));
#1712=CARTESIAN_POINT('',(-99.9999999999511,23.9999999999878,3.));
#1713=CARTESIAN_POINT('Origin',(-98.9999999999512,23.9999999999878,3.));
#1714=CARTESIAN_POINT('',(-99.9999999999511,23.9999999999878,3.));
#1715=CARTESIAN_POINT('',(81.4499981001019,-4.34749613697311E-16,3.));
#1716=CARTESIAN_POINT('Origin',(84.9999981001019,0.,3.));
#1717=CARTESIAN_POINT('',(25.0500000000489,12.5000002489371,3.));
#1718=CARTESIAN_POINT('Origin',(28.6000000000489,12.5000002489371,3.));
#1719=CARTESIAN_POINT('',(-32.1499999999511,12.5000002489371,3.));
#1720=CARTESIAN_POINT('Origin',(-28.5999999999511,12.5000002489371,3.));
#1721=CARTESIAN_POINT('',(-60.7499999999511,12.4999996525792,3.));
#1722=CARTESIAN_POINT('Origin',(-57.1999999999511,12.4999996525792,3.));
#1723=CARTESIAN_POINT('',(-2.2,-17.0000002533197,3.));
#1724=CARTESIAN_POINT('Origin',(0.,-17.0000002533197,3.));
#1725=CARTESIAN_POINT('',(-93.1999979659915,15.9999996423721,3.));
#1726=CARTESIAN_POINT('Origin',(-90.9999979659915,15.9999996423721,3.));
#1727=CARTESIAN_POINT('',(88.8000013560057,16.0000002384186,3.));
#1728=CARTESIAN_POINT('Origin',(91.0000013560057,16.0000002384186,3.));
#1729=CARTESIAN_POINT('',(-2.2,18.0000002682209,3.));
#1730=CARTESIAN_POINT('Origin',(0.,18.0000002682209,3.));
#1731=CARTESIAN_POINT('',(-93.2000013560057,-16.0000002384186,3.));
#1732=CARTESIAN_POINT('Origin',(-91.0000013560057,-16.0000002384186,3.));
#1733=CARTESIAN_POINT('',(88.8000013560057,-16.0000002384186,3.));
#1734=CARTESIAN_POINT('Origin',(91.0000013560057,-16.0000002384186,3.));
#1735=CARTESIAN_POINT('',(39.5999990411103,12.4999997206032,3.));
#1736=CARTESIAN_POINT('Origin',(42.8999990411103,12.4999997206032,3.));
#1737=CARTESIAN_POINT('',(-46.1999990411103,12.4999997206032,3.));
#1738=CARTESIAN_POINT('Origin',(-42.8999990411103,12.4999997206032,3.));
#1739=CARTESIAN_POINT('',(-17.5999996803701,12.4999997206032,3.));
#1740=CARTESIAN_POINT('Origin',(-14.2999996803701,12.4999997206032,3.));
#1741=CARTESIAN_POINT('',(68.1999984018505,12.4999997206032,3.));
#1742=CARTESIAN_POINT('Origin',(71.4999984018505,12.4999997206032,3.));
#1743=CARTESIAN_POINT('',(10.9999996803701,12.4999997206032,3.));
#1744=CARTESIAN_POINT('Origin',(14.2999996803701,12.4999997206032,3.));
#1745=CARTESIAN_POINT('',(-74.7999984018505,12.4999997206032,3.));
#1746=CARTESIAN_POINT('Origin',(-71.4999984018505,12.4999997206032,3.));
#1747=CARTESIAN_POINT('',(-17.5999996803701,-12.4999997206032,3.));
#1748=CARTESIAN_POINT('Origin',(-14.2999996803701,-12.4999997206032,3.));
#1749=CARTESIAN_POINT('',(68.1999984018505,-12.4999997206032,3.));
#1750=CARTESIAN_POINT('Origin',(71.4999984018505,-12.4999997206032,3.));
#1751=CARTESIAN_POINT('',(46.6000000000489,-12.5000000000122,3.));
#1752=CARTESIAN_POINT('Origin',(42.9000000000489,-12.5000000000122,3.));
#1753=CARTESIAN_POINT('',(-67.7999999999511,-12.5000000000122,3.));
#1754=CARTESIAN_POINT('Origin',(-71.4999999999511,-12.5000000000122,3.));
#1755=CARTESIAN_POINT('',(-39.1999999999511,-12.5000000000122,3.));
#1756=CARTESIAN_POINT('Origin',(-42.8999999999511,-12.5000000000122,3.));
#1757=CARTESIAN_POINT('',(18.0000000000489,-12.5000000000122,3.));
#1758=CARTESIAN_POINT('Origin',(14.3000000000489,-12.5000000000122,3.));
#1759=CARTESIAN_POINT('',(-88.549998100102,-4.34749613697313E-16,3.));
#1760=CARTESIAN_POINT('Origin',(-84.9999981001019,0.,3.));
#1761=CARTESIAN_POINT('',(-60.7499999999511,-12.4999996525732,3.));
#1762=CARTESIAN_POINT('Origin',(-57.1999999999511,-12.4999996525732,3.));
#1763=CARTESIAN_POINT('',(-3.55,2.7939677417034E-7,3.));
#1764=CARTESIAN_POINT('Origin',(0.,2.7939677460509E-7,3.));
#1765=CARTESIAN_POINT('',(53.6500000000489,12.4999997663504,3.));
#1766=CARTESIAN_POINT('Origin',(57.2000000000489,12.4999997663504,3.));
#1767=CARTESIAN_POINT('Origin',(57.2000000000489,-12.4999997663544,3.));
#1768=CARTESIAN_POINT('',(54.9500000000489,-12.4999997663544,-6.));
#1769=CARTESIAN_POINT('Origin',(57.2000000000489,-12.4999997663544,-6.));
#1770=CARTESIAN_POINT('',(54.9500000000489,-12.4999997663544,3.));
#1771=CARTESIAN_POINT('Origin',(84.9999981001019,0.,2.35));
#1772=CARTESIAN_POINT('',(82.7499981001019,2.75545529808154E-16,1.7));
#1773=CARTESIAN_POINT('',(82.099998100102,-3.55147571752732E-16,2.35));
#1774=CARTESIAN_POINT('Origin',(84.9999981001019,0.,1.7));
#1775=CARTESIAN_POINT('Origin',(84.9999981001019,0.,3.));
#1776=CARTESIAN_POINT('',(82.7499981001019,-2.75545529808154E-16,-6.));
#1777=CARTESIAN_POINT('Origin',(84.9999981001019,0.,-6.));
#1778=CARTESIAN_POINT('',(82.7499981001019,2.75545529808154E-16,3.));
#1779=CARTESIAN_POINT('Origin',(57.2000000000489,12.4999997663504,2.35));
#1780=CARTESIAN_POINT('',(54.9500000000489,12.4999997663504,1.7));
#1781=CARTESIAN_POINT('',(54.3000000000489,12.4999997663504,2.35));
#1782=CARTESIAN_POINT('Origin',(57.2000000000489,12.4999997663504,1.7));
#1783=CARTESIAN_POINT('Origin',(57.2000000000489,12.4999997663504,3.));
#1784=CARTESIAN_POINT('',(54.9500000000489,12.4999997663504,-6.));
#1785=CARTESIAN_POINT('Origin',(57.2000000000489,12.4999997663504,-6.));
#1786=CARTESIAN_POINT('',(54.9500000000489,12.4999997663504,3.));
#1787=CARTESIAN_POINT('Origin',(28.6000000000489,12.5000002489371,2.35));
#1788=CARTESIAN_POINT('',(26.3500000000489,12.5000002489371,1.7));
#1789=CARTESIAN_POINT('',(25.7000000000489,12.5000002489371,2.35));
#1790=CARTESIAN_POINT('Origin',(28.6000000000489,12.5000002489371,1.7));
#1791=CARTESIAN_POINT('Origin',(28.6000000000489,12.5000002489371,3.));
#1792=CARTESIAN_POINT('',(26.3500000000489,12.5000002489371,-6.));
#1793=CARTESIAN_POINT('Origin',(28.6000000000489,12.5000002489371,-6.));
#1794=CARTESIAN_POINT('',(26.3500000000489,12.5000002489371,3.));
#1795=CARTESIAN_POINT('Origin',(0.,2.7939677460509E-7,2.35));
#1796=CARTESIAN_POINT('',(-2.25,2.79396774880635E-7,1.7));
#1797=CARTESIAN_POINT('',(-2.9,2.79396774249942E-7,2.35));
#1798=CARTESIAN_POINT('Origin',(0.,2.7939677460509E-7,1.7));
#1799=CARTESIAN_POINT('Origin',(0.,2.7939677460509E-7,3.));
#1800=CARTESIAN_POINT('',(-2.25,2.79396774329544E-7,-6.));
#1801=CARTESIAN_POINT('Origin',(0.,2.7939677460509E-7,-6.));
#1802=CARTESIAN_POINT('',(-2.25,2.79396774880635E-7,3.));
#1803=CARTESIAN_POINT('Origin',(-28.5999999999511,12.5000002489371,2.35));
#1804=CARTESIAN_POINT('',(-30.8499999999511,12.5000002489371,1.7));
#1805=CARTESIAN_POINT('',(-31.4999999999511,12.5000002489371,2.35));
#1806=CARTESIAN_POINT('Origin',(-28.5999999999511,12.5000002489371,1.7));
#1807=CARTESIAN_POINT('Origin',(-28.5999999999511,12.5000002489371,3.));
#1808=CARTESIAN_POINT('',(-30.8499999999511,12.5000002489371,-6.));
#1809=CARTESIAN_POINT('Origin',(-28.5999999999511,12.5000002489371,-6.));
#1810=CARTESIAN_POINT('',(-30.8499999999511,12.5000002489371,3.));
#1811=CARTESIAN_POINT('Origin',(-57.1999999999511,-12.4999996525732,2.35));
#1812=CARTESIAN_POINT('',(-59.4499999999511,-12.4999996525732,1.7));
#1813=CARTESIAN_POINT('',(-60.0999999999511,-12.4999996525732,2.35));
#1814=CARTESIAN_POINT('Origin',(-57.1999999999511,-12.4999996525732,1.7));
#1815=CARTESIAN_POINT('Origin',(-57.1999999999511,-12.4999996525732,3.));
#1816=CARTESIAN_POINT('',(-59.4499999999511,-12.4999996525732,-6.));
#1817=CARTESIAN_POINT('Origin',(-57.1999999999511,-12.4999996525732,-6.));
#1818=CARTESIAN_POINT('',(-59.4499999999511,-12.4999996525732,3.));
#1819=CARTESIAN_POINT('Origin',(-57.1999999999511,12.4999996525792,2.35));
#1820=CARTESIAN_POINT('',(-59.4499999999511,12.4999996525792,1.7));
#1821=CARTESIAN_POINT('',(-60.0999999999511,12.4999996525792,2.35));
#1822=CARTESIAN_POINT('Origin',(-57.1999999999511,12.4999996525792,1.7));
#1823=CARTESIAN_POINT('Origin',(-57.1999999999511,12.4999996525792,3.));
#1824=CARTESIAN_POINT('',(-59.4499999999511,12.4999996525792,-6.));
#1825=CARTESIAN_POINT('Origin',(-57.1999999999511,12.4999996525792,-6.));
#1826=CARTESIAN_POINT('',(-59.4499999999511,12.4999996525792,3.));
#1827=CARTESIAN_POINT('Origin',(-84.9999981001019,0.,2.35));
#1828=CARTESIAN_POINT('',(-87.249998100102,2.75545529808156E-16,1.7));
#1829=CARTESIAN_POINT('',(-87.899998100102,-3.55147571752735E-16,2.35));
#1830=CARTESIAN_POINT('Origin',(-84.9999981001019,0.,1.7));
#1831=CARTESIAN_POINT('Origin',(-84.9999981001019,0.,3.));
#1832=CARTESIAN_POINT('',(-87.249998100102,-2.75545529808156E-16,-6.));
#1833=CARTESIAN_POINT('Origin',(-84.9999981001019,0.,-6.));
#1834=CARTESIAN_POINT('',(-87.249998100102,2.75545529808156E-16,3.));
#1835=CARTESIAN_POINT('Origin',(0.,-17.0000002533197,3.));
#1836=CARTESIAN_POINT('',(-2.2,-17.0000002533197,0.));
#1837=CARTESIAN_POINT('',(-2.2,-17.0000002533197,3.));
#1838=CARTESIAN_POINT('Origin',(0.,-17.0000002533197,0.));
#1839=CARTESIAN_POINT('Origin',(-90.9999979659915,15.9999996423721,3.));
#1840=CARTESIAN_POINT('',(-93.1999979659915,15.9999996423721,0.));
#1841=CARTESIAN_POINT('',(-93.1999979659915,15.9999996423721,3.));
#1842=CARTESIAN_POINT('Origin',(-90.9999979659915,15.9999996423721,0.));
#1843=CARTESIAN_POINT('Origin',(91.0000013560057,16.0000002384186,3.));
#1844=CARTESIAN_POINT('',(88.8000013560057,16.0000002384186,0.));
#1845=CARTESIAN_POINT('',(88.8000013560057,16.0000002384186,3.));
#1846=CARTESIAN_POINT('Origin',(91.0000013560057,16.0000002384186,0.));
#1847=CARTESIAN_POINT('Origin',(0.,18.0000002682209,3.));
#1848=CARTESIAN_POINT('',(-2.2,18.0000002682209,0.));
#1849=CARTESIAN_POINT('',(-2.2,18.0000002682209,3.));
#1850=CARTESIAN_POINT('Origin',(0.,18.0000002682209,0.));
#1851=CARTESIAN_POINT('Origin',(-91.0000013560057,-16.0000002384186,3.));
#1852=CARTESIAN_POINT('',(-93.2000013560057,-16.0000002384186,0.));
#1853=CARTESIAN_POINT('',(-93.2000013560057,-16.0000002384186,3.));
#1854=CARTESIAN_POINT('Origin',(-91.0000013560057,-16.0000002384186,0.));
#1855=CARTESIAN_POINT('Origin',(91.0000013560057,-16.0000002384186,3.));
#1856=CARTESIAN_POINT('',(88.8000013560057,-16.0000002384186,0.));
#1857=CARTESIAN_POINT('',(88.8000013560057,-16.0000002384186,3.));
#1858=CARTESIAN_POINT('Origin',(91.0000013560057,-16.0000002384186,0.));
#1859=CARTESIAN_POINT('Origin',(57.2000000000489,-12.4999997663544,3.));
#1860=CARTESIAN_POINT('',(52.7000000000489,-12.4999997663544,-6.));
#1861=CARTESIAN_POINT('Origin',(57.2000000000489,-12.4999997663544,-6.));
#1862=CARTESIAN_POINT('',(52.7000000000489,-12.4999997663544,0.));
#1863=CARTESIAN_POINT('',(52.7000000000489,-12.4999997663544,3.));
#1864=CARTESIAN_POINT('Origin',(57.2000000000489,-12.4999997663544,0.));
#1865=CARTESIAN_POINT('Origin',(57.2000000000489,-12.4999997663544,-6.));
#1866=CARTESIAN_POINT('Origin',(28.6000000000489,12.5000002489371,3.));
#1867=CARTESIAN_POINT('',(24.1000000000489,12.5000002489371,-6.));
#1868=CARTESIAN_POINT('Origin',(28.6000000000489,12.5000002489371,-6.));
#1869=CARTESIAN_POINT('',(24.1000000000489,12.5000002489371,0.));
#1870=CARTESIAN_POINT('',(24.1000000000489,12.5000002489371,3.));
#1871=CARTESIAN_POINT('Origin',(28.6000000000489,12.5000002489371,0.));
#1872=CARTESIAN_POINT('Origin',(28.6000000000489,12.5000002489371,-6.));
#1873=CARTESIAN_POINT('Origin',(-57.1999999999511,12.4999996525792,3.));
#1874=CARTESIAN_POINT('',(-61.6999999999511,12.4999996525792,-6.));
#1875=CARTESIAN_POINT('Origin',(-57.1999999999511,12.4999996525792,-6.));
#1876=CARTESIAN_POINT('',(-61.6999999999511,12.4999996525792,0.));
#1877=CARTESIAN_POINT('',(-61.6999999999511,12.4999996525792,3.));
#1878=CARTESIAN_POINT('Origin',(-57.1999999999511,12.4999996525792,0.));
#1879=CARTESIAN_POINT('Origin',(-57.1999999999511,12.4999996525792,-6.));
#1880=CARTESIAN_POINT('Origin',(-57.1999999999511,-12.4999996525732,3.));
#1881=CARTESIAN_POINT('',(-61.6999999999511,-12.4999996525732,-6.));
#1882=CARTESIAN_POINT('Origin',(-57.1999999999511,-12.4999996525732,-6.));
#1883=CARTESIAN_POINT('',(-61.6999999999511,-12.4999996525732,0.));
#1884=CARTESIAN_POINT('',(-61.6999999999511,-12.4999996525732,3.));
#1885=CARTESIAN_POINT('Origin',(-57.1999999999511,-12.4999996525732,0.));
#1886=CARTESIAN_POINT('Origin',(-57.1999999999511,-12.4999996525732,-6.));
#1887=CARTESIAN_POINT('Origin',(84.9999981001019,0.,3.));
#1888=CARTESIAN_POINT('',(80.4999981001019,-5.51091059616308E-16,-6.));
#1889=CARTESIAN_POINT('Origin',(84.9999981001019,0.,-6.));
#1890=CARTESIAN_POINT('',(80.4999981001019,-5.51091059616308E-16,0.));
#1891=CARTESIAN_POINT('',(80.4999981001019,5.51091059616308E-16,3.));
#1892=CARTESIAN_POINT('Origin',(84.9999981001019,0.,0.));
#1893=CARTESIAN_POINT('Origin',(84.9999981001019,0.,-6.));
#1894=CARTESIAN_POINT('Origin',(0.,2.7939677460509E-7,3.));
#1895=CARTESIAN_POINT('',(-4.5,2.79396774053999E-7,-6.));
#1896=CARTESIAN_POINT('Origin',(0.,2.7939677460509E-7,-6.));
#1897=CARTESIAN_POINT('',(-4.5,2.79396774053999E-7,0.));
#1898=CARTESIAN_POINT('',(-4.5,2.79396775156181E-7,3.));
#1899=CARTESIAN_POINT('Origin',(0.,2.7939677460509E-7,0.));
#1900=CARTESIAN_POINT('Origin',(0.,2.7939677460509E-7,-6.));
#1901=CARTESIAN_POINT('Origin',(-84.9999981001019,0.,3.));
#1902=CARTESIAN_POINT('',(-89.499998100102,-5.5109105961631E-16,-6.));
#1903=CARTESIAN_POINT('Origin',(-84.9999981001019,0.,-6.));
#1904=CARTESIAN_POINT('',(-89.499998100102,-5.5109105961631E-16,0.));
#1905=CARTESIAN_POINT('',(-89.499998100102,5.5109105961631E-16,3.));
#1906=CARTESIAN_POINT('Origin',(-84.9999981001019,0.,0.));
#1907=CARTESIAN_POINT('Origin',(-84.9999981001019,0.,-6.));
#1908=CARTESIAN_POINT('Origin',(-28.5999999999511,12.5000002489371,3.));
#1909=CARTESIAN_POINT('',(-33.0999999999511,12.5000002489371,-6.));
#1910=CARTESIAN_POINT('Origin',(-28.5999999999511,12.5000002489371,-6.));
#1911=CARTESIAN_POINT('',(-33.0999999999511,12.5000002489371,0.));
#1912=CARTESIAN_POINT('',(-33.0999999999511,12.5000002489371,3.));
#1913=CARTESIAN_POINT('Origin',(-28.5999999999511,12.5000002489371,0.));
#1914=CARTESIAN_POINT('Origin',(-28.5999999999511,12.5000002489371,-6.));
#1915=CARTESIAN_POINT('Origin',(57.2000000000489,12.4999997663504,3.));
#1916=CARTESIAN_POINT('',(52.7000000000489,12.4999997663504,-6.));
#1917=CARTESIAN_POINT('Origin',(57.2000000000489,12.4999997663504,-6.));
#1918=CARTESIAN_POINT('',(52.7000000000489,12.4999997663504,0.));
#1919=CARTESIAN_POINT('',(52.7000000000489,12.4999997663504,3.));
#1920=CARTESIAN_POINT('Origin',(57.2000000000489,12.4999997663504,0.));
#1921=CARTESIAN_POINT('Origin',(57.2000000000489,12.4999997663504,-6.));
#1922=CARTESIAN_POINT('Origin',(42.8999990411103,12.4999997206032,3.));
#1923=CARTESIAN_POINT('',(39.5999990411103,12.4999997206032,0.));
#1924=CARTESIAN_POINT('',(39.5999990411103,12.4999997206032,3.));
#1925=CARTESIAN_POINT('Origin',(42.8999990411103,12.4999997206032,0.));
#1926=CARTESIAN_POINT('Origin',(-42.8999990411103,12.4999997206032,3.));
#1927=CARTESIAN_POINT('',(-46.1999990411103,12.4999997206032,0.));
#1928=CARTESIAN_POINT('',(-46.1999990411103,12.4999997206032,3.));
#1929=CARTESIAN_POINT('Origin',(-42.8999990411103,12.4999997206032,0.));
#1930=CARTESIAN_POINT('Origin',(-14.2999996803701,12.4999997206032,3.));
#1931=CARTESIAN_POINT('',(-17.5999996803701,12.4999997206032,0.));
#1932=CARTESIAN_POINT('',(-17.5999996803701,12.4999997206032,3.));
#1933=CARTESIAN_POINT('Origin',(-14.2999996803701,12.4999997206032,0.));
#1934=CARTESIAN_POINT('Origin',(71.4999984018505,12.4999997206032,3.));
#1935=CARTESIAN_POINT('',(68.1999984018505,12.4999997206032,0.));
#1936=CARTESIAN_POINT('',(68.1999984018505,12.4999997206032,3.));
#1937=CARTESIAN_POINT('Origin',(71.4999984018505,12.4999997206032,0.));
#1938=CARTESIAN_POINT('Origin',(14.2999996803701,12.4999997206032,3.));
#1939=CARTESIAN_POINT('',(10.9999996803701,12.4999997206032,0.));
#1940=CARTESIAN_POINT('',(10.9999996803701,12.4999997206032,3.));
#1941=CARTESIAN_POINT('Origin',(14.2999996803701,12.4999997206032,0.));
#1942=CARTESIAN_POINT('Origin',(-71.4999984018505,12.4999997206032,3.));
#1943=CARTESIAN_POINT('',(-74.7999984018505,12.4999997206032,0.));
#1944=CARTESIAN_POINT('',(-74.7999984018505,12.4999997206032,3.));
#1945=CARTESIAN_POINT('Origin',(-71.4999984018505,12.4999997206032,0.));
#1946=CARTESIAN_POINT('Origin',(-14.2999996803701,-12.4999997206032,3.));
#1947=CARTESIAN_POINT('',(-17.5999996803701,-12.4999997206032,0.));
#1948=CARTESIAN_POINT('',(-17.5999996803701,-12.4999997206032,3.));
#1949=CARTESIAN_POINT('Origin',(-14.2999996803701,-12.4999997206032,0.));
#1950=CARTESIAN_POINT('Origin',(71.4999984018505,-12.4999997206032,3.));
#1951=CARTESIAN_POINT('',(68.1999984018505,-12.4999997206032,0.));
#1952=CARTESIAN_POINT('',(68.1999984018505,-12.4999997206032,3.));
#1953=CARTESIAN_POINT('Origin',(71.4999984018505,-12.4999997206032,0.));
#1954=CARTESIAN_POINT('Origin',(42.9000000000489,-12.5000000000122,1.5));
#1955=CARTESIAN_POINT('',(46.6000000000489,-12.5000000000122,0.));
#1956=CARTESIAN_POINT('Origin',(42.9000000000489,-12.5000000000122,0.));
#1957=CARTESIAN_POINT('',(46.6000000000489,-12.5000000000122,1.5));
#1958=CARTESIAN_POINT('Origin',(14.3000000000489,-12.5000000000122,1.5));
#1959=CARTESIAN_POINT('',(18.0000000000489,-12.5000000000122,0.));
#1960=CARTESIAN_POINT('Origin',(14.3000000000489,-12.5000000000122,0.));
#1961=CARTESIAN_POINT('',(18.0000000000489,-12.5000000000122,1.5));
#1962=CARTESIAN_POINT('Origin',(-42.8999999999511,-12.5000000000122,1.5));
#1963=CARTESIAN_POINT('',(-39.1999999999511,-12.5000000000122,0.));
#1964=CARTESIAN_POINT('Origin',(-42.8999999999511,-12.5000000000122,0.));
#1965=CARTESIAN_POINT('',(-39.1999999999511,-12.5000000000122,1.5));
#1966=CARTESIAN_POINT('Origin',(-71.4999999999511,-12.5000000000122,1.5));
#1967=CARTESIAN_POINT('',(-67.7999999999511,-12.5000000000122,0.));
#1968=CARTESIAN_POINT('Origin',(-71.4999999999511,-12.5000000000122,0.));
#1969=CARTESIAN_POINT('',(-67.7999999999511,-12.5000000000122,1.5));
#1970=CARTESIAN_POINT('Origin',(-99.9999999999511,23.9999999999878,0.));
#1971=CARTESIAN_POINT('',(-99.9999999999511,23.9999999999878,0.));
#1972=CARTESIAN_POINT('',(-99.9999999999511,-24.0000000000122,0.));
#1973=CARTESIAN_POINT('',(-99.9999999999511,23.9999999999878,0.));
#1974=CARTESIAN_POINT('',(-99.9999999999511,-24.0000000000122,0.));
#1975=CARTESIAN_POINT('',(-99.9999999999511,23.9999999999878,0.));
#1976=CARTESIAN_POINT('Origin',(-98.9999999999512,23.9999999999878,0.));
#1977=CARTESIAN_POINT('',(-98.9999999999511,24.9999999999878,0.));
#1978=CARTESIAN_POINT('Origin',(-98.9999999999512,23.9999999999878,0.));
#1979=CARTESIAN_POINT('',(-98.9999999999511,24.9999999999878,0.));
#1980=CARTESIAN_POINT('Origin',(99.0000000000489,24.9999999999878,0.));
#1981=CARTESIAN_POINT('',(99.0000000000489,24.9999999999878,0.));
#1982=CARTESIAN_POINT('',(99.0000000000489,24.9999999999878,0.));
#1983=CARTESIAN_POINT('',(99.0000000000489,24.9999999999878,0.));
#1984=CARTESIAN_POINT('Origin',(99.0000000000489,23.9999999999878,0.));
#1985=CARTESIAN_POINT('',(100.000000000049,23.9999999999878,0.));
#1986=CARTESIAN_POINT('Origin',(99.0000000000489,23.9999999999878,0.));
#1987=CARTESIAN_POINT('',(100.000000000049,23.9999999999878,0.));
#1988=CARTESIAN_POINT('Origin',(100.000000000049,-24.0000000000123,0.));
#1989=CARTESIAN_POINT('',(100.000000000049,-24.0000000000123,0.));
#1990=CARTESIAN_POINT('',(100.000000000049,-24.0000000000123,0.));
#1991=CARTESIAN_POINT('',(100.000000000049,-24.0000000000123,0.));
#1992=CARTESIAN_POINT('Origin',(99.0000000000489,-24.0000000000123,0.));
#1993=CARTESIAN_POINT('',(99.0000000000489,-25.0000000000122,0.));
#1994=CARTESIAN_POINT('Origin',(99.0000000000489,-24.0000000000123,0.));
#1995=CARTESIAN_POINT('',(99.0000000000489,-25.0000000000122,0.));
#1996=CARTESIAN_POINT('Origin',(-98.9999999999511,-25.0000000000122,0.));
#1997=CARTESIAN_POINT('',(-98.9999999999511,-24.9999999999959,0.));
#1998=CARTESIAN_POINT('',(-98.9999999999511,-25.0000000000122,0.));
#1999=CARTESIAN_POINT('',(-98.9999999999511,-24.9999999999959,0.));
#2000=CARTESIAN_POINT('Origin',(-98.9999999999511,-23.9999999999959,0.));
#2001=CARTESIAN_POINT('Origin',(-98.9999999999511,-23.9999999999959,0.));
#2002=CARTESIAN_POINT('Origin',(4.88853402202949E-11,-1.22257759471722E-11,
0.));
#2003=UNCERTAINTY_MEASURE_WITH_UNIT(LENGTH_MEASURE(0.01),#2007,
'DISTANCE_ACCURACY_VALUE',
'Maximum model space distance between geometric entities at asserted c
onnectivities');
#2004=UNCERTAINTY_MEASURE_WITH_UNIT(LENGTH_MEASURE(0.01),#2007,
'DISTANCE_ACCURACY_VALUE',
'Maximum model space distance between geometric entities at asserted c
onnectivities');
#2005=(
GEOMETRIC_REPRESENTATION_CONTEXT(3)
GLOBAL_UNCERTAINTY_ASSIGNED_CONTEXT((#2003))
GLOBAL_UNIT_ASSIGNED_CONTEXT((#2007,#2009,#2010))
REPRESENTATION_CONTEXT('','3D')
);
#2006=(
GEOMETRIC_REPRESENTATION_CONTEXT(3)
GLOBAL_UNCERTAINTY_ASSIGNED_CONTEXT((#2004))
GLOBAL_UNIT_ASSIGNED_CONTEXT((#2007,#2009,#2010))
REPRESENTATION_CONTEXT('','3D')
);
#2007=(
LENGTH_UNIT()
NAMED_UNIT(*)
SI_UNIT(.MILLI.,.METRE.)
);
#2008=(
LENGTH_UNIT()
NAMED_UNIT(*)
SI_UNIT($,.METRE.)
);
#2009=(
NAMED_UNIT(*)
PLANE_ANGLE_UNIT()
SI_UNIT($,.RADIAN.)
);
#2010=(
NAMED_UNIT(*)
SI_UNIT($,.STERADIAN.)
SOLID_ANGLE_UNIT()
);
#2011=SHAPE_DEFINITION_REPRESENTATION(#2012,#2013);
#2012=PRODUCT_DEFINITION_SHAPE('',$,#2015);
#2013=SHAPE_REPRESENTATION('',(#1168),#2005);
#2014=PRODUCT_DEFINITION_CONTEXT('part definition',#2019,'design');
#2015=PRODUCT_DEFINITION('2026-05-30-19-32-49-165','Mounting_plate',#2016,
#2014);
#2016=PRODUCT_DEFINITION_FORMATION('',$,#2021);
#2017=PRODUCT_RELATED_PRODUCT_CATEGORY('Mounting_plate',
'Mounting_plate',(#2021));
#2018=APPLICATION_PROTOCOL_DEFINITION('international standard',
'automotive_design',2009,#2019);
#2019=APPLICATION_CONTEXT(
'Core Data for Automotive Mechanical Design Process');
#2020=PRODUCT_CONTEXT('part definition',#2019,'mechanical');
#2021=PRODUCT('2026-05-30-19-32-49-165','Mounting_plate',$,(#2020));
#2022=PRESENTATION_STYLE_ASSIGNMENT((#2024));
#2023=PRESENTATION_STYLE_ASSIGNMENT((#2025));
#2024=SURFACE_STYLE_USAGE(.BOTH.,#2026);
#2025=SURFACE_STYLE_USAGE(.BOTH.,#2027);
#2026=SURFACE_SIDE_STYLE('',(#2028));
#2027=SURFACE_SIDE_STYLE('',(#2029));
#2028=SURFACE_STYLE_FILL_AREA(#2030);
#2029=SURFACE_STYLE_FILL_AREA(#2031);
#2030=FILL_AREA_STYLE('Steel - Satin',(#2032));
#2031=FILL_AREA_STYLE('Aluminum - Anodized Rough (Grey)',(#2033));
#2032=FILL_AREA_STYLE_COLOUR('Steel - Satin',#2034);
#2033=FILL_AREA_STYLE_COLOUR('Aluminum - Anodized Rough (Grey)',#2035);
#2034=COLOUR_RGB('Steel - Satin',0.627450980392157,0.627450980392157,0.627450980392157);
#2035=COLOUR_RGB('Aluminum - Anodized Rough (Grey)',0.537254901960784,0.537254901960784,
0.537254901960784);
ENDSEC;
END-ISO-10303-21;
