ISO-10303-21;
HEADER;
/* Generated by software containing ST-Developer
 * from STEP Tools, Inc. (www.steptools.com) 
 */

FILE_DESCRIPTION(
/* description */ (''),
/* implementation_level */ '2;1');

FILE_NAME(
/* name */ 'nobs_autopilot_mounting_plate.step',
/* time_stamp */ '2026-06-20T10:47:27+02:00',
/* author */ (''),
/* organization */ (''),
/* preprocessor_version */ 'ST-DEVELOPER v20.1',
/* originating_system */ 'Autodesk Translation Framework v15.8.0.0',
/* authorisation */ '');

FILE_SCHEMA (('AUTOMOTIVE_DESIGN { 1 0 10303 214 3 1 1 }'));
ENDSEC;

DATA;
#10=MECHANICAL_DESIGN_GEOMETRIC_PRESENTATION_REPRESENTATION('',(#13),#2045);
#11=SHAPE_REPRESENTATION_RELATIONSHIP('SRR','None',#2052,#12);
#12=ADVANCED_BREP_SHAPE_REPRESENTATION('',(#14),#2044);
#13=STYLED_ITEM('',(#2062),#14);
#14=MANIFOLD_SOLID_BREP('Body1',#1178);
#15=FACE_BOUND('',#172,.T.);
#16=FACE_BOUND('',#173,.T.);
#17=FACE_BOUND('',#174,.T.);
#18=FACE_BOUND('',#175,.T.);
#19=FACE_BOUND('',#176,.T.);
#20=FACE_BOUND('',#177,.T.);
#21=FACE_BOUND('',#178,.T.);
#22=FACE_BOUND('',#179,.T.);
#23=FACE_BOUND('',#180,.T.);
#24=FACE_BOUND('',#181,.T.);
#25=FACE_BOUND('',#182,.T.);
#26=FACE_BOUND('',#183,.T.);
#27=FACE_BOUND('',#184,.T.);
#28=FACE_BOUND('',#185,.T.);
#29=FACE_BOUND('',#186,.T.);
#30=FACE_BOUND('',#187,.T.);
#31=FACE_BOUND('',#188,.T.);
#32=FACE_BOUND('',#189,.T.);
#33=FACE_BOUND('',#190,.T.);
#34=FACE_BOUND('',#191,.T.);
#35=FACE_BOUND('',#192,.T.);
#36=FACE_BOUND('',#193,.T.);
#37=FACE_BOUND('',#194,.T.);
#38=FACE_BOUND('',#195,.T.);
#39=FACE_BOUND('',#196,.T.);
#40=FACE_BOUND('',#197,.T.);
#41=FACE_BOUND('',#198,.T.);
#42=FACE_BOUND('',#199,.T.);
#43=FACE_BOUND('',#225,.T.);
#44=FACE_BOUND('',#228,.T.);
#45=FACE_BOUND('',#231,.T.);
#46=FACE_BOUND('',#234,.T.);
#47=FACE_BOUND('',#237,.T.);
#48=FACE_BOUND('',#240,.T.);
#49=FACE_BOUND('',#243,.T.);
#50=FACE_BOUND('',#246,.T.);
#51=FACE_BOUND('',#249,.T.);
#52=FACE_BOUND('',#271,.T.);
#53=FACE_BOUND('',#272,.T.);
#54=FACE_BOUND('',#273,.T.);
#55=FACE_BOUND('',#274,.T.);
#56=FACE_BOUND('',#275,.T.);
#57=FACE_BOUND('',#276,.T.);
#58=FACE_BOUND('',#277,.T.);
#59=FACE_BOUND('',#278,.T.);
#60=FACE_BOUND('',#279,.T.);
#61=FACE_BOUND('',#280,.T.);
#62=FACE_BOUND('',#281,.T.);
#63=FACE_BOUND('',#282,.T.);
#64=FACE_BOUND('',#283,.T.);
#65=FACE_BOUND('',#284,.T.);
#66=FACE_BOUND('',#285,.T.);
#67=FACE_BOUND('',#286,.T.);
#68=FACE_BOUND('',#287,.T.);
#69=FACE_BOUND('',#288,.T.);
#70=FACE_BOUND('',#289,.T.);
#71=FACE_BOUND('',#290,.T.);
#72=FACE_BOUND('',#291,.T.);
#73=FACE_BOUND('',#292,.T.);
#74=FACE_BOUND('',#293,.T.);
#75=FACE_BOUND('',#294,.T.);
#76=FACE_BOUND('',#295,.T.);
#77=FACE_BOUND('',#296,.T.);
#78=FACE_BOUND('',#297,.T.);
#79=FACE_BOUND('',#298,.T.);
#80=PLANE('',#1198);
#81=PLANE('',#1278);
#82=PLANE('',#1282);
#83=PLANE('',#1286);
#84=PLANE('',#1290);
#85=PLANE('',#1294);
#86=PLANE('',#1298);
#87=PLANE('',#1302);
#88=PLANE('',#1306);
#89=PLANE('',#1310);
#90=PLANE('',#1335);
#91=PLANE('',#1338);
#92=PLANE('',#1341);
#93=PLANE('',#1344);
#94=PLANE('',#1347);
#95=CONICAL_SURFACE('',#1195,2.45,0.785398163397449);
#96=CONICAL_SURFACE('',#1231,2.45,0.785398163397449);
#97=CONICAL_SURFACE('',#1235,2.45,0.785398163397449);
#98=CONICAL_SURFACE('',#1239,2.45,0.785398163397449);
#99=CONICAL_SURFACE('',#1243,2.45,0.785398163397449);
#100=CONICAL_SURFACE('',#1247,2.45,0.785398163397449);
#101=CONICAL_SURFACE('',#1251,2.45,0.785398163397449);
#102=CONICAL_SURFACE('',#1255,2.45,0.785398163397449);
#103=CONICAL_SURFACE('',#1259,2.45,0.785398163397449);
#104=FACE_OUTER_BOUND('',#169,.T.);
#105=FACE_OUTER_BOUND('',#170,.T.);
#106=FACE_OUTER_BOUND('',#171,.T.);
#107=FACE_OUTER_BOUND('',#200,.T.);
#108=FACE_OUTER_BOUND('',#201,.T.);
#109=FACE_OUTER_BOUND('',#202,.T.);
#110=FACE_OUTER_BOUND('',#203,.T.);
#111=FACE_OUTER_BOUND('',#204,.T.);
#112=FACE_OUTER_BOUND('',#205,.T.);
#113=FACE_OUTER_BOUND('',#206,.T.);
#114=FACE_OUTER_BOUND('',#207,.T.);
#115=FACE_OUTER_BOUND('',#208,.T.);
#116=FACE_OUTER_BOUND('',#209,.T.);
#117=FACE_OUTER_BOUND('',#210,.T.);
#118=FACE_OUTER_BOUND('',#211,.T.);
#119=FACE_OUTER_BOUND('',#212,.T.);
#120=FACE_OUTER_BOUND('',#213,.T.);
#121=FACE_OUTER_BOUND('',#214,.T.);
#122=FACE_OUTER_BOUND('',#215,.T.);
#123=FACE_OUTER_BOUND('',#216,.T.);
#124=FACE_OUTER_BOUND('',#217,.T.);
#125=FACE_OUTER_BOUND('',#218,.T.);
#126=FACE_OUTER_BOUND('',#219,.T.);
#127=FACE_OUTER_BOUND('',#220,.T.);
#128=FACE_OUTER_BOUND('',#221,.T.);
#129=FACE_OUTER_BOUND('',#222,.T.);
#130=FACE_OUTER_BOUND('',#223,.T.);
#131=FACE_OUTER_BOUND('',#224,.T.);
#132=FACE_OUTER_BOUND('',#226,.T.);
#133=FACE_OUTER_BOUND('',#227,.T.);
#134=FACE_OUTER_BOUND('',#229,.T.);
#135=FACE_OUTER_BOUND('',#230,.T.);
#136=FACE_OUTER_BOUND('',#232,.T.);
#137=FACE_OUTER_BOUND('',#233,.T.);
#138=FACE_OUTER_BOUND('',#235,.T.);
#139=FACE_OUTER_BOUND('',#236,.T.);
#140=FACE_OUTER_BOUND('',#238,.T.);
#141=FACE_OUTER_BOUND('',#239,.T.);
#142=FACE_OUTER_BOUND('',#241,.T.);
#143=FACE_OUTER_BOUND('',#242,.T.);
#144=FACE_OUTER_BOUND('',#244,.T.);
#145=FACE_OUTER_BOUND('',#245,.T.);
#146=FACE_OUTER_BOUND('',#247,.T.);
#147=FACE_OUTER_BOUND('',#248,.T.);
#148=FACE_OUTER_BOUND('',#250,.T.);
#149=FACE_OUTER_BOUND('',#251,.T.);
#150=FACE_OUTER_BOUND('',#252,.T.);
#151=FACE_OUTER_BOUND('',#253,.T.);
#152=FACE_OUTER_BOUND('',#254,.T.);
#153=FACE_OUTER_BOUND('',#255,.T.);
#154=FACE_OUTER_BOUND('',#256,.T.);
#155=FACE_OUTER_BOUND('',#257,.T.);
#156=FACE_OUTER_BOUND('',#258,.T.);
#157=FACE_OUTER_BOUND('',#259,.T.);
#158=FACE_OUTER_BOUND('',#260,.T.);
#159=FACE_OUTER_BOUND('',#261,.T.);
#160=FACE_OUTER_BOUND('',#262,.T.);
#161=FACE_OUTER_BOUND('',#263,.T.);
#162=FACE_OUTER_BOUND('',#264,.T.);
#163=FACE_OUTER_BOUND('',#265,.T.);
#164=FACE_OUTER_BOUND('',#266,.T.);
#165=FACE_OUTER_BOUND('',#267,.T.);
#166=FACE_OUTER_BOUND('',#268,.T.);
#167=FACE_OUTER_BOUND('',#269,.T.);
#168=FACE_OUTER_BOUND('',#270,.T.);
#169=EDGE_LOOP('',(#766,#767,#768,#769));
#170=EDGE_LOOP('',(#770,#771,#772,#773));
#171=EDGE_LOOP('',(#774,#775,#776,#777,#778,#779,#780,#781));
#172=EDGE_LOOP('',(#782));
#173=EDGE_LOOP('',(#783));
#174=EDGE_LOOP('',(#784));
#175=EDGE_LOOP('',(#785));
#176=EDGE_LOOP('',(#786));
#177=EDGE_LOOP('',(#787));
#178=EDGE_LOOP('',(#788));
#179=EDGE_LOOP('',(#789));
#180=EDGE_LOOP('',(#790));
#181=EDGE_LOOP('',(#791));
#182=EDGE_LOOP('',(#792));
#183=EDGE_LOOP('',(#793));
#184=EDGE_LOOP('',(#794));
#185=EDGE_LOOP('',(#795));
#186=EDGE_LOOP('',(#796));
#187=EDGE_LOOP('',(#797));
#188=EDGE_LOOP('',(#798));
#189=EDGE_LOOP('',(#799));
#190=EDGE_LOOP('',(#800));
#191=EDGE_LOOP('',(#801));
#192=EDGE_LOOP('',(#802));
#193=EDGE_LOOP('',(#803));
#194=EDGE_LOOP('',(#804));
#195=EDGE_LOOP('',(#805));
#196=EDGE_LOOP('',(#806));
#197=EDGE_LOOP('',(#807));
#198=EDGE_LOOP('',(#808));
#199=EDGE_LOOP('',(#809));
#200=EDGE_LOOP('',(#810,#811,#812,#813));
#201=EDGE_LOOP('',(#814,#815,#816,#817));
#202=EDGE_LOOP('',(#818,#819,#820,#821));
#203=EDGE_LOOP('',(#822,#823,#824,#825));
#204=EDGE_LOOP('',(#826,#827,#828,#829));
#205=EDGE_LOOP('',(#830,#831,#832,#833));
#206=EDGE_LOOP('',(#834,#835,#836,#837));
#207=EDGE_LOOP('',(#838,#839,#840,#841));
#208=EDGE_LOOP('',(#842,#843,#844,#845));
#209=EDGE_LOOP('',(#846,#847,#848,#849));
#210=EDGE_LOOP('',(#850,#851,#852,#853));
#211=EDGE_LOOP('',(#854,#855,#856,#857));
#212=EDGE_LOOP('',(#858,#859,#860,#861));
#213=EDGE_LOOP('',(#862,#863,#864,#865));
#214=EDGE_LOOP('',(#866,#867,#868,#869));
#215=EDGE_LOOP('',(#870,#871,#872,#873));
#216=EDGE_LOOP('',(#874,#875,#876,#877));
#217=EDGE_LOOP('',(#878,#879,#880,#881));
#218=EDGE_LOOP('',(#882,#883,#884,#885));
#219=EDGE_LOOP('',(#886,#887,#888,#889));
#220=EDGE_LOOP('',(#890,#891,#892,#893));
#221=EDGE_LOOP('',(#894,#895,#896,#897));
#222=EDGE_LOOP('',(#898,#899,#900,#901));
#223=EDGE_LOOP('',(#902,#903,#904,#905));
#224=EDGE_LOOP('',(#906));
#225=EDGE_LOOP('',(#907));
#226=EDGE_LOOP('',(#908,#909,#910,#911));
#227=EDGE_LOOP('',(#912));
#228=EDGE_LOOP('',(#913));
#229=EDGE_LOOP('',(#914,#915,#916,#917));
#230=EDGE_LOOP('',(#918));
#231=EDGE_LOOP('',(#919));
#232=EDGE_LOOP('',(#920,#921,#922,#923));
#233=EDGE_LOOP('',(#924));
#234=EDGE_LOOP('',(#925));
#235=EDGE_LOOP('',(#926,#927,#928,#929));
#236=EDGE_LOOP('',(#930));
#237=EDGE_LOOP('',(#931));
#238=EDGE_LOOP('',(#932,#933,#934,#935));
#239=EDGE_LOOP('',(#936));
#240=EDGE_LOOP('',(#937));
#241=EDGE_LOOP('',(#938,#939,#940,#941));
#242=EDGE_LOOP('',(#942));
#243=EDGE_LOOP('',(#943));
#244=EDGE_LOOP('',(#944,#945,#946,#947));
#245=EDGE_LOOP('',(#948));
#246=EDGE_LOOP('',(#949));
#247=EDGE_LOOP('',(#950,#951,#952,#953));
#248=EDGE_LOOP('',(#954));
#249=EDGE_LOOP('',(#955));
#250=EDGE_LOOP('',(#956,#957,#958,#959));
#251=EDGE_LOOP('',(#960,#961,#962,#963));
#252=EDGE_LOOP('',(#964,#965,#966,#967));
#253=EDGE_LOOP('',(#968,#969,#970,#971));
#254=EDGE_LOOP('',(#972,#973,#974,#975));
#255=EDGE_LOOP('',(#976,#977,#978,#979));
#256=EDGE_LOOP('',(#980,#981,#982,#983));
#257=EDGE_LOOP('',(#984,#985,#986,#987));
#258=EDGE_LOOP('',(#988,#989,#990,#991));
#259=EDGE_LOOP('',(#992,#993,#994,#995));
#260=EDGE_LOOP('',(#996,#997,#998,#999));
#261=EDGE_LOOP('',(#1000,#1001,#1002,#1003));
#262=EDGE_LOOP('',(#1004,#1005,#1006,#1007));
#263=EDGE_LOOP('',(#1008,#1009,#1010,#1011));
#264=EDGE_LOOP('',(#1012,#1013,#1014,#1015));
#265=EDGE_LOOP('',(#1016,#1017,#1018,#1019));
#266=EDGE_LOOP('',(#1020,#1021,#1022,#1023));
#267=EDGE_LOOP('',(#1024,#1025,#1026,#1027));
#268=EDGE_LOOP('',(#1028,#1029,#1030,#1031));
#269=EDGE_LOOP('',(#1032,#1033,#1034,#1035));
#270=EDGE_LOOP('',(#1036,#1037,#1038,#1039,#1040,#1041,#1042,#1043));
#271=EDGE_LOOP('',(#1044));
#272=EDGE_LOOP('',(#1045));
#273=EDGE_LOOP('',(#1046));
#274=EDGE_LOOP('',(#1047));
#275=EDGE_LOOP('',(#1048));
#276=EDGE_LOOP('',(#1049));
#277=EDGE_LOOP('',(#1050));
#278=EDGE_LOOP('',(#1051));
#279=EDGE_LOOP('',(#1052));
#280=EDGE_LOOP('',(#1053));
#281=EDGE_LOOP('',(#1054));
#282=EDGE_LOOP('',(#1055));
#283=EDGE_LOOP('',(#1056));
#284=EDGE_LOOP('',(#1057));
#285=EDGE_LOOP('',(#1058));
#286=EDGE_LOOP('',(#1059));
#287=EDGE_LOOP('',(#1060));
#288=EDGE_LOOP('',(#1061));
#289=EDGE_LOOP('',(#1062));
#290=EDGE_LOOP('',(#1063));
#291=EDGE_LOOP('',(#1064));
#292=EDGE_LOOP('',(#1065));
#293=EDGE_LOOP('',(#1066));
#294=EDGE_LOOP('',(#1067));
#295=EDGE_LOOP('',(#1068));
#296=EDGE_LOOP('',(#1069));
#297=EDGE_LOOP('',(#1070));
#298=EDGE_LOOP('',(#1071));
#299=LINE('',#1729,#361);
#300=LINE('',#1735,#362);
#301=LINE('',#1742,#363);
#302=LINE('',#1746,#364);
#303=LINE('',#1750,#365);
#304=LINE('',#1753,#366);
#305=LINE('',#1809,#367);
#306=LINE('',#1812,#368);
#307=LINE('',#1817,#369);
#308=LINE('',#1820,#370);
#309=LINE('',#1825,#371);
#310=LINE('',#1828,#372);
#311=LINE('',#1833,#373);
#312=LINE('',#1836,#374);
#313=LINE('',#1841,#375);
#314=LINE('',#1844,#376);
#315=LINE('',#1849,#377);
#316=LINE('',#1852,#378);
#317=LINE('',#1857,#379);
#318=LINE('',#1860,#380);
#319=LINE('',#1865,#381);
#320=LINE('',#1868,#382);
#321=LINE('',#1873,#383);
#322=LINE('',#1876,#384);
#323=LINE('',#1880,#385);
#324=LINE('',#1884,#386);
#325=LINE('',#1888,#387);
#326=LINE('',#1892,#388);
#327=LINE('',#1896,#389);
#328=LINE('',#1902,#390);
#329=LINE('',#1909,#391);
#330=LINE('',#1916,#392);
#331=LINE('',#1923,#393);
#332=LINE('',#1930,#394);
#333=LINE('',#1937,#395);
#334=LINE('',#1944,#396);
#335=LINE('',#1951,#397);
#336=LINE('',#1958,#398);
#337=LINE('',#1963,#399);
#338=LINE('',#1967,#400);
#339=LINE('',#1971,#401);
#340=LINE('',#1975,#402);
#341=LINE('',#1979,#403);
#342=LINE('',#1983,#404);
#343=LINE('',#1987,#405);
#344=LINE('',#1991,#406);
#345=LINE('',#1996,#407);
#346=LINE('',#2000,#408);
#347=LINE('',#2004,#409);
#348=LINE('',#2008,#410);
#349=LINE('',#2012,#411);
#350=LINE('',#2013,#412);
#351=LINE('',#2014,#413);
#352=LINE('',#2018,#414);
#353=LINE('',#2021,#415);
#354=LINE('',#2022,#416);
#355=LINE('',#2026,#417);
#356=LINE('',#2029,#418);
#357=LINE('',#2030,#419);
#358=LINE('',#2034,#420);
#359=LINE('',#2037,#421);
#360=LINE('',#2038,#422);
#361=VECTOR('',#1354,3.);
#362=VECTOR('',#1361,2.45);
#363=VECTOR('',#1368,10.);
#364=VECTOR('',#1371,10.);
#365=VECTOR('',#1374,10.);
#366=VECTOR('',#1377,10.);
#367=VECTOR('',#1434,2.05);
#368=VECTOR('',#1437,2.45);
#369=VECTOR('',#1444,2.05);
#370=VECTOR('',#1447,2.45);
#371=VECTOR('',#1454,2.05);
#372=VECTOR('',#1457,2.45);
#373=VECTOR('',#1464,2.05);
#374=VECTOR('',#1467,2.45);
#375=VECTOR('',#1474,2.05);
#376=VECTOR('',#1477,2.45);
#377=VECTOR('',#1484,2.05);
#378=VECTOR('',#1487,2.45);
#379=VECTOR('',#1494,2.05);
#380=VECTOR('',#1497,2.45);
#381=VECTOR('',#1504,2.05);
#382=VECTOR('',#1507,2.45);
#383=VECTOR('',#1514,2.05);
#384=VECTOR('',#1517,2.2);
#385=VECTOR('',#1522,2.20000000000001);
#386=VECTOR('',#1527,2.19999999999999);
#387=VECTOR('',#1532,2.2);
#388=VECTOR('',#1537,2.20000000000001);
#389=VECTOR('',#1542,2.20000000000001);
#390=VECTOR('',#1549,4.5);
#391=VECTOR('',#1558,4.5);
#392=VECTOR('',#1567,4.5);
#393=VECTOR('',#1576,4.5);
#394=VECTOR('',#1585,4.49999999999999);
#395=VECTOR('',#1594,4.5);
#396=VECTOR('',#1603,4.50000000000001);
#397=VECTOR('',#1612,4.5);
#398=VECTOR('',#1621,4.5);
#399=VECTOR('',#1628,3.3);
#400=VECTOR('',#1633,3.3);
#401=VECTOR('',#1638,3.3);
#402=VECTOR('',#1643,3.3);
#403=VECTOR('',#1648,3.3);
#404=VECTOR('',#1653,3.3);
#405=VECTOR('',#1658,3.3);
#406=VECTOR('',#1663,3.3);
#407=VECTOR('',#1670,3.7);
#408=VECTOR('',#1675,3.7);
#409=VECTOR('',#1680,3.7);
#410=VECTOR('',#1685,3.7);
#411=VECTOR('',#1688,10.);
#412=VECTOR('',#1689,10.);
#413=VECTOR('',#1690,10.);
#414=VECTOR('',#1695,10.);
#415=VECTOR('',#1698,10.);
#416=VECTOR('',#1699,10.);
#417=VECTOR('',#1704,10.);
#418=VECTOR('',#1707,10.);
#419=VECTOR('',#1708,10.);
#420=VECTOR('',#1713,10.);
#421=VECTOR('',#1716,10.);
#422=VECTOR('',#1717,10.);
#423=CIRCLE('',#1193,3.);
#424=CIRCLE('',#1194,3.);
#425=CIRCLE('',#1196,2.85);
#426=CIRCLE('',#1197,2.05);
#427=CIRCLE('',#1199,0.999999999999979);
#428=CIRCLE('',#1200,0.999999999999974);
#429=CIRCLE('',#1201,1.00000000000003);
#430=CIRCLE('',#1202,0.999999999999979);
#431=CIRCLE('',#1203,2.85);
#432=CIRCLE('',#1204,2.85);
#433=CIRCLE('',#1205,2.85);
#434=CIRCLE('',#1206,2.85);
#435=CIRCLE('',#1207,3.7);
#436=CIRCLE('',#1208,3.7);
#437=CIRCLE('',#1209,3.7);
#438=CIRCLE('',#1210,3.7);
#439=CIRCLE('',#1211,3.3);
#440=CIRCLE('',#1212,3.3);
#441=CIRCLE('',#1213,3.3);
#442=CIRCLE('',#1214,3.3);
#443=CIRCLE('',#1215,3.3);
#444=CIRCLE('',#1216,3.3);
#445=CIRCLE('',#1217,3.3);
#446=CIRCLE('',#1218,3.3);
#447=CIRCLE('',#1219,2.20000000000001);
#448=CIRCLE('',#1220,2.20000000000001);
#449=CIRCLE('',#1221,2.2);
#450=CIRCLE('',#1222,2.19999999999999);
#451=CIRCLE('',#1223,2.20000000000001);
#452=CIRCLE('',#1224,2.2);
#453=CIRCLE('',#1225,2.85);
#454=CIRCLE('',#1226,2.85);
#455=CIRCLE('',#1227,2.85);
#456=CIRCLE('',#1228,2.85);
#457=CIRCLE('',#1230,2.05);
#458=CIRCLE('',#1232,2.05);
#459=CIRCLE('',#1234,2.05);
#460=CIRCLE('',#1236,2.05);
#461=CIRCLE('',#1238,2.05);
#462=CIRCLE('',#1240,2.05);
#463=CIRCLE('',#1242,2.05);
#464=CIRCLE('',#1244,2.05);
#465=CIRCLE('',#1246,2.05);
#466=CIRCLE('',#1248,2.05);
#467=CIRCLE('',#1250,2.05);
#468=CIRCLE('',#1252,2.05);
#469=CIRCLE('',#1254,2.05);
#470=CIRCLE('',#1256,2.05);
#471=CIRCLE('',#1258,2.05);
#472=CIRCLE('',#1260,2.05);
#473=CIRCLE('',#1262,2.05);
#474=CIRCLE('',#1264,2.2);
#475=CIRCLE('',#1266,2.20000000000001);
#476=CIRCLE('',#1268,2.19999999999999);
#477=CIRCLE('',#1270,2.2);
#478=CIRCLE('',#1272,2.20000000000001);
#479=CIRCLE('',#1274,2.20000000000001);
#480=CIRCLE('',#1276,4.5);
#481=CIRCLE('',#1277,4.5);
#482=CIRCLE('',#1280,4.5);
#483=CIRCLE('',#1281,4.5);
#484=CIRCLE('',#1284,4.5);
#485=CIRCLE('',#1285,4.5);
#486=CIRCLE('',#1288,4.5);
#487=CIRCLE('',#1289,4.5);
#488=CIRCLE('',#1292,4.49999999999999);
#489=CIRCLE('',#1293,4.49999999999999);
#490=CIRCLE('',#1296,4.5);
#491=CIRCLE('',#1297,4.5);
#492=CIRCLE('',#1300,4.50000000000001);
#493=CIRCLE('',#1301,4.50000000000001);
#494=CIRCLE('',#1304,4.5);
#495=CIRCLE('',#1305,4.5);
#496=CIRCLE('',#1308,4.5);
#497=CIRCLE('',#1309,4.5);
#498=CIRCLE('',#1312,3.3);
#499=CIRCLE('',#1314,3.3);
#500=CIRCLE('',#1316,3.3);
#501=CIRCLE('',#1318,3.3);
#502=CIRCLE('',#1320,3.3);
#503=CIRCLE('',#1322,3.3);
#504=CIRCLE('',#1324,3.3);
#505=CIRCLE('',#1326,3.3);
#506=CIRCLE('',#1328,3.7);
#507=CIRCLE('',#1330,3.7);
#508=CIRCLE('',#1332,3.7);
#509=CIRCLE('',#1334,3.7);
#510=CIRCLE('',#1337,0.999999999999979);
#511=CIRCLE('',#1340,1.00000000000003);
#512=CIRCLE('',#1343,0.999999999999974);
#513=CIRCLE('',#1346,0.999999999999979);
#514=VERTEX_POINT('',#1726);
#515=VERTEX_POINT('',#1728);
#516=VERTEX_POINT('',#1732);
#517=VERTEX_POINT('',#1734);
#518=VERTEX_POINT('',#1738);
#519=VERTEX_POINT('',#1739);
#520=VERTEX_POINT('',#1741);
#521=VERTEX_POINT('',#1743);
#522=VERTEX_POINT('',#1745);
#523=VERTEX_POINT('',#1747);
#524=VERTEX_POINT('',#1749);
#525=VERTEX_POINT('',#1751);
#526=VERTEX_POINT('',#1754);
#527=VERTEX_POINT('',#1756);
#528=VERTEX_POINT('',#1758);
#529=VERTEX_POINT('',#1760);
#530=VERTEX_POINT('',#1762);
#531=VERTEX_POINT('',#1764);
#532=VERTEX_POINT('',#1766);
#533=VERTEX_POINT('',#1768);
#534=VERTEX_POINT('',#1770);
#535=VERTEX_POINT('',#1772);
#536=VERTEX_POINT('',#1774);
#537=VERTEX_POINT('',#1776);
#538=VERTEX_POINT('',#1778);
#539=VERTEX_POINT('',#1780);
#540=VERTEX_POINT('',#1782);
#541=VERTEX_POINT('',#1784);
#542=VERTEX_POINT('',#1786);
#543=VERTEX_POINT('',#1788);
#544=VERTEX_POINT('',#1790);
#545=VERTEX_POINT('',#1792);
#546=VERTEX_POINT('',#1794);
#547=VERTEX_POINT('',#1796);
#548=VERTEX_POINT('',#1798);
#549=VERTEX_POINT('',#1800);
#550=VERTEX_POINT('',#1802);
#551=VERTEX_POINT('',#1804);
#552=VERTEX_POINT('',#1807);
#553=VERTEX_POINT('',#1811);
#554=VERTEX_POINT('',#1815);
#555=VERTEX_POINT('',#1819);
#556=VERTEX_POINT('',#1823);
#557=VERTEX_POINT('',#1827);
#558=VERTEX_POINT('',#1831);
#559=VERTEX_POINT('',#1835);
#560=VERTEX_POINT('',#1839);
#561=VERTEX_POINT('',#1843);
#562=VERTEX_POINT('',#1847);
#563=VERTEX_POINT('',#1851);
#564=VERTEX_POINT('',#1855);
#565=VERTEX_POINT('',#1859);
#566=VERTEX_POINT('',#1863);
#567=VERTEX_POINT('',#1867);
#568=VERTEX_POINT('',#1871);
#569=VERTEX_POINT('',#1875);
#570=VERTEX_POINT('',#1879);
#571=VERTEX_POINT('',#1883);
#572=VERTEX_POINT('',#1887);
#573=VERTEX_POINT('',#1891);
#574=VERTEX_POINT('',#1895);
#575=VERTEX_POINT('',#1899);
#576=VERTEX_POINT('',#1901);
#577=VERTEX_POINT('',#1906);
#578=VERTEX_POINT('',#1908);
#579=VERTEX_POINT('',#1913);
#580=VERTEX_POINT('',#1915);
#581=VERTEX_POINT('',#1920);
#582=VERTEX_POINT('',#1922);
#583=VERTEX_POINT('',#1927);
#584=VERTEX_POINT('',#1929);
#585=VERTEX_POINT('',#1934);
#586=VERTEX_POINT('',#1936);
#587=VERTEX_POINT('',#1941);
#588=VERTEX_POINT('',#1943);
#589=VERTEX_POINT('',#1948);
#590=VERTEX_POINT('',#1950);
#591=VERTEX_POINT('',#1955);
#592=VERTEX_POINT('',#1957);
#593=VERTEX_POINT('',#1962);
#594=VERTEX_POINT('',#1966);
#595=VERTEX_POINT('',#1970);
#596=VERTEX_POINT('',#1974);
#597=VERTEX_POINT('',#1978);
#598=VERTEX_POINT('',#1982);
#599=VERTEX_POINT('',#1986);
#600=VERTEX_POINT('',#1990);
#601=VERTEX_POINT('',#1994);
#602=VERTEX_POINT('',#1998);
#603=VERTEX_POINT('',#2002);
#604=VERTEX_POINT('',#2006);
#605=VERTEX_POINT('',#2010);
#606=VERTEX_POINT('',#2011);
#607=VERTEX_POINT('',#2016);
#608=VERTEX_POINT('',#2020);
#609=VERTEX_POINT('',#2024);
#610=VERTEX_POINT('',#2028);
#611=VERTEX_POINT('',#2032);
#612=VERTEX_POINT('',#2036);
#613=EDGE_CURVE('',#514,#514,#423,.T.);
#614=EDGE_CURVE('',#514,#515,#299,.T.);
#615=EDGE_CURVE('',#515,#515,#424,.T.);
#616=EDGE_CURVE('',#516,#516,#425,.T.);
#617=EDGE_CURVE('',#516,#517,#300,.T.);
#618=EDGE_CURVE('',#517,#517,#426,.T.);
#619=EDGE_CURVE('',#518,#519,#427,.T.);
#620=EDGE_CURVE('',#519,#520,#301,.T.);
#621=EDGE_CURVE('',#520,#521,#428,.T.);
#622=EDGE_CURVE('',#521,#522,#302,.T.);
#623=EDGE_CURVE('',#522,#523,#429,.T.);
#624=EDGE_CURVE('',#523,#524,#303,.T.);
#625=EDGE_CURVE('',#524,#525,#430,.T.);
#626=EDGE_CURVE('',#525,#518,#304,.T.);
#627=EDGE_CURVE('',#526,#526,#431,.T.);
#628=EDGE_CURVE('',#527,#527,#432,.T.);
#629=EDGE_CURVE('',#528,#528,#433,.T.);
#630=EDGE_CURVE('',#529,#529,#434,.T.);
#631=EDGE_CURVE('',#530,#530,#435,.T.);
#632=EDGE_CURVE('',#531,#531,#436,.T.);
#633=EDGE_CURVE('',#532,#532,#437,.T.);
#634=EDGE_CURVE('',#533,#533,#438,.T.);
#635=EDGE_CURVE('',#534,#534,#439,.T.);
#636=EDGE_CURVE('',#535,#535,#440,.T.);
#637=EDGE_CURVE('',#536,#536,#441,.T.);
#638=EDGE_CURVE('',#537,#537,#442,.T.);
#639=EDGE_CURVE('',#538,#538,#443,.T.);
#640=EDGE_CURVE('',#539,#539,#444,.T.);
#641=EDGE_CURVE('',#540,#540,#445,.T.);
#642=EDGE_CURVE('',#541,#541,#446,.T.);
#643=EDGE_CURVE('',#542,#542,#447,.T.);
#644=EDGE_CURVE('',#543,#543,#448,.T.);
#645=EDGE_CURVE('',#544,#544,#449,.T.);
#646=EDGE_CURVE('',#545,#545,#450,.T.);
#647=EDGE_CURVE('',#546,#546,#451,.T.);
#648=EDGE_CURVE('',#547,#547,#452,.T.);
#649=EDGE_CURVE('',#548,#548,#453,.T.);
#650=EDGE_CURVE('',#549,#549,#454,.T.);
#651=EDGE_CURVE('',#550,#550,#455,.T.);
#652=EDGE_CURVE('',#551,#551,#456,.T.);
#653=EDGE_CURVE('',#552,#552,#457,.T.);
#654=EDGE_CURVE('',#552,#517,#305,.T.);
#655=EDGE_CURVE('',#551,#553,#306,.T.);
#656=EDGE_CURVE('',#553,#553,#458,.T.);
#657=EDGE_CURVE('',#554,#554,#459,.T.);
#658=EDGE_CURVE('',#554,#553,#307,.T.);
#659=EDGE_CURVE('',#526,#555,#308,.T.);
#660=EDGE_CURVE('',#555,#555,#460,.T.);
#661=EDGE_CURVE('',#556,#556,#461,.T.);
#662=EDGE_CURVE('',#556,#555,#309,.T.);
#663=EDGE_CURVE('',#550,#557,#310,.T.);
#664=EDGE_CURVE('',#557,#557,#462,.T.);
#665=EDGE_CURVE('',#558,#558,#463,.T.);
#666=EDGE_CURVE('',#558,#557,#311,.T.);
#667=EDGE_CURVE('',#527,#559,#312,.T.);
#668=EDGE_CURVE('',#559,#559,#464,.T.);
#669=EDGE_CURVE('',#560,#560,#465,.T.);
#670=EDGE_CURVE('',#560,#559,#313,.T.);
#671=EDGE_CURVE('',#549,#561,#314,.T.);
#672=EDGE_CURVE('',#561,#561,#466,.T.);
#673=EDGE_CURVE('',#562,#562,#467,.T.);
#674=EDGE_CURVE('',#562,#561,#315,.T.);
#675=EDGE_CURVE('',#528,#563,#316,.T.);
#676=EDGE_CURVE('',#563,#563,#468,.T.);
#677=EDGE_CURVE('',#564,#564,#469,.T.);
#678=EDGE_CURVE('',#564,#563,#317,.T.);
#679=EDGE_CURVE('',#548,#565,#318,.T.);
#680=EDGE_CURVE('',#565,#565,#470,.T.);
#681=EDGE_CURVE('',#566,#566,#471,.T.);
#682=EDGE_CURVE('',#566,#565,#319,.T.);
#683=EDGE_CURVE('',#529,#567,#320,.T.);
#684=EDGE_CURVE('',#567,#567,#472,.T.);
#685=EDGE_CURVE('',#568,#568,#473,.T.);
#686=EDGE_CURVE('',#568,#567,#321,.T.);
#687=EDGE_CURVE('',#547,#569,#322,.T.);
#688=EDGE_CURVE('',#569,#569,#474,.T.);
#689=EDGE_CURVE('',#546,#570,#323,.T.);
#690=EDGE_CURVE('',#570,#570,#475,.T.);
#691=EDGE_CURVE('',#545,#571,#324,.T.);
#692=EDGE_CURVE('',#571,#571,#476,.T.);
#693=EDGE_CURVE('',#544,#572,#325,.T.);
#694=EDGE_CURVE('',#572,#572,#477,.T.);
#695=EDGE_CURVE('',#543,#573,#326,.T.);
#696=EDGE_CURVE('',#573,#573,#478,.T.);
#697=EDGE_CURVE('',#542,#574,#327,.T.);
#698=EDGE_CURVE('',#574,#574,#479,.T.);
#699=EDGE_CURVE('',#575,#575,#480,.T.);
#700=EDGE_CURVE('',#575,#576,#328,.T.);
#701=EDGE_CURVE('',#576,#576,#481,.T.);
#702=EDGE_CURVE('',#577,#577,#482,.T.);
#703=EDGE_CURVE('',#577,#578,#329,.T.);
#704=EDGE_CURVE('',#578,#578,#483,.T.);
#705=EDGE_CURVE('',#579,#579,#484,.T.);
#706=EDGE_CURVE('',#579,#580,#330,.T.);
#707=EDGE_CURVE('',#580,#580,#485,.T.);
#708=EDGE_CURVE('',#581,#581,#486,.T.);
#709=EDGE_CURVE('',#581,#582,#331,.T.);
#710=EDGE_CURVE('',#582,#582,#487,.T.);
#711=EDGE_CURVE('',#583,#583,#488,.T.);
#712=EDGE_CURVE('',#583,#584,#332,.T.);
#713=EDGE_CURVE('',#584,#584,#489,.T.);
#714=EDGE_CURVE('',#585,#585,#490,.T.);
#715=EDGE_CURVE('',#585,#586,#333,.T.);
#716=EDGE_CURVE('',#586,#586,#491,.T.);
#717=EDGE_CURVE('',#587,#587,#492,.T.);
#718=EDGE_CURVE('',#587,#588,#334,.T.);
#719=EDGE_CURVE('',#588,#588,#493,.T.);
#720=EDGE_CURVE('',#589,#589,#494,.T.);
#721=EDGE_CURVE('',#589,#590,#335,.T.);
#722=EDGE_CURVE('',#590,#590,#495,.T.);
#723=EDGE_CURVE('',#591,#591,#496,.T.);
#724=EDGE_CURVE('',#591,#592,#336,.T.);
#725=EDGE_CURVE('',#592,#592,#497,.T.);
#726=EDGE_CURVE('',#541,#593,#337,.T.);
#727=EDGE_CURVE('',#593,#593,#498,.T.);
#728=EDGE_CURVE('',#540,#594,#338,.T.);
#729=EDGE_CURVE('',#594,#594,#499,.T.);
#730=EDGE_CURVE('',#539,#595,#339,.T.);
#731=EDGE_CURVE('',#595,#595,#500,.T.);
#732=EDGE_CURVE('',#538,#596,#340,.T.);
#733=EDGE_CURVE('',#596,#596,#501,.T.);
#734=EDGE_CURVE('',#537,#597,#341,.T.);
#735=EDGE_CURVE('',#597,#597,#502,.T.);
#736=EDGE_CURVE('',#536,#598,#342,.T.);
#737=EDGE_CURVE('',#598,#598,#503,.T.);
#738=EDGE_CURVE('',#535,#599,#343,.T.);
#739=EDGE_CURVE('',#599,#599,#504,.T.);
#740=EDGE_CURVE('',#534,#600,#344,.T.);
#741=EDGE_CURVE('',#600,#600,#505,.T.);
#742=EDGE_CURVE('',#601,#601,#506,.T.);
#743=EDGE_CURVE('',#601,#533,#345,.T.);
#744=EDGE_CURVE('',#602,#602,#507,.T.);
#745=EDGE_CURVE('',#602,#530,#346,.T.);
#746=EDGE_CURVE('',#603,#603,#508,.T.);
#747=EDGE_CURVE('',#603,#531,#347,.T.);
#748=EDGE_CURVE('',#604,#604,#509,.T.);
#749=EDGE_CURVE('',#604,#532,#348,.T.);
#750=EDGE_CURVE('',#605,#606,#349,.T.);
#751=EDGE_CURVE('',#606,#518,#350,.T.);
#752=EDGE_CURVE('',#605,#525,#351,.T.);
#753=EDGE_CURVE('',#607,#605,#510,.T.);
#754=EDGE_CURVE('',#607,#524,#352,.T.);
#755=EDGE_CURVE('',#608,#607,#353,.T.);
#756=EDGE_CURVE('',#608,#523,#354,.T.);
#757=EDGE_CURVE('',#609,#608,#511,.T.);
#758=EDGE_CURVE('',#609,#522,#355,.T.);
#759=EDGE_CURVE('',#610,#609,#356,.T.);
#760=EDGE_CURVE('',#610,#521,#357,.T.);
#761=EDGE_CURVE('',#611,#610,#512,.T.);
#762=EDGE_CURVE('',#611,#520,#358,.T.);
#763=EDGE_CURVE('',#612,#611,#359,.T.);
#764=EDGE_CURVE('',#612,#519,#360,.T.);
#765=EDGE_CURVE('',#606,#612,#513,.T.);
#766=ORIENTED_EDGE('',*,*,#613,.F.);
#767=ORIENTED_EDGE('',*,*,#614,.T.);
#768=ORIENTED_EDGE('',*,*,#615,.F.);
#769=ORIENTED_EDGE('',*,*,#614,.F.);
#770=ORIENTED_EDGE('',*,*,#616,.T.);
#771=ORIENTED_EDGE('',*,*,#617,.T.);
#772=ORIENTED_EDGE('',*,*,#618,.T.);
#773=ORIENTED_EDGE('',*,*,#617,.F.);
#774=ORIENTED_EDGE('',*,*,#619,.T.);
#775=ORIENTED_EDGE('',*,*,#620,.T.);
#776=ORIENTED_EDGE('',*,*,#621,.T.);
#777=ORIENTED_EDGE('',*,*,#622,.T.);
#778=ORIENTED_EDGE('',*,*,#623,.T.);
#779=ORIENTED_EDGE('',*,*,#624,.T.);
#780=ORIENTED_EDGE('',*,*,#625,.T.);
#781=ORIENTED_EDGE('',*,*,#626,.T.);
#782=ORIENTED_EDGE('',*,*,#616,.F.);
#783=ORIENTED_EDGE('',*,*,#627,.F.);
#784=ORIENTED_EDGE('',*,*,#628,.F.);
#785=ORIENTED_EDGE('',*,*,#629,.F.);
#786=ORIENTED_EDGE('',*,*,#630,.F.);
#787=ORIENTED_EDGE('',*,*,#631,.T.);
#788=ORIENTED_EDGE('',*,*,#632,.T.);
#789=ORIENTED_EDGE('',*,*,#633,.T.);
#790=ORIENTED_EDGE('',*,*,#634,.T.);
#791=ORIENTED_EDGE('',*,*,#635,.T.);
#792=ORIENTED_EDGE('',*,*,#636,.T.);
#793=ORIENTED_EDGE('',*,*,#637,.T.);
#794=ORIENTED_EDGE('',*,*,#638,.T.);
#795=ORIENTED_EDGE('',*,*,#639,.T.);
#796=ORIENTED_EDGE('',*,*,#640,.T.);
#797=ORIENTED_EDGE('',*,*,#641,.T.);
#798=ORIENTED_EDGE('',*,*,#642,.T.);
#799=ORIENTED_EDGE('',*,*,#643,.T.);
#800=ORIENTED_EDGE('',*,*,#644,.T.);
#801=ORIENTED_EDGE('',*,*,#645,.T.);
#802=ORIENTED_EDGE('',*,*,#646,.T.);
#803=ORIENTED_EDGE('',*,*,#647,.T.);
#804=ORIENTED_EDGE('',*,*,#648,.T.);
#805=ORIENTED_EDGE('',*,*,#649,.F.);
#806=ORIENTED_EDGE('',*,*,#650,.F.);
#807=ORIENTED_EDGE('',*,*,#651,.F.);
#808=ORIENTED_EDGE('',*,*,#652,.F.);
#809=ORIENTED_EDGE('',*,*,#613,.T.);
#810=ORIENTED_EDGE('',*,*,#653,.F.);
#811=ORIENTED_EDGE('',*,*,#654,.T.);
#812=ORIENTED_EDGE('',*,*,#618,.F.);
#813=ORIENTED_EDGE('',*,*,#654,.F.);
#814=ORIENTED_EDGE('',*,*,#652,.T.);
#815=ORIENTED_EDGE('',*,*,#655,.T.);
#816=ORIENTED_EDGE('',*,*,#656,.T.);
#817=ORIENTED_EDGE('',*,*,#655,.F.);
#818=ORIENTED_EDGE('',*,*,#657,.F.);
#819=ORIENTED_EDGE('',*,*,#658,.T.);
#820=ORIENTED_EDGE('',*,*,#656,.F.);
#821=ORIENTED_EDGE('',*,*,#658,.F.);
#822=ORIENTED_EDGE('',*,*,#627,.T.);
#823=ORIENTED_EDGE('',*,*,#659,.T.);
#824=ORIENTED_EDGE('',*,*,#660,.T.);
#825=ORIENTED_EDGE('',*,*,#659,.F.);
#826=ORIENTED_EDGE('',*,*,#661,.F.);
#827=ORIENTED_EDGE('',*,*,#662,.T.);
#828=ORIENTED_EDGE('',*,*,#660,.F.);
#829=ORIENTED_EDGE('',*,*,#662,.F.);
#830=ORIENTED_EDGE('',*,*,#651,.T.);
#831=ORIENTED_EDGE('',*,*,#663,.T.);
#832=ORIENTED_EDGE('',*,*,#664,.T.);
#833=ORIENTED_EDGE('',*,*,#663,.F.);
#834=ORIENTED_EDGE('',*,*,#665,.F.);
#835=ORIENTED_EDGE('',*,*,#666,.T.);
#836=ORIENTED_EDGE('',*,*,#664,.F.);
#837=ORIENTED_EDGE('',*,*,#666,.F.);
#838=ORIENTED_EDGE('',*,*,#628,.T.);
#839=ORIENTED_EDGE('',*,*,#667,.T.);
#840=ORIENTED_EDGE('',*,*,#668,.T.);
#841=ORIENTED_EDGE('',*,*,#667,.F.);
#842=ORIENTED_EDGE('',*,*,#669,.F.);
#843=ORIENTED_EDGE('',*,*,#670,.T.);
#844=ORIENTED_EDGE('',*,*,#668,.F.);
#845=ORIENTED_EDGE('',*,*,#670,.F.);
#846=ORIENTED_EDGE('',*,*,#650,.T.);
#847=ORIENTED_EDGE('',*,*,#671,.T.);
#848=ORIENTED_EDGE('',*,*,#672,.T.);
#849=ORIENTED_EDGE('',*,*,#671,.F.);
#850=ORIENTED_EDGE('',*,*,#673,.F.);
#851=ORIENTED_EDGE('',*,*,#674,.T.);
#852=ORIENTED_EDGE('',*,*,#672,.F.);
#853=ORIENTED_EDGE('',*,*,#674,.F.);
#854=ORIENTED_EDGE('',*,*,#629,.T.);
#855=ORIENTED_EDGE('',*,*,#675,.T.);
#856=ORIENTED_EDGE('',*,*,#676,.T.);
#857=ORIENTED_EDGE('',*,*,#675,.F.);
#858=ORIENTED_EDGE('',*,*,#677,.F.);
#859=ORIENTED_EDGE('',*,*,#678,.T.);
#860=ORIENTED_EDGE('',*,*,#676,.F.);
#861=ORIENTED_EDGE('',*,*,#678,.F.);
#862=ORIENTED_EDGE('',*,*,#649,.T.);
#863=ORIENTED_EDGE('',*,*,#679,.T.);
#864=ORIENTED_EDGE('',*,*,#680,.T.);
#865=ORIENTED_EDGE('',*,*,#679,.F.);
#866=ORIENTED_EDGE('',*,*,#681,.F.);
#867=ORIENTED_EDGE('',*,*,#682,.T.);
#868=ORIENTED_EDGE('',*,*,#680,.F.);
#869=ORIENTED_EDGE('',*,*,#682,.F.);
#870=ORIENTED_EDGE('',*,*,#630,.T.);
#871=ORIENTED_EDGE('',*,*,#683,.T.);
#872=ORIENTED_EDGE('',*,*,#684,.T.);
#873=ORIENTED_EDGE('',*,*,#683,.F.);
#874=ORIENTED_EDGE('',*,*,#685,.F.);
#875=ORIENTED_EDGE('',*,*,#686,.T.);
#876=ORIENTED_EDGE('',*,*,#684,.F.);
#877=ORIENTED_EDGE('',*,*,#686,.F.);
#878=ORIENTED_EDGE('',*,*,#648,.F.);
#879=ORIENTED_EDGE('',*,*,#687,.T.);
#880=ORIENTED_EDGE('',*,*,#688,.F.);
#881=ORIENTED_EDGE('',*,*,#687,.F.);
#882=ORIENTED_EDGE('',*,*,#647,.F.);
#883=ORIENTED_EDGE('',*,*,#689,.T.);
#884=ORIENTED_EDGE('',*,*,#690,.F.);
#885=ORIENTED_EDGE('',*,*,#689,.F.);
#886=ORIENTED_EDGE('',*,*,#646,.F.);
#887=ORIENTED_EDGE('',*,*,#691,.T.);
#888=ORIENTED_EDGE('',*,*,#692,.F.);
#889=ORIENTED_EDGE('',*,*,#691,.F.);
#890=ORIENTED_EDGE('',*,*,#645,.F.);
#891=ORIENTED_EDGE('',*,*,#693,.T.);
#892=ORIENTED_EDGE('',*,*,#694,.F.);
#893=ORIENTED_EDGE('',*,*,#693,.F.);
#894=ORIENTED_EDGE('',*,*,#644,.F.);
#895=ORIENTED_EDGE('',*,*,#695,.T.);
#896=ORIENTED_EDGE('',*,*,#696,.F.);
#897=ORIENTED_EDGE('',*,*,#695,.F.);
#898=ORIENTED_EDGE('',*,*,#643,.F.);
#899=ORIENTED_EDGE('',*,*,#697,.T.);
#900=ORIENTED_EDGE('',*,*,#698,.F.);
#901=ORIENTED_EDGE('',*,*,#697,.F.);
#902=ORIENTED_EDGE('',*,*,#699,.F.);
#903=ORIENTED_EDGE('',*,*,#700,.T.);
#904=ORIENTED_EDGE('',*,*,#701,.F.);
#905=ORIENTED_EDGE('',*,*,#700,.F.);
#906=ORIENTED_EDGE('',*,*,#699,.T.);
#907=ORIENTED_EDGE('',*,*,#653,.T.);
#908=ORIENTED_EDGE('',*,*,#702,.F.);
#909=ORIENTED_EDGE('',*,*,#703,.T.);
#910=ORIENTED_EDGE('',*,*,#704,.F.);
#911=ORIENTED_EDGE('',*,*,#703,.F.);
#912=ORIENTED_EDGE('',*,*,#702,.T.);
#913=ORIENTED_EDGE('',*,*,#665,.T.);
#914=ORIENTED_EDGE('',*,*,#705,.F.);
#915=ORIENTED_EDGE('',*,*,#706,.T.);
#916=ORIENTED_EDGE('',*,*,#707,.F.);
#917=ORIENTED_EDGE('',*,*,#706,.F.);
#918=ORIENTED_EDGE('',*,*,#705,.T.);
#919=ORIENTED_EDGE('',*,*,#681,.T.);
#920=ORIENTED_EDGE('',*,*,#708,.F.);
#921=ORIENTED_EDGE('',*,*,#709,.T.);
#922=ORIENTED_EDGE('',*,*,#710,.F.);
#923=ORIENTED_EDGE('',*,*,#709,.F.);
#924=ORIENTED_EDGE('',*,*,#708,.T.);
#925=ORIENTED_EDGE('',*,*,#677,.T.);
#926=ORIENTED_EDGE('',*,*,#711,.F.);
#927=ORIENTED_EDGE('',*,*,#712,.T.);
#928=ORIENTED_EDGE('',*,*,#713,.F.);
#929=ORIENTED_EDGE('',*,*,#712,.F.);
#930=ORIENTED_EDGE('',*,*,#711,.T.);
#931=ORIENTED_EDGE('',*,*,#657,.T.);
#932=ORIENTED_EDGE('',*,*,#714,.F.);
#933=ORIENTED_EDGE('',*,*,#715,.T.);
#934=ORIENTED_EDGE('',*,*,#716,.F.);
#935=ORIENTED_EDGE('',*,*,#715,.F.);
#936=ORIENTED_EDGE('',*,*,#714,.T.);
#937=ORIENTED_EDGE('',*,*,#669,.T.);
#938=ORIENTED_EDGE('',*,*,#717,.F.);
#939=ORIENTED_EDGE('',*,*,#718,.T.);
#940=ORIENTED_EDGE('',*,*,#719,.F.);
#941=ORIENTED_EDGE('',*,*,#718,.F.);
#942=ORIENTED_EDGE('',*,*,#717,.T.);
#943=ORIENTED_EDGE('',*,*,#685,.T.);
#944=ORIENTED_EDGE('',*,*,#720,.F.);
#945=ORIENTED_EDGE('',*,*,#721,.T.);
#946=ORIENTED_EDGE('',*,*,#722,.F.);
#947=ORIENTED_EDGE('',*,*,#721,.F.);
#948=ORIENTED_EDGE('',*,*,#720,.T.);
#949=ORIENTED_EDGE('',*,*,#673,.T.);
#950=ORIENTED_EDGE('',*,*,#723,.F.);
#951=ORIENTED_EDGE('',*,*,#724,.T.);
#952=ORIENTED_EDGE('',*,*,#725,.F.);
#953=ORIENTED_EDGE('',*,*,#724,.F.);
#954=ORIENTED_EDGE('',*,*,#723,.T.);
#955=ORIENTED_EDGE('',*,*,#661,.T.);
#956=ORIENTED_EDGE('',*,*,#642,.F.);
#957=ORIENTED_EDGE('',*,*,#726,.T.);
#958=ORIENTED_EDGE('',*,*,#727,.F.);
#959=ORIENTED_EDGE('',*,*,#726,.F.);
#960=ORIENTED_EDGE('',*,*,#641,.F.);
#961=ORIENTED_EDGE('',*,*,#728,.T.);
#962=ORIENTED_EDGE('',*,*,#729,.F.);
#963=ORIENTED_EDGE('',*,*,#728,.F.);
#964=ORIENTED_EDGE('',*,*,#640,.F.);
#965=ORIENTED_EDGE('',*,*,#730,.T.);
#966=ORIENTED_EDGE('',*,*,#731,.F.);
#967=ORIENTED_EDGE('',*,*,#730,.F.);
#968=ORIENTED_EDGE('',*,*,#639,.F.);
#969=ORIENTED_EDGE('',*,*,#732,.T.);
#970=ORIENTED_EDGE('',*,*,#733,.F.);
#971=ORIENTED_EDGE('',*,*,#732,.F.);
#972=ORIENTED_EDGE('',*,*,#638,.F.);
#973=ORIENTED_EDGE('',*,*,#734,.T.);
#974=ORIENTED_EDGE('',*,*,#735,.F.);
#975=ORIENTED_EDGE('',*,*,#734,.F.);
#976=ORIENTED_EDGE('',*,*,#637,.F.);
#977=ORIENTED_EDGE('',*,*,#736,.T.);
#978=ORIENTED_EDGE('',*,*,#737,.F.);
#979=ORIENTED_EDGE('',*,*,#736,.F.);
#980=ORIENTED_EDGE('',*,*,#636,.F.);
#981=ORIENTED_EDGE('',*,*,#738,.T.);
#982=ORIENTED_EDGE('',*,*,#739,.F.);
#983=ORIENTED_EDGE('',*,*,#738,.F.);
#984=ORIENTED_EDGE('',*,*,#635,.F.);
#985=ORIENTED_EDGE('',*,*,#740,.T.);
#986=ORIENTED_EDGE('',*,*,#741,.F.);
#987=ORIENTED_EDGE('',*,*,#740,.F.);
#988=ORIENTED_EDGE('',*,*,#742,.F.);
#989=ORIENTED_EDGE('',*,*,#743,.T.);
#990=ORIENTED_EDGE('',*,*,#634,.F.);
#991=ORIENTED_EDGE('',*,*,#743,.F.);
#992=ORIENTED_EDGE('',*,*,#744,.F.);
#993=ORIENTED_EDGE('',*,*,#745,.T.);
#994=ORIENTED_EDGE('',*,*,#631,.F.);
#995=ORIENTED_EDGE('',*,*,#745,.F.);
#996=ORIENTED_EDGE('',*,*,#746,.F.);
#997=ORIENTED_EDGE('',*,*,#747,.T.);
#998=ORIENTED_EDGE('',*,*,#632,.F.);
#999=ORIENTED_EDGE('',*,*,#747,.F.);
#1000=ORIENTED_EDGE('',*,*,#748,.F.);
#1001=ORIENTED_EDGE('',*,*,#749,.T.);
#1002=ORIENTED_EDGE('',*,*,#633,.F.);
#1003=ORIENTED_EDGE('',*,*,#749,.F.);
#1004=ORIENTED_EDGE('',*,*,#750,.T.);
#1005=ORIENTED_EDGE('',*,*,#751,.T.);
#1006=ORIENTED_EDGE('',*,*,#626,.F.);
#1007=ORIENTED_EDGE('',*,*,#752,.F.);
#1008=ORIENTED_EDGE('',*,*,#753,.T.);
#1009=ORIENTED_EDGE('',*,*,#752,.T.);
#1010=ORIENTED_EDGE('',*,*,#625,.F.);
#1011=ORIENTED_EDGE('',*,*,#754,.F.);
#1012=ORIENTED_EDGE('',*,*,#755,.T.);
#1013=ORIENTED_EDGE('',*,*,#754,.T.);
#1014=ORIENTED_EDGE('',*,*,#624,.F.);
#1015=ORIENTED_EDGE('',*,*,#756,.F.);
#1016=ORIENTED_EDGE('',*,*,#757,.T.);
#1017=ORIENTED_EDGE('',*,*,#756,.T.);
#1018=ORIENTED_EDGE('',*,*,#623,.F.);
#1019=ORIENTED_EDGE('',*,*,#758,.F.);
#1020=ORIENTED_EDGE('',*,*,#759,.T.);
#1021=ORIENTED_EDGE('',*,*,#758,.T.);
#1022=ORIENTED_EDGE('',*,*,#622,.F.);
#1023=ORIENTED_EDGE('',*,*,#760,.F.);
#1024=ORIENTED_EDGE('',*,*,#761,.T.);
#1025=ORIENTED_EDGE('',*,*,#760,.T.);
#1026=ORIENTED_EDGE('',*,*,#621,.F.);
#1027=ORIENTED_EDGE('',*,*,#762,.F.);
#1028=ORIENTED_EDGE('',*,*,#763,.T.);
#1029=ORIENTED_EDGE('',*,*,#762,.T.);
#1030=ORIENTED_EDGE('',*,*,#620,.F.);
#1031=ORIENTED_EDGE('',*,*,#764,.F.);
#1032=ORIENTED_EDGE('',*,*,#765,.T.);
#1033=ORIENTED_EDGE('',*,*,#764,.T.);
#1034=ORIENTED_EDGE('',*,*,#619,.F.);
#1035=ORIENTED_EDGE('',*,*,#751,.F.);
#1036=ORIENTED_EDGE('',*,*,#765,.F.);
#1037=ORIENTED_EDGE('',*,*,#750,.F.);
#1038=ORIENTED_EDGE('',*,*,#753,.F.);
#1039=ORIENTED_EDGE('',*,*,#755,.F.);
#1040=ORIENTED_EDGE('',*,*,#757,.F.);
#1041=ORIENTED_EDGE('',*,*,#759,.F.);
#1042=ORIENTED_EDGE('',*,*,#761,.F.);
#1043=ORIENTED_EDGE('',*,*,#763,.F.);
#1044=ORIENTED_EDGE('',*,*,#688,.T.);
#1045=ORIENTED_EDGE('',*,*,#690,.T.);
#1046=ORIENTED_EDGE('',*,*,#692,.T.);
#1047=ORIENTED_EDGE('',*,*,#694,.T.);
#1048=ORIENTED_EDGE('',*,*,#696,.T.);
#1049=ORIENTED_EDGE('',*,*,#698,.T.);
#1050=ORIENTED_EDGE('',*,*,#704,.T.);
#1051=ORIENTED_EDGE('',*,*,#710,.T.);
#1052=ORIENTED_EDGE('',*,*,#716,.T.);
#1053=ORIENTED_EDGE('',*,*,#722,.T.);
#1054=ORIENTED_EDGE('',*,*,#727,.T.);
#1055=ORIENTED_EDGE('',*,*,#729,.T.);
#1056=ORIENTED_EDGE('',*,*,#731,.T.);
#1057=ORIENTED_EDGE('',*,*,#733,.T.);
#1058=ORIENTED_EDGE('',*,*,#735,.T.);
#1059=ORIENTED_EDGE('',*,*,#737,.T.);
#1060=ORIENTED_EDGE('',*,*,#739,.T.);
#1061=ORIENTED_EDGE('',*,*,#741,.T.);
#1062=ORIENTED_EDGE('',*,*,#742,.T.);
#1063=ORIENTED_EDGE('',*,*,#748,.T.);
#1064=ORIENTED_EDGE('',*,*,#746,.T.);
#1065=ORIENTED_EDGE('',*,*,#744,.T.);
#1066=ORIENTED_EDGE('',*,*,#725,.T.);
#1067=ORIENTED_EDGE('',*,*,#719,.T.);
#1068=ORIENTED_EDGE('',*,*,#713,.T.);
#1069=ORIENTED_EDGE('',*,*,#707,.T.);
#1070=ORIENTED_EDGE('',*,*,#701,.T.);
#1071=ORIENTED_EDGE('',*,*,#615,.T.);
#1072=CYLINDRICAL_SURFACE('',#1192,3.);
#1073=CYLINDRICAL_SURFACE('',#1229,2.05);
#1074=CYLINDRICAL_SURFACE('',#1233,2.05);
#1075=CYLINDRICAL_SURFACE('',#1237,2.05);
#1076=CYLINDRICAL_SURFACE('',#1241,2.05);
#1077=CYLINDRICAL_SURFACE('',#1245,2.05);
#1078=CYLINDRICAL_SURFACE('',#1249,2.05);
#1079=CYLINDRICAL_SURFACE('',#1253,2.05);
#1080=CYLINDRICAL_SURFACE('',#1257,2.05);
#1081=CYLINDRICAL_SURFACE('',#1261,2.05);
#1082=CYLINDRICAL_SURFACE('',#1263,2.2);
#1083=CYLINDRICAL_SURFACE('',#1265,2.20000000000001);
#1084=CYLINDRICAL_SURFACE('',#1267,2.19999999999999);
#1085=CYLINDRICAL_SURFACE('',#1269,2.2);
#1086=CYLINDRICAL_SURFACE('',#1271,2.20000000000001);
#1087=CYLINDRICAL_SURFACE('',#1273,2.20000000000001);
#1088=CYLINDRICAL_SURFACE('',#1275,4.5);
#1089=CYLINDRICAL_SURFACE('',#1279,4.5);
#1090=CYLINDRICAL_SURFACE('',#1283,4.5);
#1091=CYLINDRICAL_SURFACE('',#1287,4.5);
#1092=CYLINDRICAL_SURFACE('',#1291,4.49999999999999);
#1093=CYLINDRICAL_SURFACE('',#1295,4.5);
#1094=CYLINDRICAL_SURFACE('',#1299,4.50000000000001);
#1095=CYLINDRICAL_SURFACE('',#1303,4.5);
#1096=CYLINDRICAL_SURFACE('',#1307,4.5);
#1097=CYLINDRICAL_SURFACE('',#1311,3.3);
#1098=CYLINDRICAL_SURFACE('',#1313,3.3);
#1099=CYLINDRICAL_SURFACE('',#1315,3.3);
#1100=CYLINDRICAL_SURFACE('',#1317,3.3);
#1101=CYLINDRICAL_SURFACE('',#1319,3.3);
#1102=CYLINDRICAL_SURFACE('',#1321,3.3);
#1103=CYLINDRICAL_SURFACE('',#1323,3.3);
#1104=CYLINDRICAL_SURFACE('',#1325,3.3);
#1105=CYLINDRICAL_SURFACE('',#1327,3.7);
#1106=CYLINDRICAL_SURFACE('',#1329,3.7);
#1107=CYLINDRICAL_SURFACE('',#1331,3.7);
#1108=CYLINDRICAL_SURFACE('',#1333,3.7);
#1109=CYLINDRICAL_SURFACE('',#1336,0.999999999999979);
#1110=CYLINDRICAL_SURFACE('',#1339,1.00000000000003);
#1111=CYLINDRICAL_SURFACE('',#1342,0.999999999999974);
#1112=CYLINDRICAL_SURFACE('',#1345,0.999999999999979);
#1113=ADVANCED_FACE('',(#104),#1072,.F.);
#1114=ADVANCED_FACE('',(#105),#95,.F.);
#1115=ADVANCED_FACE('',(#106,#15,#16,#17,#18,#19,#20,#21,#22,#23,#24,#25,
#26,#27,#28,#29,#30,#31,#32,#33,#34,#35,#36,#37,#38,#39,#40,#41,#42),#80,
 .T.);
#1116=ADVANCED_FACE('',(#107),#1073,.F.);
#1117=ADVANCED_FACE('',(#108),#96,.F.);
#1118=ADVANCED_FACE('',(#109),#1074,.F.);
#1119=ADVANCED_FACE('',(#110),#97,.F.);
#1120=ADVANCED_FACE('',(#111),#1075,.F.);
#1121=ADVANCED_FACE('',(#112),#98,.F.);
#1122=ADVANCED_FACE('',(#113),#1076,.F.);
#1123=ADVANCED_FACE('',(#114),#99,.F.);
#1124=ADVANCED_FACE('',(#115),#1077,.F.);
#1125=ADVANCED_FACE('',(#116),#100,.F.);
#1126=ADVANCED_FACE('',(#117),#1078,.F.);
#1127=ADVANCED_FACE('',(#118),#101,.F.);
#1128=ADVANCED_FACE('',(#119),#1079,.F.);
#1129=ADVANCED_FACE('',(#120),#102,.F.);
#1130=ADVANCED_FACE('',(#121),#1080,.F.);
#1131=ADVANCED_FACE('',(#122),#103,.F.);
#1132=ADVANCED_FACE('',(#123),#1081,.F.);
#1133=ADVANCED_FACE('',(#124),#1082,.F.);
#1134=ADVANCED_FACE('',(#125),#1083,.F.);
#1135=ADVANCED_FACE('',(#126),#1084,.F.);
#1136=ADVANCED_FACE('',(#127),#1085,.F.);
#1137=ADVANCED_FACE('',(#128),#1086,.F.);
#1138=ADVANCED_FACE('',(#129),#1087,.F.);
#1139=ADVANCED_FACE('',(#130),#1088,.T.);
#1140=ADVANCED_FACE('',(#131,#43),#81,.F.);
#1141=ADVANCED_FACE('',(#132),#1089,.T.);
#1142=ADVANCED_FACE('',(#133,#44),#82,.F.);
#1143=ADVANCED_FACE('',(#134),#1090,.T.);
#1144=ADVANCED_FACE('',(#135,#45),#83,.F.);
#1145=ADVANCED_FACE('',(#136),#1091,.T.);
#1146=ADVANCED_FACE('',(#137,#46),#84,.F.);
#1147=ADVANCED_FACE('',(#138),#1092,.T.);
#1148=ADVANCED_FACE('',(#139,#47),#85,.F.);
#1149=ADVANCED_FACE('',(#140),#1093,.T.);
#1150=ADVANCED_FACE('',(#141,#48),#86,.F.);
#1151=ADVANCED_FACE('',(#142),#1094,.T.);
#1152=ADVANCED_FACE('',(#143,#49),#87,.F.);
#1153=ADVANCED_FACE('',(#144),#1095,.T.);
#1154=ADVANCED_FACE('',(#145,#50),#88,.F.);
#1155=ADVANCED_FACE('',(#146),#1096,.T.);
#1156=ADVANCED_FACE('',(#147,#51),#89,.F.);
#1157=ADVANCED_FACE('',(#148),#1097,.F.);
#1158=ADVANCED_FACE('',(#149),#1098,.F.);
#1159=ADVANCED_FACE('',(#150),#1099,.F.);
#1160=ADVANCED_FACE('',(#151),#1100,.F.);
#1161=ADVANCED_FACE('',(#152),#1101,.F.);
#1162=ADVANCED_FACE('',(#153),#1102,.F.);
#1163=ADVANCED_FACE('',(#154),#1103,.F.);
#1164=ADVANCED_FACE('',(#155),#1104,.F.);
#1165=ADVANCED_FACE('',(#156),#1105,.F.);
#1166=ADVANCED_FACE('',(#157),#1106,.F.);
#1167=ADVANCED_FACE('',(#158),#1107,.F.);
#1168=ADVANCED_FACE('',(#159),#1108,.F.);
#1169=ADVANCED_FACE('',(#160),#90,.T.);
#1170=ADVANCED_FACE('',(#161),#1109,.T.);
#1171=ADVANCED_FACE('',(#162),#91,.T.);
#1172=ADVANCED_FACE('',(#163),#1110,.T.);
#1173=ADVANCED_FACE('',(#164),#92,.T.);
#1174=ADVANCED_FACE('',(#165),#1111,.T.);
#1175=ADVANCED_FACE('',(#166),#93,.T.);
#1176=ADVANCED_FACE('',(#167),#1112,.T.);
#1177=ADVANCED_FACE('',(#168,#52,#53,#54,#55,#56,#57,#58,#59,#60,#61,#62,
#63,#64,#65,#66,#67,#68,#69,#70,#71,#72,#73,#74,#75,#76,#77,#78,#79),#94,
 .F.);
#1178=CLOSED_SHELL('',(#1113,#1114,#1115,#1116,#1117,#1118,#1119,#1120,
#1121,#1122,#1123,#1124,#1125,#1126,#1127,#1128,#1129,#1130,#1131,#1132,
#1133,#1134,#1135,#1136,#1137,#1138,#1139,#1140,#1141,#1142,#1143,#1144,
#1145,#1146,#1147,#1148,#1149,#1150,#1151,#1152,#1153,#1154,#1155,#1156,
#1157,#1158,#1159,#1160,#1161,#1162,#1163,#1164,#1165,#1166,#1167,#1168,
#1169,#1170,#1171,#1172,#1173,#1174,#1175,#1176,#1177));
#1179=DERIVED_UNIT_ELEMENT(#1181,1.);
#1180=DERIVED_UNIT_ELEMENT(#2047,-3.);
#1181=(
MASS_UNIT()
NAMED_UNIT(*)
SI_UNIT(.KILO.,.GRAM.)
);
#1182=DERIVED_UNIT((#1179,#1180));
#1183=MEASURE_REPRESENTATION_ITEM('density measure',
POSITIVE_RATIO_MEASURE(7850.),#1182);
#1184=PROPERTY_DEFINITION_REPRESENTATION(#1189,#1186);
#1185=PROPERTY_DEFINITION_REPRESENTATION(#1190,#1187);
#1186=REPRESENTATION('material name',(#1188),#2044);
#1187=REPRESENTATION('density',(#1183),#2044);
#1188=DESCRIPTIVE_REPRESENTATION_ITEM('Steel','Steel');
#1189=PROPERTY_DEFINITION('material property','material name',#2054);
#1190=PROPERTY_DEFINITION('material property','density of part',#2054);
#1191=AXIS2_PLACEMENT_3D('',#1724,#1348,#1349);
#1192=AXIS2_PLACEMENT_3D('',#1725,#1350,#1351);
#1193=AXIS2_PLACEMENT_3D('',#1727,#1352,#1353);
#1194=AXIS2_PLACEMENT_3D('',#1730,#1355,#1356);
#1195=AXIS2_PLACEMENT_3D('',#1731,#1357,#1358);
#1196=AXIS2_PLACEMENT_3D('',#1733,#1359,#1360);
#1197=AXIS2_PLACEMENT_3D('',#1736,#1362,#1363);
#1198=AXIS2_PLACEMENT_3D('',#1737,#1364,#1365);
#1199=AXIS2_PLACEMENT_3D('',#1740,#1366,#1367);
#1200=AXIS2_PLACEMENT_3D('',#1744,#1369,#1370);
#1201=AXIS2_PLACEMENT_3D('',#1748,#1372,#1373);
#1202=AXIS2_PLACEMENT_3D('',#1752,#1375,#1376);
#1203=AXIS2_PLACEMENT_3D('',#1755,#1378,#1379);
#1204=AXIS2_PLACEMENT_3D('',#1757,#1380,#1381);
#1205=AXIS2_PLACEMENT_3D('',#1759,#1382,#1383);
#1206=AXIS2_PLACEMENT_3D('',#1761,#1384,#1385);
#1207=AXIS2_PLACEMENT_3D('',#1763,#1386,#1387);
#1208=AXIS2_PLACEMENT_3D('',#1765,#1388,#1389);
#1209=AXIS2_PLACEMENT_3D('',#1767,#1390,#1391);
#1210=AXIS2_PLACEMENT_3D('',#1769,#1392,#1393);
#1211=AXIS2_PLACEMENT_3D('',#1771,#1394,#1395);
#1212=AXIS2_PLACEMENT_3D('',#1773,#1396,#1397);
#1213=AXIS2_PLACEMENT_3D('',#1775,#1398,#1399);
#1214=AXIS2_PLACEMENT_3D('',#1777,#1400,#1401);
#1215=AXIS2_PLACEMENT_3D('',#1779,#1402,#1403);
#1216=AXIS2_PLACEMENT_3D('',#1781,#1404,#1405);
#1217=AXIS2_PLACEMENT_3D('',#1783,#1406,#1407);
#1218=AXIS2_PLACEMENT_3D('',#1785,#1408,#1409);
#1219=AXIS2_PLACEMENT_3D('',#1787,#1410,#1411);
#1220=AXIS2_PLACEMENT_3D('',#1789,#1412,#1413);
#1221=AXIS2_PLACEMENT_3D('',#1791,#1414,#1415);
#1222=AXIS2_PLACEMENT_3D('',#1793,#1416,#1417);
#1223=AXIS2_PLACEMENT_3D('',#1795,#1418,#1419);
#1224=AXIS2_PLACEMENT_3D('',#1797,#1420,#1421);
#1225=AXIS2_PLACEMENT_3D('',#1799,#1422,#1423);
#1226=AXIS2_PLACEMENT_3D('',#1801,#1424,#1425);
#1227=AXIS2_PLACEMENT_3D('',#1803,#1426,#1427);
#1228=AXIS2_PLACEMENT_3D('',#1805,#1428,#1429);
#1229=AXIS2_PLACEMENT_3D('',#1806,#1430,#1431);
#1230=AXIS2_PLACEMENT_3D('',#1808,#1432,#1433);
#1231=AXIS2_PLACEMENT_3D('',#1810,#1435,#1436);
#1232=AXIS2_PLACEMENT_3D('',#1813,#1438,#1439);
#1233=AXIS2_PLACEMENT_3D('',#1814,#1440,#1441);
#1234=AXIS2_PLACEMENT_3D('',#1816,#1442,#1443);
#1235=AXIS2_PLACEMENT_3D('',#1818,#1445,#1446);
#1236=AXIS2_PLACEMENT_3D('',#1821,#1448,#1449);
#1237=AXIS2_PLACEMENT_3D('',#1822,#1450,#1451);
#1238=AXIS2_PLACEMENT_3D('',#1824,#1452,#1453);
#1239=AXIS2_PLACEMENT_3D('',#1826,#1455,#1456);
#1240=AXIS2_PLACEMENT_3D('',#1829,#1458,#1459);
#1241=AXIS2_PLACEMENT_3D('',#1830,#1460,#1461);
#1242=AXIS2_PLACEMENT_3D('',#1832,#1462,#1463);
#1243=AXIS2_PLACEMENT_3D('',#1834,#1465,#1466);
#1244=AXIS2_PLACEMENT_3D('',#1837,#1468,#1469);
#1245=AXIS2_PLACEMENT_3D('',#1838,#1470,#1471);
#1246=AXIS2_PLACEMENT_3D('',#1840,#1472,#1473);
#1247=AXIS2_PLACEMENT_3D('',#1842,#1475,#1476);
#1248=AXIS2_PLACEMENT_3D('',#1845,#1478,#1479);
#1249=AXIS2_PLACEMENT_3D('',#1846,#1480,#1481);
#1250=AXIS2_PLACEMENT_3D('',#1848,#1482,#1483);
#1251=AXIS2_PLACEMENT_3D('',#1850,#1485,#1486);
#1252=AXIS2_PLACEMENT_3D('',#1853,#1488,#1489);
#1253=AXIS2_PLACEMENT_3D('',#1854,#1490,#1491);
#1254=AXIS2_PLACEMENT_3D('',#1856,#1492,#1493);
#1255=AXIS2_PLACEMENT_3D('',#1858,#1495,#1496);
#1256=AXIS2_PLACEMENT_3D('',#1861,#1498,#1499);
#1257=AXIS2_PLACEMENT_3D('',#1862,#1500,#1501);
#1258=AXIS2_PLACEMENT_3D('',#1864,#1502,#1503);
#1259=AXIS2_PLACEMENT_3D('',#1866,#1505,#1506);
#1260=AXIS2_PLACEMENT_3D('',#1869,#1508,#1509);
#1261=AXIS2_PLACEMENT_3D('',#1870,#1510,#1511);
#1262=AXIS2_PLACEMENT_3D('',#1872,#1512,#1513);
#1263=AXIS2_PLACEMENT_3D('',#1874,#1515,#1516);
#1264=AXIS2_PLACEMENT_3D('',#1877,#1518,#1519);
#1265=AXIS2_PLACEMENT_3D('',#1878,#1520,#1521);
#1266=AXIS2_PLACEMENT_3D('',#1881,#1523,#1524);
#1267=AXIS2_PLACEMENT_3D('',#1882,#1525,#1526);
#1268=AXIS2_PLACEMENT_3D('',#1885,#1528,#1529);
#1269=AXIS2_PLACEMENT_3D('',#1886,#1530,#1531);
#1270=AXIS2_PLACEMENT_3D('',#1889,#1533,#1534);
#1271=AXIS2_PLACEMENT_3D('',#1890,#1535,#1536);
#1272=AXIS2_PLACEMENT_3D('',#1893,#1538,#1539);
#1273=AXIS2_PLACEMENT_3D('',#1894,#1540,#1541);
#1274=AXIS2_PLACEMENT_3D('',#1897,#1543,#1544);
#1275=AXIS2_PLACEMENT_3D('',#1898,#1545,#1546);
#1276=AXIS2_PLACEMENT_3D('',#1900,#1547,#1548);
#1277=AXIS2_PLACEMENT_3D('',#1903,#1550,#1551);
#1278=AXIS2_PLACEMENT_3D('',#1904,#1552,#1553);
#1279=AXIS2_PLACEMENT_3D('',#1905,#1554,#1555);
#1280=AXIS2_PLACEMENT_3D('',#1907,#1556,#1557);
#1281=AXIS2_PLACEMENT_3D('',#1910,#1559,#1560);
#1282=AXIS2_PLACEMENT_3D('',#1911,#1561,#1562);
#1283=AXIS2_PLACEMENT_3D('',#1912,#1563,#1564);
#1284=AXIS2_PLACEMENT_3D('',#1914,#1565,#1566);
#1285=AXIS2_PLACEMENT_3D('',#1917,#1568,#1569);
#1286=AXIS2_PLACEMENT_3D('',#1918,#1570,#1571);
#1287=AXIS2_PLACEMENT_3D('',#1919,#1572,#1573);
#1288=AXIS2_PLACEMENT_3D('',#1921,#1574,#1575);
#1289=AXIS2_PLACEMENT_3D('',#1924,#1577,#1578);
#1290=AXIS2_PLACEMENT_3D('',#1925,#1579,#1580);
#1291=AXIS2_PLACEMENT_3D('',#1926,#1581,#1582);
#1292=AXIS2_PLACEMENT_3D('',#1928,#1583,#1584);
#1293=AXIS2_PLACEMENT_3D('',#1931,#1586,#1587);
#1294=AXIS2_PLACEMENT_3D('',#1932,#1588,#1589);
#1295=AXIS2_PLACEMENT_3D('',#1933,#1590,#1591);
#1296=AXIS2_PLACEMENT_3D('',#1935,#1592,#1593);
#1297=AXIS2_PLACEMENT_3D('',#1938,#1595,#1596);
#1298=AXIS2_PLACEMENT_3D('',#1939,#1597,#1598);
#1299=AXIS2_PLACEMENT_3D('',#1940,#1599,#1600);
#1300=AXIS2_PLACEMENT_3D('',#1942,#1601,#1602);
#1301=AXIS2_PLACEMENT_3D('',#1945,#1604,#1605);
#1302=AXIS2_PLACEMENT_3D('',#1946,#1606,#1607);
#1303=AXIS2_PLACEMENT_3D('',#1947,#1608,#1609);
#1304=AXIS2_PLACEMENT_3D('',#1949,#1610,#1611);
#1305=AXIS2_PLACEMENT_3D('',#1952,#1613,#1614);
#1306=AXIS2_PLACEMENT_3D('',#1953,#1615,#1616);
#1307=AXIS2_PLACEMENT_3D('',#1954,#1617,#1618);
#1308=AXIS2_PLACEMENT_3D('',#1956,#1619,#1620);
#1309=AXIS2_PLACEMENT_3D('',#1959,#1622,#1623);
#1310=AXIS2_PLACEMENT_3D('',#1960,#1624,#1625);
#1311=AXIS2_PLACEMENT_3D('',#1961,#1626,#1627);
#1312=AXIS2_PLACEMENT_3D('',#1964,#1629,#1630);
#1313=AXIS2_PLACEMENT_3D('',#1965,#1631,#1632);
#1314=AXIS2_PLACEMENT_3D('',#1968,#1634,#1635);
#1315=AXIS2_PLACEMENT_3D('',#1969,#1636,#1637);
#1316=AXIS2_PLACEMENT_3D('',#1972,#1639,#1640);
#1317=AXIS2_PLACEMENT_3D('',#1973,#1641,#1642);
#1318=AXIS2_PLACEMENT_3D('',#1976,#1644,#1645);
#1319=AXIS2_PLACEMENT_3D('',#1977,#1646,#1647);
#1320=AXIS2_PLACEMENT_3D('',#1980,#1649,#1650);
#1321=AXIS2_PLACEMENT_3D('',#1981,#1651,#1652);
#1322=AXIS2_PLACEMENT_3D('',#1984,#1654,#1655);
#1323=AXIS2_PLACEMENT_3D('',#1985,#1656,#1657);
#1324=AXIS2_PLACEMENT_3D('',#1988,#1659,#1660);
#1325=AXIS2_PLACEMENT_3D('',#1989,#1661,#1662);
#1326=AXIS2_PLACEMENT_3D('',#1992,#1664,#1665);
#1327=AXIS2_PLACEMENT_3D('',#1993,#1666,#1667);
#1328=AXIS2_PLACEMENT_3D('',#1995,#1668,#1669);
#1329=AXIS2_PLACEMENT_3D('',#1997,#1671,#1672);
#1330=AXIS2_PLACEMENT_3D('',#1999,#1673,#1674);
#1331=AXIS2_PLACEMENT_3D('',#2001,#1676,#1677);
#1332=AXIS2_PLACEMENT_3D('',#2003,#1678,#1679);
#1333=AXIS2_PLACEMENT_3D('',#2005,#1681,#1682);
#1334=AXIS2_PLACEMENT_3D('',#2007,#1683,#1684);
#1335=AXIS2_PLACEMENT_3D('',#2009,#1686,#1687);
#1336=AXIS2_PLACEMENT_3D('',#2015,#1691,#1692);
#1337=AXIS2_PLACEMENT_3D('',#2017,#1693,#1694);
#1338=AXIS2_PLACEMENT_3D('',#2019,#1696,#1697);
#1339=AXIS2_PLACEMENT_3D('',#2023,#1700,#1701);
#1340=AXIS2_PLACEMENT_3D('',#2025,#1702,#1703);
#1341=AXIS2_PLACEMENT_3D('',#2027,#1705,#1706);
#1342=AXIS2_PLACEMENT_3D('',#2031,#1709,#1710);
#1343=AXIS2_PLACEMENT_3D('',#2033,#1711,#1712);
#1344=AXIS2_PLACEMENT_3D('',#2035,#1714,#1715);
#1345=AXIS2_PLACEMENT_3D('',#2039,#1718,#1719);
#1346=AXIS2_PLACEMENT_3D('',#2040,#1720,#1721);
#1347=AXIS2_PLACEMENT_3D('',#2041,#1722,#1723);
#1348=DIRECTION('axis',(0.,0.,1.));
#1349=DIRECTION('refdir',(1.,0.,0.));
#1350=DIRECTION('center_axis',(0.,0.,-1.));
#1351=DIRECTION('ref_axis',(1.,0.,0.));
#1352=DIRECTION('center_axis',(0.,0.,-1.));
#1353=DIRECTION('ref_axis',(1.,0.,0.));
#1354=DIRECTION('',(0.,0.,-1.));
#1355=DIRECTION('center_axis',(0.,0.,1.));
#1356=DIRECTION('ref_axis',(1.,0.,0.));
#1357=DIRECTION('center_axis',(0.,0.,1.));
#1358=DIRECTION('ref_axis',(1.,0.,0.));
#1359=DIRECTION('center_axis',(0.,0.,1.));
#1360=DIRECTION('ref_axis',(1.,0.,0.));
#1361=DIRECTION('',(0.707106781186548,8.65956056235494E-17,-0.707106781186547));
#1362=DIRECTION('center_axis',(0.,0.,-1.));
#1363=DIRECTION('ref_axis',(1.,0.,0.));
#1364=DIRECTION('center_axis',(0.,0.,1.));
#1365=DIRECTION('ref_axis',(1.,0.,0.));
#1366=DIRECTION('center_axis',(0.,0.,1.));
#1367=DIRECTION('ref_axis',(-1.,-1.63735691671722E-11,0.));
#1368=DIRECTION('',(1.,0.,0.));
#1369=DIRECTION('center_axis',(0.,0.,1.));
#1370=DIRECTION('ref_axis',(0.,-1.,0.));
#1371=DIRECTION('',(0.,1.,0.));
#1372=DIRECTION('center_axis',(0.,0.,1.));
#1373=DIRECTION('ref_axis',(1.,0.,0.));
#1374=DIRECTION('',(-1.,2.24287479722254E-17,0.));
#1375=DIRECTION('center_axis',(0.,0.,1.));
#1376=DIRECTION('ref_axis',(3.55271367880058E-14,1.,0.));
#1377=DIRECTION('',(3.70074341541719E-16,-1.,0.));
#1378=DIRECTION('center_axis',(0.,0.,1.));
#1379=DIRECTION('ref_axis',(1.,0.,0.));
#1380=DIRECTION('center_axis',(0.,0.,1.));
#1381=DIRECTION('ref_axis',(1.,0.,0.));
#1382=DIRECTION('center_axis',(0.,0.,1.));
#1383=DIRECTION('ref_axis',(1.,0.,0.));
#1384=DIRECTION('center_axis',(0.,0.,1.));
#1385=DIRECTION('ref_axis',(1.,0.,0.));
#1386=DIRECTION('center_axis',(0.,0.,-1.));
#1387=DIRECTION('ref_axis',(-1.,0.,0.));
#1388=DIRECTION('center_axis',(0.,0.,-1.));
#1389=DIRECTION('ref_axis',(-1.,0.,0.));
#1390=DIRECTION('center_axis',(0.,0.,-1.));
#1391=DIRECTION('ref_axis',(-1.,0.,0.));
#1392=DIRECTION('center_axis',(0.,0.,-1.));
#1393=DIRECTION('ref_axis',(-1.,0.,0.));
#1394=DIRECTION('center_axis',(0.,0.,-1.));
#1395=DIRECTION('ref_axis',(1.,0.,0.));
#1396=DIRECTION('center_axis',(0.,0.,-1.));
#1397=DIRECTION('ref_axis',(1.,0.,0.));
#1398=DIRECTION('center_axis',(0.,0.,-1.));
#1399=DIRECTION('ref_axis',(1.,0.,0.));
#1400=DIRECTION('center_axis',(0.,0.,-1.));
#1401=DIRECTION('ref_axis',(1.,0.,0.));
#1402=DIRECTION('center_axis',(0.,0.,-1.));
#1403=DIRECTION('ref_axis',(1.,0.,0.));
#1404=DIRECTION('center_axis',(0.,0.,-1.));
#1405=DIRECTION('ref_axis',(1.,0.,0.));
#1406=DIRECTION('center_axis',(0.,0.,-1.));
#1407=DIRECTION('ref_axis',(1.,0.,0.));
#1408=DIRECTION('center_axis',(0.,0.,-1.));
#1409=DIRECTION('ref_axis',(1.,0.,0.));
#1410=DIRECTION('center_axis',(0.,0.,-1.));
#1411=DIRECTION('ref_axis',(1.,0.,0.));
#1412=DIRECTION('center_axis',(0.,0.,-1.));
#1413=DIRECTION('ref_axis',(1.,0.,0.));
#1414=DIRECTION('center_axis',(0.,0.,-1.));
#1415=DIRECTION('ref_axis',(1.,0.,0.));
#1416=DIRECTION('center_axis',(0.,0.,-1.));
#1417=DIRECTION('ref_axis',(1.,0.,0.));
#1418=DIRECTION('center_axis',(0.,0.,-1.));
#1419=DIRECTION('ref_axis',(1.,0.,0.));
#1420=DIRECTION('center_axis',(0.,0.,-1.));
#1421=DIRECTION('ref_axis',(1.,0.,0.));
#1422=DIRECTION('center_axis',(0.,0.,1.));
#1423=DIRECTION('ref_axis',(1.,0.,0.));
#1424=DIRECTION('center_axis',(0.,0.,1.));
#1425=DIRECTION('ref_axis',(1.,0.,0.));
#1426=DIRECTION('center_axis',(0.,0.,1.));
#1427=DIRECTION('ref_axis',(1.,0.,0.));
#1428=DIRECTION('center_axis',(0.,0.,1.));
#1429=DIRECTION('ref_axis',(1.,0.,0.));
#1430=DIRECTION('center_axis',(0.,0.,-1.));
#1431=DIRECTION('ref_axis',(1.,0.,0.));
#1432=DIRECTION('center_axis',(0.,0.,1.));
#1433=DIRECTION('ref_axis',(1.,0.,0.));
#1434=DIRECTION('',(0.,0.,1.));
#1435=DIRECTION('center_axis',(0.,0.,1.));
#1436=DIRECTION('ref_axis',(1.,0.,0.));
#1437=DIRECTION('',(0.707106781186548,8.65956056235494E-17,-0.707106781186547));
#1438=DIRECTION('center_axis',(0.,0.,-1.));
#1439=DIRECTION('ref_axis',(1.,0.,0.));
#1440=DIRECTION('center_axis',(0.,0.,-1.));
#1441=DIRECTION('ref_axis',(1.,0.,0.));
#1442=DIRECTION('center_axis',(0.,0.,1.));
#1443=DIRECTION('ref_axis',(1.,0.,0.));
#1444=DIRECTION('',(0.,0.,1.));
#1445=DIRECTION('center_axis',(0.,0.,1.));
#1446=DIRECTION('ref_axis',(1.,0.,0.));
#1447=DIRECTION('',(0.707106781186548,8.65956056235494E-17,-0.707106781186547));
#1448=DIRECTION('center_axis',(0.,0.,-1.));
#1449=DIRECTION('ref_axis',(1.,0.,0.));
#1450=DIRECTION('center_axis',(0.,0.,-1.));
#1451=DIRECTION('ref_axis',(1.,0.,0.));
#1452=DIRECTION('center_axis',(0.,0.,1.));
#1453=DIRECTION('ref_axis',(1.,0.,0.));
#1454=DIRECTION('',(0.,0.,1.));
#1455=DIRECTION('center_axis',(0.,0.,1.));
#1456=DIRECTION('ref_axis',(1.,0.,0.));
#1457=DIRECTION('',(0.707106781186548,8.65956056235494E-17,-0.707106781186547));
#1458=DIRECTION('center_axis',(0.,0.,-1.));
#1459=DIRECTION('ref_axis',(1.,0.,0.));
#1460=DIRECTION('center_axis',(0.,0.,-1.));
#1461=DIRECTION('ref_axis',(1.,0.,0.));
#1462=DIRECTION('center_axis',(0.,0.,1.));
#1463=DIRECTION('ref_axis',(1.,0.,0.));
#1464=DIRECTION('',(0.,0.,1.));
#1465=DIRECTION('center_axis',(0.,0.,1.));
#1466=DIRECTION('ref_axis',(1.,0.,0.));
#1467=DIRECTION('',(0.707106781186548,8.65956056235494E-17,-0.707106781186547));
#1468=DIRECTION('center_axis',(0.,0.,-1.));
#1469=DIRECTION('ref_axis',(1.,0.,0.));
#1470=DIRECTION('center_axis',(0.,0.,-1.));
#1471=DIRECTION('ref_axis',(1.,0.,0.));
#1472=DIRECTION('center_axis',(0.,0.,1.));
#1473=DIRECTION('ref_axis',(1.,0.,0.));
#1474=DIRECTION('',(0.,0.,1.));
#1475=DIRECTION('center_axis',(0.,0.,1.));
#1476=DIRECTION('ref_axis',(1.,0.,0.));
#1477=DIRECTION('',(0.707106781186548,8.65956056235494E-17,-0.707106781186547));
#1478=DIRECTION('center_axis',(0.,0.,-1.));
#1479=DIRECTION('ref_axis',(1.,0.,0.));
#1480=DIRECTION('center_axis',(0.,0.,-1.));
#1481=DIRECTION('ref_axis',(1.,0.,0.));
#1482=DIRECTION('center_axis',(0.,0.,1.));
#1483=DIRECTION('ref_axis',(1.,0.,0.));
#1484=DIRECTION('',(0.,0.,1.));
#1485=DIRECTION('center_axis',(0.,0.,1.));
#1486=DIRECTION('ref_axis',(1.,0.,0.));
#1487=DIRECTION('',(0.707106781186548,8.65956056235494E-17,-0.707106781186547));
#1488=DIRECTION('center_axis',(0.,0.,-1.));
#1489=DIRECTION('ref_axis',(1.,0.,0.));
#1490=DIRECTION('center_axis',(0.,0.,-1.));
#1491=DIRECTION('ref_axis',(1.,0.,0.));
#1492=DIRECTION('center_axis',(0.,0.,1.));
#1493=DIRECTION('ref_axis',(1.,0.,0.));
#1494=DIRECTION('',(0.,0.,1.));
#1495=DIRECTION('center_axis',(0.,0.,1.));
#1496=DIRECTION('ref_axis',(1.,0.,0.));
#1497=DIRECTION('',(0.707106781186548,8.65956056235494E-17,-0.707106781186547));
#1498=DIRECTION('center_axis',(0.,0.,-1.));
#1499=DIRECTION('ref_axis',(1.,0.,0.));
#1500=DIRECTION('center_axis',(0.,0.,-1.));
#1501=DIRECTION('ref_axis',(1.,0.,0.));
#1502=DIRECTION('center_axis',(0.,0.,1.));
#1503=DIRECTION('ref_axis',(1.,0.,0.));
#1504=DIRECTION('',(0.,0.,1.));
#1505=DIRECTION('center_axis',(0.,0.,1.));
#1506=DIRECTION('ref_axis',(1.,0.,0.));
#1507=DIRECTION('',(0.707106781186548,8.65956056235494E-17,-0.707106781186547));
#1508=DIRECTION('center_axis',(0.,0.,-1.));
#1509=DIRECTION('ref_axis',(1.,0.,0.));
#1510=DIRECTION('center_axis',(0.,0.,-1.));
#1511=DIRECTION('ref_axis',(1.,0.,0.));
#1512=DIRECTION('center_axis',(0.,0.,1.));
#1513=DIRECTION('ref_axis',(1.,0.,0.));
#1514=DIRECTION('',(0.,0.,1.));
#1515=DIRECTION('center_axis',(0.,0.,-1.));
#1516=DIRECTION('ref_axis',(1.,0.,0.));
#1517=DIRECTION('',(0.,0.,-1.));
#1518=DIRECTION('center_axis',(0.,0.,1.));
#1519=DIRECTION('ref_axis',(1.,0.,0.));
#1520=DIRECTION('center_axis',(0.,0.,-1.));
#1521=DIRECTION('ref_axis',(1.,0.,0.));
#1522=DIRECTION('',(0.,0.,-1.));
#1523=DIRECTION('center_axis',(0.,0.,1.));
#1524=DIRECTION('ref_axis',(1.,0.,0.));
#1525=DIRECTION('center_axis',(0.,0.,-1.));
#1526=DIRECTION('ref_axis',(1.,0.,0.));
#1527=DIRECTION('',(0.,0.,-1.));
#1528=DIRECTION('center_axis',(0.,0.,1.));
#1529=DIRECTION('ref_axis',(1.,0.,0.));
#1530=DIRECTION('center_axis',(0.,0.,-1.));
#1531=DIRECTION('ref_axis',(1.,0.,0.));
#1532=DIRECTION('',(0.,0.,-1.));
#1533=DIRECTION('center_axis',(0.,0.,1.));
#1534=DIRECTION('ref_axis',(1.,0.,0.));
#1535=DIRECTION('center_axis',(0.,0.,-1.));
#1536=DIRECTION('ref_axis',(1.,0.,0.));
#1537=DIRECTION('',(0.,0.,-1.));
#1538=DIRECTION('center_axis',(0.,0.,1.));
#1539=DIRECTION('ref_axis',(1.,0.,0.));
#1540=DIRECTION('center_axis',(0.,0.,-1.));
#1541=DIRECTION('ref_axis',(1.,0.,0.));
#1542=DIRECTION('',(0.,0.,-1.));
#1543=DIRECTION('center_axis',(0.,0.,1.));
#1544=DIRECTION('ref_axis',(1.,0.,0.));
#1545=DIRECTION('center_axis',(0.,0.,-1.));
#1546=DIRECTION('ref_axis',(1.,0.,0.));
#1547=DIRECTION('center_axis',(0.,0.,-1.));
#1548=DIRECTION('ref_axis',(1.,0.,0.));
#1549=DIRECTION('',(0.,0.,1.));
#1550=DIRECTION('center_axis',(0.,0.,1.));
#1551=DIRECTION('ref_axis',(1.,0.,0.));
#1552=DIRECTION('center_axis',(0.,0.,1.));
#1553=DIRECTION('ref_axis',(1.,0.,0.));
#1554=DIRECTION('center_axis',(0.,0.,-1.));
#1555=DIRECTION('ref_axis',(1.,0.,0.));
#1556=DIRECTION('center_axis',(0.,0.,-1.));
#1557=DIRECTION('ref_axis',(1.,0.,0.));
#1558=DIRECTION('',(0.,0.,1.));
#1559=DIRECTION('center_axis',(0.,0.,1.));
#1560=DIRECTION('ref_axis',(1.,0.,0.));
#1561=DIRECTION('center_axis',(0.,0.,1.));
#1562=DIRECTION('ref_axis',(1.,0.,0.));
#1563=DIRECTION('center_axis',(0.,0.,-1.));
#1564=DIRECTION('ref_axis',(1.,0.,0.));
#1565=DIRECTION('center_axis',(0.,0.,-1.));
#1566=DIRECTION('ref_axis',(1.,0.,0.));
#1567=DIRECTION('',(0.,0.,1.));
#1568=DIRECTION('center_axis',(0.,0.,1.));
#1569=DIRECTION('ref_axis',(1.,0.,0.));
#1570=DIRECTION('center_axis',(0.,0.,1.));
#1571=DIRECTION('ref_axis',(1.,0.,0.));
#1572=DIRECTION('center_axis',(0.,0.,-1.));
#1573=DIRECTION('ref_axis',(1.,0.,0.));
#1574=DIRECTION('center_axis',(0.,0.,-1.));
#1575=DIRECTION('ref_axis',(1.,0.,0.));
#1576=DIRECTION('',(0.,0.,1.));
#1577=DIRECTION('center_axis',(0.,0.,1.));
#1578=DIRECTION('ref_axis',(1.,0.,0.));
#1579=DIRECTION('center_axis',(0.,0.,1.));
#1580=DIRECTION('ref_axis',(1.,0.,0.));
#1581=DIRECTION('center_axis',(0.,0.,-1.));
#1582=DIRECTION('ref_axis',(1.,0.,0.));
#1583=DIRECTION('center_axis',(0.,0.,-1.));
#1584=DIRECTION('ref_axis',(1.,0.,0.));
#1585=DIRECTION('',(0.,0.,1.));
#1586=DIRECTION('center_axis',(0.,0.,1.));
#1587=DIRECTION('ref_axis',(1.,0.,0.));
#1588=DIRECTION('center_axis',(0.,0.,1.));
#1589=DIRECTION('ref_axis',(1.,0.,0.));
#1590=DIRECTION('center_axis',(0.,0.,-1.));
#1591=DIRECTION('ref_axis',(1.,0.,0.));
#1592=DIRECTION('center_axis',(0.,0.,-1.));
#1593=DIRECTION('ref_axis',(1.,0.,0.));
#1594=DIRECTION('',(0.,0.,1.));
#1595=DIRECTION('center_axis',(0.,0.,1.));
#1596=DIRECTION('ref_axis',(1.,0.,0.));
#1597=DIRECTION('center_axis',(0.,0.,1.));
#1598=DIRECTION('ref_axis',(1.,0.,0.));
#1599=DIRECTION('center_axis',(0.,0.,-1.));
#1600=DIRECTION('ref_axis',(1.,0.,0.));
#1601=DIRECTION('center_axis',(0.,0.,-1.));
#1602=DIRECTION('ref_axis',(1.,0.,0.));
#1603=DIRECTION('',(0.,0.,1.));
#1604=DIRECTION('center_axis',(0.,0.,1.));
#1605=DIRECTION('ref_axis',(1.,0.,0.));
#1606=DIRECTION('center_axis',(0.,0.,1.));
#1607=DIRECTION('ref_axis',(1.,0.,0.));
#1608=DIRECTION('center_axis',(0.,0.,-1.));
#1609=DIRECTION('ref_axis',(1.,0.,0.));
#1610=DIRECTION('center_axis',(0.,0.,-1.));
#1611=DIRECTION('ref_axis',(1.,0.,0.));
#1612=DIRECTION('',(0.,0.,1.));
#1613=DIRECTION('center_axis',(0.,0.,1.));
#1614=DIRECTION('ref_axis',(1.,0.,0.));
#1615=DIRECTION('center_axis',(0.,0.,1.));
#1616=DIRECTION('ref_axis',(1.,0.,0.));
#1617=DIRECTION('center_axis',(0.,0.,-1.));
#1618=DIRECTION('ref_axis',(1.,0.,0.));
#1619=DIRECTION('center_axis',(0.,0.,-1.));
#1620=DIRECTION('ref_axis',(1.,0.,0.));
#1621=DIRECTION('',(0.,0.,1.));
#1622=DIRECTION('center_axis',(0.,0.,1.));
#1623=DIRECTION('ref_axis',(1.,0.,0.));
#1624=DIRECTION('center_axis',(0.,0.,1.));
#1625=DIRECTION('ref_axis',(1.,0.,0.));
#1626=DIRECTION('center_axis',(0.,0.,-1.));
#1627=DIRECTION('ref_axis',(1.,0.,0.));
#1628=DIRECTION('',(0.,0.,-1.));
#1629=DIRECTION('center_axis',(0.,0.,1.));
#1630=DIRECTION('ref_axis',(1.,0.,0.));
#1631=DIRECTION('center_axis',(0.,0.,-1.));
#1632=DIRECTION('ref_axis',(1.,0.,0.));
#1633=DIRECTION('',(0.,0.,-1.));
#1634=DIRECTION('center_axis',(0.,0.,1.));
#1635=DIRECTION('ref_axis',(1.,0.,0.));
#1636=DIRECTION('center_axis',(0.,0.,-1.));
#1637=DIRECTION('ref_axis',(1.,0.,0.));
#1638=DIRECTION('',(0.,0.,-1.));
#1639=DIRECTION('center_axis',(0.,0.,1.));
#1640=DIRECTION('ref_axis',(1.,0.,0.));
#1641=DIRECTION('center_axis',(0.,0.,-1.));
#1642=DIRECTION('ref_axis',(1.,0.,0.));
#1643=DIRECTION('',(0.,0.,-1.));
#1644=DIRECTION('center_axis',(0.,0.,1.));
#1645=DIRECTION('ref_axis',(1.,0.,0.));
#1646=DIRECTION('center_axis',(0.,0.,-1.));
#1647=DIRECTION('ref_axis',(1.,0.,0.));
#1648=DIRECTION('',(0.,0.,-1.));
#1649=DIRECTION('center_axis',(0.,0.,1.));
#1650=DIRECTION('ref_axis',(1.,0.,0.));
#1651=DIRECTION('center_axis',(0.,0.,-1.));
#1652=DIRECTION('ref_axis',(1.,0.,0.));
#1653=DIRECTION('',(0.,0.,-1.));
#1654=DIRECTION('center_axis',(0.,0.,1.));
#1655=DIRECTION('ref_axis',(1.,0.,0.));
#1656=DIRECTION('center_axis',(0.,0.,-1.));
#1657=DIRECTION('ref_axis',(1.,0.,0.));
#1658=DIRECTION('',(0.,0.,-1.));
#1659=DIRECTION('center_axis',(0.,0.,1.));
#1660=DIRECTION('ref_axis',(1.,0.,0.));
#1661=DIRECTION('center_axis',(0.,0.,-1.));
#1662=DIRECTION('ref_axis',(1.,0.,0.));
#1663=DIRECTION('',(0.,0.,-1.));
#1664=DIRECTION('center_axis',(0.,0.,1.));
#1665=DIRECTION('ref_axis',(1.,0.,0.));
#1666=DIRECTION('center_axis',(0.,0.,1.));
#1667=DIRECTION('ref_axis',(-1.,0.,0.));
#1668=DIRECTION('center_axis',(0.,0.,1.));
#1669=DIRECTION('ref_axis',(-1.,0.,0.));
#1670=DIRECTION('',(0.,0.,1.));
#1671=DIRECTION('center_axis',(0.,0.,1.));
#1672=DIRECTION('ref_axis',(-1.,0.,0.));
#1673=DIRECTION('center_axis',(0.,0.,1.));
#1674=DIRECTION('ref_axis',(-1.,0.,0.));
#1675=DIRECTION('',(0.,0.,1.));
#1676=DIRECTION('center_axis',(0.,0.,1.));
#1677=DIRECTION('ref_axis',(-1.,0.,0.));
#1678=DIRECTION('center_axis',(0.,0.,1.));
#1679=DIRECTION('ref_axis',(-1.,0.,0.));
#1680=DIRECTION('',(0.,0.,1.));
#1681=DIRECTION('center_axis',(0.,0.,1.));
#1682=DIRECTION('ref_axis',(-1.,0.,0.));
#1683=DIRECTION('center_axis',(0.,0.,1.));
#1684=DIRECTION('ref_axis',(-1.,0.,0.));
#1685=DIRECTION('',(0.,0.,1.));
#1686=DIRECTION('center_axis',(-1.,-3.70074341541719E-16,0.));
#1687=DIRECTION('ref_axis',(3.70074341541719E-16,-1.,0.));
#1688=DIRECTION('',(3.70074341541719E-16,-1.,0.));
#1689=DIRECTION('',(0.,0.,1.));
#1690=DIRECTION('',(0.,0.,1.));
#1691=DIRECTION('center_axis',(0.,0.,1.));
#1692=DIRECTION('ref_axis',(3.55271367880058E-14,1.,0.));
#1693=DIRECTION('center_axis',(0.,0.,1.));
#1694=DIRECTION('ref_axis',(3.55271367880058E-14,1.,0.));
#1695=DIRECTION('',(0.,0.,1.));
#1696=DIRECTION('center_axis',(2.24287479722254E-17,1.,0.));
#1697=DIRECTION('ref_axis',(-1.,2.24287479722254E-17,0.));
#1698=DIRECTION('',(-1.,2.24287479722254E-17,0.));
#1699=DIRECTION('',(0.,0.,1.));
#1700=DIRECTION('center_axis',(0.,0.,1.));
#1701=DIRECTION('ref_axis',(1.,0.,0.));
#1702=DIRECTION('center_axis',(0.,0.,1.));
#1703=DIRECTION('ref_axis',(1.,0.,0.));
#1704=DIRECTION('',(0.,0.,1.));
#1705=DIRECTION('center_axis',(1.,0.,0.));
#1706=DIRECTION('ref_axis',(0.,1.,0.));
#1707=DIRECTION('',(0.,1.,0.));
#1708=DIRECTION('',(0.,0.,1.));
#1709=DIRECTION('center_axis',(0.,0.,1.));
#1710=DIRECTION('ref_axis',(0.,-1.,0.));
#1711=DIRECTION('center_axis',(0.,0.,1.));
#1712=DIRECTION('ref_axis',(0.,-1.,0.));
#1713=DIRECTION('',(0.,0.,1.));
#1714=DIRECTION('center_axis',(0.,-1.,0.));
#1715=DIRECTION('ref_axis',(1.,0.,0.));
#1716=DIRECTION('',(1.,0.,0.));
#1717=DIRECTION('',(0.,0.,1.));
#1718=DIRECTION('center_axis',(0.,0.,1.));
#1719=DIRECTION('ref_axis',(-1.,-1.63735691671722E-11,0.));
#1720=DIRECTION('center_axis',(0.,0.,1.));
#1721=DIRECTION('ref_axis',(-1.,-1.63735691671722E-11,0.));
#1722=DIRECTION('center_axis',(0.,0.,1.));
#1723=DIRECTION('ref_axis',(1.,0.,0.));
#1724=CARTESIAN_POINT('',(0.,0.,0.));
#1725=CARTESIAN_POINT('Origin',(-34.9999999999511,1.11022307977415E-14,
3.));
#1726=CARTESIAN_POINT('',(-37.9999999999511,1.07348367579973E-14,3.));
#1727=CARTESIAN_POINT('Origin',(-34.9999999999511,1.11022307977415E-14,
3.));
#1728=CARTESIAN_POINT('',(-37.9999999999511,1.07348367579973E-14,0.));
#1729=CARTESIAN_POINT('',(-37.9999999999511,1.14696248374857E-14,3.));
#1730=CARTESIAN_POINT('Origin',(-34.9999999999511,1.11022307977415E-14,
0.));
#1731=CARTESIAN_POINT('Origin',(57.2000000000489,-12.4999997663544,2.6));
#1732=CARTESIAN_POINT('',(54.3500000000489,-12.4999997663544,3.));
#1733=CARTESIAN_POINT('Origin',(57.2000000000489,-12.4999997663544,3.));
#1734=CARTESIAN_POINT('',(55.1500000000489,-12.4999997663544,2.2));
#1735=CARTESIAN_POINT('',(54.7500000000489,-12.4999997663544,2.6));
#1736=CARTESIAN_POINT('Origin',(57.2000000000489,-12.4999997663544,2.2));
#1737=CARTESIAN_POINT('Origin',(4.88853402202949E-11,-1.22257759471722E-11,
3.));
#1738=CARTESIAN_POINT('',(-99.9999999999511,-24.0000000000122,3.));
#1739=CARTESIAN_POINT('',(-98.9999999999511,-24.9999999999959,3.));
#1740=CARTESIAN_POINT('Origin',(-98.9999999999511,-23.9999999999959,3.));
#1741=CARTESIAN_POINT('',(99.0000000000489,-25.0000000000122,3.));
#1742=CARTESIAN_POINT('',(-98.9999999999511,-25.0000000000122,3.));
#1743=CARTESIAN_POINT('',(100.000000000049,-24.0000000000123,3.));
#1744=CARTESIAN_POINT('Origin',(99.0000000000489,-24.0000000000123,3.));
#1745=CARTESIAN_POINT('',(100.000000000049,23.9999999999878,3.));
#1746=CARTESIAN_POINT('',(100.000000000049,-24.0000000000123,3.));
#1747=CARTESIAN_POINT('',(99.0000000000489,24.9999999999878,3.));
#1748=CARTESIAN_POINT('Origin',(99.0000000000489,23.9999999999878,3.));
#1749=CARTESIAN_POINT('',(-98.9999999999511,24.9999999999878,3.));
#1750=CARTESIAN_POINT('',(99.0000000000489,24.9999999999878,3.));
#1751=CARTESIAN_POINT('',(-99.9999999999511,23.9999999999878,3.));
#1752=CARTESIAN_POINT('Origin',(-98.9999999999512,23.9999999999878,3.));
#1753=CARTESIAN_POINT('',(-99.9999999999511,23.9999999999878,3.));
#1754=CARTESIAN_POINT('',(54.3500000000489,12.4999997663504,3.));
#1755=CARTESIAN_POINT('Origin',(57.2000000000489,12.4999997663504,3.));
#1756=CARTESIAN_POINT('',(-2.85,2.79396774256065E-7,3.));
#1757=CARTESIAN_POINT('Origin',(0.,2.7939677460509E-7,3.));
#1758=CARTESIAN_POINT('',(-60.0499999999511,-12.4999996525732,3.));
#1759=CARTESIAN_POINT('Origin',(-57.1999999999511,-12.4999996525732,3.));
#1760=CARTESIAN_POINT('',(-87.8499981001019,-3.49024337756996E-16,3.));
#1761=CARTESIAN_POINT('Origin',(-84.9999981001019,0.,3.));
#1762=CARTESIAN_POINT('',(18.0000000000489,-12.5000000000122,3.));
#1763=CARTESIAN_POINT('Origin',(14.3000000000489,-12.5000000000122,3.));
#1764=CARTESIAN_POINT('',(-39.1999999999511,-12.5000000000122,3.));
#1765=CARTESIAN_POINT('Origin',(-42.8999999999511,-12.5000000000122,3.));
#1766=CARTESIAN_POINT('',(-67.7999999999511,-12.5000000000122,3.));
#1767=CARTESIAN_POINT('Origin',(-71.4999999999511,-12.5000000000122,3.));
#1768=CARTESIAN_POINT('',(46.6000000000489,-12.5000000000122,3.));
#1769=CARTESIAN_POINT('Origin',(42.9000000000489,-12.5000000000122,3.));
#1770=CARTESIAN_POINT('',(68.1999984018505,-12.4999997206032,3.));
#1771=CARTESIAN_POINT('Origin',(71.4999984018505,-12.4999997206032,3.));
#1772=CARTESIAN_POINT('',(-17.5999996803701,-12.4999997206032,3.));
#1773=CARTESIAN_POINT('Origin',(-14.2999996803701,-12.4999997206032,3.));
#1774=CARTESIAN_POINT('',(-74.7999984018505,12.4999997206032,3.));
#1775=CARTESIAN_POINT('Origin',(-71.4999984018505,12.4999997206032,3.));
#1776=CARTESIAN_POINT('',(10.9999996803701,12.4999997206032,3.));
#1777=CARTESIAN_POINT('Origin',(14.2999996803701,12.4999997206032,3.));
#1778=CARTESIAN_POINT('',(68.1999984018505,12.4999997206032,3.));
#1779=CARTESIAN_POINT('Origin',(71.4999984018505,12.4999997206032,3.));
#1780=CARTESIAN_POINT('',(-17.5999996803701,12.4999997206032,3.));
#1781=CARTESIAN_POINT('Origin',(-14.2999996803701,12.4999997206032,3.));
#1782=CARTESIAN_POINT('',(-46.1999990411103,12.4999997206032,3.));
#1783=CARTESIAN_POINT('Origin',(-42.8999990411103,12.4999997206032,3.));
#1784=CARTESIAN_POINT('',(39.5999990411103,12.4999997206032,3.));
#1785=CARTESIAN_POINT('Origin',(42.8999990411103,12.4999997206032,3.));
#1786=CARTESIAN_POINT('',(88.8000013560057,-16.0000002384186,3.));
#1787=CARTESIAN_POINT('Origin',(91.0000013560057,-16.0000002384186,3.));
#1788=CARTESIAN_POINT('',(-93.2000013560057,-16.0000002384186,3.));
#1789=CARTESIAN_POINT('Origin',(-91.0000013560057,-16.0000002384186,3.));
#1790=CARTESIAN_POINT('',(-2.2,18.0000002682209,3.));
#1791=CARTESIAN_POINT('Origin',(0.,18.0000002682209,3.));
#1792=CARTESIAN_POINT('',(88.8000013560057,16.0000002384186,3.));
#1793=CARTESIAN_POINT('Origin',(91.0000013560057,16.0000002384186,3.));
#1794=CARTESIAN_POINT('',(-93.1999979659915,15.9999996423721,3.));
#1795=CARTESIAN_POINT('Origin',(-90.9999979659915,15.9999996423721,3.));
#1796=CARTESIAN_POINT('',(-2.2,-17.0000002533197,3.));
#1797=CARTESIAN_POINT('Origin',(0.,-17.0000002533197,3.));
#1798=CARTESIAN_POINT('',(-60.0499999999511,12.4999996525792,3.));
#1799=CARTESIAN_POINT('Origin',(-57.1999999999511,12.4999996525792,3.));
#1800=CARTESIAN_POINT('',(-31.4499999999511,12.5000002489371,3.));
#1801=CARTESIAN_POINT('Origin',(-28.5999999999511,12.5000002489371,3.));
#1802=CARTESIAN_POINT('',(25.7500000000489,12.5000002489371,3.));
#1803=CARTESIAN_POINT('Origin',(28.6000000000489,12.5000002489371,3.));
#1804=CARTESIAN_POINT('',(82.149998100102,-3.49024337756996E-16,3.));
#1805=CARTESIAN_POINT('Origin',(84.9999981001019,0.,3.));
#1806=CARTESIAN_POINT('Origin',(57.2000000000489,-12.4999997663544,3.));
#1807=CARTESIAN_POINT('',(55.1500000000489,-12.4999997663544,-6.));
#1808=CARTESIAN_POINT('Origin',(57.2000000000489,-12.4999997663544,-6.));
#1809=CARTESIAN_POINT('',(55.1500000000489,-12.4999997663544,3.));
#1810=CARTESIAN_POINT('Origin',(84.9999981001019,0.,2.6));
#1811=CARTESIAN_POINT('',(82.949998100102,2.51052593825208E-16,2.2));
#1812=CARTESIAN_POINT('',(82.5499981001019,-3.00038465791102E-16,2.6));
#1813=CARTESIAN_POINT('Origin',(84.9999981001019,0.,2.2));
#1814=CARTESIAN_POINT('Origin',(84.9999981001019,0.,3.));
#1815=CARTESIAN_POINT('',(82.949998100102,-2.51052593825208E-16,-6.));
#1816=CARTESIAN_POINT('Origin',(84.9999981001019,0.,-6.));
#1817=CARTESIAN_POINT('',(82.949998100102,2.51052593825208E-16,3.));
#1818=CARTESIAN_POINT('Origin',(57.2000000000489,12.4999997663504,2.6));
#1819=CARTESIAN_POINT('',(55.1500000000489,12.4999997663504,2.2));
#1820=CARTESIAN_POINT('',(54.7500000000489,12.4999997663504,2.6));
#1821=CARTESIAN_POINT('Origin',(57.2000000000489,12.4999997663504,2.2));
#1822=CARTESIAN_POINT('Origin',(57.2000000000489,12.4999997663504,3.));
#1823=CARTESIAN_POINT('',(55.1500000000489,12.4999997663504,-6.));
#1824=CARTESIAN_POINT('Origin',(57.2000000000489,12.4999997663504,-6.));
#1825=CARTESIAN_POINT('',(55.1500000000489,12.4999997663504,3.));
#1826=CARTESIAN_POINT('Origin',(28.6000000000489,12.5000002489371,2.6));
#1827=CARTESIAN_POINT('',(26.5500000000489,12.5000002489371,2.2));
#1828=CARTESIAN_POINT('',(26.1500000000489,12.5000002489371,2.6));
#1829=CARTESIAN_POINT('Origin',(28.6000000000489,12.5000002489371,2.2));
#1830=CARTESIAN_POINT('Origin',(28.6000000000489,12.5000002489371,3.));
#1831=CARTESIAN_POINT('',(26.5500000000489,12.5000002489371,-6.));
#1832=CARTESIAN_POINT('Origin',(28.6000000000489,12.5000002489371,-6.));
#1833=CARTESIAN_POINT('',(26.5500000000489,12.5000002489371,3.));
#1834=CARTESIAN_POINT('Origin',(0.,2.7939677460509E-7,2.6));
#1835=CARTESIAN_POINT('',(-2.05,2.79396774856142E-7,2.2));
#1836=CARTESIAN_POINT('',(-2.45,2.79396774305051E-7,2.6));
#1837=CARTESIAN_POINT('Origin',(0.,2.7939677460509E-7,2.2));
#1838=CARTESIAN_POINT('Origin',(0.,2.7939677460509E-7,3.));
#1839=CARTESIAN_POINT('',(-2.05,2.79396774354037E-7,-6.));
#1840=CARTESIAN_POINT('Origin',(0.,2.7939677460509E-7,-6.));
#1841=CARTESIAN_POINT('',(-2.05,2.79396774856142E-7,3.));
#1842=CARTESIAN_POINT('Origin',(-28.5999999999511,12.5000002489371,2.6));
#1843=CARTESIAN_POINT('',(-30.6499999999511,12.5000002489371,2.2));
#1844=CARTESIAN_POINT('',(-31.0499999999511,12.5000002489371,2.6));
#1845=CARTESIAN_POINT('Origin',(-28.5999999999511,12.5000002489371,2.2));
#1846=CARTESIAN_POINT('Origin',(-28.5999999999511,12.5000002489371,3.));
#1847=CARTESIAN_POINT('',(-30.6499999999511,12.5000002489371,-6.));
#1848=CARTESIAN_POINT('Origin',(-28.5999999999511,12.5000002489371,-6.));
#1849=CARTESIAN_POINT('',(-30.6499999999511,12.5000002489371,3.));
#1850=CARTESIAN_POINT('Origin',(-57.1999999999511,-12.4999996525732,2.6));
#1851=CARTESIAN_POINT('',(-59.2499999999511,-12.4999996525732,2.2));
#1852=CARTESIAN_POINT('',(-59.6499999999511,-12.4999996525732,2.6));
#1853=CARTESIAN_POINT('Origin',(-57.1999999999511,-12.4999996525732,2.2));
#1854=CARTESIAN_POINT('Origin',(-57.1999999999511,-12.4999996525732,3.));
#1855=CARTESIAN_POINT('',(-59.2499999999511,-12.4999996525732,-6.));
#1856=CARTESIAN_POINT('Origin',(-57.1999999999511,-12.4999996525732,-6.));
#1857=CARTESIAN_POINT('',(-59.2499999999511,-12.4999996525732,3.));
#1858=CARTESIAN_POINT('Origin',(-57.1999999999511,12.4999996525792,2.6));
#1859=CARTESIAN_POINT('',(-59.2499999999511,12.4999996525792,2.2));
#1860=CARTESIAN_POINT('',(-59.6499999999511,12.4999996525792,2.6));
#1861=CARTESIAN_POINT('Origin',(-57.1999999999511,12.4999996525792,2.2));
#1862=CARTESIAN_POINT('Origin',(-57.1999999999511,12.4999996525792,3.));
#1863=CARTESIAN_POINT('',(-59.2499999999511,12.4999996525792,-6.));
#1864=CARTESIAN_POINT('Origin',(-57.1999999999511,12.4999996525792,-6.));
#1865=CARTESIAN_POINT('',(-59.2499999999511,12.4999996525792,3.));
#1866=CARTESIAN_POINT('Origin',(-84.9999981001019,0.,2.6));
#1867=CARTESIAN_POINT('',(-87.0499981001019,2.51052593825208E-16,2.2));
#1868=CARTESIAN_POINT('',(-87.449998100102,-3.00038465791102E-16,2.6));
#1869=CARTESIAN_POINT('Origin',(-84.9999981001019,0.,2.2));
#1870=CARTESIAN_POINT('Origin',(-84.9999981001019,0.,3.));
#1871=CARTESIAN_POINT('',(-87.0499981001019,-2.51052593825208E-16,-6.));
#1872=CARTESIAN_POINT('Origin',(-84.9999981001019,0.,-6.));
#1873=CARTESIAN_POINT('',(-87.0499981001019,2.51052593825208E-16,3.));
#1874=CARTESIAN_POINT('Origin',(0.,-17.0000002533197,3.));
#1875=CARTESIAN_POINT('',(-2.2,-17.0000002533197,0.));
#1876=CARTESIAN_POINT('',(-2.2,-17.0000002533197,3.));
#1877=CARTESIAN_POINT('Origin',(0.,-17.0000002533197,0.));
#1878=CARTESIAN_POINT('Origin',(-90.9999979659915,15.9999996423721,3.));
#1879=CARTESIAN_POINT('',(-93.1999979659915,15.9999996423721,0.));
#1880=CARTESIAN_POINT('',(-93.1999979659915,15.9999996423721,3.));
#1881=CARTESIAN_POINT('Origin',(-90.9999979659915,15.9999996423721,0.));
#1882=CARTESIAN_POINT('Origin',(91.0000013560057,16.0000002384186,3.));
#1883=CARTESIAN_POINT('',(88.8000013560057,16.0000002384186,0.));
#1884=CARTESIAN_POINT('',(88.8000013560057,16.0000002384186,3.));
#1885=CARTESIAN_POINT('Origin',(91.0000013560057,16.0000002384186,0.));
#1886=CARTESIAN_POINT('Origin',(0.,18.0000002682209,3.));
#1887=CARTESIAN_POINT('',(-2.2,18.0000002682209,0.));
#1888=CARTESIAN_POINT('',(-2.2,18.0000002682209,3.));
#1889=CARTESIAN_POINT('Origin',(0.,18.0000002682209,0.));
#1890=CARTESIAN_POINT('Origin',(-91.0000013560057,-16.0000002384186,3.));
#1891=CARTESIAN_POINT('',(-93.2000013560057,-16.0000002384186,0.));
#1892=CARTESIAN_POINT('',(-93.2000013560057,-16.0000002384186,3.));
#1893=CARTESIAN_POINT('Origin',(-91.0000013560057,-16.0000002384186,0.));
#1894=CARTESIAN_POINT('Origin',(91.0000013560057,-16.0000002384186,3.));
#1895=CARTESIAN_POINT('',(88.8000013560057,-16.0000002384186,0.));
#1896=CARTESIAN_POINT('',(88.8000013560057,-16.0000002384186,3.));
#1897=CARTESIAN_POINT('Origin',(91.0000013560057,-16.0000002384186,0.));
#1898=CARTESIAN_POINT('Origin',(57.2000000000489,-12.4999997663544,3.));
#1899=CARTESIAN_POINT('',(52.7000000000489,-12.4999997663544,-6.));
#1900=CARTESIAN_POINT('Origin',(57.2000000000489,-12.4999997663544,-6.));
#1901=CARTESIAN_POINT('',(52.7000000000489,-12.4999997663544,0.));
#1902=CARTESIAN_POINT('',(52.7000000000489,-12.4999997663544,3.));
#1903=CARTESIAN_POINT('Origin',(57.2000000000489,-12.4999997663544,0.));
#1904=CARTESIAN_POINT('Origin',(57.2000000000489,-12.4999997663544,-6.));
#1905=CARTESIAN_POINT('Origin',(28.6000000000489,12.5000002489371,3.));
#1906=CARTESIAN_POINT('',(24.1000000000489,12.5000002489371,-6.));
#1907=CARTESIAN_POINT('Origin',(28.6000000000489,12.5000002489371,-6.));
#1908=CARTESIAN_POINT('',(24.1000000000489,12.5000002489371,0.));
#1909=CARTESIAN_POINT('',(24.1000000000489,12.5000002489371,3.));
#1910=CARTESIAN_POINT('Origin',(28.6000000000489,12.5000002489371,0.));
#1911=CARTESIAN_POINT('Origin',(28.6000000000489,12.5000002489371,-6.));
#1912=CARTESIAN_POINT('Origin',(-57.1999999999511,12.4999996525792,3.));
#1913=CARTESIAN_POINT('',(-61.6999999999511,12.4999996525792,-6.));
#1914=CARTESIAN_POINT('Origin',(-57.1999999999511,12.4999996525792,-6.));
#1915=CARTESIAN_POINT('',(-61.6999999999511,12.4999996525792,0.));
#1916=CARTESIAN_POINT('',(-61.6999999999511,12.4999996525792,3.));
#1917=CARTESIAN_POINT('Origin',(-57.1999999999511,12.4999996525792,0.));
#1918=CARTESIAN_POINT('Origin',(-57.1999999999511,12.4999996525792,-6.));
#1919=CARTESIAN_POINT('Origin',(-57.1999999999511,-12.4999996525732,3.));
#1920=CARTESIAN_POINT('',(-61.6999999999511,-12.4999996525732,-6.));
#1921=CARTESIAN_POINT('Origin',(-57.1999999999511,-12.4999996525732,-6.));
#1922=CARTESIAN_POINT('',(-61.6999999999511,-12.4999996525732,0.));
#1923=CARTESIAN_POINT('',(-61.6999999999511,-12.4999996525732,3.));
#1924=CARTESIAN_POINT('Origin',(-57.1999999999511,-12.4999996525732,0.));
#1925=CARTESIAN_POINT('Origin',(-57.1999999999511,-12.4999996525732,-6.));
#1926=CARTESIAN_POINT('Origin',(84.9999981001019,0.,3.));
#1927=CARTESIAN_POINT('',(80.4999981001019,-5.51091059616308E-16,-6.));
#1928=CARTESIAN_POINT('Origin',(84.9999981001019,0.,-6.));
#1929=CARTESIAN_POINT('',(80.4999981001019,-5.51091059616308E-16,0.));
#1930=CARTESIAN_POINT('',(80.4999981001019,5.51091059616308E-16,3.));
#1931=CARTESIAN_POINT('Origin',(84.9999981001019,0.,0.));
#1932=CARTESIAN_POINT('Origin',(84.9999981001019,0.,-6.));
#1933=CARTESIAN_POINT('Origin',(0.,2.7939677460509E-7,3.));
#1934=CARTESIAN_POINT('',(-4.5,2.79396774053999E-7,-6.));
#1935=CARTESIAN_POINT('Origin',(0.,2.7939677460509E-7,-6.));
#1936=CARTESIAN_POINT('',(-4.5,2.79396774053999E-7,0.));
#1937=CARTESIAN_POINT('',(-4.5,2.79396775156181E-7,3.));
#1938=CARTESIAN_POINT('Origin',(0.,2.7939677460509E-7,0.));
#1939=CARTESIAN_POINT('Origin',(0.,2.7939677460509E-7,-6.));
#1940=CARTESIAN_POINT('Origin',(-84.9999981001019,0.,3.));
#1941=CARTESIAN_POINT('',(-89.499998100102,-5.5109105961631E-16,-6.));
#1942=CARTESIAN_POINT('Origin',(-84.9999981001019,0.,-6.));
#1943=CARTESIAN_POINT('',(-89.499998100102,-5.5109105961631E-16,0.));
#1944=CARTESIAN_POINT('',(-89.499998100102,5.5109105961631E-16,3.));
#1945=CARTESIAN_POINT('Origin',(-84.9999981001019,0.,0.));
#1946=CARTESIAN_POINT('Origin',(-84.9999981001019,0.,-6.));
#1947=CARTESIAN_POINT('Origin',(-28.5999999999511,12.5000002489371,3.));
#1948=CARTESIAN_POINT('',(-33.0999999999511,12.5000002489371,-6.));
#1949=CARTESIAN_POINT('Origin',(-28.5999999999511,12.5000002489371,-6.));
#1950=CARTESIAN_POINT('',(-33.0999999999511,12.5000002489371,0.));
#1951=CARTESIAN_POINT('',(-33.0999999999511,12.5000002489371,3.));
#1952=CARTESIAN_POINT('Origin',(-28.5999999999511,12.5000002489371,0.));
#1953=CARTESIAN_POINT('Origin',(-28.5999999999511,12.5000002489371,-6.));
#1954=CARTESIAN_POINT('Origin',(57.2000000000489,12.4999997663504,3.));
#1955=CARTESIAN_POINT('',(52.7000000000489,12.4999997663504,-6.));
#1956=CARTESIAN_POINT('Origin',(57.2000000000489,12.4999997663504,-6.));
#1957=CARTESIAN_POINT('',(52.7000000000489,12.4999997663504,0.));
#1958=CARTESIAN_POINT('',(52.7000000000489,12.4999997663504,3.));
#1959=CARTESIAN_POINT('Origin',(57.2000000000489,12.4999997663504,0.));
#1960=CARTESIAN_POINT('Origin',(57.2000000000489,12.4999997663504,-6.));
#1961=CARTESIAN_POINT('Origin',(42.8999990411103,12.4999997206032,3.));
#1962=CARTESIAN_POINT('',(39.5999990411103,12.4999997206032,0.));
#1963=CARTESIAN_POINT('',(39.5999990411103,12.4999997206032,3.));
#1964=CARTESIAN_POINT('Origin',(42.8999990411103,12.4999997206032,0.));
#1965=CARTESIAN_POINT('Origin',(-42.8999990411103,12.4999997206032,3.));
#1966=CARTESIAN_POINT('',(-46.1999990411103,12.4999997206032,0.));
#1967=CARTESIAN_POINT('',(-46.1999990411103,12.4999997206032,3.));
#1968=CARTESIAN_POINT('Origin',(-42.8999990411103,12.4999997206032,0.));
#1969=CARTESIAN_POINT('Origin',(-14.2999996803701,12.4999997206032,3.));
#1970=CARTESIAN_POINT('',(-17.5999996803701,12.4999997206032,0.));
#1971=CARTESIAN_POINT('',(-17.5999996803701,12.4999997206032,3.));
#1972=CARTESIAN_POINT('Origin',(-14.2999996803701,12.4999997206032,0.));
#1973=CARTESIAN_POINT('Origin',(71.4999984018505,12.4999997206032,3.));
#1974=CARTESIAN_POINT('',(68.1999984018505,12.4999997206032,0.));
#1975=CARTESIAN_POINT('',(68.1999984018505,12.4999997206032,3.));
#1976=CARTESIAN_POINT('Origin',(71.4999984018505,12.4999997206032,0.));
#1977=CARTESIAN_POINT('Origin',(14.2999996803701,12.4999997206032,3.));
#1978=CARTESIAN_POINT('',(10.9999996803701,12.4999997206032,0.));
#1979=CARTESIAN_POINT('',(10.9999996803701,12.4999997206032,3.));
#1980=CARTESIAN_POINT('Origin',(14.2999996803701,12.4999997206032,0.));
#1981=CARTESIAN_POINT('Origin',(-71.4999984018505,12.4999997206032,3.));
#1982=CARTESIAN_POINT('',(-74.7999984018505,12.4999997206032,0.));
#1983=CARTESIAN_POINT('',(-74.7999984018505,12.4999997206032,3.));
#1984=CARTESIAN_POINT('Origin',(-71.4999984018505,12.4999997206032,0.));
#1985=CARTESIAN_POINT('Origin',(-14.2999996803701,-12.4999997206032,3.));
#1986=CARTESIAN_POINT('',(-17.5999996803701,-12.4999997206032,0.));
#1987=CARTESIAN_POINT('',(-17.5999996803701,-12.4999997206032,3.));
#1988=CARTESIAN_POINT('Origin',(-14.2999996803701,-12.4999997206032,0.));
#1989=CARTESIAN_POINT('Origin',(71.4999984018505,-12.4999997206032,3.));
#1990=CARTESIAN_POINT('',(68.1999984018505,-12.4999997206032,0.));
#1991=CARTESIAN_POINT('',(68.1999984018505,-12.4999997206032,3.));
#1992=CARTESIAN_POINT('Origin',(71.4999984018505,-12.4999997206032,0.));
#1993=CARTESIAN_POINT('Origin',(42.9000000000489,-12.5000000000122,1.5));
#1994=CARTESIAN_POINT('',(46.6000000000489,-12.5000000000122,0.));
#1995=CARTESIAN_POINT('Origin',(42.9000000000489,-12.5000000000122,0.));
#1996=CARTESIAN_POINT('',(46.6000000000489,-12.5000000000122,1.5));
#1997=CARTESIAN_POINT('Origin',(14.3000000000489,-12.5000000000122,1.5));
#1998=CARTESIAN_POINT('',(18.0000000000489,-12.5000000000122,0.));
#1999=CARTESIAN_POINT('Origin',(14.3000000000489,-12.5000000000122,0.));
#2000=CARTESIAN_POINT('',(18.0000000000489,-12.5000000000122,1.5));
#2001=CARTESIAN_POINT('Origin',(-42.8999999999511,-12.5000000000122,1.5));
#2002=CARTESIAN_POINT('',(-39.1999999999511,-12.5000000000122,0.));
#2003=CARTESIAN_POINT('Origin',(-42.8999999999511,-12.5000000000122,0.));
#2004=CARTESIAN_POINT('',(-39.1999999999511,-12.5000000000122,1.5));
#2005=CARTESIAN_POINT('Origin',(-71.4999999999511,-12.5000000000122,1.5));
#2006=CARTESIAN_POINT('',(-67.7999999999511,-12.5000000000122,0.));
#2007=CARTESIAN_POINT('Origin',(-71.4999999999511,-12.5000000000122,0.));
#2008=CARTESIAN_POINT('',(-67.7999999999511,-12.5000000000122,1.5));
#2009=CARTESIAN_POINT('Origin',(-99.9999999999511,23.9999999999878,0.));
#2010=CARTESIAN_POINT('',(-99.9999999999511,23.9999999999878,0.));
#2011=CARTESIAN_POINT('',(-99.9999999999511,-24.0000000000122,0.));
#2012=CARTESIAN_POINT('',(-99.9999999999511,23.9999999999878,0.));
#2013=CARTESIAN_POINT('',(-99.9999999999511,-24.0000000000122,0.));
#2014=CARTESIAN_POINT('',(-99.9999999999511,23.9999999999878,0.));
#2015=CARTESIAN_POINT('Origin',(-98.9999999999512,23.9999999999878,0.));
#2016=CARTESIAN_POINT('',(-98.9999999999511,24.9999999999878,0.));
#2017=CARTESIAN_POINT('Origin',(-98.9999999999512,23.9999999999878,0.));
#2018=CARTESIAN_POINT('',(-98.9999999999511,24.9999999999878,0.));
#2019=CARTESIAN_POINT('Origin',(99.0000000000489,24.9999999999878,0.));
#2020=CARTESIAN_POINT('',(99.0000000000489,24.9999999999878,0.));
#2021=CARTESIAN_POINT('',(99.0000000000489,24.9999999999878,0.));
#2022=CARTESIAN_POINT('',(99.0000000000489,24.9999999999878,0.));
#2023=CARTESIAN_POINT('Origin',(99.0000000000489,23.9999999999878,0.));
#2024=CARTESIAN_POINT('',(100.000000000049,23.9999999999878,0.));
#2025=CARTESIAN_POINT('Origin',(99.0000000000489,23.9999999999878,0.));
#2026=CARTESIAN_POINT('',(100.000000000049,23.9999999999878,0.));
#2027=CARTESIAN_POINT('Origin',(100.000000000049,-24.0000000000123,0.));
#2028=CARTESIAN_POINT('',(100.000000000049,-24.0000000000123,0.));
#2029=CARTESIAN_POINT('',(100.000000000049,-24.0000000000123,0.));
#2030=CARTESIAN_POINT('',(100.000000000049,-24.0000000000123,0.));
#2031=CARTESIAN_POINT('Origin',(99.0000000000489,-24.0000000000123,0.));
#2032=CARTESIAN_POINT('',(99.0000000000489,-25.0000000000122,0.));
#2033=CARTESIAN_POINT('Origin',(99.0000000000489,-24.0000000000123,0.));
#2034=CARTESIAN_POINT('',(99.0000000000489,-25.0000000000122,0.));
#2035=CARTESIAN_POINT('Origin',(-98.9999999999511,-25.0000000000122,0.));
#2036=CARTESIAN_POINT('',(-98.9999999999511,-24.9999999999959,0.));
#2037=CARTESIAN_POINT('',(-98.9999999999511,-25.0000000000122,0.));
#2038=CARTESIAN_POINT('',(-98.9999999999511,-24.9999999999959,0.));
#2039=CARTESIAN_POINT('Origin',(-98.9999999999511,-23.9999999999959,0.));
#2040=CARTESIAN_POINT('Origin',(-98.9999999999511,-23.9999999999959,0.));
#2041=CARTESIAN_POINT('Origin',(4.88853402202949E-11,-1.22257759471722E-11,
0.));
#2042=UNCERTAINTY_MEASURE_WITH_UNIT(LENGTH_MEASURE(0.01),#2046,
'DISTANCE_ACCURACY_VALUE',
'Maximum model space distance between geometric entities at asserted c
onnectivities');
#2043=UNCERTAINTY_MEASURE_WITH_UNIT(LENGTH_MEASURE(0.01),#2046,
'DISTANCE_ACCURACY_VALUE',
'Maximum model space distance between geometric entities at asserted c
onnectivities');
#2044=(
GEOMETRIC_REPRESENTATION_CONTEXT(3)
GLOBAL_UNCERTAINTY_ASSIGNED_CONTEXT((#2042))
GLOBAL_UNIT_ASSIGNED_CONTEXT((#2046,#2048,#2049))
REPRESENTATION_CONTEXT('','3D')
);
#2045=(
GEOMETRIC_REPRESENTATION_CONTEXT(3)
GLOBAL_UNCERTAINTY_ASSIGNED_CONTEXT((#2043))
GLOBAL_UNIT_ASSIGNED_CONTEXT((#2046,#2048,#2049))
REPRESENTATION_CONTEXT('','3D')
);
#2046=(
LENGTH_UNIT()
NAMED_UNIT(*)
SI_UNIT(.MILLI.,.METRE.)
);
#2047=(
LENGTH_UNIT()
NAMED_UNIT(*)
SI_UNIT($,.METRE.)
);
#2048=(
NAMED_UNIT(*)
PLANE_ANGLE_UNIT()
SI_UNIT($,.RADIAN.)
);
#2049=(
NAMED_UNIT(*)
SI_UNIT($,.STERADIAN.)
SOLID_ANGLE_UNIT()
);
#2050=SHAPE_DEFINITION_REPRESENTATION(#2051,#2052);
#2051=PRODUCT_DEFINITION_SHAPE('',$,#2054);
#2052=SHAPE_REPRESENTATION('',(#1191),#2044);
#2053=PRODUCT_DEFINITION_CONTEXT('part definition',#2058,'design');
#2054=PRODUCT_DEFINITION('2026-05-30-19-32-49-165',
'nobs_autopilot_mounting_plate',#2055,#2053);
#2055=PRODUCT_DEFINITION_FORMATION('',$,#2060);
#2056=PRODUCT_RELATED_PRODUCT_CATEGORY('nobs_autopilot_mounting_plate',
'nobs_autopilot_mounting_plate',(#2060));
#2057=APPLICATION_PROTOCOL_DEFINITION('international standard',
'automotive_design',2009,#2058);
#2058=APPLICATION_CONTEXT(
'Core Data for Automotive Mechanical Design Process');
#2059=PRODUCT_CONTEXT('part definition',#2058,'mechanical');
#2060=PRODUCT('2026-05-30-19-32-49-165','nobs_autopilot_mounting_plate',
$,(#2059));
#2061=PRESENTATION_STYLE_ASSIGNMENT((#2063));
#2062=PRESENTATION_STYLE_ASSIGNMENT((#2064));
#2063=SURFACE_STYLE_USAGE(.BOTH.,#2065);
#2064=SURFACE_STYLE_USAGE(.BOTH.,#2066);
#2065=SURFACE_SIDE_STYLE('',(#2067));
#2066=SURFACE_SIDE_STYLE('',(#2068));
#2067=SURFACE_STYLE_FILL_AREA(#2069);
#2068=SURFACE_STYLE_FILL_AREA(#2070);
#2069=FILL_AREA_STYLE('Steel - Satin',(#2071));
#2070=FILL_AREA_STYLE('Aluminum - Anodized Rough (Grey)',(#2072));
#2071=FILL_AREA_STYLE_COLOUR('Steel - Satin',#2073);
#2072=FILL_AREA_STYLE_COLOUR('Aluminum - Anodized Rough (Grey)',#2074);
#2073=COLOUR_RGB('Steel - Satin',0.627450980392157,0.627450980392157,0.627450980392157);
#2074=COLOUR_RGB('Aluminum - Anodized Rough (Grey)',0.537254901960784,0.537254901960784,
0.537254901960784);
ENDSEC;
END-ISO-10303-21;
